<svg width="250" height="251" viewBox="0 0 250 251" fill="none" xmlns="http://www.w3.org/2000/svg">
<path d="M28.5602 149.5C28.5602 149.5 32.1002 180.365 58.3302 193.55C84.5602 206.735 110.25 193.91 133.83 190.82C146.18 189.2 157.635 195.275 169.75 196.545C208.475 200.61 238.87 154.975 233.415 121.405C228.695 92.34 210.125 71.83 176.285 57.19C142.445 42.55 119.17 30.91 79.8652 44.69C40.5602 58.47 25.7602 109.54 28.5602 149.5Z" fill="#3B485B"/>
<path opacity="0.8" d="M28.5602 149.5C28.5602 149.5 32.1002 180.365 58.3302 193.55C84.5602 206.735 110.25 193.91 133.83 190.82C146.18 189.2 157.635 195.275 169.75 196.545C208.475 200.61 238.87 154.975 233.415 121.405C228.695 92.34 210.125 71.83 176.285 57.19C142.445 42.55 119.17 30.91 79.8652 44.69C40.5602 58.47 25.7602 109.54 28.5602 149.5Z" fill="white"/>
<path d="M135.485 110.699C147.657 109.482 156.538 98.6278 155.321 86.4555C154.103 74.2831 143.249 65.4023 131.077 66.6195C118.904 67.8367 110.023 78.6911 111.241 90.8635C112.458 103.036 123.312 111.917 135.485 110.699Z" stroke="#263238" stroke-width="0.591679" stroke-linecap="round" stroke-linejoin="round"/>
<path d="M135.356 106.557C145.316 104.956 152.092 95.5849 150.492 85.6253C148.891 75.6656 139.52 68.8892 129.56 70.4899C119.6 72.0905 112.824 81.462 114.425 91.4217C116.025 101.381 125.397 108.158 135.356 106.557Z" stroke="#263238" stroke-width="0.588743" stroke-linecap="round" stroke-linejoin="round"/>
<path d="M120.805 88.525H132.455V105.335" stroke="#263238" stroke-width="0.588743" stroke-linecap="round" stroke-linejoin="round"/>
<path d="M49.3252 76.8051C49.3252 76.8051 49.3252 73.8501 45.1852 69.7101C41.0452 65.5701 38.3901 63.2101 38.3901 63.2101C38.3901 63.2101 36.3201 70.0051 40.1601 74.1451C42.9861 77.0633 46.0518 79.7394 49.3252 82.1451V76.8051Z" fill="#3B485B"/>
<path d="M43.3203 95.265C43.3203 95.265 43.3203 92.31 39.1803 88.17C35.0403 84.03 32.3853 81.67 32.3853 81.67C32.3853 81.67 30.3153 88.465 34.1553 92.605C36.9827 95.5217 40.0483 98.1976 43.3203 100.605V95.265Z" fill="#3B485B"/>
<path d="M49.065 81.8401C49.065 81.8401 49.375 78.9001 53.93 75.2201C58.485 71.5401 61.375 69.4751 61.375 69.4751C61.375 69.4751 62.715 76.4751 58.455 80.1601C55.3376 82.7579 52.0075 85.0895 48.5 87.1301L49.065 81.8401Z" fill="#3B485B"/>
<path d="M41.81 103.64C41.81 103.64 42.43 100.75 47.34 97.5701C52.25 94.3901 55.34 92.6351 55.34 92.6351C55.34 92.6351 55.94 99.7151 51.34 102.96C47.9669 105.213 44.4111 107.18 40.71 108.84L41.81 103.64Z" fill="#3B485B"/>
<path d="M43.1748 127.405C43.1748 127.405 43.1748 124.45 47.3098 120.315C51.4448 116.18 54.1098 113.815 54.1098 113.815C54.1098 113.815 56.1798 120.615 52.3348 124.75C49.5113 127.669 46.4472 130.345 43.1748 132.75V127.405Z" fill="#3B485B"/>
<path d="M43.1052 133.21C43.1052 133.21 43.5252 130.285 40.0152 125.6C36.5052 120.915 34.2102 118.195 34.2102 118.195C34.2102 118.195 31.2102 124.63 34.4152 129.275C36.7991 132.558 39.4534 135.635 42.3502 138.475L43.1052 133.21Z" fill="#3B485B"/>
<path d="M39.0249 150.4C39.0249 150.4 39.0249 147.445 43.1599 143.31C47.2949 139.175 49.9599 136.81 49.9599 136.81C49.9599 136.81 52.0299 143.61 48.1849 147.745C45.3614 150.664 42.2973 153.34 39.0249 155.745V150.4Z" fill="#3B485B"/>
<path d="M41.7852 165.99C41.7852 165.99 41.0402 163.13 44.0002 158.07C46.9602 153.01 48.9302 150.07 48.9302 150.07C48.9302 150.07 52.6502 156.125 49.9852 161.1C47.9875 164.632 45.6978 167.99 43.1402 171.14L41.7852 165.99Z" fill="#3B485B"/>
<path d="M49.6997 76.0701C49.4893 79.1468 49.1104 82.2098 48.5647 85.2451C46.9297 93.6951 42.8397 99.1501 41.2047 106.78C39.5697 114.41 44.2647 124.25 43.0097 134.055C41.7547 143.86 37.9347 149.31 39.0097 155.855C40.0847 162.4 45.8247 180.115 45.8247 180.115" stroke="#263238" stroke-width="0.588743" stroke-linecap="round" stroke-linejoin="round"/>
<path d="M49.0249 83.805L53.4849 80.38" stroke="#263238" stroke-width="0.588743" stroke-linecap="round" stroke-linejoin="round"/>
<path d="M49.2302 79.865L47.3652 76.545" stroke="#263238" stroke-width="0.588743" stroke-linecap="round" stroke-linejoin="round"/>
<path d="M41.4551 106.41C41.4551 106.41 45.1851 103.61 49.0251 100.81" stroke="#263238" stroke-width="0.588743" stroke-linecap="round" stroke-linejoin="round"/>
<path d="M43.3201 100.57C43.3201 100.57 40.2101 94.47 36.6851 90.425" stroke="#263238" stroke-width="0.588743" stroke-linecap="round" stroke-linejoin="round"/>
<path d="M43.3203 131.61C45.4573 127.682 48.1519 124.085 51.3203 120.93" stroke="#263238" stroke-width="0.588743" stroke-linecap="round" stroke-linejoin="round"/>
<path d="M42.5948 135.76C41.4611 133.089 40.1081 130.517 38.5498 128.07C36.3698 124.855 36.0498 124.44 36.0498 124.44" stroke="#263238" stroke-width="0.588743" stroke-linecap="round" stroke-linejoin="round"/>
<path d="M39.0249 155.835C39.9694 153.486 41.0927 151.213 42.3849 149.035C43.6778 147.017 45.1344 145.109 46.7399 143.33" stroke="#263238" stroke-width="0.588743" stroke-linecap="round" stroke-linejoin="round"/>
<path d="M43.1351 171.135C43.1351 171.135 42.7001 167.595 44.2551 164.59C45.8101 161.585 47.5701 157.64 48.3001 156.09" stroke="#263238" stroke-width="0.588743" stroke-linecap="round" stroke-linejoin="round"/>
<path d="M22.2299 116.29C22.2299 116.29 21.9049 114.44 24.0549 111.395C26.2049 108.35 27.6099 106.57 27.6099 106.57C27.6099 106.57 29.6449 110.605 27.6849 113.62C26.2288 115.753 24.5964 117.76 22.8049 119.62L22.2299 116.29Z" fill="#3B485B"/>
<path d="M28 127.215C28 127.215 27.675 125.36 29.82 122.315C31.965 119.27 33.38 117.5 33.38 117.5C33.38 117.5 35.415 121.54 33.455 124.55C31.9995 126.683 30.3671 128.691 28.575 130.55L28 127.215Z" fill="#3B485B"/>
<path d="M22.9402 119.42C22.9402 119.42 22.4402 117.61 19.1702 115.8C15.9002 113.99 13.8752 113 13.8752 113C13.8752 113 13.7952 117.5 16.8752 119.39C19.1134 120.677 21.4548 121.776 23.8752 122.675L22.9402 119.42Z" fill="#3B485B"/>
<path d="M29.855 132.3C29.855 132.3 29.15 130.555 25.725 129.095C22.3 127.635 20.165 126.875 20.165 126.875C20.165 126.875 20.56 131.375 23.81 132.91C26.1703 133.957 28.6138 134.805 31.115 135.445L29.855 132.3Z" fill="#3B485B"/>
<path d="M31.58 147.355C31.58 147.355 31.26 145.5 28.215 143.355C25.17 141.21 23.245 140.015 23.245 140.015C23.245 140.015 22.685 144.515 25.545 146.68C27.6327 148.196 29.8438 149.534 32.155 150.68L31.58 147.355Z" fill="#3B485B"/>
<path d="M32.2499 150.985C32.2499 150.985 31.6699 149.195 33.3599 145.88C35.0499 142.565 36.1999 140.605 36.1999 140.605C36.1999 140.605 38.7849 144.315 37.2749 147.575C36.1288 149.893 34.7908 152.11 33.2749 154.205L32.2499 150.985Z" fill="#3B485B"/>
<path d="M37.4451 165.935C37.4451 165.935 37.6601 164.065 40.5751 161.75C43.4901 159.435 45.3451 158.135 45.3451 158.135C45.3451 158.135 46.1601 162.58 43.4301 164.92C41.4318 166.554 39.3012 168.019 37.0601 169.3L37.4451 165.935Z" fill="#3B485B"/>
<path d="M36.6752 161.325C36.6752 161.325 36.3552 159.47 33.3102 157.325C30.2652 155.18 28.3452 153.985 28.3452 153.985C28.3452 153.985 27.7852 158.485 30.6402 160.65C32.7293 162.166 34.9421 163.504 37.2552 164.65L36.6752 161.325Z" fill="#3B485B"/>
<path d="M36.6349 171.4C36.6349 171.4 36.7949 169.525 34.3949 166.68C31.9949 163.835 30.4349 162.18 30.4349 162.18C30.4349 162.18 28.7549 166.38 30.9699 169.21C32.6055 171.211 34.4051 173.073 36.3499 174.775L36.6349 171.4Z" fill="#3B485B"/>
<path d="M21.9102 115.855C22.3759 117.763 22.9468 119.645 23.6202 121.49C25.5602 126.61 28.7152 129.585 30.5702 134.195C32.4252 138.805 30.5702 145.48 32.4002 151.49C34.2302 157.5 37.2402 160.49 37.2652 164.73C37.2902 168.97 35.6252 180.685 35.6252 180.685" stroke="#263238" stroke-width="0.588743" stroke-linecap="round" stroke-linejoin="round"/>
<path d="M23.1748 120.645L20.0098 118.985" stroke="#263238" stroke-width="0.588743" stroke-linecap="round" stroke-linejoin="round"/>
<path d="M22.6201 118.2L23.4301 115.915" stroke="#263238" stroke-width="0.588743" stroke-linecap="round" stroke-linejoin="round"/>
<path d="M30.3799 134C30.3799 134 27.7349 132.65 25.0249 131.31" stroke="#263238" stroke-width="0.588743" stroke-linecap="round" stroke-linejoin="round"/>
<path d="M28.5752 130.57C29.3527 128.113 30.3779 125.74 31.6352 123.49" stroke="#263238" stroke-width="0.588743" stroke-linecap="round" stroke-linejoin="round"/>
<path d="M31.9449 150.005C30.1812 147.773 28.1029 145.81 25.7749 144.175" stroke="#263238" stroke-width="0.588743" stroke-linecap="round" stroke-linejoin="round"/>
<path d="M32.8496 152.53C33.2695 150.736 33.8381 148.98 34.5496 147.28C35.5496 145.025 35.7196 144.73 35.7196 144.73" stroke="#263238" stroke-width="0.588743" stroke-linecap="round" stroke-linejoin="round"/>
<path d="M37.125 167.93C37.125 167.93 39.22 165.36 40.53 164.395C41.3168 163.813 42.0558 163.17 42.74 162.47" stroke="#263238" stroke-width="0.588743" stroke-linecap="round" stroke-linejoin="round"/>
<path d="M37.2653 164.73C36.4171 163.36 35.466 162.056 34.4203 160.83C33.3903 159.705 32.2699 158.667 31.0703 157.725" stroke="#263238" stroke-width="0.588743" stroke-linecap="round" stroke-linejoin="round"/>
<path d="M36.35 174.775C36.2453 173.34 35.7584 171.959 34.94 170.775C33.635 169.055 32.1 166.775 31.48 165.88" stroke="#263238" stroke-width="0.588743" stroke-linecap="round" stroke-linejoin="round"/>
<path d="M50.1298 200.9H31.2848C30.9122 200.9 30.5548 200.752 30.2913 200.489C30.0278 200.225 29.8798 199.868 29.8798 199.495L27.1748 178.64H54.2398L51.5348 199.495C51.5348 199.868 51.3868 200.225 51.1233 200.489C50.8598 200.752 50.5024 200.9 50.1298 200.9Z" fill="#263238"/>
<path d="M54.0002 182.17H27.1752C26.6164 182.17 26.0801 181.95 25.6831 181.556C25.2861 181.163 25.0604 180.629 25.0552 180.07C25.0552 179.792 25.11 179.516 25.2166 179.26C25.3232 179.003 25.4795 178.769 25.6764 178.573C25.8733 178.376 26.1071 178.221 26.3643 178.115C26.6214 178.009 26.897 177.954 27.1752 177.955H54.0002C54.2783 177.954 54.5539 178.009 54.8111 178.115C55.0683 178.221 55.302 178.376 55.4989 178.573C55.6959 178.769 55.8521 179.003 55.9587 179.26C56.0653 179.516 56.1202 179.792 56.1202 180.07C56.1149 180.629 55.8892 181.163 55.4922 181.556C55.0952 181.95 54.559 182.17 54.0002 182.17Z" fill="#263238"/>
<path d="M191 183.57L199.3 196.94C199.54 197.328 199.673 197.773 199.684 198.229C199.695 198.685 199.584 199.136 199.362 199.535C199.14 199.933 198.816 200.265 198.422 200.497C198.029 200.728 197.581 200.85 197.125 200.85H180.175C180.63 200.849 181.076 200.727 181.468 200.496C181.86 200.265 182.183 199.934 182.404 199.537C182.626 199.14 182.738 198.691 182.728 198.236C182.718 197.781 182.588 197.338 182.35 196.95L174.32 183.87L191 183.57Z" fill="white" stroke="#263238" stroke-width="0.588743" stroke-linecap="round" stroke-linejoin="round"/>
<path d="M191.005 183.56L174.325 183.86L177.415 188.89H194.31L191.005 183.56Z" fill="#263238" stroke="#263238" stroke-width="0.588743" stroke-linecap="round" stroke-linejoin="round"/>
<path d="M146.59 186.54H214.57C215.374 186.54 216.025 185.889 216.025 185.085V128.125C216.025 127.321 215.374 126.67 214.57 126.67H146.59C145.787 126.67 145.135 127.321 145.135 128.125V185.085C145.135 185.889 145.787 186.54 146.59 186.54Z" fill="white" stroke="#263238" stroke-width="0.588743" stroke-linecap="round" stroke-linejoin="round"/>
<path d="M143.91 186.54H211.89C212.693 186.54 213.345 185.889 213.345 185.085V128.125C213.345 127.321 212.693 126.67 211.89 126.67H143.91C143.106 126.67 142.455 127.321 142.455 128.125V185.085C142.455 185.889 143.106 186.54 143.91 186.54Z" fill="white" stroke="#263238" stroke-width="0.588743" stroke-linecap="round" stroke-linejoin="round"/>
<path d="M144.835 126.67H210.96C211.273 126.669 211.583 126.73 211.872 126.85C212.162 126.969 212.425 127.144 212.646 127.365C212.868 127.586 213.044 127.849 213.164 128.138C213.283 128.427 213.345 128.737 213.345 129.05V175.815H142.455V129.07C142.453 128.756 142.512 128.444 142.631 128.153C142.749 127.862 142.924 127.597 143.145 127.374C143.366 127.151 143.63 126.974 143.92 126.853C144.21 126.732 144.521 126.67 144.835 126.67Z" fill="#263238" stroke="#263238" stroke-width="0.588743" stroke-linecap="round" stroke-linejoin="round"/>
<path d="M145.435 172.545H210.37V129.055H145.435V172.545Z" fill="white" stroke="#263238" stroke-width="0.588743" stroke-linecap="round" stroke-linejoin="round"/>
<path d="M126.27 197.845H124.21V198.53H126.27V197.845Z" fill="white" stroke="#263238" stroke-width="0.588743" stroke-linecap="round" stroke-linejoin="round"/>
<path d="M129.02 197.845H126.96V198.53H129.02V197.845Z" fill="white" stroke="#263238" stroke-width="0.588743" stroke-linecap="round" stroke-linejoin="round"/>
<path d="M131.77 197.845H129.71V198.53H131.77V197.845Z" fill="white" stroke="#263238" stroke-width="0.588743" stroke-linecap="round" stroke-linejoin="round"/>
<path d="M134.52 197.845H132.46V198.53H134.52V197.845Z" fill="white" stroke="#263238" stroke-width="0.588743" stroke-linecap="round" stroke-linejoin="round"/>
<path d="M137.27 197.845H135.21V198.53H137.27V197.845Z" fill="white" stroke="#263238" stroke-width="0.588743" stroke-linecap="round" stroke-linejoin="round"/>
<path d="M140.02 197.845H137.96V198.53H140.02V197.845Z" fill="white" stroke="#263238" stroke-width="0.588743" stroke-linecap="round" stroke-linejoin="round"/>
<path d="M142.77 197.845H140.71V198.53H142.77V197.845Z" fill="white" stroke="#263238" stroke-width="0.588743" stroke-linecap="round" stroke-linejoin="round"/>
<path d="M145.52 197.845H143.46V198.53H145.52V197.845Z" fill="white" stroke="#263238" stroke-width="0.588743" stroke-linecap="round" stroke-linejoin="round"/>
<path d="M148.27 197.845H146.21V198.53H148.27V197.845Z" fill="white" stroke="#263238" stroke-width="0.588743" stroke-linecap="round" stroke-linejoin="round"/>
<path d="M151.02 197.845H148.96V198.53H151.02V197.845Z" fill="white" stroke="#263238" stroke-width="0.588743" stroke-linecap="round" stroke-linejoin="round"/>
<path d="M153.77 197.845H151.71V198.53H153.77V197.845Z" fill="white" stroke="#263238" stroke-width="0.588743" stroke-linecap="round" stroke-linejoin="round"/>
<path d="M156.52 197.845H154.46V198.53H156.52V197.845Z" fill="white" stroke="#263238" stroke-width="0.588743" stroke-linecap="round" stroke-linejoin="round"/>
<path d="M159.27 197.845H157.21V198.53H159.27V197.845Z" fill="white" stroke="#263238" stroke-width="0.588743" stroke-linecap="round" stroke-linejoin="round"/>
<path d="M162.015 197.845H159.955V198.53H162.015V197.845Z" fill="white" stroke="#263238" stroke-width="0.588743" stroke-linecap="round" stroke-linejoin="round"/>
<path d="M164.765 197.845H162.705V198.53H164.765V197.845Z" fill="white" stroke="#263238" stroke-width="0.588743" stroke-linecap="round" stroke-linejoin="round"/>
<path d="M167.515 197.845H165.455V198.53H167.515V197.845Z" fill="white" stroke="#263238" stroke-width="0.588743" stroke-linecap="round" stroke-linejoin="round"/>
<path d="M170.265 197.845H168.205V198.53H170.265V197.845Z" fill="white" stroke="#263238" stroke-width="0.588743" stroke-linecap="round" stroke-linejoin="round"/>
<path d="M173.015 197.845H170.955V198.53H173.015V197.845Z" fill="white" stroke="#263238" stroke-width="0.588743" stroke-linecap="round" stroke-linejoin="round"/>
<path d="M175.765 197.845H173.705V198.53H175.765V197.845Z" fill="white" stroke="#263238" stroke-width="0.588743" stroke-linecap="round" stroke-linejoin="round"/>
<path d="M178.515 197.845H176.455V198.53H178.515V197.845Z" fill="white" stroke="#263238" stroke-width="0.588743" stroke-linecap="round" stroke-linejoin="round"/>
<path d="M181.265 197.845H179.205V198.53H181.265V197.845Z" fill="white" stroke="#263238" stroke-width="0.588743" stroke-linecap="round" stroke-linejoin="round"/>
<path d="M182.77 198.63H123.145V200.855H182.77V198.63Z" fill="white" stroke="#263238" stroke-width="0.588743" stroke-linecap="round" stroke-linejoin="round"/>
<path d="M182.77 198.63H168.225V200.855H182.77V198.63Z" fill="#263238" stroke="#263238" stroke-width="0.588743" stroke-linecap="round" stroke-linejoin="round"/>
<path d="M96.2751 124.395C96.2751 124.395 98.8301 119.98 99.7751 121.84C100.72 123.7 100.475 127.645 99.0801 129.505C97.6851 131.365 97.2201 132.29 96.5251 130.895C95.8301 129.5 96.2751 124.395 96.2751 124.395Z" fill="white" stroke="#263238" stroke-width="0.588743" stroke-linecap="round" stroke-linejoin="round"/>
<path d="M65.8498 127.875C65.8498 127.875 62.8498 124.16 62.1298 126.715C61.4098 129.27 64.9198 132.52 65.8498 132.985C66.5891 133.266 67.3893 133.347 68.1698 133.22L65.8498 127.875Z" fill="white" stroke="#263238" stroke-width="0.588743" stroke-linecap="round" stroke-linejoin="round"/>
<path d="M76.9698 143.825C76.9698 143.825 44.3248 153.715 44.3248 155.57C44.3248 157.425 43.3898 194 44.1348 196.07C44.8798 198.14 51.0398 200.17 54.3998 200.17V200.92H126.035L122.5 181.14C122.5 181.14 142.65 180.39 143 178.9C143.35 177.41 125.325 147.57 123.645 146.63C121.965 145.69 96.3748 142.895 93.3898 142.895C90.4048 142.895 84.0598 141.57 76.9698 143.825Z" fill="#3B485B"/>
<mask id="mask0_9124_29252" style="mask-type:luminance" maskUnits="userSpaceOnUse" x="43" y="142" width="101" height="59">
<path d="M76.9698 143.825C76.9698 143.825 44.3248 153.715 44.3248 155.57C44.3248 157.425 43.3898 194 44.1348 196.07C44.8798 198.14 51.0398 200.17 54.3998 200.17V200.92H126.035L122.5 181.14C122.5 181.14 142.65 180.39 143 178.9C143.35 177.41 125.325 147.57 123.645 146.63C121.965 145.69 96.3748 142.895 93.3898 142.895C90.4048 142.895 84.0598 141.57 76.9698 143.825Z" fill="white"/>
</mask>
<g mask="url(#mask0_9124_29252)">
<path opacity="0.3" d="M106.165 200.915C60.9297 184.29 62.9497 175.82 62.9497 175.82L47.9497 198.745C50.0065 199.583 52.1912 200.063 54.4097 200.165V200.915H106.165Z" fill="black"/>
<path opacity="0.3" d="M94.4646 152.79C94.4646 152.79 109.82 151.98 119.92 144.71L91.6396 141.07L94.4646 152.79Z" fill="black"/>
</g>
<path d="M76.9698 143.825C76.9698 143.825 44.3248 153.715 44.3248 155.57C44.3248 157.425 43.3898 194 44.1348 196.07C44.8798 198.14 51.0398 200.17 54.3998 200.17V200.92H126.035L122.5 181.14C122.5 181.14 142.65 180.39 143 178.9C143.35 177.41 125.325 147.57 123.645 146.63C121.965 145.69 96.3748 142.895 93.3898 142.895C90.4048 142.895 84.0598 141.57 76.9698 143.825Z" stroke="#263238" stroke-width="0.588743" stroke-linecap="round" stroke-linejoin="round"/>
<path d="M121.86 171.95L116.51 155.905" stroke="#263238" stroke-width="0.588743" stroke-linecap="round" stroke-linejoin="round"/>
<path d="M50.54 156.26C50.54 156.26 59.455 161.26 62.31 173.02" stroke="#263238" stroke-width="0.588743" stroke-linecap="round" stroke-linejoin="round"/>
<path d="M50.5002 178.525C50.5002 178.525 44.5302 182.445 43.2252 183.375C41.9202 184.305 41.5452 194.2 42.8502 196.995C44.1552 199.79 49.7552 201.1 53.4852 199.235C57.2153 197.37 58.8952 188.6 57.5902 184.125C56.2852 179.65 50.5002 178.525 50.5002 178.525Z" fill="#263238" stroke="#263238" stroke-width="0.588743" stroke-linecap="round" stroke-linejoin="round"/>
<path d="M72.3101 145.69C72.3101 145.69 72.8701 154.645 74.5451 160.615C76.2201 166.585 79.3951 174.42 79.3951 174.42L90.0301 166.025L104.395 169.57C104.395 169.57 101.6 154.835 99.5451 149.985C97.4901 145.135 93.3901 141.215 93.3901 141.215C93.3901 141.215 77.7201 139.16 72.3101 145.69Z" fill="#263238" stroke="#263238" stroke-width="0.588743" stroke-linecap="round" stroke-linejoin="round"/>
<path d="M74.3604 144.2C74.3604 144.2 76.9703 150.73 79.7703 156.325C82.5703 161.92 89.2703 169.76 90.9653 168.08C92.6603 166.4 94.3204 153.34 94.3204 150.355V141.4C94.3204 141.4 89.1004 145.69 84.9954 145.69C80.8904 145.69 74.3604 144.2 74.3604 144.2Z" fill="white"/>
<mask id="mask1_9124_29252" style="mask-type:luminance" maskUnits="userSpaceOnUse" x="74" y="141" width="21" height="28">
<path d="M74.3599 144.2C74.3599 144.2 76.9699 150.73 79.7699 156.325C82.5699 161.92 89.2699 169.76 90.9649 168.08C92.6599 166.4 94.3199 153.34 94.3199 150.355V141.4C94.3199 141.4 89.0999 145.69 84.9949 145.69C80.8899 145.69 74.3599 144.2 74.3599 144.2Z" fill="white"/>
</mask>
<g mask="url(#mask1_9124_29252)">
<path d="M94.3199 141.4C94.3199 141.4 89.0999 145.69 84.9949 145.69C80.8899 145.69 74.3599 144.19 74.3599 144.19C74.3599 144.19 75.6849 147.505 77.4599 151.435C80.67 153.574 84.5587 154.446 88.3749 153.885C90.7149 153.515 92.6749 152.24 94.3199 150.48V141.4Z" fill="#3B485B"/>
<path opacity="0.7" d="M94.3199 141.4C94.3199 141.4 89.0999 145.69 84.9949 145.69C80.8899 145.69 74.3599 144.19 74.3599 144.19C74.3599 144.19 75.6849 147.505 77.4599 151.435C80.67 153.574 84.5587 154.446 88.3749 153.885C90.7149 153.515 92.6749 152.24 94.3199 150.48V141.4Z" fill="white"/>
</g>
<path d="M74.3604 144.2C74.3604 144.2 76.9703 150.73 79.7703 156.325C82.5703 161.92 89.2703 169.76 90.9653 168.08C92.6603 166.4 94.3204 153.34 94.3204 150.355V141.4C94.3204 141.4 89.1004 145.69 84.9954 145.69C80.8904 145.69 74.3604 144.2 74.3604 144.2Z" stroke="#263238" stroke-width="0.588743" stroke-linecap="round" stroke-linejoin="round"/>
<path d="M65.1501 126.02C65.1501 126.02 69.1001 139.02 71.6501 142.52C74.2001 146.02 81.1751 149.49 86.2851 149.255C91.3951 149.02 95.5751 143.915 96.5051 138.805C97.4351 133.695 96.7351 122.08 96.7351 122.08C96.7351 122.08 95.8101 116.97 91.8601 110.235C87.9101 103.5 67.9351 109.07 65.8601 114.18C63.7851 119.29 65.1501 126.02 65.1501 126.02Z" fill="white" stroke="#263238" stroke-width="0.588743" stroke-linecap="round" stroke-linejoin="round"/>
<path d="M80.9453 136.24C80.9453 136.24 83.2703 139.49 86.0553 136.005" stroke="#263238" stroke-width="0.588743" stroke-linecap="round" stroke-linejoin="round"/>
<path d="M73.7451 131.13C73.7451 131.13 75.8351 129.27 78.6251 131.13" stroke="#263238" stroke-width="0.588743" stroke-linecap="round" stroke-linejoin="round"/>
<path d="M86.7554 129.735C86.7554 129.735 87.6854 127.875 91.1654 127.875" stroke="#263238" stroke-width="0.588743" stroke-linecap="round" stroke-linejoin="round"/>
<path d="M72.585 127.41C72.585 127.41 73.98 125.09 78.625 124.625" stroke="#263238" stroke-width="1.17749" stroke-linecap="round" stroke-linejoin="round"/>
<path d="M85.5703 126.7C85.5703 126.7 87.8303 122.005 91.8653 123.465" stroke="#263238" stroke-width="1.17749" stroke-linecap="round" stroke-linejoin="round"/>
<path d="M86.2899 141.57C86.3172 141.828 86.2657 142.088 86.1423 142.316C86.0189 142.545 85.8293 142.73 85.5985 142.848C85.3677 142.967 85.1065 143.013 84.8492 142.98C84.5919 142.947 84.3506 142.837 84.157 142.664C83.9633 142.492 83.8265 142.265 83.7644 142.013C83.7023 141.761 83.7179 141.496 83.8091 141.253C83.9003 141.01 84.0629 140.801 84.2755 140.652C84.488 140.503 84.7406 140.423 84.9999 140.42C85.3233 140.402 85.6406 140.513 85.8823 140.729C86.124 140.944 86.2706 141.247 86.2899 141.57Z" fill="#263238"/>
<path d="M78.765 131.825C78.766 131.965 78.7254 132.102 78.6486 132.218C78.5717 132.335 78.462 132.426 78.3332 132.48C78.2045 132.534 78.0626 132.549 77.9255 132.522C77.7884 132.496 77.6623 132.429 77.5632 132.33C77.4642 132.232 77.3965 132.106 77.3689 131.97C77.3413 131.833 77.355 131.691 77.4082 131.562C77.4614 131.432 77.5517 131.322 77.6678 131.244C77.7838 131.167 77.9203 131.125 78.06 131.125C78.2461 131.125 78.4246 131.199 78.5567 131.33C78.6888 131.461 78.7636 131.639 78.765 131.825Z" fill="#263238"/>
<path d="M90.9998 129.2C90.9998 129.34 90.9584 129.476 90.8807 129.592C90.803 129.708 90.6926 129.799 90.5635 129.852C90.4344 129.905 90.2923 129.919 90.1555 129.891C90.0186 129.864 89.893 129.796 89.7946 129.697C89.6962 129.598 89.6294 129.472 89.6028 129.335C89.5762 129.197 89.5908 129.056 89.645 128.927C89.6991 128.798 89.7902 128.688 89.9068 128.612C90.0234 128.535 90.1602 128.494 90.2998 128.495C90.3922 128.495 90.4836 128.513 90.5689 128.549C90.6541 128.584 90.7315 128.636 90.7966 128.702C90.8617 128.767 90.9131 128.845 90.948 128.931C90.9829 129.016 91.0005 129.108 90.9998 129.2Z" fill="#263238"/>
<path d="M76.0704 97.9151H67.9404C63.2954 97.9151 57.2554 110.225 57.4854 116.03C57.7154 121.835 62.8304 125.555 64.2254 126.25C65.6204 126.945 68.1704 128.11 68.1704 127.41C68.1704 126.71 70.9604 121.14 70.9604 121.14C70.9604 121.14 70.2604 124.395 72.1204 124.395C73.9804 124.395 79.7854 118.355 79.7854 118.355C79.7854 118.355 80.0204 123.23 81.8754 123.23C83.7304 123.23 87.6854 116.03 87.6854 116.03L91.8654 120.675L93.2604 117.89C93.2604 117.89 94.8854 124.39 96.2604 124.39C97.6354 124.39 98.8154 121.135 99.5154 117.89C100.215 114.645 101.605 109.295 99.2804 104.415C96.9554 99.5351 90.2254 95.1251 84.6504 95.1251C79.0754 95.1251 76.0704 97.9151 76.0704 97.9151Z" fill="#263238" stroke="#263238" stroke-width="0.588743" stroke-linecap="round" stroke-linejoin="round"/>
<path d="M73.195 99.7701C73.195 99.7701 67.475 100.43 64.835 102.19C63.3229 103.159 62.1108 104.53 61.335 106.15L67.055 103.51C67.055 103.51 63.315 106.37 62.875 107.69C62.5011 109.065 62.2089 110.461 62 111.87L65.5 110.77C65.5 110.77 64.045 111.99 64.18 113.19C64.315 114.39 64.84 117.15 64.84 117.15L69.02 113.19L70.12 116.05L73.62 113.19L73.84 115.39L76.26 112.09L78.26 114.09L79.58 111.67C79.58 111.67 80.68 112.77 81.12 110.13C81.56 107.49 81.78 106.39 81.78 106.39L84.2 109.25L85.08 112.99L85.74 109.03L87.74 110.79L88.4 107.49L90.82 108.81L91.7 105.73L96.98 107.49C96.98 107.49 95.44 101.99 94.12 100.45C92.8 98.9101 86.42 98.2501 86.42 98.2501L85.76 97.1501C85.76 97.1501 78.26 98.6901 77.4 99.1501C76.6709 99.5769 75.9989 100.094 75.4 100.69" stroke="#6B6B6B" stroke-width="0.588743" stroke-linecap="round" stroke-linejoin="round"/>
<path d="M59.4354 139.535C58.6047 138.612 58.1405 137.417 58.1304 136.175C58.1304 134.125 60.3704 129.675 60.9304 129.675C61.4904 129.675 62.6054 130.79 62.6054 130.79C62.6054 130.79 61.6754 135.29 61.3004 136.95C61.0107 138.009 60.3484 138.927 59.4354 139.535Z" fill="white" stroke="#263238" stroke-width="0.588743" stroke-linecap="round" stroke-linejoin="round"/>
<path d="M60.74 141.4C60.74 141.4 58.875 139.16 58.875 138.23C58.875 137.3 61.875 130.765 62.605 130.765C63.335 130.765 65.605 131.7 66.15 132.075C66.695 132.45 66.525 134.31 66.525 135.62C66.525 136.93 63.165 142.705 63.165 142.705L60.74 141.4Z" fill="white" stroke="#263238" stroke-width="0.588743" stroke-linecap="round" stroke-linejoin="round"/>
<path d="M64.6603 131.7C64.6603 131.7 59.9953 140.095 60.7403 141.4C61.4853 142.705 68.9503 150.73 68.9503 150.73C68.9503 150.73 47.6803 182.445 45.6303 185.615C43.5803 188.785 43.2053 193.45 44.1303 196.065C45.0553 198.68 50.6603 201.1 54.5803 200.915C58.5003 200.73 61.4803 195.875 62.5803 191.415C63.6803 186.955 73.8003 154.07 74.7353 151.475C75.6703 148.88 76.9703 146.81 75.6653 145.505C74.3603 144.2 69.3253 139.35 69.3253 139.35C69.3253 139.35 70.8253 138.045 70.6303 136.55C70.4353 135.055 67.2703 132.07 64.6603 131.7Z" fill="white"/>
<mask id="mask2_9124_29252" style="mask-type:luminance" maskUnits="userSpaceOnUse" x="43" y="131" width="34" height="70">
<path d="M64.6598 131.7C64.6598 131.7 59.9948 140.095 60.7398 141.4C61.4848 142.705 68.9498 150.73 68.9498 150.73C68.9498 150.73 47.6798 182.445 45.6298 185.615C43.5798 188.785 43.2048 193.45 44.1298 196.065C45.0548 198.68 50.6598 201.1 54.5798 200.915C58.4998 200.73 61.4798 195.875 62.5798 191.415C63.6798 186.955 73.7998 154.07 74.7348 151.475C75.6698 148.88 76.9698 146.81 75.6648 145.505C74.3598 144.2 69.3248 139.35 69.3248 139.35C69.3248 139.35 70.8248 138.045 70.6298 136.55C70.4348 135.055 67.2698 132.07 64.6598 131.7Z" fill="white"/>
</mask>
<g mask="url(#mask2_9124_29252)">
<path d="M62.605 191.4C63.725 186.9 73.8 154.085 74.735 151.475C75.67 148.865 76.97 146.81 75.665 145.505C74.49 144.33 70.295 140.285 69.475 139.505H69.445C70.175 140.46 74.035 145.63 73.635 148.62C73.195 151.92 56.255 191.745 54.055 194.385C52.37 196.385 47.865 197.645 45.835 198.12C48.383 199.954 51.4459 200.934 54.585 200.92C58.5 200.725 61.5 195.875 62.605 191.4Z" fill="#3B485B"/>
<path opacity="0.7" d="M62.605 191.4C63.725 186.9 73.8 154.085 74.735 151.475C75.67 148.865 76.97 146.81 75.665 145.505C74.49 144.33 70.295 140.285 69.475 139.505H69.445C70.175 140.46 74.035 145.63 73.635 148.62C73.195 151.92 56.255 191.745 54.055 194.385C52.37 196.385 47.865 197.645 45.835 198.12C48.383 199.954 51.4459 200.934 54.585 200.92C58.5 200.725 61.5 195.875 62.605 191.4Z" fill="white"/>
</g>
<path d="M64.6603 131.7C64.6603 131.7 59.9953 140.095 60.7403 141.4C61.4853 142.705 68.9503 150.73 68.9503 150.73C68.9503 150.73 47.6803 182.445 45.6303 185.615C43.5803 188.785 43.2053 193.45 44.1303 196.065C45.0553 198.68 50.6603 201.1 54.5803 200.915C58.5003 200.73 61.4803 195.875 62.5803 191.415C63.6803 186.955 73.8003 154.07 74.7353 151.475C75.6703 148.88 76.9703 146.81 75.6653 145.505C74.3603 144.2 69.3253 139.35 69.3253 139.35C69.3253 139.35 70.8253 138.045 70.6303 136.55C70.4353 135.055 67.2703 132.07 64.6603 131.7Z" stroke="#263238" stroke-width="0.588743" stroke-linecap="round" stroke-linejoin="round"/>
<path d="M67.4554 135.805L66.5254 138.07L69.3254 139.375L69.4454 139.525" stroke="#263238" stroke-width="0.588743" stroke-linecap="round" stroke-linejoin="round"/>
<path d="M123.05 170.32C123.05 170.32 124.73 167.52 126.785 166.775C128.84 166.03 136.86 165.275 140.03 166.4C143.2 167.525 145.065 171.625 145.625 173.86C146.185 176.095 146 179.275 144.125 180.95C142.25 182.625 139.835 182.26 137.22 181.51C134.605 180.76 129.385 177.78 126.585 176.1C123.785 174.42 123.24 171.435 123.05 170.32Z" fill="#263238" stroke="#263238" stroke-width="0.588743" stroke-linecap="round" stroke-linejoin="round"/>
<path d="M96.935 167.145C96.935 167.145 82.195 179.275 80.145 180.39C78.095 181.505 79.025 183.565 79.77 184.31C80.515 185.055 85.365 189.535 87.605 191.025C89.845 192.515 93.015 189.905 93.76 189.525C94.505 189.145 93.575 187.47 93.575 187.47C93.575 187.47 99.36 184.3 100.29 181.315C100.915 178.998 101.29 176.622 101.41 174.225C101.41 174.225 124.91 183.725 130.515 185.79C136.12 187.855 139.655 188.03 142.27 185.42C144.885 182.81 145.065 177.395 143.77 174.6C142.475 171.805 134.27 169.19 130.525 169.19C126.78 169.19 100.3 166.015 98.625 166.575L96.935 167.145Z" fill="white"/>
<mask id="mask3_9124_29252" style="mask-type:luminance" maskUnits="userSpaceOnUse" x="78" y="166" width="67" height="26">
<path d="M96.935 167.145C96.935 167.145 82.195 179.275 80.145 180.39C78.095 181.505 79.025 183.565 79.77 184.31C80.515 185.055 85.365 189.535 87.605 191.025C89.845 192.515 93.015 189.905 93.76 189.525C94.505 189.145 93.575 187.47 93.575 187.47C93.575 187.47 99.36 184.3 100.29 181.315C100.915 178.998 101.29 176.622 101.41 174.225C101.41 174.225 124.91 183.725 130.515 185.79C136.12 187.855 139.655 188.03 142.27 185.42C144.885 182.81 145.065 177.395 143.77 174.6C142.475 171.805 134.27 169.19 130.525 169.19C126.78 169.19 100.3 166.015 98.625 166.575L96.935 167.145Z" fill="white"/>
</mask>
<g mask="url(#mask3_9124_29252)">
<path d="M142.27 185.43C143.202 184.428 143.854 183.199 144.16 181.865C134.345 181.26 105.555 170.365 102.66 170.175C99.3599 169.955 98.9199 175.015 95.6149 179.175C92.3099 183.335 90.3549 184.475 87.4999 184.915C85.5499 185.215 85.2399 187.665 85.2349 189.195C86.1349 189.94 86.9799 190.605 87.6099 191.025C89.8499 192.525 93.0199 189.905 93.7649 189.525C94.5099 189.145 93.5799 187.47 93.5799 187.47C93.5799 187.47 99.3649 184.3 100.295 181.315C100.92 178.998 101.295 176.622 101.415 174.225C101.415 174.225 124.915 183.725 130.52 185.79C136.125 187.855 139.655 188.04 142.27 185.43Z" fill="#3B485B"/>
<path opacity="0.7" d="M142.27 185.43C143.202 184.428 143.854 183.199 144.16 181.865C134.345 181.26 105.555 170.365 102.66 170.175C99.3599 169.955 98.9199 175.015 95.6149 179.175C92.3099 183.335 90.3549 184.475 87.4999 184.915C85.5499 185.215 85.2399 187.665 85.2349 189.195C86.1349 189.94 86.9799 190.605 87.6099 191.025C89.8499 192.525 93.0199 189.905 93.7649 189.525C94.5099 189.145 93.5799 187.47 93.5799 187.47C93.5799 187.47 99.3649 184.3 100.295 181.315C100.92 178.998 101.295 176.622 101.415 174.225C101.415 174.225 124.915 183.725 130.52 185.79C136.125 187.855 139.655 188.04 142.27 185.43Z" fill="white"/>
</g>
<path d="M96.935 167.145C96.935 167.145 82.195 179.275 80.145 180.39C78.095 181.505 79.025 183.565 79.77 184.31C80.515 185.055 85.365 189.535 87.605 191.025C89.845 192.515 93.015 189.905 93.76 189.525C94.505 189.145 93.575 187.47 93.575 187.47C93.575 187.47 99.36 184.3 100.29 181.315C100.915 178.998 101.29 176.622 101.41 174.225C101.41 174.225 124.91 183.725 130.515 185.79C136.12 187.855 139.655 188.03 142.27 185.42C144.885 182.81 145.065 177.395 143.77 174.6C142.475 171.805 134.27 169.19 130.525 169.19C126.78 169.19 100.3 166.015 98.625 166.575L96.935 167.145Z" stroke="#263238" stroke-width="0.588743" stroke-linecap="round" stroke-linejoin="round"/>
<path d="M93.5754 187.48L91.1504 188.6" stroke="#263238" stroke-width="0.588743" stroke-linecap="round" stroke-linejoin="round"/>
<path d="M100.48 171.065L101.41 174.235L104.025 175.54L102.53 169.385L100.48 171.065Z" fill="#263238" stroke="#263238" stroke-width="0.588743" stroke-linecap="round" stroke-linejoin="round"/>
<path d="M100.2 171.81C102.622 171.81 104.585 170.266 104.585 168.36C104.585 166.455 102.622 164.91 100.2 164.91C97.7782 164.91 95.8149 166.455 95.8149 168.36C95.8149 170.266 97.7782 171.81 100.2 171.81Z" fill="white" stroke="#263238" stroke-width="0.588743" stroke-linecap="round" stroke-linejoin="round"/>
<path d="M20.3052 200.9H221.665" stroke="#263238" stroke-width="0.588743" stroke-linecap="round" stroke-linejoin="round"/>
<path d="M160.695 166V160.621H150.746V158.23L159.5 135.977H164.932V157.053H167.709V160.621H164.932V166H160.695ZM155.387 157.053H160.695V152.623L161.152 142.533H160.59L155.387 157.053ZM177.975 166.264C177.26 166.264 176.475 166.158 175.619 165.947C174.775 165.736 173.967 165.326 173.193 164.717C172.432 164.096 171.805 163.188 171.312 161.992C170.82 160.797 170.574 159.215 170.574 157.246V144.555C170.574 142.574 170.826 140.998 171.33 139.826C171.834 138.643 172.473 137.758 173.246 137.172C174.02 136.574 174.828 136.182 175.672 135.994C176.527 135.807 177.295 135.713 177.975 135.713C178.631 135.713 179.375 135.801 180.207 135.977C181.039 136.152 181.842 136.533 182.615 137.119C183.389 137.693 184.027 138.572 184.531 139.756C185.035 140.939 185.287 142.539 185.287 144.555V157.246C185.287 159.215 185.029 160.797 184.514 161.992C184.01 163.188 183.365 164.096 182.58 164.717C181.807 165.326 181.004 165.736 180.172 165.947C179.352 166.158 178.619 166.264 177.975 166.264ZM177.975 162.713C178.877 162.713 179.551 162.432 179.996 161.869C180.441 161.307 180.664 160.404 180.664 159.162V142.902C180.664 141.602 180.441 140.652 179.996 140.055C179.551 139.445 178.877 139.141 177.975 139.141C177.049 139.141 176.357 139.445 175.9 140.055C175.455 140.652 175.232 141.602 175.232 142.902V159.162C175.232 160.404 175.455 161.307 175.9 161.869C176.357 162.432 177.049 162.713 177.975 162.713ZM196.52 166.264C195.605 166.264 194.697 166.158 193.795 165.947C192.904 165.736 192.084 165.361 191.334 164.822C190.596 164.271 190.004 163.504 189.559 162.52C189.113 161.535 188.891 160.27 188.891 158.723V156.877C188.891 155.107 189.242 153.73 189.945 152.746C190.66 151.75 191.551 150.988 192.617 150.461V150.32C192.09 150.039 191.574 149.658 191.07 149.178C190.566 148.697 190.145 148.082 189.805 147.332C189.477 146.57 189.312 145.65 189.312 144.572V142.463C189.312 140.998 189.559 139.82 190.051 138.93C190.543 138.027 191.164 137.348 191.914 136.891C192.676 136.422 193.467 136.111 194.287 135.959C195.119 135.795 195.869 135.713 196.537 135.713C197.217 135.713 197.967 135.795 198.787 135.959C199.619 136.111 200.41 136.422 201.16 136.891C201.922 137.348 202.549 138.021 203.041 138.912C203.533 139.803 203.779 140.98 203.779 142.445V144.555C203.779 145.633 203.609 146.553 203.27 147.314C202.941 148.064 202.525 148.68 202.021 149.16C201.518 149.641 201.002 150.021 200.475 150.303V150.443C201.553 150.971 202.443 151.732 203.146 152.729C203.85 153.713 204.201 155.09 204.201 156.859V158.705C204.201 160.252 203.973 161.518 203.516 162.502C203.07 163.486 202.473 164.254 201.723 164.805C200.973 165.355 200.146 165.736 199.244 165.947C198.342 166.158 197.434 166.264 196.52 166.264ZM196.326 148.844H196.748C197.439 148.844 198.014 148.598 198.471 148.105C198.928 147.613 199.156 146.676 199.156 145.293V143.078C199.156 141.848 198.951 140.91 198.541 140.266C198.143 139.609 197.475 139.281 196.537 139.281C195.6 139.281 194.932 139.609 194.533 140.266C194.146 140.922 193.953 141.871 193.953 143.113V145.311C193.953 146.635 194.158 147.555 194.568 148.07C194.99 148.586 195.576 148.844 196.326 148.844ZM196.52 162.713C197.035 162.713 197.521 162.613 197.979 162.414C198.436 162.203 198.805 161.828 199.086 161.289C199.379 160.75 199.525 159.971 199.525 158.951V155.77C199.525 154.457 199.273 153.52 198.77 152.957C198.277 152.383 197.604 152.096 196.748 152.096H196.309C195.453 152.096 194.779 152.395 194.287 152.992C193.807 153.578 193.566 154.51 193.566 155.787V158.969C193.566 159.988 193.701 160.768 193.971 161.307C194.252 161.846 194.615 162.215 195.061 162.414C195.518 162.613 196.004 162.713 196.52 162.713Z" fill="#263238"/>
<path d="M167.841 115.9C167.841 115.98 167.801 116.02 167.721 116.02H163.965C163.933 116.02 163.917 116.036 163.917 116.068V119.536C163.917 119.568 163.933 119.584 163.965 119.584H166.557C166.637 119.584 166.677 119.624 166.677 119.704V119.884C166.677 119.964 166.637 120.004 166.557 120.004H163.965C163.933 120.004 163.917 120.02 163.917 120.052V123.532C163.917 123.564 163.933 123.58 163.965 123.58H167.721C167.801 123.58 167.841 123.62 167.841 123.7V123.88C167.841 123.96 167.801 124 167.721 124H163.569C163.489 124 163.449 123.96 163.449 123.88V115.72C163.449 115.64 163.489 115.6 163.569 115.6H167.721C167.801 115.6 167.841 115.64 167.841 115.72V115.9ZM173.896 124C173.832 124 173.788 123.968 173.764 123.904L172.12 120.016C172.112 119.992 172.096 119.98 172.072 119.98H170.2C170.168 119.98 170.152 119.996 170.152 120.028V123.88C170.152 123.96 170.112 124 170.032 124H169.804C169.724 124 169.684 123.96 169.684 123.88V115.72C169.684 115.64 169.724 115.6 169.804 115.6H172.156C172.756 115.6 173.24 115.804 173.608 116.212C173.976 116.612 174.16 117.144 174.16 117.808C174.16 118.376 174.02 118.852 173.74 119.236C173.46 119.612 173.08 119.844 172.6 119.932C172.568 119.948 172.56 119.968 172.576 119.992L174.208 123.856L174.22 123.904C174.22 123.968 174.184 124 174.112 124H173.896ZM170.2 116.02C170.168 116.02 170.152 116.036 170.152 116.068V119.536C170.152 119.568 170.168 119.584 170.2 119.584H172.132C172.596 119.584 172.972 119.424 173.26 119.104C173.548 118.776 173.692 118.348 173.692 117.82C173.692 117.276 173.548 116.84 173.26 116.512C172.98 116.184 172.604 116.02 172.132 116.02H170.2ZM180.153 124C180.089 124 180.045 123.968 180.021 123.904L178.377 120.016C178.369 119.992 178.353 119.98 178.329 119.98H176.457C176.425 119.98 176.409 119.996 176.409 120.028V123.88C176.409 123.96 176.369 124 176.289 124H176.061C175.981 124 175.941 123.96 175.941 123.88V115.72C175.941 115.64 175.981 115.6 176.061 115.6H178.413C179.013 115.6 179.497 115.804 179.865 116.212C180.233 116.612 180.417 117.144 180.417 117.808C180.417 118.376 180.277 118.852 179.997 119.236C179.717 119.612 179.337 119.844 178.857 119.932C178.825 119.948 178.817 119.968 178.833 119.992L180.465 123.856L180.477 123.904C180.477 123.968 180.441 124 180.369 124H180.153ZM176.457 116.02C176.425 116.02 176.409 116.036 176.409 116.068V119.536C176.409 119.568 176.425 119.584 176.457 119.584H178.389C178.853 119.584 179.229 119.424 179.517 119.104C179.805 118.776 179.949 118.348 179.949 117.82C179.949 117.276 179.805 116.84 179.517 116.512C179.237 116.184 178.861 116.02 178.389 116.02H176.457ZM184.239 124.096C183.783 124.096 183.379 124 183.027 123.808C182.675 123.616 182.403 123.344 182.211 122.992C182.019 122.64 181.923 122.236 181.923 121.78V117.832C181.923 117.376 182.019 116.972 182.211 116.62C182.403 116.268 182.675 115.996 183.027 115.804C183.379 115.604 183.783 115.504 184.239 115.504C184.695 115.504 185.099 115.604 185.451 115.804C185.803 115.996 186.075 116.268 186.267 116.62C186.467 116.972 186.567 117.376 186.567 117.832V121.78C186.567 122.236 186.467 122.64 186.267 122.992C186.075 123.344 185.803 123.616 185.451 123.808C185.099 124 184.695 124.096 184.239 124.096ZM184.239 123.676C184.791 123.676 185.239 123.504 185.583 123.16C185.927 122.808 186.099 122.352 186.099 121.792V117.82C186.099 117.26 185.927 116.804 185.583 116.452C185.239 116.1 184.791 115.924 184.239 115.924C183.687 115.924 183.239 116.1 182.895 116.452C182.559 116.796 182.391 117.252 182.391 117.82V121.792C182.391 122.352 182.559 122.808 182.895 123.16C183.239 123.504 183.687 123.676 184.239 123.676ZM192.833 124C192.769 124 192.725 123.968 192.701 123.904L191.057 120.016C191.049 119.992 191.033 119.98 191.009 119.98H189.137C189.105 119.98 189.089 119.996 189.089 120.028V123.88C189.089 123.96 189.049 124 188.969 124H188.741C188.661 124 188.621 123.96 188.621 123.88V115.72C188.621 115.64 188.661 115.6 188.741 115.6H191.093C191.693 115.6 192.177 115.804 192.545 116.212C192.913 116.612 193.097 117.144 193.097 117.808C193.097 118.376 192.957 118.852 192.677 119.236C192.397 119.612 192.017 119.844 191.537 119.932C191.505 119.948 191.497 119.968 191.513 119.992L193.145 123.856L193.157 123.904C193.157 123.968 193.121 124 193.049 124H192.833ZM189.137 116.02C189.105 116.02 189.089 116.036 189.089 116.068V119.536C189.089 119.568 189.105 119.584 189.137 119.584H191.069C191.533 119.584 191.909 119.424 192.197 119.104C192.485 118.776 192.629 118.348 192.629 117.82C192.629 117.276 192.485 116.84 192.197 116.512C191.917 116.184 191.541 116.02 191.069 116.02H189.137Z" fill="#263238"/>
<path d="M140.657 215C140.593 215 140.549 214.968 140.525 214.904L138.881 211.016C138.873 210.992 138.857 210.98 138.833 210.98H136.961C136.929 210.98 136.913 210.996 136.913 211.028V214.88C136.913 214.96 136.873 215 136.793 215H136.565C136.485 215 136.445 214.96 136.445 214.88V206.72C136.445 206.64 136.485 206.6 136.565 206.6H138.917C139.517 206.6 140.001 206.804 140.369 207.212C140.737 207.612 140.921 208.144 140.921 208.808C140.921 209.376 140.781 209.852 140.501 210.236C140.221 210.612 139.841 210.844 139.361 210.932C139.329 210.948 139.321 210.968 139.337 210.992L140.969 214.856L140.981 214.904C140.981 214.968 140.945 215 140.873 215H140.657ZM136.961 207.02C136.929 207.02 136.913 207.036 136.913 207.068V210.536C136.913 210.568 136.929 210.584 136.961 210.584H138.893C139.357 210.584 139.733 210.424 140.021 210.104C140.309 209.776 140.453 209.348 140.453 208.82C140.453 208.276 140.309 207.84 140.021 207.512C139.741 207.184 139.365 207.02 138.893 207.02H136.961ZM147.095 206.9C147.095 206.98 147.055 207.02 146.975 207.02H143.219C143.187 207.02 143.171 207.036 143.171 207.068V210.536C143.171 210.568 143.187 210.584 143.219 210.584H145.811C145.891 210.584 145.931 210.624 145.931 210.704V210.884C145.931 210.964 145.891 211.004 145.811 211.004H143.219C143.187 211.004 143.171 211.02 143.171 211.052V214.532C143.171 214.564 143.187 214.58 143.219 214.58H146.975C147.055 214.58 147.095 214.62 147.095 214.7V214.88C147.095 214.96 147.055 215 146.975 215H142.823C142.743 215 142.703 214.96 142.703 214.88V206.72C142.703 206.64 142.743 206.6 142.823 206.6H146.975C147.055 206.6 147.095 206.64 147.095 206.72V206.9ZM150.785 206.504C151.449 206.504 151.985 206.716 152.393 207.14C152.801 207.556 153.005 208.104 153.005 208.784V212.816C153.005 213.448 152.829 213.968 152.477 214.376C152.133 214.784 151.665 215.02 151.073 215.084C151.041 215.084 151.025 215.1 151.025 215.132V216.356C151.025 216.436 150.985 216.476 150.905 216.476H150.665C150.585 216.476 150.545 216.436 150.545 216.356V215.132C150.545 215.1 150.529 215.084 150.497 215.084C149.905 215.02 149.433 214.784 149.081 214.376C148.729 213.96 148.553 213.44 148.553 212.816V208.784C148.553 208.104 148.757 207.556 149.165 207.14C149.581 206.716 150.121 206.504 150.785 206.504ZM152.537 208.76C152.537 208.216 152.377 207.776 152.057 207.44C151.737 207.096 151.313 206.924 150.785 206.924C150.265 206.924 149.841 207.096 149.513 207.44C149.185 207.776 149.021 208.216 149.021 208.76V212.84C149.021 213.384 149.185 213.828 149.513 214.172C149.841 214.508 150.265 214.676 150.785 214.676C151.313 214.676 151.737 214.508 152.057 214.172C152.377 213.828 152.537 213.384 152.537 212.84V208.76ZM157.181 215.096C156.725 215.096 156.321 214.996 155.969 214.796C155.617 214.596 155.345 214.312 155.153 213.944C154.961 213.576 154.865 213.152 154.865 212.672V206.72C154.865 206.64 154.905 206.6 154.985 206.6H155.213C155.293 206.6 155.333 206.64 155.333 206.72V212.72C155.333 213.304 155.501 213.776 155.837 214.136C156.181 214.496 156.629 214.676 157.181 214.676C157.741 214.676 158.189 214.496 158.525 214.136C158.869 213.776 159.041 213.304 159.041 212.72V206.72C159.041 206.64 159.081 206.6 159.161 206.6H159.389C159.469 206.6 159.509 206.64 159.509 206.72V212.672C159.509 213.4 159.297 213.988 158.873 214.436C158.449 214.876 157.885 215.096 157.181 215.096ZM166.044 206.9C166.044 206.98 166.004 207.02 165.924 207.02H162.168C162.136 207.02 162.12 207.036 162.12 207.068V210.536C162.12 210.568 162.136 210.584 162.168 210.584H164.76C164.84 210.584 164.88 210.624 164.88 210.704V210.884C164.88 210.964 164.84 211.004 164.76 211.004H162.168C162.136 211.004 162.12 211.02 162.12 211.052V214.532C162.12 214.564 162.136 214.58 162.168 214.58H165.924C166.004 214.58 166.044 214.62 166.044 214.7V214.88C166.044 214.96 166.004 215 165.924 215H161.772C161.692 215 161.652 214.96 161.652 214.88V206.72C161.652 206.64 161.692 206.6 161.772 206.6H165.924C166.004 206.6 166.044 206.64 166.044 206.72V206.9ZM169.699 215.096C168.987 215.096 168.419 214.904 167.995 214.52C167.579 214.136 167.371 213.628 167.371 212.996V212.66C167.371 212.58 167.411 212.54 167.491 212.54H167.695C167.775 212.54 167.815 212.58 167.815 212.66V212.96C167.815 213.48 167.987 213.896 168.331 214.208C168.675 214.52 169.135 214.676 169.711 214.676C170.263 214.676 170.699 214.528 171.019 214.232C171.339 213.936 171.499 213.54 171.499 213.044C171.499 212.724 171.427 212.448 171.283 212.216C171.147 211.984 170.939 211.772 170.659 211.58C170.387 211.388 170.003 211.156 169.507 210.884C168.995 210.596 168.603 210.356 168.331 210.164C168.067 209.972 167.855 209.744 167.695 209.48C167.535 209.208 167.455 208.872 167.455 208.472C167.455 207.848 167.647 207.364 168.031 207.02C168.415 206.676 168.935 206.504 169.591 206.504C170.303 206.504 170.863 206.7 171.271 207.092C171.679 207.476 171.883 207.988 171.883 208.628V208.928C171.883 209.008 171.843 209.048 171.763 209.048H171.547C171.467 209.048 171.427 209.008 171.427 208.928V208.652C171.427 208.132 171.263 207.716 170.935 207.404C170.607 207.084 170.155 206.924 169.579 206.924C169.059 206.924 168.651 207.06 168.355 207.332C168.059 207.596 167.911 207.976 167.911 208.472C167.911 208.784 167.975 209.044 168.103 209.252C168.231 209.46 168.419 209.652 168.667 209.828C168.915 209.996 169.287 210.212 169.783 210.476C170.327 210.788 170.747 211.056 171.043 211.28C171.339 211.496 171.567 211.74 171.727 212.012C171.887 212.284 171.967 212.608 171.967 212.984C171.967 213.624 171.763 214.136 171.355 214.52C170.947 214.904 170.395 215.096 169.699 215.096ZM177.495 206.6C177.575 206.6 177.615 206.64 177.615 206.72V206.9C177.615 206.98 177.575 207.02 177.495 207.02H175.479C175.447 207.02 175.431 207.036 175.431 207.068V214.88C175.431 214.96 175.391 215 175.311 215H175.083C175.003 215 174.963 214.96 174.963 214.88V207.068C174.963 207.036 174.947 207.02 174.915 207.02H173.007C172.927 207.02 172.887 206.98 172.887 206.9V206.72C172.887 206.64 172.927 206.6 173.007 206.6H177.495ZM185.687 206.6C185.767 206.6 185.807 206.64 185.807 206.72V206.9C185.807 206.98 185.767 207.02 185.687 207.02H183.671C183.639 207.02 183.623 207.036 183.623 207.068V214.88C183.623 214.96 183.583 215 183.503 215H183.275C183.195 215 183.155 214.96 183.155 214.88V207.068C183.155 207.036 183.139 207.02 183.107 207.02H181.199C181.119 207.02 181.079 206.98 181.079 206.9V206.72C181.079 206.64 181.119 206.6 181.199 206.6H185.687ZM187.624 215C187.544 215 187.504 214.96 187.504 214.88V206.72C187.504 206.64 187.544 206.6 187.624 206.6H187.852C187.932 206.6 187.972 206.64 187.972 206.72V214.88C187.972 214.96 187.932 215 187.852 215H187.624ZM194.805 206.684C194.829 206.628 194.877 206.6 194.949 206.6H195.201C195.281 206.6 195.321 206.64 195.321 206.72V214.88C195.321 214.96 195.281 215 195.201 215H194.973C194.893 215 194.853 214.96 194.853 214.88V207.668C194.853 207.644 194.845 207.632 194.829 207.632C194.821 207.632 194.809 207.64 194.793 207.656L192.993 210.992C192.969 211.048 192.921 211.076 192.849 211.076H192.777C192.705 211.076 192.657 211.048 192.633 210.992L190.809 207.668C190.793 207.652 190.777 207.644 190.761 207.644C190.753 207.644 190.749 207.656 190.749 207.68V214.88C190.749 214.96 190.709 215 190.629 215H190.401C190.321 215 190.281 214.96 190.281 214.88V206.72C190.281 206.64 190.321 206.6 190.401 206.6H190.653C190.725 206.6 190.773 206.628 190.797 206.684L192.777 210.296C192.785 210.312 192.797 210.32 192.813 210.32C192.829 210.32 192.841 210.312 192.849 210.296L194.805 206.684ZM202.033 206.9C202.033 206.98 201.993 207.02 201.913 207.02H198.157C198.125 207.02 198.109 207.036 198.109 207.068V210.536C198.109 210.568 198.125 210.584 198.157 210.584H200.749C200.829 210.584 200.869 210.624 200.869 210.704V210.884C200.869 210.964 200.829 211.004 200.749 211.004H198.157C198.125 211.004 198.109 211.02 198.109 211.052V214.532C198.109 214.564 198.125 214.58 198.157 214.58H201.913C201.993 214.58 202.033 214.62 202.033 214.7V214.88C202.033 214.96 201.993 215 201.913 215H197.761C197.681 215 197.641 214.96 197.641 214.88V206.72C197.641 206.64 197.681 206.6 197.761 206.6H201.913C201.993 206.6 202.033 206.64 202.033 206.72V206.9ZM205.915 215.096C205.459 215.096 205.055 215 204.703 214.808C204.351 214.616 204.079 214.344 203.887 213.992C203.695 213.64 203.599 213.236 203.599 212.78V208.832C203.599 208.376 203.695 207.972 203.887 207.62C204.079 207.268 204.351 206.996 204.703 206.804C205.055 206.604 205.459 206.504 205.915 206.504C206.371 206.504 206.775 206.604 207.127 206.804C207.479 206.996 207.751 207.268 207.943 207.62C208.143 207.972 208.243 208.376 208.243 208.832V212.78C208.243 213.236 208.143 213.64 207.943 213.992C207.751 214.344 207.479 214.616 207.127 214.808C206.775 215 206.371 215.096 205.915 215.096ZM205.915 214.676C206.467 214.676 206.915 214.504 207.259 214.16C207.603 213.808 207.775 213.352 207.775 212.792V208.82C207.775 208.26 207.603 207.804 207.259 207.452C206.915 207.1 206.467 206.924 205.915 206.924C205.363 206.924 204.915 207.1 204.571 207.452C204.235 207.796 204.067 208.252 204.067 208.82V212.792C204.067 213.352 204.235 213.808 204.571 214.16C204.915 214.504 205.363 214.676 205.915 214.676ZM212.517 215.096C212.061 215.096 211.657 214.996 211.305 214.796C210.953 214.596 210.681 214.312 210.489 213.944C210.297 213.576 210.201 213.152 210.201 212.672V206.72C210.201 206.64 210.241 206.6 210.321 206.6H210.549C210.629 206.6 210.669 206.64 210.669 206.72V212.72C210.669 213.304 210.837 213.776 211.173 214.136C211.517 214.496 211.965 214.676 212.517 214.676C213.077 214.676 213.525 214.496 213.861 214.136C214.205 213.776 214.377 213.304 214.377 212.72V206.72C214.377 206.64 214.417 206.6 214.497 206.6H214.725C214.805 206.6 214.845 206.64 214.845 206.72V212.672C214.845 213.4 214.633 213.988 214.209 214.436C213.785 214.876 213.221 215.096 212.517 215.096ZM221.066 206.6C221.146 206.6 221.186 206.64 221.186 206.72V206.9C221.186 206.98 221.146 207.02 221.066 207.02H219.05C219.018 207.02 219.002 207.036 219.002 207.068V214.88C219.002 214.96 218.962 215 218.882 215H218.654C218.574 215 218.534 214.96 218.534 214.88V207.068C218.534 207.036 218.518 207.02 218.486 207.02H216.578C216.498 207.02 216.458 206.98 216.458 206.9V206.72C216.458 206.64 216.498 206.6 216.578 206.6H221.066Z" fill="#263238"/>
</svg>
