<svg width="200" height="200" viewBox="0 0 200 200" fill="none" xmlns="http://www.w3.org/2000/svg">
<path d="M186.548 72.908C184.948 52.032 170.912 34.456 153.464 23.936C136.446 13.741 116.562 9.38668 96.84 11.536C69.78 14.576 33.724 31.912 35.6 63.848C35.94 69.624 37.568 75.396 36.72 81.12C35.192 91.44 26.28 98.776 20.34 107.356C14.0292 116.519 10.9409 127.519 11.56 138.628C12.288 150.956 18.688 163.796 30.152 168.4C41.616 173.004 54.616 168.432 66.996 168.888C87.056 169.632 104.36 183.524 124.132 186.98C138.898 189.484 154.055 186.056 166.308 177.444C171.948 173.444 176.932 168.244 179.54 161.824C186.104 145.692 176.244 127.332 178.84 110.108C180.628 98.264 186.976 87.92 186.684 75.66C186.66 74.7373 186.615 73.82 186.548 72.908Z" fill="#C13E4A"/>
<path opacity="0.7" d="M186.548 72.908C184.948 52.032 170.912 34.456 153.464 23.936C136.446 13.741 116.562 9.38668 96.84 11.536C69.78 14.576 33.724 31.912 35.6 63.848C35.94 69.624 37.568 75.396 36.72 81.12C35.192 91.44 26.28 98.776 20.34 107.356C14.0292 116.519 10.9409 127.519 11.56 138.628C12.288 150.956 18.688 163.796 30.152 168.4C41.616 173.004 54.616 168.432 66.996 168.888C87.056 169.632 104.36 183.524 124.132 186.98C138.898 189.484 154.055 186.056 166.308 177.444C171.948 173.444 176.932 168.244 179.54 161.824C186.104 145.692 176.244 127.332 178.84 110.108C180.628 98.264 186.976 87.92 186.684 75.66C186.66 74.7373 186.615 73.82 186.548 72.908Z" fill="white"/>
<path d="M185.768 186H190.8" stroke="#651A21" stroke-width="0.4" stroke-linecap="round" stroke-linejoin="round"/>
<path d="M12.4 186H182.916" stroke="#651A21" stroke-width="0.4" stroke-linecap="round" stroke-linejoin="round"/>
<path d="M68.568 12.756C67.9882 13.7276 67.5821 14.7929 67.368 15.904C66.9357 15.8462 66.5001 15.8168 66.064 15.816C64.3587 15.8159 62.6827 16.2598 61.201 17.1042C59.7194 17.9486 58.4832 19.1643 57.6141 20.6316C56.7451 22.0989 56.2731 23.7672 56.2447 25.4723C56.2162 27.1774 56.6323 28.8605 57.452 30.356" stroke="#651A21" stroke-width="0.4" stroke-linecap="round" stroke-linejoin="round"/>
<path d="M90.96 21.516C89.6825 20.5768 88.1453 20.0569 86.56 20.028C87.0678 17.8623 86.8249 15.5884 85.8713 13.5788C84.9176 11.5691 83.3096 9.94302 81.3108 8.96686C79.312 7.9907 77.0409 7.72239 74.8696 8.20587C72.6984 8.68936 70.7557 9.89598 69.36 11.628" stroke="#651A21" stroke-width="0.4" stroke-linecap="round" stroke-linejoin="round"/>
<path d="M58.356 31.72C59.6987 33.4212 61.5663 34.6307 63.668 35.16H88.512C89.713 34.8181 90.8131 34.1897 91.7178 33.329C92.6225 32.4682 93.3048 31.4008 93.706 30.2182C94.1073 29.0357 94.2155 27.7734 94.0215 26.5399C93.8274 25.3063 93.3369 24.1382 92.592 23.136" stroke="#651A21" stroke-width="0.4" stroke-linecap="round" stroke-linejoin="round"/>
<path d="M107.684 17.4921C106.111 18.5538 104.879 20.0488 104.137 21.7962C103.396 23.5435 103.177 25.4683 103.506 27.3377C103.836 29.207 104.7 30.9407 105.995 32.329C107.289 33.7172 108.958 34.7006 110.8 35.1601H135.644C136.521 34.9088 137.346 34.5024 138.08 33.9601" stroke="#651A21" stroke-width="0.4" stroke-linecap="round" stroke-linejoin="round"/>
<path d="M133.136 13.896C132.307 11.968 130.882 10.3562 129.07 9.29712C127.258 8.238 125.155 7.78723 123.068 8.01089C120.981 8.23455 119.021 9.12088 117.475 10.5399C115.928 11.959 114.878 13.8361 114.476 15.896C114.044 15.8383 113.608 15.8089 113.172 15.808C111.974 15.8069 110.787 16.0252 109.668 16.452" stroke="#651A21" stroke-width="0.4" stroke-linecap="round" stroke-linejoin="round"/>
<path d="M139.38 32.748C140.329 31.6375 140.943 30.2804 141.15 28.8346C141.358 27.3888 141.151 25.9137 140.553 24.5811C139.955 23.2485 138.991 22.1131 137.773 21.307C136.554 20.501 135.132 20.0575 133.672 20.028C134.029 18.4993 134.018 16.9077 133.64 15.384" stroke="#651A21" stroke-width="0.4" stroke-linecap="round" stroke-linejoin="round"/>
<path d="M75.2001 83.36V42.4" stroke="#651A21" stroke-width="0.4" stroke-linecap="round" stroke-linejoin="round"/>
<path d="M95.6001 25.6H99.6001" stroke="#651A21" stroke-width="0.4" stroke-linecap="round" stroke-linejoin="round"/>
<path d="M122 36V45.388" stroke="#651A21" stroke-width="0.4" stroke-linecap="round" stroke-linejoin="round"/>
<path d="M82.012 53.608H67.588V67.992H82.012V53.608Z" fill="#651A21" stroke="#651A21" stroke-width="0.4" stroke-linecap="round" stroke-linejoin="round"/>
<path d="M78.668 61.556L71.616 57.484V65.624L78.668 61.556Z" fill="white" stroke="#651A21" stroke-width="0.4" stroke-linecap="round" stroke-linejoin="round"/>
<path d="M82.012 53.608H67.588V56.244H82.012V53.608Z" fill="white" stroke="#651A21" stroke-width="0.4" stroke-linecap="round" stroke-linejoin="round"/>
<path d="M67.592 56.244H69.66L70.94 53.608H68.872L67.592 56.244Z" fill="#651A21" stroke="#651A21" stroke-width="0.4" stroke-linecap="round" stroke-linejoin="round"/>
<path d="M82.012 54.764V53.608H80.504L79.228 56.244H81.296L82.012 54.764Z" fill="#651A21" stroke="#651A21" stroke-width="0.4" stroke-linecap="round" stroke-linejoin="round"/>
<path d="M74.816 53.608H72.748L71.472 56.244H73.5401L74.816 53.608Z" fill="#651A21" stroke="#651A21" stroke-width="0.4" stroke-linecap="round" stroke-linejoin="round"/>
<path d="M78.696 53.608H76.628L75.348 56.244H77.416L78.696 53.608Z" fill="#651A21" stroke="#651A21" stroke-width="0.4" stroke-linecap="round" stroke-linejoin="round"/>
<path d="M129.612 18.0081H115.188V32.3921H129.612V18.0081Z" fill="#651A21" stroke="#651A21" stroke-width="0.4" stroke-linecap="round" stroke-linejoin="round"/>
<path d="M126.268 25.956L119.22 21.884V30.024L126.268 25.956Z" fill="white" stroke="#651A21" stroke-width="0.4" stroke-linecap="round" stroke-linejoin="round"/>
<path d="M129.612 18.0081H115.188V20.6441H129.612V18.0081Z" fill="white" stroke="#651A21" stroke-width="0.4" stroke-linecap="round" stroke-linejoin="round"/>
<path d="M115.192 20.6441H117.26L118.54 18.0081H116.472L115.192 20.6441Z" fill="#651A21" stroke="#651A21" stroke-width="0.4" stroke-linecap="round" stroke-linejoin="round"/>
<path d="M129.612 19.1641V18.0081H128.104L126.828 20.6441H128.896L129.612 19.1641Z" fill="#651A21" stroke="#651A21" stroke-width="0.4" stroke-linecap="round" stroke-linejoin="round"/>
<path d="M122.416 18.0081H120.348L119.072 20.6441H121.14L122.416 18.0081Z" fill="#651A21" stroke="#651A21" stroke-width="0.4" stroke-linecap="round" stroke-linejoin="round"/>
<path d="M126.296 18.0081H124.228L122.948 20.6441H125.016L126.296 18.0081Z" fill="#651A21" stroke="#651A21" stroke-width="0.4" stroke-linecap="round" stroke-linejoin="round"/>
<path d="M103.324 56.504H174.968C176.135 56.504 177.254 56.9676 178.079 57.7928C178.905 58.6179 179.368 59.7371 179.368 60.904V167.704H98.9321V60.904C98.9321 59.7371 99.3957 58.6179 100.221 57.7928C101.046 56.9676 102.165 56.504 103.332 56.504H103.324Z" fill="white" stroke="#651A21" stroke-width="0.4" stroke-linecap="round" stroke-linejoin="round"/>
<path d="M174.968 56.504H121.62V68.904H179.36V60.892C179.357 59.7285 178.893 58.6137 178.07 57.7913C177.247 56.969 176.132 56.5061 174.968 56.504Z" fill="#651A21" stroke="#651A21" stroke-width="0.4" stroke-linecap="round" stroke-linejoin="round"/>
<path d="M174.968 56.504H103.324C102.157 56.504 101.038 56.9676 100.213 57.7928C99.3876 58.6179 98.9241 59.7371 98.9241 60.904V64.104H179.36V60.904C179.36 59.7385 178.898 58.6205 178.074 57.7956C177.251 56.9707 176.134 56.5061 174.968 56.504Z" fill="#651A21" stroke="#651A21" stroke-width="0.4" stroke-linecap="round" stroke-linejoin="round"/>
<path d="M168.552 61.6201C169.215 61.6201 169.752 61.0828 169.752 60.4201C169.752 59.7574 169.215 59.2201 168.552 59.2201C167.889 59.2201 167.352 59.7574 167.352 60.4201C167.352 61.0828 167.889 61.6201 168.552 61.6201Z" fill="white" stroke="#651A21" stroke-width="0.4" stroke-linecap="round" stroke-linejoin="round"/>
<path d="M172.284 61.6201C172.947 61.6201 173.484 61.0828 173.484 60.4201C173.484 59.7574 172.947 59.2201 172.284 59.2201C171.621 59.2201 171.084 59.7574 171.084 60.4201C171.084 61.0828 171.621 61.6201 172.284 61.6201Z" fill="white" stroke="#651A21" stroke-width="0.4" stroke-linecap="round" stroke-linejoin="round"/>
<path d="M176.016 61.6201C176.679 61.6201 177.216 61.0828 177.216 60.4201C177.216 59.7574 176.679 59.2201 176.016 59.2201C175.353 59.2201 174.816 59.7574 174.816 60.4201C174.816 61.0828 175.353 61.6201 176.016 61.6201Z" fill="white" stroke="#651A21" stroke-width="0.4" stroke-linecap="round" stroke-linejoin="round"/>
<path d="M142.352 79.2001H106.832V102.2H142.352V79.2001Z" fill="#651A21" stroke="#651A21" stroke-width="0.4" stroke-linecap="round" stroke-linejoin="round"/>
<path d="M142.352 99.3881H106.832V102.204H142.352V99.3881Z" fill="white" stroke="#651A21" stroke-width="0.4" stroke-linecap="round" stroke-linejoin="round"/>
<path d="M128.908 89.828L121.86 85.76V93.9L128.908 89.828Z" fill="white" stroke="#651A21" stroke-width="0.4" stroke-linecap="round" stroke-linejoin="round"/>
<path d="M140.764 101.168H108.4C108.294 101.168 108.192 101.126 108.117 101.051C108.042 100.976 108 100.874 108 100.768C108 100.662 108.042 100.56 108.117 100.485C108.192 100.41 108.294 100.368 108.4 100.368H140.8C140.906 100.368 141.008 100.41 141.083 100.485C141.158 100.56 141.2 100.662 141.2 100.768C141.2 100.874 141.158 100.976 141.083 101.051C141.008 101.126 140.906 101.168 140.8 101.168H140.764Z" fill="#651A21"/>
<path d="M142.352 108.136H106.832V131.136H142.352V108.136Z" fill="#651A21" stroke="#651A21" stroke-width="0.4" stroke-linecap="round" stroke-linejoin="round"/>
<path d="M142.352 128.324H106.832V131.14H142.352V128.324Z" fill="white" stroke="#651A21" stroke-width="0.4" stroke-linecap="round" stroke-linejoin="round"/>
<path d="M128.908 118.764L121.86 114.696V122.836L128.908 118.764Z" fill="white" stroke="#651A21" stroke-width="0.4" stroke-linecap="round" stroke-linejoin="round"/>
<path d="M140.764 130.1H108.4C108.294 130.1 108.192 130.058 108.117 129.983C108.042 129.908 108 129.806 108 129.7C108 129.594 108.042 129.492 108.117 129.417C108.192 129.342 108.294 129.3 108.4 129.3H140.8C140.906 129.3 141.008 129.342 141.083 129.417C141.158 129.492 141.2 129.594 141.2 129.7C141.2 129.806 141.158 129.908 141.083 129.983C141.008 130.058 140.906 130.1 140.8 130.1H140.764Z" fill="#651A21"/>
<path d="M142.352 137.068H106.832V160.068H142.352V137.068Z" fill="#651A21" stroke="#651A21" stroke-width="0.4" stroke-linecap="round" stroke-linejoin="round"/>
<path d="M142.352 157.256H106.832V160.072H142.352V157.256Z" fill="white" stroke="#651A21" stroke-width="0.4" stroke-linecap="round" stroke-linejoin="round"/>
<path d="M128.908 147.7L121.86 143.628V151.768L128.908 147.7Z" fill="white" stroke="#651A21" stroke-width="0.4" stroke-linecap="round" stroke-linejoin="round"/>
<path d="M140.764 159.036H108.4C108.294 159.036 108.192 158.994 108.117 158.919C108.042 158.844 108 158.742 108 158.636C108 158.53 108.042 158.428 108.117 158.353C108.192 158.278 108.294 158.236 108.4 158.236H140.8C140.906 158.236 141.008 158.278 141.083 158.353C141.158 158.428 141.2 158.53 141.2 158.636C141.2 158.742 141.158 158.844 141.083 158.919C141.008 158.994 140.906 159.036 140.8 159.036H140.764Z" fill="#651A21"/>
<path d="M166.4 81.436H144.2V84.036H166.4V81.436Z" fill="#CCCCCC"/>
<path d="M174.4 87.036H144.2V89.636H174.4V87.036Z" fill="#CCCCCC"/>
<path d="M174.4 92.636H144.2V95.236H174.4V92.636Z" fill="#CCCCCC"/>
<path d="M166.4 111.236H144.2V113.836H166.4V111.236Z" fill="#CCCCCC"/>
<path d="M174.4 116.836H144.2V119.436H174.4V116.836Z" fill="#CCCCCC"/>
<path d="M174.4 122.436H144.2V125.036H174.4V122.436Z" fill="#CCCCCC"/>
<path d="M166.4 141.036H144.2V143.636H166.4V141.036Z" fill="#CCCCCC"/>
<path d="M174.4 146.636H144.2V149.236H174.4V146.636Z" fill="#CCCCCC"/>
<path d="M174.4 152.236H144.2V154.836H174.4V152.236Z" fill="#CCCCCC"/>
<path d="M71.356 124.896C71.356 124.896 72.556 128.032 72.776 128.404C72.996 128.776 69.94 130.048 69.268 130.344C68.596 130.64 67.476 126.836 67.476 126.836L71.356 124.896Z" fill="#C13E4A" stroke="#651A21" stroke-width="0.4" stroke-linecap="round" stroke-linejoin="round"/>
<path d="M62.332 93.4C62.332 93.4 64.832 93.6 65.632 96.8C66.432 100 67.532 108.3 67.532 110.2C67.532 112.1 69.632 119.6 70.732 121.1C71.832 122.6 72.232 125.1 71.332 125.8C70.432 126.5 68.832 128.6 66.732 126.6C64.632 124.6 62.032 117.9 61.832 115.9C61.632 113.9 62.532 110.4 62.632 109C62.732 107.6 62.532 99.1 61.732 97.2C60.932 95.3 60.532 94 60.532 94C60.532 94 60.932 93.2 62.332 93.4Z" fill="#C13E4A" stroke="#651A21" stroke-width="0.4" stroke-linecap="round" stroke-linejoin="round"/>
<path d="M70.832 133.2C70.832 133.2 71.58 134.62 71.432 134.992C71.284 135.364 70.536 135.068 70.232 135.144C69.928 135.22 69.712 136.188 70.232 136.488C70.752 136.788 71.128 137.756 71.876 137.532C72.624 137.308 72.92 135.44 72.92 134.172C72.92 132.904 71.504 132.136 70.832 133.2Z" fill="#651A21" stroke="#651A21" stroke-width="0.4" stroke-linecap="round" stroke-linejoin="round"/>
<path d="M69.2 129.824C69.2 129.824 68.752 132.96 68.9 133.628C69.0721 134.441 69.1976 135.264 69.276 136.092C69.276 136.392 69.276 137.064 70.244 136.468C71.212 135.872 70.392 134.468 70.544 133.928C70.696 133.388 71.512 133.404 71.812 133.852C72.1469 134.462 72.2773 135.163 72.184 135.852C72.112 136.676 70.916 137.644 71.216 137.944C71.516 138.244 72.112 138.316 72.784 137.496C73.456 136.676 73.828 134.884 73.68 133.764C73.532 132.644 73.232 130.48 72.932 129.656C72.7525 129.164 72.5275 128.69 72.26 128.24L69.2 129.824Z" fill="white" stroke="#651A21" stroke-width="0.4" stroke-linecap="round" stroke-linejoin="round"/>
<path d="M52.428 85.8199C52.428 85.8199 53.0999 90.9279 52.3599 91.9399C51.6199 92.9519 48.796 93.2839 46.644 94.2919C44.492 95.2999 44.696 96.7119 44.696 98.5959C44.696 100.48 48.46 111.236 48.26 113.188C48.06 115.14 43.016 120.652 42.14 126.164C41.264 131.676 46.376 147.616 47.048 150.164C47.72 152.712 48.328 154.332 47.588 156.752C46.848 159.172 45.5879 160.992 45.4359 165.228C45.2839 169.464 48.528 180.76 48.728 181.836C48.928 182.912 47.452 186.272 47.048 188.024C46.644 189.776 48.192 190.512 49.448 190.444C50.704 190.376 52.9479 189.904 52.9479 189.032C52.9479 188.16 52.208 184.256 52.208 182.776C52.208 181.296 52.408 178.944 52.408 177.936C52.408 176.928 53.484 167.244 53.752 165.228C54.02 163.212 54.8 160 54.8 160C54.8 160 54.6 170.288 54.332 173.112C54.064 175.936 53.2559 185.552 53.6599 186.564C54.0639 187.576 55.7439 187.364 57.5599 187.704C59.3759 188.044 58.836 188.716 61.056 189.116C63.276 189.516 66.164 189.656 65.828 188.58C65.492 187.504 63.14 186.092 61.928 184.412C60.716 182.732 59.1719 181.384 59.1039 180.916C59.0601 180.062 59.1057 179.205 59.24 178.36C59.376 177.416 61.24 173.316 61.928 170.424C62.616 167.532 62.4 166.86 62.6039 162.424C62.8079 157.988 61.66 155.696 62.4 152.872C63.14 150.048 65.676 140.824 66.4 135.6C67.124 130.376 67.4919 125.54 67.0159 123.22C66.1159 118.82 63.844 115.896 63.44 114.216C63.036 112.536 64.92 109.576 65.792 105.34C66.6639 101.104 65.056 97.4719 64.1919 95.4559C63.3279 93.4399 60.492 92.5639 60.024 92.3639C59.556 92.1639 59.148 89.9399 59.08 88.5279C59.0119 87.1159 59.0159 86.3759 59.0159 86.3759L52.428 85.8199Z" fill="#651A21" stroke="#651A21" stroke-width="0.4" stroke-linecap="round" stroke-linejoin="round"/>
<path d="M47.048 188.032C47.448 186.28 48.932 182.92 48.728 181.844C48.644 181.384 48.008 179.068 47.316 176.244C49.0457 176.756 50.8961 176.683 52.58 176.036C52.488 177.008 52.428 177.72 52.428 177.956C52.428 178.964 52.228 181.316 52.228 182.796C52.228 184.276 52.968 188.176 52.968 189.052C52.968 189.928 50.748 190.396 49.468 190.464C48.188 190.532 46.644 189.78 47.048 188.032ZM65.808 188.568C65.472 187.492 63.12 186.08 61.908 184.4C60.696 182.72 59.152 181.372 59.084 180.904C59.0402 180.05 59.0857 179.193 59.22 178.348C59.4024 177.632 59.6391 176.932 59.928 176.252C58.9813 176.612 57.9691 176.766 56.9582 176.706C55.9473 176.645 54.9609 176.37 54.064 175.9C53.736 179.856 53.328 185.772 53.64 186.552C54.04 187.56 55.724 187.352 57.54 187.692C59.356 188.032 58.816 188.704 61.036 189.104C63.256 189.504 66.144 189.644 65.808 188.568Z" fill="white" stroke="#651A21" stroke-width="0.4" stroke-linecap="round" stroke-linejoin="round"/>
<path d="M65.8079 188.568C65.4719 187.492 63.1199 186.08 61.9079 184.4C60.6959 182.72 59.1519 181.372 59.0839 180.904C59.0839 180.904 57.6319 181.4 57.4319 182.104C57.291 182.579 57.124 183.047 56.9319 183.504C55.9889 183.667 55.0189 183.563 54.1319 183.204C53.9239 183.108 53.7319 183.02 53.5879 182.94C53.5039 184.764 53.4959 186.2 53.6399 186.54C54.0399 187.548 55.7239 187.34 57.5399 187.68C59.3559 188.02 58.8159 188.692 61.0359 189.092C63.2559 189.492 66.1439 189.644 65.8079 188.568Z" fill="white" stroke="#651A21" stroke-width="0.4" stroke-linecap="round" stroke-linejoin="round"/>
<path d="M65.812 188.572C62.612 189.112 59.752 187.664 57.996 186.94C56.5604 186.422 55.0664 186.084 53.548 185.932C53.5502 186.142 53.5811 186.351 53.64 186.552C54.04 187.56 55.724 187.352 57.54 187.692C59.356 188.032 58.816 188.704 61.036 189.104C63.256 189.504 66.136 189.644 65.812 188.572Z" fill="#C13E4A" stroke="#651A21" stroke-width="0.4" stroke-linecap="round" stroke-linejoin="round"/>
<path d="M52.2279 182.572C51.6212 182.224 50.9263 182.06 50.2279 182.1C49.712 182.081 49.1984 182.177 48.7239 182.38C48.5559 183.776 47.3959 186.512 47.0439 188.032C46.6439 189.78 48.1879 190.52 49.4439 190.452C50.6999 190.384 52.9439 189.912 52.9439 189.04C52.9439 188.168 52.2039 184.264 52.2039 182.784L52.2279 182.572Z" fill="white" stroke="#651A21" stroke-width="0.4" stroke-linecap="round" stroke-linejoin="round"/>
<path d="M52.9679 189.04C52.9679 188.824 52.9199 188.428 52.8559 187.932C52.4559 188.612 51.6559 189.456 50.0119 189.532C47.2119 189.648 47.2119 187.532 47.2119 187.532C47.1639 187.708 47.1159 187.88 47.0799 188.036C46.6799 189.784 48.2239 190.524 49.4799 190.456C50.7359 190.388 52.9679 189.912 52.9679 189.04Z" fill="#C13E4A" stroke="#651A21" stroke-width="0.4" stroke-linecap="round" stroke-linejoin="round"/>
<path d="M63.4559 114.196C63.0559 112.516 64.9359 109.556 65.8079 105.32C66.6799 101.084 65.0719 97.4519 64.2079 95.4359C63.3439 93.4199 60.5079 92.5439 60.0399 92.3439C59.5719 92.1439 59.1639 89.9199 59.0959 88.5079C59.0279 87.0959 59.0319 86.3559 59.0319 86.3559L52.4399 85.8199C52.4399 85.8199 53.1119 90.9279 52.3719 91.9399C51.6319 92.9519 48.8079 93.2839 46.6559 94.2919C44.5039 95.2999 44.7079 96.7119 44.7079 98.5959C44.7079 100.48 48.4719 111.236 48.2719 113.188C48.0719 115.14 43.0279 120.652 42.1519 126.164C42.1279 126.316 42.1119 126.476 42.0959 126.644C46.5636 128.149 51.2313 128.976 55.9439 129.1C61.7999 129.28 65.3599 127.528 67.2599 126.112C67.283 125.137 67.2107 124.161 67.0439 123.2C66.1319 118.8 63.8599 115.876 63.4559 114.196Z" fill="#C13E4A" stroke="#651A21" stroke-width="0.4" stroke-linecap="round" stroke-linejoin="round"/>
<path d="M60.028 92.3439C59.556 92.1399 59.152 89.9199 59.084 88.5079C59.016 87.0959 59.02 86.3559 59.02 86.3559L52.428 85.8199C52.428 85.8199 53.1 90.9279 52.36 91.9399C51.912 92.5519 50.684 92.9199 49.308 93.3399C49.624 93.7399 51.896 96.4399 56.868 95.5679C58.7277 95.2835 60.4535 94.4297 61.808 93.1239C61.2325 92.8251 60.6378 92.5645 60.028 92.3439Z" fill="white" stroke="#651A21" stroke-width="0.4" stroke-linecap="round" stroke-linejoin="round"/>
<path d="M59.084 88.508C59.02 87.096 59.02 86.356 59.02 86.356L54.86 86.016L54.5 86.816C54.5 86.816 56.5 88.908 59.176 89.556C59.132 89.176 59.1 88.824 59.084 88.508Z" fill="#651A21" stroke="#651A21" stroke-width="0.4" stroke-linecap="round" stroke-linejoin="round"/>
<path d="M53.9399 86.772L53.8439 88.328C53.8439 88.328 52.0679 89.724 47.0199 86.404C41.9719 83.084 42.8799 72.24 47.0199 68.752C51.1599 65.264 57.2759 65.992 59.0199 66.948C60.7639 67.904 62.0639 67.264 62.7559 69.984C63.4479 72.704 62.2479 73.984 62.2479 73.984C62.2479 73.984 61.1239 72.728 60.6479 72.484C60.1719 72.24 58.2479 72.564 57.4719 73.628C56.6959 74.692 55.4519 82.004 55.2279 83.496C54.9771 84.65 54.5422 85.7561 53.9399 86.772Z" fill="#651A21" stroke="#651A21" stroke-width="0.4" stroke-linecap="round" stroke-linejoin="round"/>
<path d="M59.8719 70.5199C59.8719 70.5199 61.9679 71.6559 63.1399 75.5319C64.3119 79.4079 64.3399 83.7719 63.9799 84.8999C63.8037 85.4334 63.5039 85.9177 63.1049 86.3133C62.7058 86.7088 62.219 87.0044 61.6839 87.1759C60.2626 87.5577 58.7815 87.665 57.3199 87.4919C56.1199 87.2719 53.9399 86.7719 53.9399 86.7719C53.9399 86.7719 54.9599 70.3999 59.8719 70.5199Z" fill="white" stroke="#651A21" stroke-width="0.4" stroke-linecap="round" stroke-linejoin="round"/>
<path d="M61.144 75.3199C61.144 75.3199 60.744 76.6239 61.144 77.5999C61.544 78.5759 63.108 78.9559 62.896 79.3679C62.684 79.7799 61.276 80.7279 61.276 80.7279" stroke="#651A21" stroke-width="0.4" stroke-linecap="round" stroke-linejoin="round"/>
<path d="M62.188 82.2839C62.188 82.2839 61.604 83.0279 59.288 82.4799" stroke="#651A21" stroke-width="0.4" stroke-linecap="round" stroke-linejoin="round"/>
<path d="M58.5079 78.424C58.6159 78.752 58.5479 79.068 58.3599 79.128C58.1719 79.188 57.9319 78.976 57.8239 78.652C57.7159 78.328 57.7839 78.008 57.9719 77.948C58.1599 77.888 58.3999 78.1 58.5079 78.424Z" fill="#651A21"/>
<path d="M62.3999 76.496C62.5039 76.824 62.4399 77.136 62.2519 77.2C62.0639 77.264 61.8199 77.048 61.7159 76.72C61.6119 76.392 61.6719 76.08 61.8639 76.016C62.0559 75.952 62.2839 76.168 62.3999 76.496Z" fill="#651A21"/>
<path d="M56.204 77.4919C56.204 77.4919 56.416 76.4599 57.848 75.9879" stroke="#651A21" stroke-width="0.4" stroke-linecap="round" stroke-linejoin="round"/>
<path d="M61.0399 74.8C61.0399 74.8 62.0599 74.124 62.6959 75.016" stroke="#651A21" stroke-width="0.4" stroke-linecap="round" stroke-linejoin="round"/>
<path d="M75.04 97.4L71.412 97.48C71.3339 97.4815 71.2563 97.4665 71.1844 97.4358C71.1126 97.4051 71.048 97.3595 70.9951 97.3021C70.9422 97.2446 70.902 97.1765 70.8774 97.1024C70.8527 97.0283 70.844 96.9497 70.852 96.872L71.904 87.396C71.9168 87.2633 71.9782 87.1401 72.0764 87.05C72.1747 86.9599 72.3027 86.9093 72.436 86.908L76.068 86.828C76.1461 86.8257 76.2239 86.8403 76.2959 86.8708C76.3679 86.9013 76.4325 86.9469 76.4852 87.0046C76.538 87.0623 76.5777 87.1307 76.6016 87.2052C76.6256 87.2796 76.6332 87.3583 76.624 87.436L75.576 96.912C75.5606 97.0443 75.4978 97.1666 75.3993 97.2563C75.3008 97.346 75.1732 97.397 75.04 97.4Z" fill="#651A21" stroke="#651A21" stroke-width="0.4" stroke-linecap="round" stroke-linejoin="round"/>
<path d="M67.4239 98.932C67.4239 98.932 68.2959 95.436 68.4319 94.56C68.5679 93.684 68.9039 93.08 69.4399 93.016C69.9759 92.952 70.5839 92.812 70.5839 92.812C70.5839 92.812 73.6759 91.212 74.7519 91.064C75.8279 90.916 76.2319 91.064 75.8959 91.464C75.5599 91.864 73.7439 92.876 73.1399 93.212C72.5359 93.548 71.7279 94.012 71.7279 94.356C71.7279 94.7 72.8039 94.556 73.0719 94.356C73.3399 94.156 75.2919 93.012 76.0319 93.076C76.7719 93.14 76.1639 94.22 75.4239 94.556C74.6839 94.892 72.5999 96.64 72.5999 96.64C73.451 96.2869 74.2817 95.8862 75.0879 95.44C75.6959 95.04 75.7599 94.564 76.2319 94.7C76.7039 94.836 76.5679 95.844 75.8959 96.448C75.2239 97.052 74.6199 98.264 73.8119 98.8C73.0039 99.336 68.9719 101.828 68.9719 101.828L66.8839 99.2L67.4239 98.932Z" fill="white" stroke="#651A21" stroke-width="0.4" stroke-linecap="round" stroke-linejoin="round"/>
<path d="M75.572 96.7999C74.7396 97.5072 73.7927 98.0672 72.772 98.4559" stroke="#651A21" stroke-width="0.4" stroke-linecap="round" stroke-linejoin="round"/>
<path d="M70.2239 92.968C69.7194 93.2627 69.3227 93.7113 69.0919 94.248" stroke="#651A21" stroke-width="0.4" stroke-linecap="round" stroke-linejoin="round"/>
<path d="M67.1559 98.26L70.3839 102.16L67.3559 103.976L64.7999 100.412L67.1559 98.26Z" fill="#C13E4A" stroke="#651A21" stroke-width="0.4" stroke-linecap="round" stroke-linejoin="round"/>
<path d="M46.1759 94.6279C46.1759 94.6279 43.4159 95.2319 43.3519 98.7959C43.2879 102.36 48.3919 114.868 49.0679 115.596C49.7439 116.324 51.6199 115.8 52.2279 115.46C52.8359 115.12 65.3399 107.26 66.5479 106.184C66.5479 106.184 67.6239 105.172 67.6919 104.432C67.7599 103.692 65.8079 101.208 65.8079 101.208C65.8079 101.208 64.4639 100.008 63.4559 99.9279C62.4479 99.8479 52.8319 107.528 52.8319 107.528C52.8319 107.528 49.6719 98.1799 49.1999 97.7759" fill="#C13E4A"/>
<path d="M46.1759 94.6279C46.1759 94.6279 43.4159 95.2319 43.3519 98.7959C43.2879 102.36 48.3919 114.868 49.0679 115.596C49.7439 116.324 51.6199 115.8 52.2279 115.46C52.8359 115.12 65.3399 107.26 66.5479 106.184C66.5479 106.184 67.6239 105.172 67.6919 104.432C67.7599 103.692 65.8079 101.208 65.8079 101.208C65.8079 101.208 64.4639 100.008 63.4559 99.9279C62.4479 99.8479 52.8319 107.528 52.8319 107.528C52.8319 107.528 49.6719 98.1799 49.1999 97.7759" stroke="#651A21" stroke-width="0.4" stroke-linecap="round" stroke-linejoin="round"/>
<path d="M81.896 134.956L80.268 132.644L73.296 142.572H76.724V149.664H79.532" stroke="#651A21" stroke-width="0.4" stroke-linecap="round" stroke-linejoin="round"/>
<path d="M81.02 149.664H83.816V142.572H87.244L82.46 135.764" stroke="#651A21" stroke-width="0.4" stroke-linecap="round" stroke-linejoin="round"/>
<path d="M92.932 99.64L88.58 93.444L84.228 99.64H86.368V104.068H90.792V99.64H92.932Z" stroke="#651A21" stroke-width="0.4" stroke-linecap="round" stroke-linejoin="round"/>
<path d="M158.884 32.1559L161.332 28.6679H159.192V24.2439H154.768V28.6679H152.628L156.98 34.8679L158.044 33.3519" stroke="#651A21" stroke-width="0.4" stroke-linecap="round" stroke-linejoin="round"/>
<path d="M188.824 124.356L191.6 120.4H189.46V115.972H187.68" stroke="#651A21" stroke-width="0.4" stroke-linecap="round" stroke-linejoin="round"/>
<path d="M186.3 115.972H185.032V120.4H182.896L187.248 126.596L188.02 125.496" stroke="#651A21" stroke-width="0.4" stroke-linecap="round" stroke-linejoin="round"/>
<path d="M44.76 48.068H46.26V43.64H48.4L44.048 37.444L39.696 43.64H41.832V48.068H43.616" stroke="#651A21" stroke-width="0.4" stroke-linecap="round" stroke-linejoin="round"/>
<path d="M82.1521 32.2999L75.1801 22.3719L68.2041 32.2999H71.6321V39.3919H78.7241V32.2999H82.1521Z" fill="#C13E4A" stroke="#651A21" stroke-width="0.4" stroke-linecap="round" stroke-linejoin="round"/>
<path d="M115.14 55.2039L122.112 65.1319L129.088 55.2039H125.66V48.1119H118.568V55.2039H115.14Z" fill="#C13E4A" stroke="#651A21" stroke-width="0.4" stroke-linecap="round" stroke-linejoin="round"/>
</svg>
