<svg width="361" height="250" viewBox="0 0 361 250" fill="none" xmlns="http://www.w3.org/2000/svg">
<rect y="11" width="361" height="227" rx="4" fill="#E19199" fill-opacity="0.1"/>
<path d="M269.25 195H100.05C100.05 195 62.5 174.815 77.025 110.22C84.525 76.845 122.26 45.22 169.025 35.89L170.085 35.68C184.085 32.99 196.77 32.18 208.03 32.815C234.71 34.315 253.5 43.815 263.805 55.315C278.46 71.69 253.635 107.045 264.56 125.205C275.485 143.365 309.3 170.085 269.25 195Z" fill="#C13E4A"/>
<path opacity="0.7" d="M269.25 195H100.05C100.05 195 62.5 174.815 77.025 110.22C84.525 76.845 122.26 45.22 169.025 35.89L170.085 35.68C184.085 32.99 196.77 32.18 208.03 32.815C234.71 34.315 253.5 43.815 263.805 55.315C278.46 71.69 253.635 107.045 264.56 125.205C275.485 143.365 309.3 170.085 269.25 195Z" fill="white"/>
<path d="M175.75 55.925L171.915 53.63V57.73" stroke="#651A21" stroke-width="0.5" stroke-linecap="round" stroke-linejoin="round"/>
<path d="M171.915 60.105V62.5" stroke="#263238" stroke-width="0.5" stroke-linecap="round" stroke-linejoin="round"/>
<path d="M171.915 62.5V65.965L175.805 63.635" stroke="#651A21" stroke-width="0.5" stroke-linecap="round" stroke-linejoin="round"/>
<path d="M177.745 62.455L182.21 59.785L177.34 56.875" stroke="#651A21" stroke-width="0.5" stroke-linecap="round" stroke-linejoin="round"/>
<path d="M71.575 148.77V146.635H74V149.165" stroke="#651A21" stroke-width="0.5" stroke-linecap="round" stroke-linejoin="round"/>
<path d="M73.9999 151V157.455H73.1599" stroke="#651A21" stroke-width="0.5" stroke-linecap="round" stroke-linejoin="round"/>
<path d="M72.63 157.465H71.575V153.385" stroke="#651A21" stroke-width="0.5" stroke-linecap="round" stroke-linejoin="round"/>
<path d="M71.575 151.54V149.825" stroke="#651A21" stroke-width="0.5" stroke-linecap="round" stroke-linejoin="round"/>
<path d="M76.885 147.845V146.635H79.305V148.9" stroke="#651A21" stroke-width="0.5" stroke-linecap="round" stroke-linejoin="round"/>
<path d="M79.3049 151.54V153.65" stroke="#651A21" stroke-width="0.5" stroke-linecap="round" stroke-linejoin="round"/>
<path d="M79.305 154.705V157.465H76.885V148.77" stroke="#651A21" stroke-width="0.5" stroke-linecap="round" stroke-linejoin="round"/>
<path d="M277.45 143.425H279.23" stroke="#651A21" stroke-width="0.5" stroke-linecap="round" stroke-linejoin="round"/>
<path d="M281.17 143.425H284.54V154.065H281.82" stroke="#651A21" stroke-width="0.5" stroke-linecap="round" stroke-linejoin="round"/>
<path d="M279.555 154.065H273.895V149.565" stroke="#651A21" stroke-width="0.5" stroke-linecap="round" stroke-linejoin="round"/>
<path d="M273.895 148.415V143.415H276" stroke="#651A21" stroke-width="0.5" stroke-linecap="round" stroke-linejoin="round"/>
<path d="M67.9951 195H294.005" stroke="#651A21" stroke-width="0.5" stroke-linecap="round" stroke-linejoin="round"/>
<path d="M241.29 210C226.315 210 226.315 215.835 151.915 215.835C104.955 215.835 87.365 213.835 88.995 209.835C89.285 209.13 93.695 206.95 89.095 205.92C86.55 205.345 77.03 204.89 74.82 203.12C72.27 201.07 79.82 198.865 93.07 198.865" stroke="#651A21" stroke-linecap="round" stroke-linejoin="round"/>
<path d="M100.755 82.665H261.25C262.067 82.665 262.73 83.3276 262.73 84.145V192.405C262.73 193.222 262.067 193.885 261.25 193.885H100.755C99.9375 193.885 99.2749 193.222 99.2749 192.405V84.145C99.2749 83.3276 99.9375 82.665 100.755 82.665Z" fill="#651A21" stroke="#651A21" stroke-width="0.5"/>
<path d="M260.95 87.315H101.055V186.67H260.95V87.315Z" fill="white" stroke="#651A21" stroke-width="0.5" stroke-linecap="round" stroke-linejoin="round"/>
<path d="M176.645 189.415H185.355C185.501 189.415 185.62 189.534 185.62 189.68V190.475C185.62 190.621 185.501 190.74 185.355 190.74H176.645C176.499 190.74 176.38 190.621 176.38 190.475V189.68C176.38 189.534 176.499 189.415 176.645 189.415Z" fill="white" stroke="#651A21" stroke-width="0.5"/>
<path d="M182.055 84.7499C182.055 85.3326 181.583 85.8049 181 85.8049C180.417 85.8049 179.945 85.3326 179.945 84.7499C179.945 84.1673 180.417 83.6949 181 83.6949C181.583 83.6949 182.055 84.1673 182.055 84.7499Z" fill="white" stroke="#651A21" stroke-width="0.5"/>
<path d="M208.795 172.6V177.815L212.655 175.21L208.795 172.6Z" stroke="#651A21" stroke-width="0.5" stroke-linecap="round" stroke-linejoin="round"/>
<path d="M212.875 172.6V177.815L216.735 175.21L212.875 172.6Z" stroke="#651A21" stroke-width="0.5" stroke-linecap="round" stroke-linejoin="round"/>
<path d="M178.995 177.815V172.6L175.13 175.21L178.995 177.815Z" stroke="#651A21" stroke-width="0.5" stroke-linecap="round" stroke-linejoin="round"/>
<path d="M174.92 172.6V177.815" stroke="#651A21" stroke-width="0.5" stroke-linecap="round" stroke-linejoin="round"/>
<path d="M173.815 172.6V177.815" stroke="#651A21" stroke-width="0.5" stroke-linecap="round" stroke-linejoin="round"/>
<path d="M222.295 172.6V177.815L226.16 175.21L222.295 172.6Z" stroke="#651A21" stroke-width="0.5" stroke-linecap="round" stroke-linejoin="round"/>
<path d="M226.37 177.815V172.6" stroke="#651A21" stroke-width="0.5" stroke-linecap="round" stroke-linejoin="round"/>
<path d="M227.475 177.815V172.6" stroke="#651A21" stroke-width="0.5" stroke-linecap="round" stroke-linejoin="round"/>
<path d="M192.495 177.815V172.6L188.63 175.21L192.495 177.815Z" stroke="#651A21" stroke-width="0.5" stroke-linecap="round" stroke-linejoin="round"/>
<path d="M188.415 177.815V172.6L184.555 175.21L188.415 177.815Z" stroke="#651A21" stroke-width="0.5" stroke-linecap="round" stroke-linejoin="round"/>
<path d="M198.715 172.6V177.815L202.575 175.21L198.715 172.6Z" stroke="#651A21" stroke-width="0.5" stroke-linecap="round" stroke-linejoin="round"/>
<path opacity="0.5" d="M102.23 91.235V88.31H259.77V91.235H102.23Z" fill="#C13E4A" stroke="#651A21" stroke-width="0.5"/>
<path d="M101.98 91.485H260.02" stroke="#651A21" stroke-width="0.5" stroke-linecap="round" stroke-linejoin="round"/>
<path d="M104.885 89.69H110.005" stroke="#651A21" stroke-width="0.5" stroke-linecap="round" stroke-linejoin="round"/>
<path d="M115.6 89.69H120.205" stroke="#651A21" stroke-width="0.5" stroke-linecap="round" stroke-linejoin="round"/>
<path d="M126.175 89.69H130.655" stroke="#651A21" stroke-width="0.5" stroke-linecap="round" stroke-linejoin="round"/>
<path d="M138.4 185.655V91.735H140.265V185.655H138.4Z" fill="#651A21" stroke="#651A21" stroke-width="0.5"/>
<path d="M139.85 124.715H138.815C138.448 124.715 138.15 125.013 138.15 125.38V130.585C138.15 130.952 138.448 131.25 138.815 131.25H139.85C140.217 131.25 140.515 130.952 140.515 130.585V125.38C140.515 125.013 140.217 124.715 139.85 124.715Z" fill="#E19199" stroke="#651A21" stroke-width="0.5" stroke-linecap="round" stroke-linejoin="round"/>
<path d="M145.745 168.43V96.305H255.545V168.43H145.745Z" fill="#651A21" stroke="#651A21" stroke-width="0.5"/>
<path d="M194.49 126.215V138.525L206.8 132.37L194.49 126.215Z" fill="#E19199" stroke="#651A21" stroke-width="0.5" stroke-linecap="round" stroke-linejoin="round"/>
<path opacity="0.5" d="M105.77 102.605V95.35H117.045V102.605H105.77Z" fill="#C13E4A" stroke="#651A21" stroke-width="0.5"/>
<path d="M110.36 98.0795L112.152 98.9754L110.36 99.8748V98.0795Z" fill="#651A21" stroke="#651A21" stroke-width="0.5"/>
<g opacity="0.5">
<path d="M104.65 95.53V95.35H104.965V95.53H104.65Z" fill="black" stroke="#651A21" stroke-width="0.5"/>
<path d="M104.65 96.71V96.53H104.965V96.71H104.65Z" fill="black" stroke="#651A21" stroke-width="0.5"/>
<path d="M104.65 97.89V97.71H104.965V97.89H104.65Z" fill="black" stroke="#651A21" stroke-width="0.5"/>
<path d="M104.65 99.065V98.885H104.965V99.065H104.65Z" fill="black" stroke="#651A21" stroke-width="0.5"/>
<path d="M104.65 100.245V100.065H104.965V100.245H104.65Z" fill="black" stroke="#651A21" stroke-width="0.5"/>
<path d="M104.65 101.425V101.245H104.965V101.425H104.65Z" fill="black" stroke="#651A21" stroke-width="0.5"/>
<path d="M104.65 102.605V102.425H104.965V102.605H104.65Z" fill="black" stroke="#651A21" stroke-width="0.5"/>
<path d="M117.855 95.53V95.35H118.17V95.53H117.855Z" fill="black" stroke="#651A21" stroke-width="0.5"/>
<path d="M117.855 96.71V96.53H118.17V96.71H117.855Z" fill="black" stroke="#651A21" stroke-width="0.5"/>
<path d="M117.855 97.89V97.71H118.17V97.89H117.855Z" fill="black" stroke="#651A21" stroke-width="0.5"/>
<path d="M117.855 99.065V98.885H118.17V99.065H117.855Z" fill="black" stroke="#651A21" stroke-width="0.5"/>
<path d="M117.855 100.245V100.065H118.17V100.245H117.855Z" fill="black" stroke="#651A21" stroke-width="0.5"/>
<path d="M117.855 101.425V101.245H118.17V101.425H117.855Z" fill="black" stroke="#651A21" stroke-width="0.5"/>
<path d="M117.855 102.605V102.425H118.17V102.605H117.855Z" fill="black" stroke="#651A21" stroke-width="0.5"/>
</g>
<path d="M108.175 104.705H114.645" stroke="#651A21" stroke-width="0.5" stroke-linecap="round" stroke-linejoin="round"/>
<path opacity="0.5" d="M122.295 102.605V95.35H133.57V102.605H122.295Z" fill="#C13E4A" stroke="#651A21" stroke-width="0.5"/>
<path d="M126.88 98.0791L128.676 98.9754L126.88 99.8751V98.0791Z" fill="#651A21" stroke="#651A21" stroke-width="0.5"/>
<g opacity="0.5">
<path d="M121.17 95.53V95.35H121.485V95.53H121.17Z" fill="black" stroke="#651A21" stroke-width="0.5"/>
<path d="M121.17 96.71V96.53H121.485V96.71H121.17Z" fill="black" stroke="#651A21" stroke-width="0.5"/>
<path d="M121.17 97.89V97.71H121.485V97.89H121.17Z" fill="black" stroke="#651A21" stroke-width="0.5"/>
<path d="M121.17 99.065V98.885H121.485V99.065H121.17Z" fill="black" stroke="#651A21" stroke-width="0.5"/>
<path d="M121.17 100.245V100.065H121.485V100.245H121.17Z" fill="black" stroke="#651A21" stroke-width="0.5"/>
<path d="M121.17 101.425V101.245H121.485V101.425H121.17Z" fill="black" stroke="#651A21" stroke-width="0.5"/>
<path d="M121.17 102.605V102.425H121.485V102.605H121.17Z" fill="black" stroke="#651A21" stroke-width="0.5"/>
<path d="M134.375 95.53V95.35H134.69V95.53H134.375Z" fill="black" stroke="#651A21" stroke-width="0.5"/>
<path d="M134.375 96.71V96.53H134.69V96.71H134.375Z" fill="black" stroke="#651A21" stroke-width="0.5"/>
<path d="M134.375 97.89V97.71H134.69V97.89H134.375Z" fill="black" stroke="#651A21" stroke-width="0.5"/>
<path d="M134.375 99.065V98.885H134.69V99.065H134.375Z" fill="black" stroke="#651A21" stroke-width="0.5"/>
<path d="M134.375 100.245V100.065H134.69V100.245H134.375Z" fill="black" stroke="#651A21" stroke-width="0.5"/>
<path d="M134.375 101.425V101.245H134.69V101.425H134.375Z" fill="black" stroke="#651A21" stroke-width="0.5"/>
<path d="M134.375 102.605V102.425H134.69V102.605H134.375Z" fill="black" stroke="#651A21" stroke-width="0.5"/>
</g>
<path d="M124.7 104.705H131.165" stroke="#651A21" stroke-width="0.5" stroke-linecap="round" stroke-linejoin="round"/>
<path opacity="0.5" d="M105.77 115.79V108.535H117.045V115.79H105.77Z" fill="#C13E4A" stroke="#651A21" stroke-width="0.5"/>
<path d="M110.36 111.264L112.151 112.16L110.36 113.055V111.264Z" fill="#651A21" stroke="#651A21" stroke-width="0.5"/>
<g opacity="0.5">
<path d="M104.65 108.715V108.535H104.965V108.715H104.65Z" fill="black" stroke="#651A21" stroke-width="0.5"/>
<path d="M104.65 109.89V109.71H104.965V109.89H104.65Z" fill="black" stroke="#651A21" stroke-width="0.5"/>
<path d="M104.65 111.07V110.89H104.965V111.07H104.65Z" fill="black" stroke="#651A21" stroke-width="0.5"/>
<path d="M104.65 112.25V112.07H104.965V112.25H104.65Z" fill="black" stroke="#651A21" stroke-width="0.5"/>
<path d="M104.65 113.43V113.25H104.965V113.43H104.65Z" fill="black" stroke="#651A21" stroke-width="0.5"/>
<path d="M104.65 114.605V114.425H104.965V114.605H104.65Z" fill="black" stroke="#651A21" stroke-width="0.5"/>
<path d="M104.65 115.785V115.605H104.965V115.785H104.65Z" fill="black" stroke="#651A21" stroke-width="0.5"/>
<path d="M117.855 108.715V108.535H118.17V108.715H117.855Z" fill="black" stroke="#651A21" stroke-width="0.5"/>
<path d="M117.855 109.89V109.71H118.17V109.89H117.855Z" fill="black" stroke="#651A21" stroke-width="0.5"/>
<path d="M117.855 111.07V110.89H118.17V111.07H117.855Z" fill="black" stroke="#651A21" stroke-width="0.5"/>
<path d="M117.855 112.25V112.07H118.17V112.25H117.855Z" fill="black" stroke="#651A21" stroke-width="0.5"/>
<path d="M117.855 113.43V113.25H118.17V113.43H117.855Z" fill="black" stroke="#651A21" stroke-width="0.5"/>
<path d="M117.855 114.605V114.425H118.17V114.605H117.855Z" fill="black" stroke="#651A21" stroke-width="0.5"/>
<path d="M117.855 115.785V115.605H118.17V115.785H117.855Z" fill="black" stroke="#651A21" stroke-width="0.5"/>
</g>
<path d="M108.175 117.885H114.645" stroke="#651A21" stroke-width="0.5" stroke-linecap="round" stroke-linejoin="round"/>
<path opacity="0.5" d="M122.295 115.79V108.535H133.57V115.79H122.295Z" fill="#C13E4A" stroke="#651A21" stroke-width="0.5"/>
<path d="M126.88 111.264L128.675 112.16L126.88 113.056V111.264Z" fill="#651A21" stroke="#651A21" stroke-width="0.5"/>
<g opacity="0.5">
<path d="M121.17 108.715V108.535H121.485V108.715H121.17Z" fill="black" stroke="#651A21" stroke-width="0.5"/>
<path d="M121.17 109.89V109.71H121.485V109.89H121.17Z" fill="black" stroke="#651A21" stroke-width="0.5"/>
<path d="M121.17 111.07V110.89H121.485V111.07H121.17Z" fill="black" stroke="#651A21" stroke-width="0.5"/>
<path d="M121.17 112.25V112.07H121.485V112.25H121.17Z" fill="black" stroke="#651A21" stroke-width="0.5"/>
<path d="M121.17 113.43V113.25H121.485V113.43H121.17Z" fill="black" stroke="#651A21" stroke-width="0.5"/>
<path d="M121.17 114.605V114.425H121.485V114.605H121.17Z" fill="black" stroke="#651A21" stroke-width="0.5"/>
<path d="M121.17 115.785V115.605H121.485V115.785H121.17Z" fill="black" stroke="#651A21" stroke-width="0.5"/>
<path d="M134.375 108.715V108.535H134.69V108.715H134.375Z" fill="black" stroke="#651A21" stroke-width="0.5"/>
<path d="M134.375 109.89V109.71H134.69V109.89H134.375Z" fill="black" stroke="#651A21" stroke-width="0.5"/>
<path d="M134.375 111.07V110.89H134.69V111.07H134.375Z" fill="black" stroke="#651A21" stroke-width="0.5"/>
<path d="M134.375 112.25V112.07H134.69V112.25H134.375Z" fill="black" stroke="#651A21" stroke-width="0.5"/>
<path d="M134.375 113.43V113.25H134.69V113.43H134.375Z" fill="black" stroke="#651A21" stroke-width="0.5"/>
<path d="M134.375 114.605V114.425H134.69V114.605H134.375Z" fill="black" stroke="#651A21" stroke-width="0.5"/>
<path d="M134.375 115.785V115.605H134.69V115.785H134.375Z" fill="black" stroke="#651A21" stroke-width="0.5"/>
</g>
<path d="M124.7 117.885H131.165" stroke="#651A21" stroke-width="0.5" stroke-linecap="round" stroke-linejoin="round"/>
<path opacity="0.5" d="M105.77 128.97V121.715H117.045V128.97H105.77Z" fill="#C13E4A" stroke="#651A21" stroke-width="0.5"/>
<path d="M110.36 124.449L112.151 125.345L110.36 126.24V124.449Z" fill="#651A21" stroke="#651A21" stroke-width="0.5"/>
<g opacity="0.5">
<path d="M104.65 121.895V121.715H104.965V121.895H104.65Z" fill="black" stroke="#651A21" stroke-width="0.5"/>
<path d="M104.65 123.075V122.895H104.965V123.075H104.65Z" fill="black" stroke="#651A21" stroke-width="0.5"/>
<path d="M104.65 124.255V124.075H104.965V124.255H104.65Z" fill="black" stroke="#651A21" stroke-width="0.5"/>
<path d="M104.65 125.435V125.255H104.965V125.435H104.65Z" fill="black" stroke="#651A21" stroke-width="0.5"/>
<path d="M104.65 126.61V126.43H104.965V126.61H104.65Z" fill="black" stroke="#651A21" stroke-width="0.5"/>
<path d="M104.65 127.79V127.61H104.965V127.79H104.65Z" fill="black" stroke="#651A21" stroke-width="0.5"/>
<path d="M104.65 128.97V128.79H104.965V128.97H104.65Z" fill="black" stroke="#651A21" stroke-width="0.5"/>
<path d="M117.855 121.895V121.715H118.17V121.895H117.855Z" fill="black" stroke="#651A21" stroke-width="0.5"/>
<path d="M117.855 123.075V122.895H118.17V123.075H117.855Z" fill="black" stroke="#651A21" stroke-width="0.5"/>
<path d="M117.855 124.255V124.075H118.17V124.255H117.855Z" fill="black" stroke="#651A21" stroke-width="0.5"/>
<path d="M117.855 125.435V125.255H118.17V125.435H117.855Z" fill="black" stroke="#651A21" stroke-width="0.5"/>
<path d="M117.855 126.61V126.43H118.17V126.61H117.855Z" fill="black" stroke="#651A21" stroke-width="0.5"/>
<path d="M117.855 127.79V127.61H118.17V127.79H117.855Z" fill="black" stroke="#651A21" stroke-width="0.5"/>
<path d="M117.855 128.97V128.79H118.17V128.97H117.855Z" fill="black" stroke="#651A21" stroke-width="0.5"/>
</g>
<path d="M108.175 131.07H114.645" stroke="#651A21" stroke-width="0.5" stroke-linecap="round" stroke-linejoin="round"/>
<path opacity="0.5" d="M122.295 128.97V121.715H133.57V128.97H122.295Z" fill="#C13E4A" stroke="#651A21" stroke-width="0.5"/>
<path d="M126.88 124.449L128.675 125.345L126.88 126.241V124.449Z" fill="#651A21" stroke="#651A21" stroke-width="0.5"/>
<g opacity="0.5">
<path d="M121.17 121.895V121.715H121.485V121.895H121.17Z" fill="black" stroke="#651A21" stroke-width="0.5"/>
<path d="M121.17 123.075V122.895H121.485V123.075H121.17Z" fill="black" stroke="#651A21" stroke-width="0.5"/>
<path d="M121.17 124.255V124.075H121.485V124.255H121.17Z" fill="black" stroke="#651A21" stroke-width="0.5"/>
<path d="M121.17 125.435V125.255H121.485V125.435H121.17Z" fill="black" stroke="#651A21" stroke-width="0.5"/>
<path d="M121.17 126.61V126.43H121.485V126.61H121.17Z" fill="black" stroke="#651A21" stroke-width="0.5"/>
<path d="M121.17 127.79V127.61H121.485V127.79H121.17Z" fill="black" stroke="#651A21" stroke-width="0.5"/>
<path d="M121.17 128.97V128.79H121.485V128.97H121.17Z" fill="black" stroke="#651A21" stroke-width="0.5"/>
<path d="M134.375 121.895V121.715H134.69V121.895H134.375Z" fill="black" stroke="#651A21" stroke-width="0.5"/>
<path d="M134.375 123.075V122.895H134.69V123.075H134.375Z" fill="black" stroke="#651A21" stroke-width="0.5"/>
<path d="M134.375 124.255V124.075H134.69V124.255H134.375Z" fill="black" stroke="#651A21" stroke-width="0.5"/>
<path d="M134.375 125.435V125.255H134.69V125.435H134.375Z" fill="black" stroke="#651A21" stroke-width="0.5"/>
<path d="M134.375 126.61V126.43H134.69V126.61H134.375Z" fill="black" stroke="#651A21" stroke-width="0.5"/>
<path d="M134.375 127.79V127.61H134.69V127.79H134.375Z" fill="black" stroke="#651A21" stroke-width="0.5"/>
<path d="M134.375 128.97V128.79H134.69V128.97H134.375Z" fill="black" stroke="#651A21" stroke-width="0.5"/>
</g>
<path d="M124.7 131.07H131.165" stroke="#651A21" stroke-width="0.5" stroke-linecap="round" stroke-linejoin="round"/>
<path opacity="0.5" d="M105.77 142.155V134.9H117.045V142.155H105.77Z" fill="#C13E4A" stroke="#651A21" stroke-width="0.5"/>
<path d="M110.36 137.629L112.151 138.525L110.36 139.42V137.629Z" fill="#651A21" stroke="#651A21" stroke-width="0.5"/>
<g opacity="0.5">
<path d="M104.65 135.08V134.9H104.965V135.08H104.65Z" fill="black" stroke="#651A21" stroke-width="0.5"/>
<path d="M104.65 136.26V136.08H104.965V136.26H104.65Z" fill="black" stroke="#651A21" stroke-width="0.5"/>
<path d="M104.65 137.435V137.255H104.965V137.435H104.65Z" fill="black" stroke="#651A21" stroke-width="0.5"/>
<path d="M104.65 138.615V138.435H104.965V138.615H104.65Z" fill="black" stroke="#651A21" stroke-width="0.5"/>
<path d="M104.65 139.795V139.615H104.965V139.795H104.65Z" fill="black" stroke="#651A21" stroke-width="0.5"/>
<path d="M104.65 140.975V140.795H104.965V140.975H104.65Z" fill="black" stroke="#651A21" stroke-width="0.5"/>
<path d="M104.65 142.155V141.975H104.965V142.155H104.65Z" fill="black" stroke="#651A21" stroke-width="0.5"/>
<path d="M117.855 135.08V134.9H118.17V135.08H117.855Z" fill="black" stroke="#651A21" stroke-width="0.5"/>
<path d="M117.855 136.26V136.08H118.17V136.26H117.855Z" fill="black" stroke="#651A21" stroke-width="0.5"/>
<path d="M117.855 137.435V137.255H118.17V137.435H117.855Z" fill="black" stroke="#651A21" stroke-width="0.5"/>
<path d="M117.855 138.615V138.435H118.17V138.615H117.855Z" fill="black" stroke="#651A21" stroke-width="0.5"/>
<path d="M117.855 139.795V139.615H118.17V139.795H117.855Z" fill="black" stroke="#651A21" stroke-width="0.5"/>
<path d="M117.855 140.975V140.795H118.17V140.975H117.855Z" fill="black" stroke="#651A21" stroke-width="0.5"/>
<path d="M117.855 142.155V141.975H118.17V142.155H117.855Z" fill="black" stroke="#651A21" stroke-width="0.5"/>
</g>
<path d="M108.175 144.255H114.645" stroke="#651A21" stroke-width="0.5" stroke-linecap="round" stroke-linejoin="round"/>
<path opacity="0.5" d="M122.295 142.155V134.9H133.57V142.155H122.295Z" fill="#C13E4A" stroke="#651A21" stroke-width="0.5"/>
<path d="M126.88 137.629L128.675 138.525L126.88 139.421V137.629Z" fill="#651A21" stroke="#651A21" stroke-width="0.5"/>
<g opacity="0.5">
<path d="M121.17 135.08V134.9H121.485V135.08H121.17Z" fill="black" stroke="#651A21" stroke-width="0.5"/>
<path d="M121.17 136.26V136.08H121.485V136.26H121.17Z" fill="black" stroke="#651A21" stroke-width="0.5"/>
<path d="M121.17 137.435V137.255H121.485V137.435H121.17Z" fill="black" stroke="#651A21" stroke-width="0.5"/>
<path d="M121.17 138.615V138.435H121.485V138.615H121.17Z" fill="black" stroke="#651A21" stroke-width="0.5"/>
<path d="M121.17 139.795V139.615H121.485V139.795H121.17Z" fill="black" stroke="#651A21" stroke-width="0.5"/>
<path d="M121.17 140.975V140.795H121.485V140.975H121.17Z" fill="black" stroke="#651A21" stroke-width="0.5"/>
<path d="M121.17 142.155V141.975H121.485V142.155H121.17Z" fill="black" stroke="#651A21" stroke-width="0.5"/>
<path d="M134.375 135.08V134.9H134.69V135.08H134.375Z" fill="black" stroke="#651A21" stroke-width="0.5"/>
<path d="M134.375 136.26V136.08H134.69V136.26H134.375Z" fill="black" stroke="#651A21" stroke-width="0.5"/>
<path d="M134.375 137.435V137.255H134.69V137.435H134.375Z" fill="black" stroke="#651A21" stroke-width="0.5"/>
<path d="M134.375 138.615V138.435H134.69V138.615H134.375Z" fill="black" stroke="#651A21" stroke-width="0.5"/>
<path d="M134.375 139.795V139.615H134.69V139.795H134.375Z" fill="black" stroke="#651A21" stroke-width="0.5"/>
<path d="M134.375 140.975V140.795H134.69V140.975H134.375Z" fill="black" stroke="#651A21" stroke-width="0.5"/>
<path d="M134.375 142.155V141.975H134.69V142.155H134.375Z" fill="black" stroke="#651A21" stroke-width="0.5"/>
</g>
<path d="M124.7 144.255H131.165" stroke="#651A21" stroke-width="0.5" stroke-linecap="round" stroke-linejoin="round"/>
<path opacity="0.5" d="M105.77 155.34V148.085H117.045V155.34H105.77Z" fill="#C13E4A" stroke="#651A21" stroke-width="0.5"/>
<path d="M110.36 150.814L112.151 151.71L110.36 152.605V150.814Z" fill="#651A21" stroke="#651A21" stroke-width="0.5"/>
<g opacity="0.5">
<path d="M104.65 148.265V148.085H104.965V148.265H104.65Z" fill="black" stroke="#651A21" stroke-width="0.5"/>
<path d="M104.65 149.44V149.26H104.965V149.44H104.65Z" fill="black" stroke="#651A21" stroke-width="0.5"/>
<path d="M104.65 150.62V150.44H104.965V150.62H104.65Z" fill="black" stroke="#651A21" stroke-width="0.5"/>
<path d="M104.65 151.8V151.62H104.965V151.8H104.65Z" fill="black" stroke="#651A21" stroke-width="0.5"/>
<path d="M104.65 152.98V152.8H104.965V152.98H104.65Z" fill="black" stroke="#651A21" stroke-width="0.5"/>
<path d="M104.65 154.155V153.975H104.965V154.155H104.65Z" fill="black" stroke="#651A21" stroke-width="0.5"/>
<path d="M104.65 155.335V155.155H104.965V155.335H104.65Z" fill="black" stroke="#651A21" stroke-width="0.5"/>
<path d="M117.855 148.265V148.085H118.17V148.265H117.855Z" fill="black" stroke="#651A21" stroke-width="0.5"/>
<path d="M117.855 149.44V149.26H118.17V149.44H117.855Z" fill="black" stroke="#651A21" stroke-width="0.5"/>
<path d="M117.855 150.62V150.44H118.17V150.62H117.855Z" fill="black" stroke="#651A21" stroke-width="0.5"/>
<path d="M117.855 151.8V151.62H118.17V151.8H117.855Z" fill="black" stroke="#651A21" stroke-width="0.5"/>
<path d="M117.855 152.98V152.8H118.17V152.98H117.855Z" fill="black" stroke="#651A21" stroke-width="0.5"/>
<path d="M117.855 154.155V153.975H118.17V154.155H117.855Z" fill="black" stroke="#651A21" stroke-width="0.5"/>
<path d="M117.855 155.335V155.155H118.17V155.335H117.855Z" fill="black" stroke="#651A21" stroke-width="0.5"/>
</g>
<path d="M108.175 157.435H114.645" stroke="#651A21" stroke-width="0.5" stroke-linecap="round" stroke-linejoin="round"/>
<path opacity="0.5" d="M122.295 155.34V148.085H133.57V155.34H122.295Z" fill="#C13E4A" stroke="#651A21" stroke-width="0.5"/>
<path d="M126.88 150.814L128.675 151.71L126.88 152.606V150.814Z" fill="#651A21" stroke="#651A21" stroke-width="0.5"/>
<g opacity="0.5">
<path d="M121.17 148.265V148.085H121.485V148.265H121.17Z" fill="black" stroke="#651A21" stroke-width="0.5"/>
<path d="M121.17 149.44V149.26H121.485V149.44H121.17Z" fill="black" stroke="#651A21" stroke-width="0.5"/>
<path d="M121.17 150.62V150.44H121.485V150.62H121.17Z" fill="black" stroke="#651A21" stroke-width="0.5"/>
<path d="M121.17 151.8V151.62H121.485V151.8H121.17Z" fill="black" stroke="#651A21" stroke-width="0.5"/>
<path d="M121.17 152.98V152.8H121.485V152.98H121.17Z" fill="black" stroke="#651A21" stroke-width="0.5"/>
<path d="M121.17 154.155V153.975H121.485V154.155H121.17Z" fill="black" stroke="#651A21" stroke-width="0.5"/>
<path d="M121.17 155.335V155.155H121.485V155.335H121.17Z" fill="black" stroke="#651A21" stroke-width="0.5"/>
<path d="M134.375 148.265V148.085H134.69V148.265H134.375Z" fill="black" stroke="#651A21" stroke-width="0.5"/>
<path d="M134.375 149.44V149.26H134.69V149.44H134.375Z" fill="black" stroke="#651A21" stroke-width="0.5"/>
<path d="M134.375 150.62V150.44H134.69V150.62H134.375Z" fill="black" stroke="#651A21" stroke-width="0.5"/>
<path d="M134.375 151.8V151.62H134.69V151.8H134.375Z" fill="black" stroke="#651A21" stroke-width="0.5"/>
<path d="M134.375 152.98V152.8H134.69V152.98H134.375Z" fill="black" stroke="#651A21" stroke-width="0.5"/>
<path d="M134.375 154.155V153.975H134.69V154.155H134.375Z" fill="black" stroke="#651A21" stroke-width="0.5"/>
<path d="M134.375 155.335V155.155H134.69V155.335H134.375Z" fill="black" stroke="#651A21" stroke-width="0.5"/>
</g>
<path d="M124.7 157.435H131.165" stroke="#651A21" stroke-width="0.5" stroke-linecap="round" stroke-linejoin="round"/>
<path opacity="0.5" d="M105.77 168.52V161.265H117.045V168.52H105.77Z" fill="#C13E4A" stroke="#651A21" stroke-width="0.5"/>
<path d="M110.36 163.995L112.152 164.895L110.36 165.79V163.995Z" fill="#651A21" stroke="#651A21" stroke-width="0.5"/>
<g opacity="0.5">
<path d="M104.65 161.445V161.265H104.965V161.445H104.65Z" fill="black" stroke="#651A21" stroke-width="0.5"/>
<path d="M104.65 162.625V162.445H104.965V162.625H104.65Z" fill="black" stroke="#651A21" stroke-width="0.5"/>
<path d="M104.65 163.805V163.625H104.965V163.805H104.65Z" fill="black" stroke="#651A21" stroke-width="0.5"/>
<path d="M104.65 164.985V164.805H104.965V164.985H104.65Z" fill="black" stroke="#651A21" stroke-width="0.5"/>
<path d="M104.65 166.16V165.98H104.965V166.16H104.65Z" fill="black" stroke="#651A21" stroke-width="0.5"/>
<path d="M104.65 167.34V167.16H104.965V167.34H104.65Z" fill="black" stroke="#651A21" stroke-width="0.5"/>
<path d="M104.65 168.52V168.34H104.965V168.52H104.65Z" fill="black" stroke="#651A21" stroke-width="0.5"/>
<path d="M117.855 161.445V161.265H118.17V161.445H117.855Z" fill="black" stroke="#651A21" stroke-width="0.5"/>
<path d="M117.855 162.625V162.445H118.17V162.625H117.855Z" fill="black" stroke="#651A21" stroke-width="0.5"/>
<path d="M117.855 163.805V163.625H118.17V163.805H117.855Z" fill="black" stroke="#651A21" stroke-width="0.5"/>
<path d="M117.855 164.985V164.805H118.17V164.985H117.855Z" fill="black" stroke="#651A21" stroke-width="0.5"/>
<path d="M117.855 166.16V165.98H118.17V166.16H117.855Z" fill="black" stroke="#651A21" stroke-width="0.5"/>
<path d="M117.855 167.34V167.16H118.17V167.34H117.855Z" fill="black" stroke="#651A21" stroke-width="0.5"/>
<path d="M117.855 168.52V168.34H118.17V168.52H117.855Z" fill="black" stroke="#651A21" stroke-width="0.5"/>
</g>
<path d="M108.175 170.62H114.645" stroke="#651A21" stroke-width="0.5" stroke-linecap="round" stroke-linejoin="round"/>
<path opacity="0.5" d="M122.295 168.52V161.265H133.57V168.52H122.295Z" fill="#C13E4A" stroke="#651A21" stroke-width="0.5"/>
<path d="M126.88 163.995L128.676 164.895L126.88 165.791V163.995Z" fill="#651A21" stroke="#651A21" stroke-width="0.5"/>
<g opacity="0.5">
<path d="M121.17 161.445V161.265H121.485V161.445H121.17Z" fill="black" stroke="#651A21" stroke-width="0.5"/>
<path d="M121.17 162.625V162.445H121.485V162.625H121.17Z" fill="black" stroke="#651A21" stroke-width="0.5"/>
<path d="M121.17 163.805V163.625H121.485V163.805H121.17Z" fill="black" stroke="#651A21" stroke-width="0.5"/>
<path d="M121.17 164.985V164.805H121.485V164.985H121.17Z" fill="black" stroke="#651A21" stroke-width="0.5"/>
<path d="M121.17 166.16V165.98H121.485V166.16H121.17Z" fill="black" stroke="#651A21" stroke-width="0.5"/>
<path d="M121.17 167.34V167.16H121.485V167.34H121.17Z" fill="black" stroke="#651A21" stroke-width="0.5"/>
<path d="M121.17 168.52V168.34H121.485V168.52H121.17Z" fill="black" stroke="#651A21" stroke-width="0.5"/>
<path d="M134.375 161.445V161.265H134.69V161.445H134.375Z" fill="black" stroke="#651A21" stroke-width="0.5"/>
<path d="M134.375 162.625V162.445H134.69V162.625H134.375Z" fill="black" stroke="#651A21" stroke-width="0.5"/>
<path d="M134.375 163.805V163.625H134.69V163.805H134.375Z" fill="black" stroke="#651A21" stroke-width="0.5"/>
<path d="M134.375 164.985V164.805H134.69V164.985H134.375Z" fill="black" stroke="#651A21" stroke-width="0.5"/>
<path d="M134.375 166.16V165.98H134.69V166.16H134.375Z" fill="black" stroke="#651A21" stroke-width="0.5"/>
<path d="M134.375 167.34V167.16H134.69V167.34H134.375Z" fill="black" stroke="#651A21" stroke-width="0.5"/>
<path d="M134.375 168.52V168.34H134.69V168.52H134.375Z" fill="black" stroke="#651A21" stroke-width="0.5"/>
</g>
<path d="M124.7 170.62H131.165" stroke="#651A21" stroke-width="0.5" stroke-linecap="round" stroke-linejoin="round"/>
<path opacity="0.5" d="M105.77 181.705V174.45H117.045V181.705H105.77Z" fill="#C13E4A" stroke="#651A21" stroke-width="0.5"/>
<path d="M110.36 177.179L112.151 178.075L110.36 178.97V177.179Z" fill="#651A21" stroke="#651A21" stroke-width="0.5"/>
<g opacity="0.5">
<path d="M104.65 174.63V174.45H104.965V174.63H104.65Z" fill="black" stroke="#651A21" stroke-width="0.5"/>
<path d="M104.65 175.81V175.63H104.965V175.81H104.65Z" fill="black" stroke="#651A21" stroke-width="0.5"/>
<path d="M104.65 176.985V176.805H104.965V176.985H104.65Z" fill="black" stroke="#651A21" stroke-width="0.5"/>
<path d="M104.65 178.165V177.985H104.965V178.165H104.65Z" fill="black" stroke="#651A21" stroke-width="0.5"/>
<path d="M104.65 179.345V179.165H104.965V179.345H104.65Z" fill="black" stroke="#651A21" stroke-width="0.5"/>
<path d="M104.65 180.525V180.345H104.965V180.525H104.65Z" fill="black" stroke="#651A21" stroke-width="0.5"/>
<path d="M104.65 181.705V181.525H104.965V181.705H104.65Z" fill="black" stroke="#651A21" stroke-width="0.5"/>
<path d="M117.855 174.63V174.45H118.17V174.63H117.855Z" fill="black" stroke="#651A21" stroke-width="0.5"/>
<path d="M117.855 175.81V175.63H118.17V175.81H117.855Z" fill="black" stroke="#651A21" stroke-width="0.5"/>
<path d="M117.855 176.985V176.805H118.17V176.985H117.855Z" fill="black" stroke="#651A21" stroke-width="0.5"/>
<path d="M117.855 178.165V177.985H118.17V178.165H117.855Z" fill="black" stroke="#651A21" stroke-width="0.5"/>
<path d="M117.855 179.345V179.165H118.17V179.345H117.855Z" fill="black" stroke="#651A21" stroke-width="0.5"/>
<path d="M117.855 180.525V180.345H118.17V180.525H117.855Z" fill="black" stroke="#651A21" stroke-width="0.5"/>
<path d="M117.855 181.705V181.525H118.17V181.705H117.855Z" fill="black" stroke="#651A21" stroke-width="0.5"/>
</g>
<path d="M108.175 183.805H114.645" stroke="#651A21" stroke-width="0.5" stroke-linecap="round" stroke-linejoin="round"/>
<path opacity="0.5" d="M122.295 181.705V174.45H133.57V181.705H122.295Z" fill="#C13E4A" stroke="#651A21" stroke-width="0.5"/>
<path d="M126.88 177.179L128.675 178.075L126.88 178.971V177.179Z" fill="#651A21" stroke="#651A21" stroke-width="0.5"/>
<g opacity="0.5">
<path d="M121.17 174.63V174.45H121.485V174.63H121.17Z" fill="black" stroke="#651A21" stroke-width="0.5"/>
<path d="M121.17 175.81V175.63H121.485V175.81H121.17Z" fill="black" stroke="#651A21" stroke-width="0.5"/>
<path d="M121.17 176.985V176.805H121.485V176.985H121.17Z" fill="black" stroke="#651A21" stroke-width="0.5"/>
<path d="M121.17 178.165V177.985H121.485V178.165H121.17Z" fill="black" stroke="#651A21" stroke-width="0.5"/>
<path d="M121.17 179.345V179.165H121.485V179.345H121.17Z" fill="black" stroke="#651A21" stroke-width="0.5"/>
<path d="M121.17 180.525V180.345H121.485V180.525H121.17Z" fill="black" stroke="#651A21" stroke-width="0.5"/>
<path d="M121.17 181.705V181.525H121.485V181.705H121.17Z" fill="black" stroke="#651A21" stroke-width="0.5"/>
<path d="M134.375 174.63V174.45H134.69V174.63H134.375Z" fill="black" stroke="#651A21" stroke-width="0.5"/>
<path d="M134.375 175.81V175.63H134.69V175.81H134.375Z" fill="black" stroke="#651A21" stroke-width="0.5"/>
<path d="M134.375 176.985V176.805H134.69V176.985H134.375Z" fill="black" stroke="#651A21" stroke-width="0.5"/>
<path d="M134.375 178.165V177.985H134.69V178.165H134.375Z" fill="black" stroke="#651A21" stroke-width="0.5"/>
<path d="M134.375 179.345V179.165H134.69V179.345H134.375Z" fill="black" stroke="#651A21" stroke-width="0.5"/>
<path d="M134.375 180.525V180.345H134.69V180.525H134.375Z" fill="black" stroke="#651A21" stroke-width="0.5"/>
<path d="M134.375 181.705V181.525H134.69V181.705H134.375Z" fill="black" stroke="#651A21" stroke-width="0.5"/>
</g>
<path d="M124.7 183.805H131.165" stroke="#651A21" stroke-width="0.5" stroke-linecap="round" stroke-linejoin="round"/>
<path d="M263.73 200.065H98.2699C93.4999 200.065 79.3049 198.065 79.3049 198.065H282.695C282.695 198.065 268.5 200.065 263.73 200.065Z" fill="#999999" stroke="#651A21" stroke-width="0.5" stroke-linecap="round" stroke-linejoin="round"/>
<path d="M282.695 198.05H79.305C79.1688 198.047 79.0384 197.994 78.9383 197.902C78.8382 197.809 78.7752 197.684 78.7611 197.548C78.747 197.413 78.7827 197.277 78.8617 197.166C78.9406 197.055 79.0573 196.976 79.19 196.945L98.27 192.865H263.73L282.81 196.945C282.943 196.976 283.059 197.055 283.138 197.166C283.217 197.277 283.253 197.413 283.239 197.548C283.225 197.684 283.162 197.809 283.062 197.902C282.962 197.994 282.831 198.047 282.695 198.05Z" fill="#BFBFBF" stroke="#651A21" stroke-width="0.5" stroke-linecap="round" stroke-linejoin="round"/>
<path d="M271.585 195.46H90.415L98.66 193.52H263.34L271.585 195.46Z" stroke="#651A21" stroke-width="0.5" stroke-linecap="round" stroke-linejoin="round"/>
<path d="M292.035 182.2C292.044 183.127 291.887 184.049 291.57 184.92C291.07 186.225 290.25 187.075 289.305 187.075H244.855L243.565 180.39L244.065 180.185L249.095 178.085C250.298 177.579 251.59 177.317 252.895 177.315H289.325C290.07 177.315 290.745 177.85 291.24 178.715C291.793 179.792 292.066 180.99 292.035 182.2Z" fill="#C13E4A"/>
<mask id="mask0_8043_17695" style="mask-type:luminance" maskUnits="userSpaceOnUse" x="243" y="177" width="50" height="11">
<path d="M291.785 182.194L291.785 182.194L291.785 182.203C291.794 183.099 291.642 183.99 291.336 184.833C290.845 186.111 290.086 186.825 289.305 186.825H245.061L243.849 180.544L244.16 180.416L244.16 180.416L244.161 180.416L249.191 178.316L249.192 178.315C250.364 177.822 251.623 177.567 252.895 177.565H289.325C289.939 177.565 290.546 178.008 291.02 178.834C291.552 179.872 291.815 181.027 291.785 182.194Z" fill="white" stroke="white" stroke-width="0.5"/>
</mask>
<g mask="url(#mask0_8043_17695)">
<path opacity="0.4" d="M290.761 178.465H258.095H258.095C257.511 178.465 256.934 178.593 256.405 178.838L256.405 178.838L251.034 181.334L244.915 180.101L249.191 178.316L249.192 178.315C250.364 177.822 251.623 177.567 252.895 177.565H289.325C289.822 177.565 290.33 177.876 290.761 178.465Z" fill="white" stroke="#651A21" stroke-width="0.5"/>
<path opacity="0.5" d="M253.145 182.382C253.049 182.319 252.963 182.263 252.889 182.214L254.205 181.489C254.205 181.489 254.205 181.489 254.205 181.489C254.701 181.218 255.256 181.076 255.82 181.075H282.014C282.197 181.077 282.378 181.115 282.546 181.188C282.715 181.26 282.868 181.366 282.995 181.498L282.995 181.498L282.998 181.502L285.808 184.311C285.808 184.311 285.808 184.311 285.808 184.312C286.083 184.588 286.409 184.808 286.769 184.958C287.129 185.108 287.515 185.185 287.905 185.185L287.906 185.185L291.194 185.172C290.705 186.237 290.014 186.825 289.305 186.825H259.978C257.978 185.538 256.128 184.334 254.773 183.449C254.089 183.002 253.531 182.636 253.145 182.382Z" fill="black" fill-opacity="0.7" stroke="#651A21" stroke-width="0.5"/>
</g>
<path d="M292.035 182.2C292.044 183.127 291.887 184.049 291.57 184.92C291.07 186.225 290.25 187.075 289.305 187.075H244.855L243.565 180.39L244.065 180.185L249.095 178.085C250.298 177.579 251.59 177.317 252.895 177.315H289.325C290.07 177.315 290.745 177.85 291.24 178.715C291.793 179.792 292.066 180.99 292.035 182.2Z" stroke="#651A21" stroke-width="0.5" stroke-linecap="round" stroke-linejoin="round"/>
<path d="M285.425 177.315C286.925 177.315 288.16 179.5 288.16 182.2C288.16 184.9 286.935 187.08 285.425 187.08" stroke="#651A21" stroke-width="0.5" stroke-linecap="round" stroke-linejoin="round"/>
<path d="M249.61 179.585H230.215V206.885H249.61C253.645 206.885 256.92 200.775 256.92 193.235C256.92 185.695 253.645 179.585 249.61 179.585Z" fill="#C13E4A"/>
<mask id="mask1_8043_17695" style="mask-type:luminance" maskUnits="userSpaceOnUse" x="230" y="179" width="27" height="28">
<path d="M230.465 206.635V179.835H249.61C251.491 179.835 253.252 181.263 254.558 183.701C255.858 186.128 256.67 189.498 256.67 193.235C256.67 196.972 255.858 200.342 254.558 202.769C253.252 205.207 251.491 206.635 249.61 206.635H230.465Z" fill="white" stroke="white" stroke-width="0.5"/>
</mask>
<g mask="url(#mask1_8043_17695)">
<path opacity="0.3" d="M230.465 206.635V179.835H249.61C251.491 179.835 253.252 181.263 254.558 183.701C255.858 186.128 256.67 189.498 256.67 193.235C256.67 196.972 255.858 200.342 254.558 202.769C253.252 205.207 251.491 206.635 249.61 206.635H230.465Z" fill="black" fill-opacity="0.7" stroke="#651A21" stroke-width="0.5"/>
</g>
<path d="M249.61 179.585H230.215V206.885H249.61C253.645 206.885 256.92 200.775 256.92 193.235C256.92 185.695 253.645 179.585 249.61 179.585Z" stroke="#651A21" stroke-width="0.5" stroke-linecap="round" stroke-linejoin="round"/>
<path d="M230.215 206.885C234.252 206.885 237.525 200.774 237.525 193.235C237.525 185.696 234.252 179.585 230.215 179.585C226.178 179.585 222.905 185.696 222.905 193.235C222.905 200.774 226.178 206.885 230.215 206.885Z" fill="#C13E4A" stroke="#651A21" stroke-width="0.5" stroke-linecap="round" stroke-linejoin="round"/>
<path d="M229 206.05C232.791 206.05 235.865 200.313 235.865 193.235C235.865 186.157 232.791 180.42 229 180.42C225.209 180.42 222.135 186.157 222.135 193.235C222.135 200.313 225.209 206.05 229 206.05Z" fill="#C13E4A"/>
<mask id="mask2_8043_17695" style="mask-type:luminance" maskUnits="userSpaceOnUse" x="222" y="180" width="14" height="27">
<path d="M229 206.05C232.791 206.05 235.865 200.313 235.865 193.235C235.865 186.157 232.791 180.42 229 180.42C225.209 180.42 222.135 186.157 222.135 193.235C222.135 200.313 225.209 206.05 229 206.05Z" fill="white"/>
</mask>
<g mask="url(#mask2_8043_17695)">
<path opacity="0.3" d="M229 206.05C232.791 206.05 235.865 200.313 235.865 193.235C235.865 186.157 232.791 180.42 229 180.42C225.209 180.42 222.135 186.157 222.135 193.235C222.135 200.313 225.209 206.05 229 206.05Z" fill="black" fill-opacity="0.7"/>
</g>
<path d="M229 206.05C232.791 206.05 235.865 200.313 235.865 193.235C235.865 186.157 232.791 180.42 229 180.42C225.209 180.42 222.135 186.157 222.135 193.235C222.135 200.313 225.209 206.05 229 206.05Z" stroke="#651A21" stroke-width="0.5" stroke-linecap="round" stroke-linejoin="round"/>
<path d="M227.58 205.265C230.827 205.265 233.46 199.879 233.46 193.235C233.46 186.591 230.827 181.205 227.58 181.205C224.333 181.205 221.7 186.591 221.7 193.235C221.7 199.879 224.333 205.265 227.58 205.265Z" fill="#C13E4A"/>
<mask id="mask3_8043_17695" style="mask-type:luminance" maskUnits="userSpaceOnUse" x="221" y="181" width="13" height="25">
<path d="M227.58 205.265C230.827 205.265 233.46 199.879 233.46 193.235C233.46 186.591 230.827 181.205 227.58 181.205C224.333 181.205 221.7 186.591 221.7 193.235C221.7 199.879 224.333 205.265 227.58 205.265Z" fill="white"/>
</mask>
<g mask="url(#mask3_8043_17695)">
<path opacity="0.4" d="M227.58 205.265C230.827 205.265 233.46 199.879 233.46 193.235C233.46 186.591 230.827 181.205 227.58 181.205C224.333 181.205 221.7 186.591 221.7 193.235C221.7 199.879 224.333 205.265 227.58 205.265Z" fill="white"/>
</g>
<path d="M227.58 205.265C230.827 205.265 233.46 199.879 233.46 193.235C233.46 186.591 230.827 181.205 227.58 181.205C224.333 181.205 221.7 186.591 221.7 193.235C221.7 199.879 224.333 205.265 227.58 205.265Z" stroke="#651A21" stroke-width="0.5" stroke-linecap="round" stroke-linejoin="round"/>
<path d="M232.47 193.235C232.476 194.917 232.29 196.595 231.915 198.235C231.24 201.095 230.005 203.205 228.54 203.855C228.239 203.994 227.912 204.067 227.58 204.07C224.875 204.07 222.685 199.21 222.685 193.215C222.685 187.22 224.875 182.36 227.58 182.36C227.912 182.363 228.239 182.436 228.54 182.575C230.005 183.225 231.24 185.34 231.915 188.2C232.293 189.851 232.48 191.541 232.47 193.235Z" fill="#651A21" stroke="#651A21" stroke-width="0.5" stroke-linecap="round" stroke-linejoin="round"/>
<path d="M232.47 193.24C232.47 198.5 230.78 202.885 228.54 203.875C226.3 202.875 224.605 198.5 224.605 193.24C224.605 187.98 226.3 183.585 228.54 182.595C230.78 183.585 232.47 188 232.47 193.24Z" fill="#E19199" stroke="#651A21" stroke-width="0.5" stroke-linecap="round" stroke-linejoin="round"/>
<path d="M230.455 198.255H227.545C227.22 198.255 226.907 198.126 226.677 197.896C226.446 197.667 226.316 197.355 226.315 197.03V189.445C226.315 189.284 226.347 189.124 226.409 188.975C226.471 188.826 226.561 188.691 226.676 188.577C226.79 188.463 226.925 188.373 227.075 188.312C227.224 188.251 227.384 188.219 227.545 188.22H230.455C230.294 188.219 230.134 188.251 229.985 188.312C229.835 188.373 229.7 188.463 229.585 188.577C229.471 188.691 229.381 188.826 229.319 188.975C229.257 189.124 229.225 189.284 229.225 189.445V197.03C229.226 197.355 229.356 197.667 229.587 197.896C229.817 198.126 230.13 198.255 230.455 198.255Z" fill="#651A21" stroke="#651A21" stroke-width="0.5" stroke-linecap="round" stroke-linejoin="round"/>
<path d="M230.455 188.22H231.915" stroke="#651A21" stroke-width="0.5" stroke-linecap="round" stroke-linejoin="round"/>
<path d="M230.455 198.255H231.915" stroke="#651A21" stroke-width="0.5" stroke-linecap="round" stroke-linejoin="round"/>
<path d="M283.34 183.615V211.36C283.34 212.809 282.764 214.199 281.739 215.224C280.715 216.249 279.324 216.825 277.875 216.825H240.03C238.58 216.825 237.19 216.249 236.164 215.225C235.138 214.2 234.561 212.81 234.56 211.36V206.86H237C241.04 206.86 244.31 200.755 244.31 193.215C244.31 188.545 243.055 184.42 241.14 181.96H281.71C281.926 181.96 282.14 182.003 282.34 182.086C282.539 182.17 282.72 182.292 282.872 182.446C283.023 182.6 283.143 182.783 283.223 182.984C283.304 183.184 283.343 183.399 283.34 183.615Z" fill="#C13E4A"/>
<mask id="mask4_8043_17695" style="mask-type:luminance" maskUnits="userSpaceOnUse" x="234" y="181" width="50" height="36">
<path d="M283.34 183.615V211.36C283.34 212.809 282.764 214.199 281.739 215.224C280.715 216.249 279.324 216.825 277.875 216.825H240.03C238.58 216.825 237.19 216.249 236.164 215.225C235.138 214.2 234.561 212.81 234.56 211.36V206.86H237C241.04 206.86 244.31 200.755 244.31 193.215C244.31 188.545 243.055 184.42 241.14 181.96H281.71C281.926 181.96 282.14 182.003 282.34 182.086C282.539 182.17 282.72 182.292 282.872 182.446C283.023 182.6 283.143 182.783 283.223 182.984C283.304 183.184 283.343 183.399 283.34 183.615Z" fill="white"/>
</mask>
<g mask="url(#mask4_8043_17695)">
<path opacity="0.5" d="M244.31 193.24V201.875C244.311 204.016 243.76 206.121 242.708 207.986C241.657 209.851 240.142 211.413 238.31 212.52L235.405 214.275C234.852 213.404 234.558 212.392 234.56 211.36V206.86H237C241.04 206.885 244.31 200.78 244.31 193.24Z" fill="black" fill-opacity="0.7"/>
<path opacity="0.3" d="M283.34 183.615V211.36C283.34 212.809 282.764 214.199 281.739 215.224C280.714 216.249 279.324 216.825 277.875 216.825H240.03C238.814 216.829 237.633 216.424 236.675 215.675H242.87C244.064 215.675 245.208 215.201 246.052 214.357C246.896 213.513 247.37 212.368 247.37 211.175V184.96C247.371 184.712 247.322 184.466 247.228 184.237C247.134 184.008 246.995 183.799 246.82 183.624C246.645 183.448 246.437 183.309 246.208 183.214C245.979 183.119 245.733 183.07 245.485 183.07H241.9C241.676 182.693 241.429 182.331 241.16 181.985H281.73C282.159 181.99 282.568 182.164 282.87 182.469C283.171 182.775 283.34 183.186 283.34 183.615Z" fill="black" fill-opacity="0.7"/>
</g>
<path d="M283.34 183.615V211.36C283.34 212.809 282.764 214.199 281.739 215.224C280.715 216.249 279.324 216.825 277.875 216.825H240.03C238.58 216.825 237.19 216.249 236.164 215.225C235.138 214.2 234.561 212.81 234.56 211.36V206.86H237C241.04 206.86 244.31 200.755 244.31 193.215C244.31 188.545 243.055 184.42 241.14 181.96H281.71C281.926 181.96 282.14 182.003 282.34 182.086C282.539 182.17 282.72 182.292 282.872 182.446C283.023 182.6 283.143 182.783 283.223 182.984C283.304 183.184 283.343 183.399 283.34 183.615Z" stroke="#651A21" stroke-width="0.5" stroke-linecap="round" stroke-linejoin="round"/>
<path d="M288.24 197.365C288.239 201.674 287.447 205.946 285.905 209.97C285.802 210.229 285.649 210.465 285.455 210.665C285.362 210.755 285.261 210.837 285.155 210.91C284.819 211.144 284.419 211.27 284.01 211.27H252C251.622 211.271 251.248 211.197 250.898 211.053C250.549 210.908 250.231 210.697 249.964 210.43C249.696 210.163 249.484 209.846 249.339 209.496C249.194 209.147 249.12 208.773 249.12 208.395V186.335C249.121 185.572 249.425 184.841 249.965 184.302C250.505 183.763 251.237 183.46 252 183.46H284C284.269 183.46 284.535 183.513 284.783 183.617C285.031 183.721 285.256 183.873 285.445 184.065C285.641 184.266 285.794 184.504 285.895 184.765C287.441 188.786 288.236 193.057 288.24 197.365Z" fill="#C13E4A"/>
<mask id="mask5_8043_17695" style="mask-type:luminance" maskUnits="userSpaceOnUse" x="249" y="183" width="40" height="29">
<path d="M288.24 197.365C288.239 201.674 287.447 205.946 285.905 209.97C285.802 210.229 285.649 210.465 285.455 210.665C285.362 210.755 285.261 210.837 285.155 210.91C284.819 211.144 284.419 211.27 284.01 211.27H252C251.622 211.271 251.248 211.197 250.898 211.053C250.549 210.908 250.231 210.697 249.964 210.43C249.696 210.163 249.484 209.846 249.339 209.496C249.194 209.147 249.12 208.773 249.12 208.395V186.335C249.121 185.572 249.425 184.841 249.965 184.302C250.505 183.763 251.237 183.46 252 183.46H284C284.269 183.46 284.535 183.513 284.783 183.617C285.031 183.721 285.256 183.873 285.445 184.065C285.641 184.266 285.794 184.504 285.895 184.765C287.441 188.786 288.236 193.057 288.24 197.365Z" fill="white"/>
</mask>
<g mask="url(#mask5_8043_17695)">
<path opacity="0.4" d="M288.24 197.365C288.239 201.674 287.447 205.946 285.905 209.97C285.802 210.229 285.649 210.465 285.455 210.665H255C254.204 210.665 253.441 210.349 252.879 209.786C252.316 209.224 252 208.461 252 207.665V187.06C252 186.264 252.316 185.501 252.879 184.939C253.441 184.376 254.204 184.06 255 184.06H285.435C285.631 184.261 285.784 184.499 285.885 184.76C287.436 188.782 288.234 193.055 288.24 197.365Z" fill="white"/>
</g>
<path d="M288.24 197.365C288.239 201.674 287.447 205.946 285.905 209.97C285.802 210.229 285.649 210.465 285.455 210.665C285.362 210.755 285.261 210.837 285.155 210.91C284.819 211.144 284.419 211.27 284.01 211.27H252C251.622 211.271 251.248 211.197 250.898 211.053C250.549 210.908 250.231 210.697 249.964 210.43C249.696 210.163 249.484 209.846 249.339 209.496C249.194 209.147 249.12 208.773 249.12 208.395V186.335C249.121 185.572 249.425 184.841 249.965 184.302C250.505 183.763 251.237 183.46 252 183.46H284C284.269 183.46 284.535 183.513 284.783 183.617C285.031 183.721 285.256 183.873 285.445 184.065C285.641 184.266 285.794 184.504 285.895 184.765C287.441 188.786 288.236 193.057 288.24 197.365Z" stroke="#651A21" stroke-width="0.5" stroke-linecap="round" stroke-linejoin="round"/>
<path d="M260 184.065H254.925C254.171 184.065 253.447 184.365 252.913 184.898C252.38 185.432 252.08 186.155 252.08 186.91V207.82C252.08 208.575 252.38 209.298 252.913 209.832C253.447 210.365 254.171 210.665 254.925 210.665H260" stroke="#651A21" stroke-width="0.5" stroke-linecap="round" stroke-linejoin="round"/>
<path d="M255.82 193.445H249.005C248.467 193.445 248.03 193.882 248.03 194.42V200.235C248.03 200.773 248.467 201.21 249.005 201.21H255.82C256.359 201.21 256.795 200.773 256.795 200.235V194.42C256.795 193.882 256.359 193.445 255.82 193.445Z" fill="#E19199" stroke="#651A21" stroke-width="0.5" stroke-linecap="round" stroke-linejoin="round"/>
<path opacity="0.4" d="M255.67 194.48V194.48L255.672 194.48C255.729 194.48 255.786 194.491 255.839 194.512C255.892 194.534 255.941 194.566 255.981 194.606C256.022 194.647 256.054 194.695 256.076 194.748C256.099 194.801 256.11 194.858 256.11 194.915V199.745C256.11 199.802 256.099 199.859 256.076 199.912C256.054 199.965 256.022 200.013 255.981 200.054C255.941 200.094 255.892 200.126 255.839 200.148C255.786 200.169 255.729 200.18 255.672 200.18V200.18H255.67H252.67C252.562 200.18 252.459 200.137 252.384 200.061C252.308 199.985 252.265 199.882 252.265 199.775V194.885C252.265 194.778 252.308 194.675 252.384 194.599C252.459 194.523 252.562 194.48 252.67 194.48H255.67Z" fill="white" stroke="#651A21" stroke-width="0.5"/>
<path d="M254.905 194.23H252.68C252.506 194.23 252.34 194.299 252.217 194.422C252.094 194.545 252.025 194.711 252.025 194.885V199.775C252.025 199.949 252.094 200.115 252.217 200.238C252.34 200.361 252.506 200.43 252.68 200.43H254.905" stroke="#651A21" stroke-width="0.5" stroke-linecap="round" stroke-linejoin="round"/>
<path d="M280.366 190.96H280.14H279.865L279.891 191.233L279.97 192.085H279.474L279.394 191.188L279.374 190.96H279.145H277.433L277.365 190.353L278.743 186.395H279.442L279.811 190.348L279.832 190.575H280.06H280.331L280.366 190.96ZM279.045 190.575H279.319L279.294 190.302L279.084 188.017L278.598 187.96L277.823 190.245L277.711 190.575H278.06H279.045Z" fill="#942B35" stroke="#651A21" stroke-width="0.5"/>
<path d="M282.509 189.759L282.277 189.289L282.058 189.765L281.798 190.331L281.77 190.391L281.776 190.458L281.926 192.085H281.428L280.899 186.395H281.397L281.626 188.848L282.107 188.917L283.105 186.395H283.559L282.549 188.809L282.505 188.915L282.557 189.018L284.104 192.085H283.655L282.509 189.759Z" fill="#942B35" stroke="#651A21" stroke-width="0.5"/>
<path d="M241.15 215.675H242.875C244.064 215.668 245.202 215.191 246.041 214.348C246.879 213.505 247.35 212.364 247.35 211.175V184.955C247.35 184.455 247.151 183.976 246.798 183.622C246.444 183.269 245.965 183.07 245.465 183.07H244.25" stroke="#651A21" stroke-width="0.5" stroke-linecap="round" stroke-linejoin="round"/>
<path opacity="0.2" d="M286.035 190.545H253.875V187.545C253.875 187.086 254.057 186.646 254.382 186.322C254.706 185.997 255.146 185.815 255.605 185.815H284.05C284.32 185.815 284.583 185.899 284.803 186.055C285.023 186.21 285.19 186.431 285.28 186.685C285.74 187.922 285.995 189.226 286.035 190.545Z" fill="white"/>
<path opacity="0.2" d="M234.185 180.42H250.235L251.575 181.21H234.955L234.185 180.42Z" fill="white"/>
</svg>
