<svg width="250" height="250" viewBox="0 0 250 250" fill="none" xmlns="http://www.w3.org/2000/svg">
<path d="M37.4048 111.376C37.4048 111.376 34.3498 145.431 59.9048 171.116C85.4598 196.801 124.505 202.666 156.005 208.256C187.505 213.846 214.08 198.501 221.085 171.691C228.09 144.881 204.79 134.281 195.405 101.901C186.02 69.5211 188.435 59.4661 162.905 37.4011C137.375 15.3361 92.3498 22.3311 65.5048 52.5011C38.6598 82.6711 37.4048 111.376 37.4048 111.376Z" fill="#88919F"/>
<path opacity="0.7" d="M37.4048 111.376C37.4048 111.376 34.3498 145.431 59.9048 171.116C85.4598 196.801 124.505 202.666 156.005 208.256C187.505 213.846 214.08 198.501 221.085 171.691C228.09 144.881 204.79 134.281 195.405 101.901C186.02 69.5211 188.435 59.4661 162.905 37.4011C137.375 15.3361 92.3498 22.3311 65.5048 52.5011C38.6598 82.6711 37.4048 111.376 37.4048 111.376Z" fill="white"/>
<path d="M228.999 216.37C228.999 217.635 183.999 218.665 128.499 218.665C72.9993 218.665 27.9993 217.635 27.9993 216.37C27.9993 215.105 72.9993 214.075 128.499 214.075C183.999 214.075 228.999 215.1 228.999 216.37Z" fill="#88919F"/>
<path opacity="0.6" d="M228.999 216.37C228.999 217.635 183.999 218.665 128.499 218.665C72.9993 218.665 27.9993 217.635 27.9993 216.37C27.9993 215.105 72.9993 214.075 128.499 214.075C183.999 214.075 228.999 215.1 228.999 216.37Z" fill="white"/>
<path d="M110.651 52.3346L106.846 46.2646H73.3357V52.3346V54.5196V161.015H211.271V52.3346H110.651Z" fill="#222B38"/>
<path d="M210.361 55.12H74.3613V158.81H210.361V55.12Z" fill="white"/>
<mask id="mask0_8561_18707" style="mask-type:luminance" maskUnits="userSpaceOnUse" x="74" y="55" width="137" height="104">
<path d="M210.363 55.1191H74.3633V158.809H210.363V55.1191Z" fill="white"/>
</mask>
<g mask="url(#mask0_8561_18707)">
<path opacity="0.17" d="M211.028 54.2799H207.873V159.56H211.028V54.2799Z" fill="black"/>
<path opacity="0.17" d="M211.028 114.625H207.873V158.745H211.028V114.625Z" fill="black"/>
<path d="M210.542 53.7896H73.8215V64.8996H210.542V53.7896Z" fill="#3B485B"/>
<path d="M172.2 57.3296H115.405V63.6696H172.2V57.3296Z" fill="white"/>
<path d="M109.071 57.3296H100.151V63.6696H109.071V57.3296Z" fill="white"/>
<path opacity="0.3" d="M172.201 57.3296H164.796V63.6696H172.201V57.3296Z" fill="black"/>
<path d="M167.722 61.5045C168.619 61.5045 169.347 60.777 169.347 59.8795C169.347 58.9821 168.619 58.2545 167.722 58.2545C166.824 58.2545 166.097 58.9821 166.097 59.8795C166.097 60.777 166.824 61.5045 167.722 61.5045Z" stroke="white" stroke-width="0.5" stroke-miterlimit="10"/>
<path d="M168.877 61.0292L170.397 62.5442" stroke="white" stroke-width="0.5" stroke-linecap="round" stroke-linejoin="round"/>
<path opacity="0.3" d="M124.765 74.584H113.04V86.309H124.765V74.584Z" fill="black"/>
<path d="M127.642 76.3546H137.152" stroke="#222B38" stroke-linecap="round" stroke-linejoin="round"/>
<path opacity="0.3" d="M127.642 79.8898H147.552" stroke="#222B38" stroke-linecap="round" stroke-linejoin="round"/>
<path opacity="0.3" d="M127.642 81.9948H155.957" stroke="#222B38" stroke-linecap="round" stroke-linejoin="round"/>
<path d="M166.792 78.5646H158.167V82.3246H166.792V78.5646Z" fill="#3B485B"/>
<path opacity="0.3" d="M176.306 78.5646H167.681V82.3246H176.306V78.5646Z" fill="black"/>
<path opacity="0.3" d="M124.765 91.1744H113.04V102.899H124.765V91.1744Z" fill="black"/>
<path d="M127.642 92.9445H137.152" stroke="#222B38" stroke-linecap="round" stroke-linejoin="round"/>
<path opacity="0.3" d="M127.642 96.4845H147.552" stroke="#222B38" stroke-linecap="round" stroke-linejoin="round"/>
<path opacity="0.3" d="M127.642 98.5845H155.957" stroke="#222B38" stroke-linecap="round" stroke-linejoin="round"/>
<path d="M166.792 95.1543H158.167V98.9143H166.792V95.1543Z" fill="#3B485B"/>
<path opacity="0.3" d="M176.306 95.1543H167.681V98.9143H176.306V95.1543Z" fill="black"/>
<path opacity="0.3" d="M124.765 107.765H113.04V119.49H124.765V107.765Z" fill="black"/>
<path d="M127.642 109.535H137.152" stroke="#222B38" stroke-linecap="round" stroke-linejoin="round"/>
<path opacity="0.3" d="M127.642 113.074H147.552" stroke="#222B38" stroke-linecap="round" stroke-linejoin="round"/>
<path opacity="0.3" d="M127.642 115.174H155.957" stroke="#222B38" stroke-linecap="round" stroke-linejoin="round"/>
<path d="M166.792 111.744H158.167V115.504H166.792V111.744Z" fill="#3B485B"/>
<path opacity="0.3" d="M176.306 111.744H167.681V115.504H176.306V111.744Z" fill="black"/>
<path opacity="0.3" d="M124.765 124.354H113.04V136.079H124.765V124.354Z" fill="black"/>
<path d="M127.642 126.124H137.152" stroke="#222B38" stroke-linecap="round" stroke-linejoin="round"/>
<path opacity="0.3" d="M127.642 129.664H147.552" stroke="#222B38" stroke-linecap="round" stroke-linejoin="round"/>
<path opacity="0.3" d="M127.642 131.765H155.957" stroke="#222B38" stroke-linecap="round" stroke-linejoin="round"/>
<path d="M166.792 128.334H158.167V132.094H166.792V128.334Z" fill="#3B485B"/>
<path opacity="0.3" d="M176.306 128.334H167.681V132.094H176.306V128.334Z" fill="black"/>
<path opacity="0.3" d="M124.765 140.945H113.04V152.67H124.765V140.945Z" fill="black"/>
<path d="M127.642 142.715H137.152" stroke="#222B38" stroke-linecap="round" stroke-linejoin="round"/>
<path opacity="0.3" d="M127.642 146.255H147.552" stroke="#222B38" stroke-linecap="round" stroke-linejoin="round"/>
<path opacity="0.3" d="M127.642 148.355H155.957" stroke="#222B38" stroke-linecap="round" stroke-linejoin="round"/>
<path d="M166.792 144.924H158.167V148.684H166.792V144.924Z" fill="#3B485B"/>
<path opacity="0.3" d="M176.306 144.924H167.681V148.684H176.306V144.924Z" fill="black"/>
<path d="M115.206 69.3896C115.808 69.3896 116.296 68.9016 116.296 68.2996C116.296 67.6976 115.808 67.2096 115.206 67.2096C114.604 67.2096 114.116 67.6976 114.116 68.2996C114.116 68.9016 114.604 69.3896 115.206 69.3896Z" stroke="#222B38" stroke-width="0.5" stroke-miterlimit="10"/>
<path d="M115.981 69.0699L117.001 70.0899" stroke="#222B38" stroke-width="0.5" stroke-linecap="round" stroke-linejoin="round"/>
<path d="M120.145 69.7346H119.065L118.945 70.0796C118.92 70.1566 118.873 70.2245 118.81 70.2746C118.786 70.2957 118.758 70.3119 118.728 70.3222C118.698 70.3325 118.666 70.3367 118.635 70.3346C118.573 70.3308 118.513 70.312 118.46 70.2796C118.432 70.2631 118.408 70.2406 118.39 70.2138C118.372 70.187 118.36 70.1566 118.355 70.1246C118.33 70.0464 118.33 69.9628 118.355 69.8846L119.025 68.1496C119.055 68.0597 119.094 67.9727 119.14 67.8896C119.176 67.8279 119.223 67.7736 119.28 67.7296C119.322 67.695 119.372 67.6695 119.425 67.6546C119.532 67.6212 119.647 67.6212 119.755 67.6546C119.807 67.6706 119.856 67.696 119.9 67.7296C119.956 67.7736 120.003 67.8279 120.04 67.8896C120.086 67.9727 120.124 68.0597 120.155 68.1496L120.825 69.8846C120.844 69.9634 120.844 70.0458 120.825 70.1246C120.819 70.1563 120.806 70.1864 120.788 70.213C120.77 70.2397 120.747 70.2623 120.72 70.2796C120.667 70.312 120.607 70.3308 120.545 70.3346C120.479 70.338 120.415 70.3166 120.365 70.2746C120.304 70.2229 120.259 70.1554 120.235 70.0796L120.145 69.7346ZM119.605 68.2046L119.2 69.3496H120L119.605 68.2046Z" fill="#222B38"/>
<path d="M121.29 70.2446C121.24 70.1547 121.218 70.0521 121.225 69.9496V68.0646C121.218 67.962 121.24 67.8594 121.29 67.7696C121.315 67.7366 121.348 67.7106 121.385 67.6939C121.423 67.6773 121.464 67.6706 121.505 67.6746C121.548 67.6708 121.592 67.6774 121.632 67.694C121.672 67.7105 121.707 67.7364 121.735 67.7696C121.789 67.8583 121.813 67.9614 121.805 68.0646V69.9496C121.813 70.0528 121.789 70.1558 121.735 70.2446C121.707 70.2777 121.672 70.3036 121.632 70.3201C121.592 70.3367 121.548 70.3433 121.505 70.3396C121.464 70.3435 121.423 70.3368 121.385 70.3202C121.348 70.3035 121.315 70.2775 121.29 70.2446Z" fill="#222B38"/>
<path d="M122.347 70.245C122.297 70.1551 122.274 70.0525 122.282 69.95V68.065C122.274 67.9624 122.297 67.8598 122.347 67.77C122.37 67.737 122.402 67.7109 122.439 67.6943C122.476 67.6776 122.516 67.6709 122.557 67.675C122.6 67.6703 122.644 67.6766 122.684 67.6932C122.724 67.7097 122.759 67.7362 122.787 67.77C122.842 67.8581 122.868 67.9612 122.862 68.065V69.95C122.868 70.0537 122.842 70.1568 122.787 70.245C122.759 70.2788 122.724 70.3052 122.684 70.3218C122.644 70.3384 122.6 70.3446 122.557 70.34C122.516 70.344 122.476 70.3373 122.439 70.3207C122.402 70.304 122.37 70.2779 122.347 70.245Z" fill="#222B38"/>
<path d="M124.502 70.239C124.434 70.1618 124.4 70.0612 124.407 69.959V68.024C124.404 67.9735 124.413 67.923 124.434 67.8768C124.455 67.8307 124.487 67.7903 124.527 67.759C124.612 67.696 124.716 67.6642 124.822 67.669H125.562C125.666 67.6635 125.772 67.6635 125.877 67.669C125.972 67.6789 126.066 67.699 126.157 67.729C126.24 67.753 126.317 67.792 126.387 67.844C126.45 67.8979 126.501 67.9643 126.537 68.039C126.574 68.1292 126.593 68.2262 126.592 68.324C126.592 68.674 126.397 68.884 126.002 68.949C126.083 68.9567 126.164 68.9735 126.242 68.999C126.302 69.0207 126.356 69.0588 126.397 69.109C126.44 69.1579 126.473 69.216 126.492 69.279C126.514 69.3627 126.531 69.4479 126.542 69.534L126.577 69.779C126.603 69.9171 126.588 70.0601 126.532 70.189C126.504 70.2332 126.464 70.2684 126.417 70.2906C126.37 70.3128 126.318 70.3209 126.267 70.314C126.22 70.3174 126.172 70.3096 126.129 70.2914C126.086 70.2731 126.047 70.2449 126.017 70.209C125.951 70.1058 125.914 69.9865 125.912 69.864V69.624C125.907 69.5141 125.867 69.4086 125.797 69.324C125.754 69.2884 125.704 69.2617 125.651 69.2454C125.598 69.2291 125.542 69.2235 125.487 69.229H125.107V69.934C125.111 69.9855 125.104 70.0372 125.088 70.0862C125.072 70.1351 125.046 70.1803 125.012 70.219C124.98 70.2513 124.941 70.2765 124.899 70.2928C124.857 70.3092 124.812 70.3164 124.767 70.314C124.72 70.3228 124.671 70.3206 124.625 70.3076C124.579 70.2946 124.537 70.2711 124.502 70.239ZM125.372 68.819C125.438 68.8246 125.505 68.8246 125.572 68.819C125.631 68.8087 125.69 68.7919 125.747 68.769C125.801 68.7455 125.848 68.7075 125.882 68.659C125.913 68.6009 125.929 68.5352 125.927 68.469C125.932 68.4259 125.932 68.3822 125.927 68.339C125.916 68.304 125.9 68.2705 125.882 68.239C125.861 68.2125 125.836 68.1903 125.807 68.174L125.717 68.134C125.682 68.1298 125.646 68.1298 125.612 68.134H125.497H125.087V68.869L125.372 68.819Z" fill="#222B38"/>
<path d="M127.404 70.2596C127.259 70.1893 127.137 70.078 127.054 69.9396C126.964 69.7777 126.92 69.5947 126.924 69.4096C126.92 69.2353 126.961 69.063 127.044 68.9096C127.124 68.7672 127.242 68.6496 127.384 68.5696C127.537 68.485 127.709 68.4419 127.884 68.4446C128.019 68.4423 128.153 68.4661 128.279 68.5146C128.385 68.5569 128.478 68.6258 128.549 68.7146C128.615 68.7988 128.665 68.8935 128.699 68.9946C128.729 69.1072 128.746 69.223 128.749 69.3396C128.749 69.4396 128.684 69.4896 128.564 69.4896H127.504C127.498 69.5546 127.508 69.6201 127.531 69.6809C127.555 69.7417 127.593 69.7961 127.641 69.8398C127.69 69.8835 127.748 69.9153 127.811 69.9326C127.874 69.9499 127.94 69.9523 128.004 69.9396C128.09 69.9404 128.175 69.9234 128.254 69.8896C128.33 69.8581 128.4 69.816 128.464 69.7646C128.486 69.7498 128.512 69.7419 128.539 69.7419C128.566 69.7419 128.592 69.7498 128.614 69.7646C128.642 69.7779 128.667 69.7974 128.686 69.8217C128.705 69.846 128.718 69.8744 128.724 69.9046C128.736 69.9336 128.739 69.9655 128.731 69.996C128.724 70.0265 128.708 70.054 128.684 70.0746C128.647 70.1093 128.607 70.1411 128.564 70.1696C128.518 70.2015 128.47 70.2299 128.419 70.2546C128.352 70.2907 128.279 70.316 128.204 70.3296C128.114 70.3377 128.024 70.3377 127.934 70.3296C127.754 70.3468 127.573 70.3228 127.404 70.2596ZM128.264 69.2596C128.263 69.1446 128.23 69.0321 128.169 68.9346C128.138 68.8939 128.096 68.862 128.049 68.8418C128.002 68.8217 127.95 68.814 127.899 68.8196C127.846 68.8165 127.794 68.8257 127.745 68.8465C127.696 68.8673 127.653 68.8992 127.619 68.9396C127.548 69.0315 127.508 69.1435 127.504 69.2596H128.264Z" fill="#222B38"/>
<path d="M129.117 70.1393C129.085 70.118 129.062 70.0861 129.052 70.0493C129.041 70.0151 129.041 69.9786 129.052 69.9443C129.063 69.9091 129.082 69.8767 129.106 69.8493C129.132 69.8237 129.166 69.8078 129.201 69.8043C129.245 69.801 129.289 69.8115 129.326 69.8343C129.351 69.8437 129.374 69.8554 129.397 69.8693L129.492 69.9193L129.612 69.9593C129.665 69.9645 129.718 69.9645 129.772 69.9593H129.892L130.017 69.9343C130.052 69.9269 130.085 69.9095 130.112 69.8843C130.137 69.8571 130.151 69.8215 130.151 69.7843C130.15 69.7648 130.144 69.7459 130.133 69.7294C130.123 69.7128 130.108 69.6991 130.091 69.6893C130.045 69.6534 129.99 69.6294 129.931 69.6193L129.677 69.5493L129.451 69.4793C129.391 69.4595 129.333 69.4344 129.276 69.4043C129.224 69.3802 129.178 69.3443 129.142 69.2993C129.109 69.2592 129.083 69.2134 129.067 69.1643C129.045 69.1016 129.035 69.0356 129.037 68.9693C129.038 68.886 129.06 68.8045 129.101 68.732C129.142 68.6595 129.201 68.5984 129.272 68.5543C129.458 68.4495 129.674 68.4074 129.886 68.4343C129.959 68.4348 130.031 68.4432 130.102 68.4593L130.252 68.5043L130.392 68.5643C130.432 68.5812 130.465 68.6111 130.487 68.6493C130.498 68.6834 130.498 68.7202 130.487 68.7543C130.482 68.7898 130.47 68.824 130.451 68.8543C130.442 68.8698 130.43 68.8832 130.416 68.8936C130.401 68.9039 130.384 68.911 130.367 68.9143C130.324 68.9263 130.279 68.9263 130.237 68.9143C130.117 68.8691 129.993 68.8389 129.867 68.8243H129.727C129.679 68.8252 129.633 68.8372 129.591 68.8593C129.573 68.8656 129.556 68.8777 129.544 68.8938C129.533 68.91 129.527 68.9294 129.526 68.9493C129.527 68.9687 129.532 68.9877 129.54 69.005C129.549 69.0223 129.561 69.0374 129.576 69.0493C129.626 69.0801 129.68 69.1021 129.737 69.1143L129.992 69.1743C130.078 69.1981 130.163 69.2264 130.246 69.2593C130.315 69.2832 130.38 69.3188 130.437 69.3643C130.491 69.4038 130.535 69.4573 130.562 69.5193C130.593 69.5883 130.608 69.6635 130.606 69.7393C130.612 69.863 130.575 69.9849 130.502 70.0843C130.427 70.1811 130.327 70.2541 130.212 70.2943C130.076 70.3373 129.933 70.3542 129.791 70.3443C129.551 70.3437 129.317 70.2724 129.117 70.1393Z" fill="#222B38"/>
<path d="M131.105 70.1743C130.98 70.0385 130.912 69.8593 130.915 69.6743V68.9043C130.909 68.8006 130.935 68.6975 130.99 68.6093C131.018 68.5755 131.053 68.5491 131.093 68.5325C131.134 68.5159 131.177 68.5097 131.22 68.5143C131.261 68.5104 131.303 68.5171 131.34 68.5337C131.378 68.5503 131.411 68.5764 131.435 68.6093C131.486 68.6992 131.508 68.8018 131.5 68.9043V69.6643C131.496 69.7554 131.526 69.8448 131.585 69.9143C131.613 69.9435 131.646 69.9663 131.683 69.981C131.721 69.9957 131.761 70.002 131.8 69.9993C131.85 70.0008 131.9 69.9913 131.946 69.9714C131.992 69.9515 132.032 69.9218 132.065 69.8843C132.102 69.8448 132.131 69.7984 132.15 69.7478C132.169 69.6972 132.177 69.6433 132.175 69.5893V68.9043C132.17 68.8013 132.194 68.6989 132.245 68.6093C132.274 68.5696 132.313 68.5384 132.358 68.519C132.403 68.4997 132.452 68.4928 132.5 68.4993C132.541 68.4949 132.583 68.5013 132.621 68.518C132.658 68.5347 132.691 68.561 132.715 68.5943C132.769 68.683 132.793 68.7861 132.785 68.8893V70.0293C132.792 70.1159 132.765 70.2016 132.71 70.2693C132.68 70.297 132.645 70.318 132.606 70.3309C132.567 70.3438 132.526 70.3484 132.485 70.3443C132.295 70.3443 132.2 70.2393 132.2 70.0243C132.155 70.1381 132.077 70.2357 131.975 70.3043C131.86 70.369 131.728 70.4002 131.595 70.3943C131.503 70.3957 131.411 70.3767 131.326 70.3387C131.241 70.3007 131.166 70.2446 131.105 70.1743Z" fill="#222B38"/>
<path d="M133.299 70.2446C133.249 70.1548 133.226 70.0522 133.234 69.9496V68.0646C133.226 67.962 133.249 67.8594 133.299 67.7696C133.322 67.7367 133.354 67.7106 133.391 67.6939C133.428 67.6772 133.469 67.6706 133.509 67.6746C133.553 67.6708 133.597 67.6775 133.638 67.694C133.679 67.7105 133.715 67.7364 133.744 67.7696C133.797 67.8583 133.822 67.9614 133.814 68.0646V69.9496C133.822 70.0528 133.797 70.1559 133.744 70.2446C133.715 70.2778 133.679 70.3037 133.638 70.3202C133.597 70.3367 133.553 70.3434 133.509 70.3396C133.469 70.3436 133.428 70.337 133.391 70.3203C133.354 70.3036 133.322 70.2775 133.299 70.2446Z" fill="#222B38"/>
<path d="M134.533 70.1991C134.418 70.0454 134.365 69.8548 134.383 69.6641V68.8841H134.268C134.241 68.8864 134.213 68.8831 134.188 68.8745C134.162 68.8659 134.138 68.8521 134.118 68.8341C134.099 68.8122 134.085 68.7868 134.076 68.7593C134.068 68.7317 134.065 68.7027 134.068 68.6741C134.064 68.6475 134.066 68.6202 134.074 68.5946C134.082 68.569 134.096 68.5457 134.115 68.5267C134.135 68.5076 134.158 68.4934 134.183 68.4851C134.209 68.4768 134.236 68.4748 134.263 68.4791H134.423L134.463 68.1191C134.463 67.8941 134.578 67.7841 134.738 67.7841C134.898 67.7841 134.968 67.9041 134.968 68.1541V68.4991H135.193C135.318 68.4991 135.383 68.5691 135.383 68.7041C135.387 68.7313 135.385 68.7592 135.376 68.7854C135.368 68.8116 135.353 68.8354 135.334 68.8549C135.314 68.8744 135.29 68.889 135.264 68.8976C135.238 68.9061 135.21 68.9083 135.183 68.9041H134.968V69.5591C134.96 69.6702 134.979 69.7816 135.023 69.8841C135.045 69.9151 135.076 69.9391 135.111 69.9533C135.147 69.9675 135.185 69.9712 135.223 69.9641H135.333C135.365 69.9633 135.397 69.9739 135.423 69.9941C135.448 70.0152 135.467 70.0429 135.478 70.0741C135.48 70.109 135.48 70.1441 135.478 70.1791C135.478 70.2146 135.468 70.2494 135.448 70.2791C135.43 70.307 135.404 70.3282 135.373 70.3391C135.235 70.38 135.091 70.3969 134.948 70.3891C134.869 70.3871 134.792 70.3693 134.721 70.3366C134.65 70.3039 134.586 70.2571 134.533 70.1991Z" fill="#222B38"/>
<path d="M135.781 70.1392C135.75 70.1164 135.728 70.085 135.716 70.0492C135.705 70.015 135.705 69.9785 135.716 69.9442C135.727 69.909 135.746 69.8766 135.771 69.8492C135.796 69.8236 135.83 69.8077 135.866 69.8042C135.909 69.8002 135.953 69.8107 135.991 69.8342L136.061 69.8692L136.156 69.9192L136.276 69.9592C136.329 69.9644 136.382 69.9644 136.436 69.9592H136.561L136.681 69.9342C136.716 69.9268 136.749 69.9095 136.776 69.8842C136.79 69.8725 136.802 69.8577 136.81 69.8408C136.818 69.8239 136.822 69.8054 136.822 69.7867C136.822 69.768 136.818 69.7495 136.81 69.7327C136.802 69.7158 136.79 69.7009 136.776 69.6892C136.726 69.6543 136.67 69.6304 136.611 69.6192L136.361 69.5492L136.131 69.4792C136.071 69.4585 136.012 69.4334 135.956 69.4042C135.903 69.3801 135.857 69.3442 135.821 69.2992C135.788 69.2591 135.762 69.2133 135.746 69.1642C135.735 69.0997 135.735 69.0338 135.746 68.9692C135.744 68.8859 135.764 68.8035 135.804 68.7306C135.845 68.6576 135.904 68.5968 135.976 68.5542C136.164 68.4483 136.381 68.4062 136.596 68.4342C136.666 68.4346 136.737 68.4429 136.806 68.4592L136.961 68.5042L137.096 68.5642C137.136 68.5811 137.169 68.6111 137.191 68.6492C137.21 68.6804 137.219 68.7174 137.216 68.7542C137.213 68.7894 137.203 68.8236 137.186 68.8542C137.164 68.8851 137.132 68.9066 137.096 68.9142C137.055 68.9263 137.011 68.9263 136.971 68.9142C136.85 68.869 136.724 68.8388 136.596 68.8242H136.456C136.408 68.8251 136.362 68.8371 136.321 68.8592C136.303 68.8663 136.287 68.8788 136.277 68.8949C136.266 68.9109 136.26 68.9299 136.261 68.9492C136.26 68.9688 136.264 68.9882 136.273 69.0057C136.281 69.0232 136.294 69.0382 136.311 69.0492C136.359 69.081 136.414 69.1031 136.471 69.1142L136.721 69.1742C136.809 69.1973 136.896 69.2257 136.981 69.2592C137.047 69.2843 137.11 69.3197 137.166 69.3642C137.221 69.4048 137.265 69.458 137.296 69.5192C137.323 69.5892 137.337 69.664 137.336 69.7392C137.345 69.8633 137.307 69.9863 137.231 70.0842C137.158 70.1821 137.056 70.2554 136.941 70.2942C136.805 70.3378 136.663 70.3548 136.521 70.3442C136.258 70.3559 135.999 70.2841 135.781 70.1392Z" fill="#222B38"/>
<path opacity="0.3" d="M112.902 71.88H179.307" stroke="#222B38" stroke-width="0.5" stroke-linecap="round" stroke-linejoin="round"/>
<path opacity="0.3" d="M110.023 65.8794V152.974" stroke="#222B38" stroke-width="0.5" stroke-linecap="round" stroke-linejoin="round"/>
<path opacity="0.3" d="M182.072 65.8794V152.974" stroke="#222B38" stroke-width="0.5" stroke-linecap="round" stroke-linejoin="round"/>
<path opacity="0.3" d="M108.62 71.7144H79.6646" stroke="#222B38" stroke-width="0.5" stroke-linecap="round" stroke-linejoin="round"/>
<path opacity="0.3" d="M82.8955 79.8898H97.7155" stroke="#222B38" stroke-linecap="round" stroke-linejoin="round"/>
<path opacity="0.3" d="M82.8955 81.9948H103.971" stroke="#222B38" stroke-linecap="round" stroke-linejoin="round"/>
<path opacity="0.3" d="M82.8955 90.2544H97.7155" stroke="#222B38" stroke-linecap="round" stroke-linejoin="round"/>
<path opacity="0.3" d="M82.8955 92.3593H103.971" stroke="#222B38" stroke-linecap="round" stroke-linejoin="round"/>
<path opacity="0.3" d="M82.8955 100.619H97.7155" stroke="#222B38" stroke-linecap="round" stroke-linejoin="round"/>
<path opacity="0.3" d="M82.8955 102.725H103.971" stroke="#222B38" stroke-linecap="round" stroke-linejoin="round"/>
<path opacity="0.3" d="M82.8955 110.984H97.7155" stroke="#222B38" stroke-linecap="round" stroke-linejoin="round"/>
<path opacity="0.3" d="M82.8955 113.089H103.971" stroke="#222B38" stroke-linecap="round" stroke-linejoin="round"/>
<path opacity="0.3" d="M82.8955 121.35H97.7155" stroke="#222B38" stroke-linecap="round" stroke-linejoin="round"/>
<path opacity="0.3" d="M82.8955 123.455H103.971" stroke="#222B38" stroke-linecap="round" stroke-linejoin="round"/>
<path opacity="0.3" d="M82.8955 131.714H97.7155" stroke="#222B38" stroke-linecap="round" stroke-linejoin="round"/>
<path opacity="0.3" d="M82.8955 133.819H103.971" stroke="#222B38" stroke-linecap="round" stroke-linejoin="round"/>
<path opacity="0.3" d="M82.8955 142.079H97.7155" stroke="#222B38" stroke-linecap="round" stroke-linejoin="round"/>
<path opacity="0.3" d="M82.8955 144.185H103.971" stroke="#222B38" stroke-linecap="round" stroke-linejoin="round"/>
</g>
<path d="M210.361 55.12H74.3613V158.81H210.361V55.12Z" stroke="#222B38" stroke-width="0.5" stroke-linecap="round" stroke-linejoin="round"/>
<path d="M46.7562 211.34C46.7562 211.34 46.5212 212.395 43.8362 213.795C41.1512 215.195 38.1162 217.18 39.6312 217.995C41.1462 218.81 46.5212 216.945 48.0412 215.545C49.5612 214.145 51.3062 213.325 51.3062 212.16C51.3062 210.995 49.9062 210.29 48.7412 210.29C48.3433 210.246 47.9414 210.323 47.5875 210.51C47.2336 210.697 46.944 210.986 46.7562 211.34Z" fill="#222B38" stroke="#222B38" stroke-width="0.5" stroke-linecap="round" stroke-linejoin="round"/>
<path d="M49.0915 205.74C48.3915 207.84 46.5215 209.005 46.5215 209.59C46.5587 210.178 46.6372 210.763 46.7565 211.34C47.595 211.821 48.4997 212.177 49.4415 212.395C50.7265 212.625 51.3065 212.16 51.3065 212.16C51.3065 212.16 52.7115 211.11 53.0615 210.76C53.4115 210.41 54.3465 209.825 54.2265 208.655C54.1065 207.485 53.6415 207.02 54.1115 205.97C54.5815 204.92 64.5015 188.81 64.5015 188.81L56.3315 185.655C56.3315 185.655 49.7915 203.635 49.0915 205.74Z" fill="#222B38" stroke="#222B38" stroke-width="0.5" stroke-linecap="round" stroke-linejoin="round"/>
<path d="M88.1986 213.21C88.1986 213.21 95.5536 216.595 95.6736 217.415C95.7936 218.235 90.5336 218.345 88.1986 218.115C85.8636 217.885 84.3486 215.895 84.3486 215.895C84.3486 215.895 85.1636 212.86 88.1986 213.21Z" fill="#222B38" stroke="#222B38" stroke-width="0.5" stroke-linecap="round" stroke-linejoin="round"/>
<path d="M77.4604 185.89C77.4604 185.89 80.4955 204.805 81.6655 208.425C82.8355 212.045 81.3104 211.69 81.8954 212.745C82.6364 213.853 83.4569 214.905 84.3504 215.895C84.3504 215.895 86.4505 214.025 87.3855 213.895C88.3205 213.765 89.0204 213.66 89.0204 213.66C89.0204 213.66 88.5504 211.325 88.2004 210.86C87.8504 210.395 87.6154 208.76 87.2654 207.475C86.9154 206.19 86.3354 184.94 86.3354 184.94C86.3354 184.94 79.9104 186.125 77.4604 185.89Z" fill="#222B38" stroke="#222B38" stroke-width="0.5" stroke-linecap="round" stroke-linejoin="round"/>
<path d="M65.2008 106.615C63.5995 107.755 62.0777 109.003 60.6458 110.35C57.8458 112.92 53.1758 116.655 52.9408 117.475C52.7058 118.295 56.0958 133.585 57.3808 138.475C58.6658 143.365 59.0158 165.91 57.3808 173.615C56.3238 178.471 54.8791 183.235 53.0608 187.86C56.6577 190.326 60.9592 191.554 65.3158 191.36C72.5558 191.005 75.8158 189.025 79.4458 189.36C83.0758 189.695 87.1508 189.59 89.0208 187.14C90.8908 184.69 92.8708 183.755 94.0208 182.235C94.7275 181.286 95.1333 180.147 95.1858 178.965C95.1858 178.965 94.1358 174.995 90.2808 162.505C86.4258 150.015 86.4308 133.315 85.7308 129.815C85.0308 126.315 83.3958 115.69 81.7608 112.77C80.1258 109.85 73.5008 107.665 70.2208 107.085C66.9408 106.505 66.3708 106.03 65.2008 106.615Z" fill="#616C7D"/>
<path d="M65.2008 106.615C63.5995 107.755 62.0777 109.003 60.6458 110.35C57.8458 112.92 53.1758 116.655 52.9408 117.475C52.7058 118.295 56.0958 133.585 57.3808 138.475C58.6658 143.365 59.0158 165.91 57.3808 173.615C56.3238 178.471 54.8791 183.235 53.0608 187.86C56.6577 190.326 60.9592 191.554 65.3158 191.36C72.5558 191.005 75.8158 189.025 79.4458 189.36C83.0758 189.695 87.1508 189.59 89.0208 187.14C90.8908 184.69 92.8708 183.755 94.0208 182.235C94.7275 181.286 95.1333 180.147 95.1858 178.965C95.1858 178.965 94.1358 174.995 90.2808 162.505C86.4258 150.015 86.4308 133.315 85.7308 129.815C85.0308 126.315 83.3958 115.69 81.7608 112.77C80.1258 109.85 73.5008 107.665 70.2208 107.085C66.9408 106.505 66.3708 106.03 65.2008 106.615Z" stroke="#222B38" stroke-width="0.5" stroke-linecap="round" stroke-linejoin="round"/>
<path d="M65.7758 119.65L72.3908 128.965L76.2708 117.18C76.2708 117.18 76.0008 112.1 74.0308 110.32C72.0608 108.54 69.8608 105.91 66.5708 108.23C63.2808 110.55 63.8858 113.6 64.0358 115.23C64.1858 116.86 65.7758 119.65 65.7758 119.65Z" fill="white" stroke="#222B38" stroke-width="0.5" stroke-miterlimit="10"/>
<path d="M68.2109 115.985L70.1509 118.225L69.7059 125.09L72.3909 128.965L74.1809 124.045L71.7909 118.225L72.0909 114.645L69.7059 112.555L68.2109 115.985Z" fill="#222B38" stroke="#222B38" stroke-width="0.5" stroke-miterlimit="10"/>
<path d="M69.964 115.139L65.774 119.639C65.774 119.639 63.599 112.874 63.274 110.539C62.949 108.204 63.674 107.719 64.884 106.994C66.094 106.269 67.994 106.579 69.474 106.914C70.954 107.249 71.734 107.879 72.054 108.524C72.374 109.169 75.839 117.629 75.839 117.629L69.964 115.139Z" fill="white" stroke="#222B38" stroke-width="0.5" stroke-miterlimit="10"/>
<path d="M72.4214 127.5C75.1764 141.585 78.5164 165.69 75.3964 189.43" stroke="#222B38" stroke-width="0.5" stroke-miterlimit="10"/>
<path d="M74.8288 133.475C75.2126 133.475 75.5238 133.164 75.5238 132.78C75.5238 132.396 75.2126 132.085 74.8288 132.085C74.445 132.085 74.1338 132.396 74.1338 132.78C74.1338 133.164 74.445 133.475 74.8288 133.475Z" fill="#222B38"/>
<path d="M76.8259 149.22C77.2097 149.22 77.5209 148.909 77.5209 148.525C77.5209 148.141 77.2097 147.83 76.8259 147.83C76.442 147.83 76.1309 148.141 76.1309 148.525C76.1309 148.909 76.442 149.22 76.8259 149.22Z" fill="#222B38"/>
<path d="M62.8057 103.425C62.8057 103.425 64.0507 106.04 64.1707 107.645C64.2907 109.25 68.2157 115.075 69.5807 115.075C70.9457 115.075 70.8907 110.675 70.7107 108.715C70.5307 106.755 71.0657 105.68 71.2457 105.445C71.4257 105.21 68.7457 104.495 67.0857 103.245C65.4257 101.995 64.0507 101.815 63.3957 102.055C62.7407 102.295 62.8057 103.425 62.8057 103.425Z" fill="white"/>
<mask id="mask1_8561_18707" style="mask-type:luminance" maskUnits="userSpaceOnUse" x="62" y="101" width="10" height="15">
<path d="M62.807 103.425C62.807 103.425 64.052 106.04 64.172 107.645C64.292 109.25 68.217 115.075 69.582 115.075C70.947 115.075 70.892 110.675 70.712 108.715C70.532 106.755 71.067 105.68 71.247 105.445C71.427 105.21 68.747 104.495 67.087 103.245C65.427 101.995 64.052 101.815 63.397 102.055C62.742 102.295 62.807 103.425 62.807 103.425Z" fill="white"/>
</mask>
<g mask="url(#mask1_8561_18707)">
<path d="M67.087 103.245C65.422 101.995 64.052 101.815 63.397 102.055C62.742 102.295 62.807 103.425 62.807 103.425C62.807 103.425 64.052 106.04 64.172 107.645C64.17 107.663 64.17 107.681 64.172 107.7C65.2897 108.098 66.4577 108.339 67.642 108.415C68.6591 108.503 69.6839 108.427 70.677 108.19C70.627 106.565 71.077 105.66 71.237 105.445C71.397 105.23 68.752 104.5 67.087 103.245Z" fill="#616C7D"/>
<path opacity="0.5" d="M67.087 103.245C65.422 101.995 64.052 101.815 63.397 102.055C62.742 102.295 62.807 103.425 62.807 103.425C62.807 103.425 64.052 106.04 64.172 107.645C64.17 107.663 64.17 107.681 64.172 107.7C65.2897 108.098 66.4577 108.339 67.642 108.415C68.6591 108.503 69.6839 108.427 70.677 108.19C70.627 106.565 71.077 105.66 71.237 105.445C71.397 105.23 68.752 104.5 67.087 103.245Z" fill="white"/>
</g>
<path d="M62.8057 103.425C62.8057 103.425 64.0507 106.04 64.1707 107.645C64.2907 109.25 68.2157 115.075 69.5807 115.075C70.9457 115.075 70.8907 110.675 70.7107 108.715C70.5307 106.755 71.0657 105.68 71.2457 105.445C71.4257 105.21 68.7457 104.495 67.0857 103.245C65.4257 101.995 64.0507 101.815 63.3957 102.055C62.7407 102.295 62.8057 103.425 62.8057 103.425Z" stroke="#222B38" stroke-width="0.5" stroke-linecap="round" stroke-linejoin="round"/>
<path d="M60.0712 101.815C60.0712 101.815 62.0312 103.84 63.1012 104.075C64.1712 104.31 64.9462 103.48 64.5262 102.65C64.1062 101.82 64.3512 100.57 65.5962 100.745C66.8412 100.92 67.8562 99.8547 67.4412 98.4297C67.0262 97.0047 66.3712 95.6347 64.8262 95.9297C63.2812 96.2247 58.5812 99.1397 60.0712 101.815Z" fill="#222B38" stroke="#222B38" stroke-width="0.5" stroke-linecap="round" stroke-linejoin="round"/>
<path d="M73.0305 93.9097C73.0305 93.9097 73.9806 95.9897 74.8706 96.8247C75.7606 97.6597 76.5355 97.4747 76.2405 98.1297C75.9455 98.7847 74.6356 99.6297 74.6356 99.6297C74.6356 99.6297 74.7556 102.6 74.6356 104.025C74.5156 105.45 74.6355 105.87 73.3255 106.11C71.5273 106.338 69.7005 106.129 68.0005 105.5C66.8487 105.129 65.8746 104.345 65.2655 103.3C64.7048 103.319 64.1442 103.259 63.6005 103.12C62.4705 102.885 61.5205 100.505 62.1755 99.6197C62.4595 99.2582 62.8749 99.0238 63.3312 98.9676C63.7874 98.9113 64.2474 99.038 64.6105 99.3197C65.0306 99.8197 65.5055 100.27 65.8605 100.27C66.2155 100.27 66.9305 99.9747 66.5155 99.1997C66.1005 98.4247 65.6206 97.7747 66.2756 97.2397C66.9306 96.7047 71.9605 93.8497 73.0305 93.9097Z" fill="white"/>
<mask id="mask2_8561_18707" style="mask-type:luminance" maskUnits="userSpaceOnUse" x="61" y="93" width="16" height="14">
<path d="M73.0291 93.9096C73.0291 93.9096 73.9791 95.9896 74.8691 96.8246C75.7591 97.6596 76.5341 97.4746 76.2391 98.1296C75.9441 98.7846 74.6341 99.6296 74.6341 99.6296C74.6341 99.6296 74.7541 102.6 74.6341 104.025C74.5141 105.45 74.6341 105.87 73.3241 106.11C71.5259 106.338 69.699 106.129 67.9991 105.5C66.8473 105.129 65.8732 104.345 65.2641 103.3C64.7034 103.319 64.1427 103.258 63.5991 103.12C62.4691 102.885 61.5191 100.505 62.1741 99.6196C62.458 99.2581 62.8735 99.0236 63.3297 98.9674C63.7859 98.9112 64.2459 99.0378 64.6091 99.3196C65.0291 99.8196 65.5041 100.27 65.8591 100.27C66.2141 100.27 66.9291 99.9746 66.5141 99.1996C66.0991 98.4246 65.6191 97.7746 66.2741 97.2396C66.9291 96.7046 71.9591 93.8496 73.0291 93.9096Z" fill="white"/>
</mask>
<g mask="url(#mask2_8561_18707)">
<path d="M73.0299 93.9096C71.9599 93.8496 66.9049 96.7046 66.2499 97.2396C65.5949 97.7746 66.0749 98.4296 66.4899 99.1996C66.9049 99.9696 66.1899 100.27 65.8349 100.27C65.4799 100.27 65.0049 99.7946 64.5849 99.3196C64.2217 99.0378 63.7618 98.9112 63.3055 98.9674C62.8493 99.0236 62.4339 99.2581 62.1499 99.6196C61.4949 100.51 62.4449 102.89 63.5749 103.12C63.7049 103.15 63.8299 103.17 63.9449 103.19C67.0728 100.399 70.5483 98.0244 74.2849 96.1246C73.8095 95.4201 73.3899 94.6795 73.0299 93.9096Z" fill="#616C7D"/>
<path opacity="0.5" d="M73.0299 93.9096C71.9599 93.8496 66.9049 96.7046 66.2499 97.2396C65.5949 97.7746 66.0749 98.4296 66.4899 99.1996C66.9049 99.9696 66.1899 100.27 65.8349 100.27C65.4799 100.27 65.0049 99.7946 64.5849 99.3196C64.2217 99.0378 63.7618 98.9112 63.3055 98.9674C62.8493 99.0236 62.4339 99.2581 62.1499 99.6196C61.4949 100.51 62.4449 102.89 63.5749 103.12C63.7049 103.15 63.8299 103.17 63.9449 103.19C67.0728 100.399 70.5483 98.0244 74.2849 96.1246C73.8095 95.4201 73.3899 94.6795 73.0299 93.9096Z" fill="white"/>
</g>
<path d="M73.0305 93.9097C73.0305 93.9097 73.9806 95.9897 74.8706 96.8247C75.7606 97.6597 76.5355 97.4747 76.2405 98.1297C75.9455 98.7847 74.6356 99.6297 74.6356 99.6297C74.6356 99.6297 74.7556 102.6 74.6356 104.025C74.5156 105.45 74.6355 105.87 73.3255 106.11C71.5273 106.338 69.7005 106.129 68.0005 105.5C66.8487 105.129 65.8746 104.345 65.2655 103.3C64.7048 103.319 64.1442 103.259 63.6005 103.12C62.4705 102.885 61.5205 100.505 62.1755 99.6197C62.4595 99.2582 62.8749 99.0238 63.3312 98.9676C63.7874 98.9113 64.2474 99.038 64.6106 99.3197C65.0305 99.8197 65.5055 100.27 65.8605 100.27C66.2155 100.27 66.9305 99.9747 66.5155 99.1997C66.1005 98.4247 65.6206 97.7747 66.2756 97.2397C66.9306 96.7047 71.9605 93.8497 73.0305 93.9097Z" stroke="#222B38" stroke-width="0.5" stroke-linecap="round" stroke-linejoin="round"/>
<path d="M74.6349 99.6198C74.0995 99.7266 73.5907 99.939 73.1383 100.245C72.6859 100.55 72.2989 100.943 71.9999 101.4C71.0599 102.9 71.9999 103.155 72.5849 102.8C73.1699 102.445 74.2199 101.635 74.8049 101.3C75.3899 100.965 75.5349 99.4998 74.6349 99.6198Z" fill="#222B38" stroke="#222B38" stroke-width="0.5" stroke-linecap="round" stroke-linejoin="round"/>
<path d="M72.1573 97.8884C72.3405 97.8186 72.3576 97.4168 72.1954 96.991C72.0333 96.5652 71.7533 96.2766 71.57 96.3464C71.3868 96.4162 71.3697 96.818 71.5319 97.2438C71.6941 97.6695 71.9741 97.9582 72.1573 97.8884Z" fill="#222B38"/>
<path d="M70.0957 95.9245C70.4121 95.7078 70.7773 95.5729 71.1586 95.5319C71.5399 95.4908 71.9254 95.545 72.2807 95.6895" stroke="#222B38" stroke-width="0.5" stroke-linecap="round" stroke-linejoin="round"/>
<path d="M57.9999 106.275C59.218 103.814 60.8253 101.567 62.7599 99.6195C66.0299 96.2895 78.2599 92.8395 78.9299 91.8895C79.5999 90.9395 73.2799 92.4845 73.2799 92.4845C73.2799 92.4845 69.5949 88.0245 64.2449 87.7245C58.8949 87.4245 57.3499 93.2545 57.2899 96.1695C57.2299 99.0845 58.7149 102.47 58.7149 102.47C58.7149 102.47 57.0349 106.75 57.9999 106.275Z" fill="#616C7D"/>
<path d="M57.9999 106.275C59.218 103.814 60.8253 101.567 62.7599 99.6195C66.0299 96.2895 78.2599 92.8395 78.9299 91.8895C79.5999 90.9395 73.2799 92.4845 73.2799 92.4845C73.2799 92.4845 69.5949 88.0245 64.2449 87.7245C58.8949 87.4245 57.3499 93.2545 57.2899 96.1695C57.2299 99.0845 58.7149 102.47 58.7149 102.47C58.7149 102.47 57.0349 106.75 57.9999 106.275Z" stroke="#222B38" stroke-width="0.5" stroke-linecap="round" stroke-linejoin="round"/>
<path d="M58.7013 102.469C58.7013 102.469 57.0363 106.749 57.9863 106.274C59.2044 103.814 60.8117 101.567 62.7463 99.6194C66.0163 96.2894 78.2463 92.8394 78.9163 91.8894C79.5863 90.9394 73.2663 92.4844 73.2663 92.4844C73.2663 92.4844 69.0463 94.6844 65.5413 96.9844C63.1276 98.6395 60.8412 100.473 58.7013 102.469Z" fill="#616C7D" stroke="#222B38" stroke-width="0.5" stroke-linecap="round" stroke-linejoin="round"/>
<path d="M60.2454 89.0352C60.2454 89.0352 60.3054 94.8001 64.5854 97.7151" stroke="#222B38" stroke-width="0.5" stroke-linecap="round" stroke-linejoin="round"/>
<path d="M58.8416 144.5L60.6616 145C60.6616 145 63.8066 142.805 64.1616 142.74C64.5166 142.675 67.4916 144.375 68.4366 145.13C69.3816 145.885 70.5716 146.7 70.2566 146.95C69.9416 147.2 69.2566 146.885 68.8116 146.635C68.3666 146.385 65.6716 145.065 65.6716 145.065C65.6716 145.065 67.6716 146.385 68.3716 146.95C69.0716 147.515 70.0666 147.83 69.8166 148.145C69.7573 148.243 69.6785 148.327 69.585 148.393C69.4916 148.46 69.3855 148.506 69.2735 148.529C69.1614 148.553 69.0457 148.553 68.9336 148.53C68.8214 148.507 68.7153 148.461 68.6216 148.395C67.9966 148.08 64.7916 146.26 64.7916 146.26C64.7916 146.26 67.4916 148.08 67.9966 148.52C68.5016 148.96 68.4966 149.59 67.9316 149.59C67.3666 149.59 65.7966 148.77 65.2316 148.46C64.6666 148.15 63.0316 147.325 63.0316 147.325C63.7341 148.097 64.3839 148.915 64.9766 149.775C65.3566 150.47 65.9216 151.35 65.2916 151.35C64.6616 151.35 63.7916 149.905 63.3466 149.4C62.9016 148.895 61.2716 148.33 61.2716 148.33C60.5091 148.69 59.7093 148.965 58.8866 149.15C57.8166 149.335 55.6816 147.075 55.6816 147.075L58.8416 144.5Z" fill="white" stroke="#222B38" stroke-width="0.5" stroke-linecap="round" stroke-linejoin="round"/>
<path d="M60.6595 145.02L59.1045 146.89" stroke="#222B38" stroke-width="0.5" stroke-linecap="round" stroke-linejoin="round"/>
<path d="M64.8116 146.28L63.8066 145.68" stroke="#222B38" stroke-width="0.5" stroke-linecap="round" stroke-linejoin="round"/>
<path d="M65.6901 145.085L64.5601 144.465" stroke="#222B38" stroke-width="0.5" stroke-linecap="round" stroke-linejoin="round"/>
<path d="M44.5351 123.659C44.5351 123.659 37.0651 129.849 36.9451 130.314C36.8251 130.779 55.8601 148.414 55.8601 148.414L59.3601 144.559L48.9701 130.664L56.9101 125.664C56.9101 125.664 57.6101 121.814 56.4451 119.594C56.0846 118.937 55.5845 118.366 54.9799 117.922C54.3752 117.478 53.6807 117.171 52.9451 117.024L44.5351 123.659Z" fill="#616C7D"/>
<path d="M44.5351 123.659C44.5351 123.659 37.0651 129.849 36.9451 130.314C36.8251 130.779 55.8601 148.414 55.8601 148.414L59.3601 144.559L48.9701 130.664L56.9101 125.664C56.9101 125.664 57.6101 121.814 56.4451 119.594C56.0846 118.937 55.5845 118.366 54.9799 117.922C54.3752 117.478 53.6807 117.171 52.9451 117.024L44.5351 123.659Z" stroke="#222B38" stroke-width="0.5" stroke-linecap="round" stroke-linejoin="round"/>
<path d="M96.7279 123.41C96.7279 123.41 89.4429 119.26 86.4229 116.31C83.4029 113.36 82.1529 111.975 81.8379 113.105C81.5229 114.235 84.4779 129.105 85.0429 129.375C85.6079 129.645 97.5429 133.9 99.9329 134.025C102.323 134.15 103.933 134.34 104.208 133.275C104.483 132.21 102.708 128.94 100.498 126.36C98.2879 123.78 96.7279 123.41 96.7279 123.41Z" fill="#616C7D"/>
<path d="M96.7279 123.41C96.7279 123.41 89.4429 119.26 86.4229 116.31C83.4029 113.36 82.1529 111.975 81.8379 113.105C81.5229 114.235 84.4779 129.105 85.0429 129.375C85.6079 129.645 97.5429 133.9 99.9329 134.025C102.323 134.15 103.933 134.34 104.208 133.275C104.483 132.21 102.708 128.94 100.498 126.36C98.2879 123.78 96.7279 123.41 96.7279 123.41Z" stroke="#222B38" stroke-width="0.5" stroke-linecap="round" stroke-linejoin="round"/>
<path d="M91.3601 106.905C91.3601 106.905 91.8301 109.695 91.9901 110.36C92.1501 111.025 93.6751 112.955 93.6751 112.955L91.1251 114.565C90.5184 113.468 89.8507 112.407 89.1251 111.385C88.6951 110.95 86.5351 110.385 85.9051 109.535C85.2751 108.685 85.4351 107.69 85.2751 107.06C85.1151 106.43 83.6651 104.625 84.0201 104.35C84.3751 104.075 85.1201 104.31 85.4701 104.745C85.8201 105.18 85.8251 105.805 85.9701 106.12C86.1151 106.435 88.0501 107.62 88.0501 107.62C88.0501 107.62 87.1851 105.145 87.0501 104.795C87.0175 104.699 87.0063 104.598 87.0172 104.497C87.0282 104.397 87.0611 104.3 87.1135 104.214C87.166 104.127 87.2367 104.054 87.3208 103.998C87.4049 103.942 87.5002 103.905 87.6001 103.89C87.9901 103.89 89.7601 105.62 89.7601 105.62L91.3601 106.905Z" stroke="#222B38" stroke-width="0.5" stroke-linecap="round" stroke-linejoin="round"/>
<path d="M83.9267 102.123C85.4656 101.354 85.5765 98.4555 84.1743 95.6494C82.7722 92.8432 80.3879 91.1917 78.849 91.9607C77.3101 92.7297 77.1992 95.6279 78.6013 98.434C80.0035 101.24 82.3877 102.892 83.9267 102.123Z" fill="white" stroke="#222B38" stroke-width="0.5" stroke-linecap="round" stroke-linejoin="round"/>
<path d="M83.3026 101.457C84.3598 100.929 84.2553 98.576 83.0692 96.2021C81.883 93.8282 80.0644 92.3321 79.0071 92.8604C77.9498 93.3886 78.0543 95.7413 79.2405 98.1152C80.4267 100.489 82.2453 101.985 83.3026 101.457Z" fill="white" stroke="#222B38" stroke-width="0.5" stroke-linecap="round" stroke-linejoin="round"/>
<path d="M83.7741 101.925L88.1891 108.525C88.2452 108.61 88.318 108.683 88.4031 108.738C88.4882 108.794 88.5839 108.832 88.6841 108.849C88.7844 108.866 88.8871 108.863 88.986 108.839C89.0849 108.815 89.1779 108.771 89.2591 108.71C89.339 108.651 89.4062 108.576 89.4568 108.49C89.5074 108.404 89.5404 108.309 89.5539 108.21C89.5674 108.112 89.5611 108.011 89.5354 107.915C89.5097 107.819 89.4651 107.729 89.4041 107.65L84.4991 101.4C84.4719 101.361 84.4371 101.329 84.3969 101.304C84.3567 101.279 84.3119 101.263 84.2652 101.256C84.2184 101.249 84.1708 101.251 84.1251 101.263C84.0793 101.275 84.0365 101.296 83.9991 101.325L83.8341 101.435C83.7625 101.493 83.7162 101.577 83.705 101.668C83.6938 101.759 83.7186 101.852 83.7741 101.925Z" fill="#222B38" stroke="#222B38" stroke-width="0.5" stroke-linecap="round" stroke-linejoin="round"/>
<path d="M87.002 102.85C87.002 102.85 85.692 103.66 85.752 104.1C85.812 104.54 86.002 104.72 86.377 104.72C86.752 104.72 87.747 104.16 88.122 103.975C88.497 103.79 88.227 102.355 87.002 102.85Z" fill="white" stroke="#222B38" stroke-width="0.5" stroke-linecap="round" stroke-linejoin="round"/>
<path d="M87.4987 104.35C87.0307 104.972 86.6111 105.628 86.2437 106.315C86.2037 106.59 88.4787 108.815 88.8737 108.815C89.2687 108.815 91.4287 107.48 91.3487 106.93C91.2687 106.38 89.0687 104.73 88.6787 104.335C88.2887 103.94 87.9387 103.8 87.4987 104.35Z" fill="white" stroke="#222B38" stroke-width="0.5" stroke-linecap="round" stroke-linejoin="round"/>
<path d="M86.9219 107.1L89.0419 104.585" stroke="#222B38" stroke-width="0.5" stroke-linecap="round" stroke-linejoin="round"/>
<path d="M90.2186 105.805L88.0986 108.2" stroke="#222B38" stroke-width="0.5" stroke-linecap="round" stroke-linejoin="round"/>
<path d="M96.5364 127.745L90.0664 114.175L94.8414 111.675C94.8414 111.675 99.9314 117.58 102.006 121.675C104.081 125.77 105.006 132.295 104.206 133.3C103.406 134.305 99.7414 133.61 97.9214 132.48" fill="#616C7D"/>
<path d="M96.5364 127.745L90.0664 114.175L94.8414 111.675C94.8414 111.675 99.9314 117.58 102.006 121.675C104.081 125.77 105.006 132.295 104.206 133.3C103.406 134.305 99.7414 133.61 97.9214 132.48" stroke="#222B38" stroke-width="0.5" stroke-linecap="round" stroke-linejoin="round"/>
</svg>
