<svg width="24" height="24" viewBox="0 0 24 24" fill="none" xmlns="http://www.w3.org/2000/svg">
<path d="M21.0041 18.5029V20.0036C21.0041 20.5558 20.5559 21.004 20.0037 21.004H18.0029C17.4506 21.004 17.0024 20.5558 17.0024 20.0036V18.5029" stroke="#8E969B" stroke-width="1.5" stroke-linecap="round" stroke-linejoin="round"/>
<path d="M6.99825 18.5029V20.0036C6.99825 20.5558 6.55006 21.004 5.99783 21.004H3.997C3.44477 21.004 2.99658 20.5558 2.99658 20.0036V18.5029" stroke="#8E969B" stroke-width="1.5" stroke-linecap="round" stroke-linejoin="round"/>
<path fill-rule="evenodd" clip-rule="evenodd" d="M2.99658 18.5024V13.7434C2.99658 12.947 3.31271 12.1837 3.87595 11.6215L4.99742 10.499H19.0032L20.1247 11.6205C20.688 12.1837 21.0041 12.947 21.0041 13.7434V18.5024H2.99658Z" stroke="#8E969B" stroke-width="1.5" stroke-linecap="round" stroke-linejoin="round"/>
<path d="M21.0042 14.5011L18.0029 14.7512" stroke="#8E969B" stroke-width="1.5" stroke-linecap="round" stroke-linejoin="round"/>
<path d="M5.99783 14.7512L2.99658 14.5011" stroke="#8E969B" stroke-width="1.5" stroke-linecap="round" stroke-linejoin="round"/>
<path d="M7.99854 18.5022L8.99895 15.501H15.0015L16.0019 18.5022" stroke="#8E969B" stroke-width="1.5" stroke-linecap="round" stroke-linejoin="round"/>
<path d="M21.0043 9.49913L19.0034 9.99934" stroke="#8E969B" stroke-width="1.5" stroke-linecap="round" stroke-linejoin="round"/>
<path d="M4.99742 9.99934L2.99658 9.49913" stroke="#8E969B" stroke-width="1.5" stroke-linecap="round" stroke-linejoin="round"/>
<path d="M4.99756 10.4994V9.99315L5.83391 6.85484C6.12503 5.75939 7.11744 4.99707 8.24991 4.99707H15.8371C16.9946 4.99707 18.001 5.7914 18.2701 6.91787L19.0034 9.99315V10.4994" stroke="#8E969B" stroke-width="1.5" stroke-linecap="round" stroke-linejoin="round"/>
</svg>
