<svg width="270" height="270" viewBox="0 0 270 270" fill="none" xmlns="http://www.w3.org/2000/svg">
<path d="M43.2378 218.011H58.9302C58.6332 216.094 57.3966 216.429 57.2346 213.453C57.1536 211.957 58.536 210.105 58.4172 208.134C58.32 206.514 56.7216 204.851 56.5974 202.999C56.484 201.325 57.8502 199.467 57.7152 197.664C57.591 195.963 55.971 194.326 55.8306 192.555C55.6902 190.784 57.024 188.948 56.8674 187.204C56.7108 185.46 55.0584 183.845 54.8856 182.122C54.7128 180.4 55.998 178.445 55.7982 176.722C55.593 174.924 53.892 173.369 53.6382 171.711C53.379 169.87 54.5832 167.893 54.3024 166.311C53.9568 164.362 52.1424 162.947 51.759 161.505C51.0462 158.805 51.1326 156.235 50.2902 156.067C49.4478 155.9 49.2102 158.427 48.5082 161.257C48.168 162.682 46.3914 164.124 46.0944 166.079C45.9 167.656 47.142 169.6 46.9368 171.436C46.7532 173.056 45.1008 174.676 44.9388 176.452C44.7876 178.137 46.1322 179.989 46.0188 181.75C45.9054 183.51 44.2854 185.092 44.172 186.831C44.0586 188.57 45.4464 190.39 45.3546 192.102C45.2628 193.813 43.6806 195.52 43.5996 197.215C43.5132 199.003 44.928 200.806 44.8578 202.47C44.7822 204.306 43.2378 205.99 43.1676 207.6C43.0974 209.549 44.5338 211.353 44.4906 212.838C44.3934 216.078 42.9138 215.397 42.8706 217.989L43.2378 218.011Z" fill="#E19199"/>
<path opacity="0.2" d="M43.2378 218.011H58.9302C58.6332 216.094 57.3966 216.429 57.2346 213.453C57.1536 211.957 58.536 210.105 58.4172 208.134C58.32 206.514 56.7216 204.851 56.5974 202.999C56.484 201.325 57.8502 199.467 57.7152 197.664C57.591 195.963 55.971 194.326 55.8306 192.555C55.6902 190.784 57.024 188.948 56.8674 187.204C56.7108 185.46 55.0584 183.845 54.8856 182.122C54.7128 180.4 55.998 178.445 55.7982 176.722C55.593 174.924 53.892 173.369 53.6382 171.711C53.379 169.87 54.5832 167.893 54.3024 166.311C53.9568 164.362 52.1424 162.947 51.759 161.505C51.0462 158.805 51.1326 156.235 50.2902 156.067C49.4478 155.9 49.2102 158.427 48.5082 161.257C48.168 162.682 46.3914 164.124 46.0944 166.079C45.9 167.656 47.142 169.6 46.9368 171.436C46.7532 173.056 45.1008 174.676 44.9388 176.452C44.7876 178.137 46.1322 179.989 46.0188 181.75C45.9054 183.51 44.2854 185.092 44.172 186.831C44.0586 188.57 45.4464 190.39 45.3546 192.102C45.2628 193.813 43.6806 195.52 43.5996 197.215C43.5132 199.003 44.928 200.806 44.8578 202.47C44.7822 204.306 43.2378 205.99 43.1676 207.6C43.0974 209.549 44.5338 211.353 44.4906 212.838C44.3934 216.078 42.9138 215.397 42.8706 217.989L43.2378 218.011Z" fill="white"/>
<path d="M49.9771 161.24V217.287" stroke="#942B35" stroke-width="0.60661" stroke-miterlimit="10"/>
<path d="M52.4287 167.116L49.8745 169.324L47.7793 166.538" stroke="#942B35" stroke-width="0.60661" stroke-miterlimit="10"/>
<path d="M52.4287 176.873L49.8745 179.076L47.7793 176.29" stroke="#942B35" stroke-width="0.60661" stroke-miterlimit="10"/>
<path d="M52.4287 186.048L49.8745 188.251L47.7793 185.465" stroke="#942B35" stroke-width="0.60661" stroke-miterlimit="10"/>
<path d="M52.4287 196.962L49.8745 199.17L47.7793 196.384" stroke="#942B35" stroke-width="0.60661" stroke-miterlimit="10"/>
<path d="M52.4287 207.994L49.8745 210.202L47.7793 207.416" stroke="#942B35" stroke-width="0.60661" stroke-miterlimit="10"/>
<path d="M32.5513 218.011H44.6635C44.4313 216.531 43.4809 216.791 43.3513 214.496C43.2919 213.34 44.3611 211.909 44.2693 210.386C44.1883 209.139 42.9571 207.854 42.8599 206.423C42.7735 205.132 43.8265 203.723 43.7239 202.308C43.6213 200.893 42.3793 199.727 42.2659 198.36C42.1525 196.994 43.1893 195.579 43.0705 194.229C42.9517 192.879 41.6773 191.637 41.5423 190.309C41.4073 188.981 42.4009 187.469 42.2443 186.162C42.0877 184.855 40.7755 183.575 40.6243 182.295C40.4245 180.87 41.3533 179.347 41.1373 178.116C40.8727 176.609 39.4687 175.518 39.1717 174.406C38.6317 172.338 38.6911 170.34 38.0431 170.21C37.3951 170.081 37.1899 172.03 36.6661 174.217C36.4015 175.297 35.0461 176.431 34.8031 177.938C34.6195 179.158 35.5915 180.638 35.4295 182.063C35.2891 183.332 34.0147 184.553 33.8905 185.935C33.7717 187.236 34.8085 188.667 34.7059 190.028C34.6033 191.389 33.3667 192.604 33.2803 193.949C33.1939 195.293 34.2631 196.692 34.1929 198.015C34.1227 199.338 32.9023 200.655 32.8375 201.962C32.7727 203.269 33.8635 204.738 33.8095 206.018C33.7501 207.438 32.5513 208.718 32.5081 209.981C32.4541 211.488 33.5881 212.876 33.5233 214.02C33.4477 216.51 32.3083 215.997 32.2705 218L32.5513 218.011Z" fill="#E19199"/>
<path opacity="0.2" d="M32.5513 218.011H44.6635C44.4313 216.531 43.4809 216.791 43.3513 214.496C43.2919 213.34 44.3611 211.909 44.2693 210.386C44.1883 209.139 42.9571 207.854 42.8599 206.423C42.7735 205.132 43.8265 203.723 43.7239 202.308C43.6213 200.893 42.3793 199.727 42.2659 198.36C42.1525 196.994 43.1893 195.579 43.0705 194.229C42.9517 192.879 41.6773 191.637 41.5423 190.309C41.4073 188.981 42.4009 187.469 42.2443 186.162C42.0877 184.855 40.7755 183.575 40.6243 182.295C40.4245 180.87 41.3533 179.347 41.1373 178.116C40.8727 176.609 39.4687 175.518 39.1717 174.406C38.6317 172.338 38.6911 170.34 38.0431 170.21C37.3951 170.081 37.1899 172.03 36.6661 174.217C36.4015 175.297 35.0461 176.431 34.8031 177.938C34.6195 179.158 35.5915 180.638 35.4295 182.063C35.2891 183.332 34.0147 184.553 33.8905 185.935C33.7717 187.236 34.8085 188.667 34.7059 190.028C34.6033 191.389 33.3667 192.604 33.2803 193.949C33.1939 195.293 34.2631 196.692 34.1929 198.015C34.1227 199.338 32.9023 200.655 32.8375 201.962C32.7727 203.269 33.8635 204.738 33.8095 206.018C33.7501 207.438 32.5513 208.718 32.5081 209.981C32.4541 211.488 33.5881 212.876 33.5233 214.02C33.4477 216.51 32.3083 215.997 32.2705 218L32.5513 218.011Z" fill="white"/>
<path d="M37.7515 174.189V217.454" stroke="#942B35" stroke-width="0.60661" stroke-miterlimit="10"/>
<path d="M39.6413 178.726L37.6703 180.427L36.0557 178.277" stroke="#942B35" stroke-width="0.60661" stroke-miterlimit="10"/>
<path d="M39.6413 186.253L37.6703 187.96L36.0557 185.811" stroke="#942B35" stroke-width="0.60661" stroke-miterlimit="10"/>
<path d="M39.6413 193.338L37.6703 195.039L36.0557 192.89" stroke="#942B35" stroke-width="0.60661" stroke-miterlimit="10"/>
<path d="M39.6413 201.763L37.6703 203.469L36.0557 201.314" stroke="#942B35" stroke-width="0.60661" stroke-miterlimit="10"/>
<path d="M39.6413 210.283L37.6703 211.984L36.0557 209.835" stroke="#942B35" stroke-width="0.60661" stroke-miterlimit="10"/>
<path d="M220.779 218.01H235.98C235.688 216.153 234.495 216.477 234.333 213.599C234.257 212.146 235.596 210.359 235.483 208.447C235.386 206.876 233.836 205.266 233.717 203.468C233.609 201.848 234.932 200.05 234.797 198.306C234.678 196.653 233.107 195.066 232.967 193.354C232.826 191.642 234.128 189.86 233.976 188.17C233.825 186.48 232.227 184.93 232.054 183.251C231.881 181.571 233.134 179.687 232.94 178.045C232.74 176.306 231.093 174.805 230.871 173.185C230.623 171.398 231.789 169.491 231.514 167.947C231.179 166.057 229.419 164.707 229.052 163.292C228.36 160.695 228.447 158.189 227.631 158.022C226.816 157.854 226.551 160.306 225.903 163.049C225.574 164.432 223.851 165.825 223.571 167.72C223.338 169.254 224.559 171.117 224.359 172.893C224.181 174.513 222.577 176.025 222.42 177.753C222.275 179.373 223.576 181.177 223.446 182.883C223.317 184.59 221.767 186.123 221.659 187.803C221.551 189.482 222.89 191.248 222.798 192.911C222.707 194.574 221.178 196.221 221.103 197.863C221.022 199.591 222.388 201.341 222.318 202.95C222.248 204.732 220.741 206.363 220.698 207.918C220.628 209.813 222.015 211.557 221.972 212.994C221.88 216.12 220.449 215.472 220.401 217.983L220.779 218.01Z" fill="#E19199"/>
<path opacity="0.2" d="M220.779 218.01H235.98C235.688 216.153 234.495 216.477 234.333 213.599C234.257 212.146 235.596 210.359 235.483 208.447C235.386 206.876 233.836 205.266 233.717 203.468C233.609 201.848 234.932 200.05 234.797 198.306C234.678 196.653 233.107 195.066 232.967 193.354C232.826 191.642 234.128 189.86 233.976 188.17C233.825 186.48 232.227 184.93 232.054 183.251C231.881 181.571 233.134 179.687 232.94 178.045C232.74 176.306 231.093 174.805 230.871 173.185C230.623 171.398 231.789 169.491 231.514 167.947C231.179 166.057 229.419 164.707 229.052 163.292C228.36 160.695 228.447 158.189 227.631 158.022C226.816 157.854 226.551 160.306 225.903 163.049C225.574 164.432 223.851 165.825 223.571 167.72C223.338 169.254 224.559 171.117 224.359 172.893C224.181 174.513 222.577 176.025 222.42 177.753C222.275 179.373 223.576 181.177 223.446 182.883C223.317 184.59 221.767 186.123 221.659 187.803C221.551 189.482 222.89 191.248 222.798 192.911C222.707 194.574 221.178 196.221 221.103 197.863C221.022 199.591 222.388 201.341 222.318 202.95C222.248 204.732 220.741 206.363 220.698 207.918C220.628 209.813 222.015 211.557 221.972 212.994C221.88 216.12 220.449 215.472 220.401 217.983L220.779 218.01Z" fill="white"/>
<path d="M227.308 163.028V217.309" stroke="#942B35" stroke-width="0.60661" stroke-miterlimit="10"/>
<path d="M229.678 168.714L227.205 170.852L225.18 168.152" stroke="#942B35" stroke-width="0.60661" stroke-miterlimit="10"/>
<path d="M229.678 178.164L227.205 180.303L225.18 177.603" stroke="#942B35" stroke-width="0.60661" stroke-miterlimit="10"/>
<path d="M229.678 187.053L227.205 189.191L225.18 186.491" stroke="#942B35" stroke-width="0.60661" stroke-miterlimit="10"/>
<path d="M229.678 197.626L227.205 199.764L225.18 197.064" stroke="#942B35" stroke-width="0.60661" stroke-miterlimit="10"/>
<path d="M229.678 208.313L227.205 210.451L225.18 207.751" stroke="#942B35" stroke-width="0.60661" stroke-miterlimit="10"/>
<path d="M210.427 218.011H222.162C221.935 216.575 221.011 216.828 220.893 214.604C220.828 213.486 221.865 212.098 221.773 210.629C221.703 209.414 220.509 208.172 220.412 206.79C220.331 205.537 221.352 204.149 221.249 202.799C221.146 201.449 219.948 200.304 219.84 198.976C219.732 197.648 220.731 196.276 220.617 194.975C220.504 193.673 219.267 192.469 219.132 191.195C218.997 189.92 219.964 188.446 219.818 187.177C219.672 185.908 218.392 184.671 218.198 183.435C218.009 182.052 218.905 180.578 218.695 179.385C218.436 177.927 217.075 176.868 216.794 175.794C216.254 173.785 216.324 171.852 215.714 171.728C215.104 171.603 214.92 173.472 214.38 175.594C214.126 176.674 212.798 177.754 212.577 179.196C212.398 180.378 213.338 181.815 213.187 183.192C213.046 184.423 211.81 185.606 211.691 186.972C211.578 188.23 212.582 189.618 212.485 190.93C212.388 192.242 211.189 193.43 211.102 194.71C211.016 195.99 212.058 197.367 211.988 198.652C211.918 199.937 210.735 201.206 210.676 202.47C210.616 203.733 211.664 205.17 211.615 206.401C211.556 207.773 210.395 209.036 210.352 210.235C210.298 211.693 211.372 213.043 211.34 214.155C211.264 216.564 210.163 216.067 210.125 218.006L210.427 218.011Z" fill="#E19199"/>
<path opacity="0.2" d="M210.427 218.011H222.162C221.935 216.575 221.011 216.828 220.893 214.604C220.828 213.486 221.865 212.098 221.773 210.629C221.703 209.414 220.509 208.172 220.412 206.79C220.331 205.537 221.352 204.149 221.249 202.799C221.146 201.449 219.948 200.304 219.84 198.976C219.732 197.648 220.731 196.276 220.617 194.975C220.504 193.673 219.267 192.469 219.132 191.195C218.997 189.92 219.964 188.446 219.818 187.177C219.672 185.908 218.392 184.671 218.198 183.435C218.009 182.052 218.905 180.578 218.695 179.385C218.436 177.927 217.075 176.868 216.794 175.794C216.254 173.785 216.324 171.852 215.714 171.728C215.104 171.603 214.92 173.472 214.38 175.594C214.126 176.674 212.798 177.754 212.577 179.196C212.398 180.378 213.338 181.815 213.187 183.192C213.046 184.423 211.81 185.606 211.691 186.972C211.578 188.23 212.582 189.618 212.485 190.93C212.388 192.242 211.189 193.43 211.102 194.71C211.016 195.99 212.058 197.367 211.988 198.652C211.918 199.937 210.735 201.206 210.676 202.47C210.616 203.733 211.664 205.17 211.615 206.401C211.556 207.773 210.395 209.036 210.352 210.235C210.298 211.693 211.372 213.043 211.34 214.155C211.264 216.564 210.163 216.067 210.125 218.006L210.427 218.011Z" fill="white"/>
<path d="M215.465 175.566V217.47" stroke="#942B35" stroke-width="0.60661" stroke-miterlimit="10"/>
<path d="M217.296 179.963L215.384 181.61L213.824 179.525" stroke="#942B35" stroke-width="0.60661" stroke-miterlimit="10"/>
<path d="M217.296 187.252L215.384 188.905L213.824 186.82" stroke="#942B35" stroke-width="0.60661" stroke-miterlimit="10"/>
<path d="M217.296 194.116L215.384 195.763L213.824 193.679" stroke="#942B35" stroke-width="0.60661" stroke-miterlimit="10"/>
<path d="M217.296 202.275L215.384 203.922L213.824 201.843" stroke="#942B35" stroke-width="0.60661" stroke-miterlimit="10"/>
<path d="M217.296 210.521L215.384 212.173L213.824 210.089" stroke="#942B35" stroke-width="0.60661" stroke-miterlimit="10"/>
<path d="M132.926 227.837C195.35 227.837 245.954 222.361 245.954 215.606C245.954 208.851 195.35 203.375 132.926 203.375C70.503 203.375 19.8989 208.851 19.8989 215.606C19.8989 222.361 70.503 227.837 132.926 227.837Z" fill="#E19199"/>
<path opacity="0.5" d="M132.926 227.837C195.35 227.837 245.954 222.361 245.954 215.606C245.954 208.851 195.35 203.375 132.926 203.375C70.503 203.375 19.8989 208.851 19.8989 215.606C19.8989 222.361 70.503 227.837 132.926 227.837Z" fill="white"/>
<path opacity="0.43" d="M161.835 127.276C181.886 107.225 181.886 74.7163 161.835 54.6656C141.785 34.6148 109.276 34.6148 89.225 54.6656C69.1743 74.7164 69.1743 107.225 89.225 127.276C109.276 147.327 141.785 147.327 161.835 127.276Z" fill="#E19199" stroke="#942B35" stroke-linecap="round" stroke-linejoin="round"/>
<path d="M238.34 142.596C238.34 142.596 241.04 144.972 240.554 145.917C240.068 146.862 230.294 156.83 230.294 156.83L228.555 154.303L234.09 144.335L238.34 142.596Z" fill="white" stroke="#942B35" stroke-miterlimit="10"/>
<path d="M225.434 130.305C225.434 130.305 237.39 140.856 237.39 141.488C237.39 142.12 232.962 146.235 232.962 146.235L224.262 143.702L224.737 133.896" fill="white"/>
<path d="M225.434 130.305C225.434 130.305 237.39 140.856 237.39 141.488C237.39 142.12 232.962 146.235 232.962 146.235L224.262 143.702L224.737 133.896" stroke="#942B35" stroke-miterlimit="10"/>
<path d="M235.332 138.486L231.698 146.548L232.173 147.655L239.29 141.645C239.29 141.645 237.708 138.324 235.332 138.486Z" fill="white" stroke="#942B35" stroke-miterlimit="10"/>
<path d="M193.806 145.765C192.644 145.905 191.471 145.621 190.501 144.966L169.079 130.44C168.551 130.082 168.099 129.623 167.747 129.09C167.396 128.557 167.154 127.96 167.033 127.333C166.913 126.706 166.917 126.062 167.046 125.437C167.175 124.812 167.425 124.218 167.783 123.69C168.142 123.161 168.6 122.709 169.133 122.358C169.666 122.007 170.263 121.764 170.89 121.644C171.517 121.523 172.161 121.528 172.786 121.656C173.411 121.785 174.005 122.036 174.533 122.394L195.955 136.92C196.774 137.477 197.403 138.27 197.759 139.195C198.114 140.119 198.179 141.13 197.944 142.092C197.709 143.054 197.186 143.921 196.444 144.578C195.703 145.234 194.779 145.648 193.795 145.765H193.806Z" fill="white" stroke="#942B35" stroke-linecap="round" stroke-linejoin="round"/>
<path d="M183.254 147.088C183.254 147.088 184.567 149.453 185.09 150.123C185.614 150.792 188.293 151.381 188.293 151.381C188.293 151.381 191.117 158.79 191.668 160.113C192.218 161.436 193.385 163.731 193.93 163.893C194.476 164.055 198.461 165.864 199.411 164.6C200.362 163.336 200.21 158.887 200.21 158.887L192.11 150.916L191.533 148.297L183.254 147.088Z" fill="white" stroke="#942B35" stroke-miterlimit="10"/>
<path d="M239.096 181.2C236.644 181.492 234.168 180.89 232.124 179.504L185.717 148.044C184.579 147.298 183.6 146.333 182.838 145.205C182.076 144.078 181.547 142.81 181.28 141.475C181.012 140.141 181.014 138.767 181.283 137.433C181.552 136.099 182.084 134.832 182.848 133.705C183.611 132.579 184.591 131.615 185.731 130.871C186.87 130.127 188.146 129.617 189.485 129.371C190.823 129.125 192.197 129.148 193.527 129.438C194.857 129.728 196.115 130.28 197.23 131.061L243.637 162.505C245.37 163.678 246.702 165.353 247.456 167.304C248.21 169.256 248.349 171.391 247.855 173.424C247.36 175.457 246.257 177.29 244.691 178.678C243.126 180.066 241.173 180.942 239.096 181.189V181.2Z" fill="#E19199" stroke="#942B35" stroke-miterlimit="10"/>
<path d="M184.642 150.139C184.642 150.139 183.433 147.012 183.276 146.699C183.119 146.386 182.137 145.079 182.293 144.679C182.45 144.28 182.914 144.058 183.638 144.577C184.361 145.095 185.717 148.044 185.717 148.044C185.717 148.044 187.839 146.964 188.773 147.892C189.707 148.821 189.913 151.316 189.913 151.316" fill="white"/>
<path d="M184.642 150.139C184.642 150.139 183.433 147.012 183.276 146.699C183.119 146.386 182.137 145.079 182.293 144.679C182.45 144.28 182.914 144.058 183.638 144.577C184.361 145.095 185.717 148.044 185.717 148.044C185.717 148.044 187.839 146.964 188.773 147.892C189.707 148.821 189.913 151.316 189.913 151.316" stroke="#942B35" stroke-miterlimit="10"/>
<path d="M122.769 37.5003C111.791 38.81 101.449 43.3458 93.0487 50.5341C84.6488 57.7223 78.5693 67.2402 75.579 77.8838C72.5887 88.5275 72.822 99.8189 76.2493 110.33C79.6766 120.841 86.1441 130.1 94.8337 136.935C103.523 143.77 114.045 147.875 125.067 148.73C136.09 149.585 147.119 147.152 156.758 141.739C166.398 136.326 174.216 128.176 179.224 118.319C184.232 108.463 186.204 97.3424 184.891 86.3649C183.131 71.648 175.598 58.2328 163.948 49.0693C152.299 39.9058 137.487 35.7444 122.769 37.5003ZM135.249 142.114C125.536 143.273 115.698 141.525 106.978 137.092C98.2584 132.658 91.0492 125.739 86.262 117.209C81.4748 108.679 79.3245 98.9206 80.083 89.1683C80.8416 79.416 84.475 70.1076 90.5237 62.4202C96.5724 54.7328 104.765 49.0117 114.065 45.9802C123.365 42.9487 133.355 42.7431 142.772 45.3893C152.189 48.0355 160.61 53.4147 166.97 60.8467C173.33 68.2787 177.344 77.4296 178.503 87.1425C180.056 100.168 176.371 113.277 168.26 123.586C160.148 133.895 148.274 140.56 135.249 142.114Z" fill="white" stroke="#942B35" stroke-linecap="round" stroke-linejoin="round"/>
<path d="M120.577 36.5717C109.598 37.8769 99.2527 42.4087 90.8497 49.5939C82.4466 56.7791 76.3632 66.295 73.3688 76.9379C70.3744 87.5808 70.6036 98.8728 74.0274 109.385C77.4511 119.898 83.9157 129.159 92.6034 135.998C101.291 142.836 111.812 146.944 122.834 147.803C133.857 148.661 144.887 146.232 154.529 140.821C164.171 135.411 171.991 127.262 177.002 117.407C182.012 107.551 183.987 96.4308 182.677 85.4525C180.921 70.737 173.392 57.3212 161.747 48.1549C150.102 38.9886 135.293 34.8222 120.577 36.5717ZM133.056 141.186C123.343 142.344 113.505 140.596 104.785 136.163C96.0658 131.73 88.8566 124.811 84.0694 116.281C79.2821 107.75 77.1318 97.992 77.8904 88.2397C78.649 78.4874 82.2824 69.179 88.3311 61.4917C94.3798 53.8043 102.572 48.0831 111.872 45.0517C121.173 42.0202 131.163 41.8146 140.58 44.4608C149.997 47.107 158.418 52.4862 164.778 59.9181C171.138 67.3501 175.151 76.5011 176.31 86.2139C177.863 99.2394 174.179 112.348 166.067 122.657C157.956 132.966 146.081 139.631 133.056 141.186Z" fill="white" stroke="#942B35" stroke-linecap="round" stroke-linejoin="round"/>
<path d="M202.662 114.796C202.662 114.796 201.285 118.657 201.377 119.391C201.469 120.126 201.836 120.407 201.377 120.866C200.918 121.325 199.449 122.426 199.633 123.069C199.88 123.606 200.25 124.078 200.713 124.446C200.713 124.446 201.723 128.49 202.733 128.949C203.742 129.408 205.308 129.041 205.308 129.041L206.388 131.984L214.11 130.056L213.651 125.369C213.651 125.369 215.946 120.957 215.396 118.29C214.845 115.622 210.066 113.052 206.939 113.052C203.813 113.052 202.938 114.062 202.662 114.796Z" fill="white" stroke="#942B35" stroke-miterlimit="10"/>
<path d="M202.711 125.558C202.711 125.558 203.915 125.401 204.282 124.667" stroke="#942B35" stroke-miterlimit="10"/>
<path d="M202.819 120.844C202.819 121.163 202.711 121.422 202.581 121.422C202.452 121.422 202.349 121.163 202.349 120.844C202.349 120.526 202.452 120.267 202.581 120.267C202.711 120.267 202.819 120.526 202.819 120.844Z" fill="#942B35"/>
<path d="M202.241 119.538C202.241 119.538 202.921 118.701 203.321 119.743" stroke="#942B35" stroke-miterlimit="10"/>
<path d="M204.493 116.27C204.493 116.27 201.458 116.453 201.253 113.602C201.048 110.751 205.206 109.19 206.766 109.19C208.327 109.19 207.225 110.756 207.225 110.756C207.225 110.756 211.086 109.649 212.085 110.665C213.084 111.68 212.269 112.501 212.269 112.501C212.269 112.501 217.323 114.612 217.323 118.289C217.323 121.967 214.661 125.552 214.202 126.287C213.743 127.021 212.636 127.664 210.617 127.756C208.597 127.847 207.377 126.838 206.939 125.461L206.48 124.078C206.48 124.078 208.041 122.426 207.306 121.049C206.572 119.672 206.113 120.509 205.929 121.049C205.746 121.589 206.113 122.129 205.746 122.129C205.379 122.129 205.654 121.67 204.666 120.66C203.678 119.65 202.824 119.186 203.192 118.176C203.503 117.465 203.945 116.819 204.493 116.27Z" fill="#942B35" stroke="#942B35" stroke-miterlimit="10"/>
<path d="M204.228 131.536L203.132 133.961L217.085 130.786L215.471 128.771L204.228 131.536Z" fill="white" stroke="#942B35" stroke-miterlimit="10"/>
<path d="M209.833 214.372C209.833 214.372 205.675 215.366 203.256 215.366C200.837 215.366 199.778 215.241 199.778 216.046C199.778 216.851 203.629 218.341 205.859 219.21C208.089 220.08 212.436 221.322 212.809 221.198C213.181 221.073 213.926 216.543 213.926 216.543L209.833 214.372Z" fill="white" stroke="#942B35" stroke-miterlimit="10"/>
<path d="M200.027 215.576C199.946 215.624 199.88 215.693 199.836 215.776C199.792 215.859 199.772 215.952 199.778 216.046C199.778 216.856 203.629 218.341 205.859 219.21C208.089 220.08 212.436 221.322 212.809 221.198C212.895 221.171 212.998 220.906 213.111 220.528C208.764 219.659 201.82 216.429 200.027 215.576Z" fill="#942B35" stroke="#942B35" stroke-miterlimit="10"/>
<path d="M202.387 161.328C202.36 164.331 202.485 167.333 202.759 170.324C203.191 174.477 205.179 192.718 205.362 195.574C205.546 198.431 209.833 214.372 209.833 214.372L213.927 216.532C213.927 216.532 215.973 198.787 215.973 195.812V190.849C215.973 190.849 219.57 176.761 220.687 173.413C221.805 170.065 222.361 163.423 222.243 159.702C218.964 160.978 215.498 161.708 211.983 161.862C208.774 162.045 205.555 161.866 202.387 161.328Z" fill="#942B35" stroke="#942B35" stroke-miterlimit="10"/>
<path d="M225.061 135.608L223.392 149.005C223.392 149.005 222.739 159.146 222.556 160.08C222.372 161.015 221.53 161.474 217.696 162.78C213.862 164.087 203.548 163.153 202.711 162.311C201.874 161.468 201.69 153.287 201.69 153.287C201.69 153.287 200.572 158.034 199.735 158.687C198.898 159.341 195.734 159.06 194.243 157.667C192.753 156.273 194.524 140.262 194.427 138.767C194.33 137.271 203.547 133.647 203.547 133.647C203.547 133.647 216.351 130.71 217.047 130.78C217.744 130.85 224.84 129.371 225.396 130.299C225.952 131.228 226.33 131.79 226.33 131.79" fill="white"/>
<path d="M225.061 135.608L223.392 149.005C223.392 149.005 222.739 159.146 222.556 160.08C222.372 161.015 221.53 161.474 217.696 162.78C213.862 164.087 203.548 163.153 202.711 162.311C201.874 161.468 201.69 153.287 201.69 153.287C201.69 153.287 200.572 158.034 199.735 158.687C198.898 159.341 195.734 159.06 194.243 157.667C192.753 156.273 194.524 140.262 194.427 138.767C194.33 137.271 203.547 133.647 203.547 133.647C203.547 133.647 216.351 130.71 217.047 130.78C217.744 130.85 224.84 129.371 225.396 130.299C225.952 131.228 226.33 131.79 226.33 131.79" stroke="#942B35" stroke-miterlimit="10"/>
<path d="M201.706 153.293L199.19 141.1" stroke="#942B35" stroke-miterlimit="10"/>
<path d="M215.298 136.547L209.515 153.897" stroke="#942B35" stroke-miterlimit="10"/>
<path d="M213.721 147.85L209.515 158.369" stroke="#942B35" stroke-miterlimit="10"/>
<path d="M193.59 153.768C193.449 153.966 193.375 154.205 193.379 154.448C193.379 154.864 192.548 158.228 192.91 158.881C193.271 159.535 194.789 160.453 197.23 160.555C199.67 160.658 200.621 160.296 200.831 159.664C201.18 158.328 201.424 156.967 201.56 155.593C201.512 155.231 201.199 155.436 201.199 155.436C199.601 155.764 197.946 155.675 196.393 155.177C193.957 154.34 193.59 153.768 193.59 153.768Z" fill="white" stroke="#942B35" stroke-miterlimit="10"/>
<path d="M202.694 164.859C202.694 164.859 202.819 175.287 203.067 181.427C203.315 187.566 204.309 192.907 204.687 194.144C205.065 195.38 213.5 206.18 215.422 208.481C217.345 210.781 221.065 214.248 221.065 214.248L225.266 211.953C225.266 211.953 219.823 204.198 218.09 200.613C216.356 197.027 213.311 191.06 213.311 191.06L215.228 173.845L218.392 172.112" fill="#942B35"/>
<path d="M202.694 164.859C202.694 164.859 202.819 175.287 203.067 181.427C203.315 187.566 204.309 192.907 204.687 194.144C205.065 195.38 213.5 206.18 215.422 208.481C217.345 210.781 221.065 214.248 221.065 214.248L225.266 211.953C225.266 211.953 219.823 204.198 218.09 200.613C216.356 197.027 213.311 191.06 213.311 191.06L215.228 173.845L218.392 172.112" stroke="#942B35" stroke-miterlimit="10"/>
<path d="M217.712 172.965L215.125 174.693L213.306 191.044L215.973 195.823" stroke="#C13E4A" stroke-miterlimit="10"/>
<path d="M221.13 214.086C221.13 214.086 219.132 217.051 218.376 217.737C217.62 218.422 214.656 220.221 214.24 220.631C213.824 221.041 216.103 221.392 217.755 221.392C219.408 221.392 221.476 221.047 222.507 220.426C223.539 219.805 227.4 217.051 227.88 216.57C228.361 216.09 225.261 211.953 225.261 211.953L221.13 214.086Z" fill="white" stroke="#942B35" stroke-miterlimit="10"/>
<path d="M227.88 216.57C228.047 216.403 227.794 215.814 227.389 215.112C225.882 216.695 222.529 220.075 221.13 220.512C219.575 220.971 215.617 220.663 214.358 220.55L214.24 220.647C213.829 221.063 216.103 221.409 217.755 221.409C219.407 221.409 221.476 221.063 222.507 220.442C223.538 219.821 227.399 217.045 227.88 216.57Z" fill="#942B35" stroke="#942B35" stroke-miterlimit="10"/>
</svg>
