<svg width="210" height="210" viewBox="0 0 210 210" fill="none" xmlns="http://www.w3.org/2000/svg">
<path d="M201.508 104.958C199.366 123.102 191.079 144.198 174.536 153.888C149.52 168.533 151.62 191.058 102.833 200.852C95.7168 202.312 88.463 202.996 81.1991 202.893C77.6448 202.829 74.0983 202.538 70.5815 202.02C39.5687 197.496 18.6989 175.942 11.0423 149.94C0.966459 115.697 21.0845 93.2943 34.4405 79.7997C47.7965 66.3051 57.5405 24.2337 105.42 14.2335C112.726 12.6792 120.188 11.9746 127.655 12.1335C144.695 12.5535 163.284 18.1437 176.144 29.8239C177.11 30.7003 178.05 31.6089 178.962 32.5497C196.833 50.8827 204.431 80.2197 201.508 104.958Z" fill="#E19199"/>
<path opacity="0.7" d="M201.508 104.958C199.366 123.102 191.079 144.198 174.536 153.888C149.52 168.533 151.62 191.058 102.833 200.852C95.7168 202.312 88.463 202.996 81.1991 202.893C77.6448 202.829 74.0983 202.538 70.5815 202.02C39.5687 197.496 18.6989 175.942 11.0423 149.94C0.966459 115.697 21.0845 93.2943 34.4405 79.7997C47.7965 66.3051 57.5405 24.2337 105.42 14.2335C112.726 12.6792 120.188 11.9746 127.655 12.1335C144.695 12.5535 163.284 18.1437 176.144 29.8239C177.11 30.7003 178.05 31.6089 178.962 32.5497C196.833 50.8827 204.431 80.2197 201.508 104.958Z" fill="white"/>
<path d="M97.7798 17.8752C97.7798 17.8752 95.1464 12.39 91.4168 9.09718C87.6872 5.80438 81.7568 6.68638 80.0096 8.87878C78.2624 11.0712 76.9394 16.9974 75.6248 16.5564C74.3102 16.1154 69.6986 11.9364 65.9648 14.8008C62.231 17.6652 65.3138 21.1638 62.6804 22.26C60.047 23.3562 57.8546 19.4082 55.0196 21.1638C52.1846 22.9194 52.1678 26.4306 52.1678 26.4306L42.5498 28.8288H116.89C116.89 28.8288 114.038 20.0676 110.749 17.4342C107.461 14.8008 104.386 20.286 101.971 20.5086C99.5564 20.7312 97.7798 17.8752 97.7798 17.8752Z" stroke="#651A21" stroke-width="0.42" stroke-linecap="round" stroke-linejoin="round"/>
<path d="M178.163 97.9061C178.163 97.9061 176.315 94.7939 173.695 92.9291C171.074 91.0643 166.916 91.5599 165.681 92.8031C164.446 94.0463 163.522 97.4231 162.598 97.1585C161.674 96.8939 158.436 94.5461 155.819 96.1799C153.203 97.8137 155.357 99.7877 153.505 100.409C151.653 101.031 150.116 98.7923 148.112 99.7877C147.542 100.06 147.055 100.481 146.702 101.007C146.35 101.532 146.145 102.142 146.109 102.774L139.355 104.118H191.574C191.574 104.118 189.571 99.1493 187.256 97.6541C184.942 96.1589 182.788 99.2711 181.091 99.3971C179.394 99.5231 178.163 97.9061 178.163 97.9061Z" stroke="#651A21" stroke-width="0.42" stroke-linecap="round" stroke-linejoin="round"/>
<path d="M52.4066 122.069C52.4066 122.069 50.5586 118.957 47.9378 117.092C45.317 115.227 41.159 115.723 39.9242 116.97C38.6894 118.218 37.7654 121.569 36.8414 121.321C35.9174 121.074 32.6792 118.709 30.0626 120.326C27.446 121.943 29.6006 123.934 27.7484 124.555C25.8962 125.177 24.359 122.938 22.3556 123.934C21.7849 124.207 21.2979 124.628 20.9455 125.153C20.5931 125.678 20.3882 126.288 20.3522 126.92L13.5986 128.281H65.8172C65.8172 128.281 63.8138 123.312 61.4996 121.821C59.1854 120.33 57.0308 123.438 55.334 123.56C53.6372 123.682 52.4066 122.069 52.4066 122.069Z" stroke="#651A21" stroke-width="0.42" stroke-linecap="round" stroke-linejoin="round"/>
<path d="M18.4114 163.287C19.3942 163.17 21.2842 162.027 21.2884 162.002C21.2926 161.977 20.1376 160.99 20.0578 160.935C19.1212 160.301 16.9414 159.629 15.946 160.41C15.7839 160.544 15.6519 160.711 15.5586 160.899C15.4653 161.088 15.4128 161.293 15.4045 161.504C15.3962 161.714 15.4322 161.923 15.5103 162.118C15.5884 162.313 15.7068 162.49 15.8578 162.636C16.4752 163.279 17.5714 163.38 18.4114 163.287Z" fill="#942B35"/>
<path d="M22.3215 168.449C23.2077 168.092 24.6273 166.597 24.7365 166.475C25.5927 167.289 26.5019 168.045 27.4581 168.739C28.0125 169.159 28.5837 169.537 29.1591 169.923C28.8693 169.785 28.6089 169.667 28.5711 169.655C27.5001 169.289 25.2111 169.235 24.4677 170.23C24.3465 170.402 24.2628 170.597 24.2223 170.804C24.1817 171.01 24.1851 171.222 24.2323 171.427C24.2795 171.632 24.3693 171.825 24.496 171.993C24.6227 172.161 24.7833 172.3 24.9675 172.401C25.7361 172.859 26.8197 172.674 27.6009 172.355C28.3821 172.036 29.6337 170.78 29.9529 170.444L30.6207 170.885C31.6959 171.582 32.7711 172.271 33.8001 172.985C34.1655 173.233 34.5141 173.493 34.8669 173.75C34.6065 173.628 34.3881 173.531 34.3545 173.519C33.2835 173.153 30.9945 173.099 30.2511 174.098C30.1299 174.27 30.0464 174.465 30.0058 174.671C29.9653 174.877 29.9687 175.089 30.0159 175.294C30.0631 175.498 30.153 175.691 30.2796 175.858C30.4063 176.025 30.5669 176.164 30.7509 176.265C31.5195 176.723 32.6031 176.538 33.3843 176.219C34.1655 175.9 35.2785 174.762 35.6985 174.367C36.0471 174.64 36.3999 174.917 36.7275 175.207C36.9459 175.404 37.1727 175.581 37.3785 175.791L38.0085 176.4C38.3949 176.799 38.7939 177.21 39.1593 177.614C39.4155 177.891 39.6549 178.155 39.8985 178.428C39.5373 178.172 38.8233 177.693 38.7603 177.66C37.7565 177.139 35.5137 176.723 34.6149 177.609C34.4692 177.761 34.3572 177.942 34.2861 178.14C34.215 178.337 34.1865 178.548 34.2023 178.758C34.2182 178.967 34.2781 179.171 34.3781 179.356C34.4782 179.541 34.6161 179.703 34.7829 179.831C35.4717 180.402 36.5721 180.381 37.3911 180.188C38.2983 179.97 39.8691 178.764 40.0623 178.609C40.4823 179.058 40.8477 179.495 41.2005 179.919C41.4651 180.226 41.7171 180.528 41.9565 180.818L42.6369 180.419C42.3639 180.1 42.0741 179.768 41.7675 179.428C41.3475 178.97 40.9275 178.491 40.4697 178.004C40.8553 177.491 41.2101 176.955 41.5323 176.4C42.4479 176.677 44.2959 176.547 44.5311 176.53C44.6193 177.122 44.6949 177.702 44.7621 178.248C44.7957 178.538 44.8251 178.811 44.8545 179.088L45.5727 178.668C45.5517 178.496 45.5307 178.332 45.5055 178.155C45.4215 177.551 45.3165 176.895 45.2073 176.249C45.4341 176.173 47.3073 175.53 47.9961 174.892C48.6135 174.317 49.2561 173.409 49.1427 172.523C49.1277 172.313 49.0688 172.109 48.9698 171.924C48.8707 171.738 48.7338 171.576 48.5678 171.447C48.4019 171.317 48.2106 171.225 48.0065 171.174C47.8023 171.124 47.5899 171.117 47.3829 171.154C46.1439 171.414 45.2535 173.514 45.1359 174.636C45.1359 174.703 45.1359 175.43 45.1359 175.896C45.0855 175.627 45.0435 175.362 44.9931 175.089C44.8923 174.539 44.7789 173.997 44.6571 173.409C44.5899 173.128 44.5227 172.847 44.4513 172.569C44.3799 172.292 44.2833 171.99 44.2035 171.7C43.9977 171.024 43.7541 170.352 43.4979 169.68C43.9767 169.592 45.6735 169.26 46.3707 168.777C47.0679 168.294 47.8239 167.517 47.8659 166.61C47.8831 166.4 47.8559 166.189 47.7861 165.99C47.7163 165.792 47.6056 165.61 47.4609 165.457C47.3163 165.304 47.1412 165.183 46.9468 165.103C46.7525 165.022 46.5433 164.983 46.3329 164.988C45.0729 165.06 43.8717 167 43.5819 168.092C43.5819 168.159 43.4475 168.966 43.3887 169.411C43.2333 168.991 43.0779 168.609 42.9015 168.206C42.4017 167.042 41.8599 165.883 41.3265 164.724L40.8393 163.657C41.0115 163.628 43.0359 163.275 43.8213 162.737C44.5143 162.258 45.2703 161.477 45.3123 160.566C45.3295 160.356 45.3023 160.145 45.2325 159.947C45.1627 159.749 45.0519 159.567 44.9072 159.415C44.7625 159.262 44.5873 159.142 44.3929 159.061C44.1986 158.981 43.9895 158.943 43.7793 158.949C42.5193 159.016 41.3181 160.956 41.0325 162.053C41.0073 162.132 40.8393 163.313 40.8099 163.594C40.4571 162.809 40.1127 162.027 39.8019 161.238C39.3779 160.179 39.0244 159.093 38.7435 157.987C38.8233 157.987 40.9359 157.613 41.7381 157.063C42.4353 156.588 43.1913 155.803 43.2333 154.892C43.2467 154.685 43.217 154.477 43.1461 154.283C43.0751 154.088 42.9644 153.91 42.8211 153.76C42.6777 153.611 42.5048 153.492 42.3133 153.413C42.1218 153.334 41.9159 153.295 41.7087 153.3C40.4487 153.367 39.2475 155.312 38.9577 156.404C38.9367 156.488 38.7561 157.739 38.7393 157.966C38.7393 157.903 38.6973 157.84 38.6847 157.773C38.4254 156.65 38.2693 155.505 38.2185 154.354C38.1807 153.724 38.1807 153.119 38.2185 152.531C38.6385 152.502 40.4487 152.359 41.2257 151.943C42.0027 151.527 42.8091 150.834 42.9477 149.952C42.9881 149.744 42.9837 149.53 42.9348 149.323C42.8859 149.117 42.7936 148.923 42.6641 148.755C42.5346 148.587 42.3708 148.448 42.1837 148.349C41.9965 148.249 41.7902 148.19 41.5785 148.176C40.3185 148.104 38.9073 149.902 38.5041 150.956C38.4789 151.015 38.3193 151.624 38.2101 152.065C38.2101 151.8 38.2101 151.527 38.2395 151.271C38.2941 150.318 38.4033 149.444 38.5041 148.671C38.5671 148.251 38.6301 147.831 38.6931 147.47C39.0753 147.239 40.5915 146.29 41.0829 145.576C41.5743 144.862 41.9733 143.862 41.6919 143.014C41.6326 142.812 41.5314 142.625 41.395 142.465C41.2585 142.305 41.0899 142.176 40.9 142.086C40.7101 141.995 40.5034 141.946 40.2932 141.941C40.083 141.936 39.8741 141.975 39.6801 142.056C38.5251 142.573 38.1093 144.82 38.2311 145.941C38.2311 146.038 38.5881 147.537 38.6049 147.525H38.6301C38.5629 147.878 38.4915 148.256 38.4243 148.676C38.3067 149.444 38.1765 150.318 38.1009 151.275C38.0113 152.306 37.9804 153.341 38.0085 154.375C38.0354 155.535 38.1647 156.69 38.3949 157.827V157.865C38.2101 157.542 37.6725 156.656 37.6263 156.605C36.9333 155.715 35.0727 154.392 33.8799 154.824C33.6826 154.901 33.5037 155.019 33.3553 155.169C33.2068 155.32 33.092 155.501 33.0186 155.699C32.9451 155.898 32.9147 156.11 32.9292 156.321C32.9437 156.532 33.0029 156.738 33.1029 156.924C33.4893 157.731 34.4973 158.184 35.3247 158.34C36.2571 158.529 38.2647 158.063 38.4285 158.025C38.7025 159.163 39.0533 160.281 39.4785 161.372C39.7137 162.019 39.9741 162.662 40.2429 163.3C40.0749 163.027 39.9279 162.783 39.9027 162.75C39.2097 161.859 37.3491 160.536 36.1563 160.969C35.959 161.046 35.7801 161.163 35.6317 161.314C35.4832 161.465 35.3684 161.646 35.295 161.844C35.2215 162.043 35.1911 162.254 35.2056 162.466C35.2201 162.677 35.2793 162.882 35.3793 163.069C35.7657 163.875 36.7737 164.329 37.6011 164.484C38.4285 164.64 40.1631 164.291 40.6167 164.186L40.9317 164.921C41.4441 166.097 41.9607 167.265 42.4269 168.424C42.5949 168.844 42.7419 169.243 42.8931 169.65C42.7461 169.407 42.6201 169.201 42.5949 169.176C41.9061 168.281 40.0413 166.962 38.8527 167.391C38.6554 167.467 38.4766 167.585 38.3281 167.736C38.1796 167.887 38.0648 168.067 37.9914 168.266C37.9179 168.464 37.8875 168.676 37.902 168.887C37.9165 169.099 37.9757 169.304 38.0757 169.491C38.4621 170.297 39.4701 170.751 40.2975 170.906C41.1249 171.062 42.6915 170.747 43.2375 170.629C43.3803 171.049 43.5231 171.469 43.6575 171.889C43.7289 172.175 43.8213 172.443 43.8801 172.729L44.0691 173.569C44.1657 174.115 44.2749 174.678 44.3589 175.215C44.4219 175.585 44.4723 175.942 44.5227 176.299C44.3631 175.879 44.0355 175.098 43.9977 175.039C43.4845 174.188 42.7614 173.484 41.8977 172.994C41.8465 172.895 41.7845 172.802 41.7129 172.716C41.5849 172.55 41.4231 172.412 41.2381 172.312C41.0532 172.212 40.8492 172.152 40.6395 172.136C40.4299 172.12 40.2192 172.149 40.0213 172.22C39.8234 172.291 39.6427 172.403 39.4911 172.548C38.6007 173.447 39.0165 175.69 39.5373 176.694C39.5709 176.753 39.9573 177.357 40.2345 177.735C40.0497 177.534 39.8691 177.341 39.6717 177.139C39.2895 176.719 38.8947 176.345 38.4705 175.925L37.7985 175.329C37.5885 175.127 37.3407 174.938 37.1097 174.741C36.5679 174.291 35.9967 173.863 35.4297 173.443C35.7783 173.107 37.0089 171.893 37.3281 171.108C37.6473 170.322 37.8321 169.243 37.3743 168.474C37.2736 168.29 37.135 168.129 36.9677 168.002C36.8004 167.875 36.6082 167.785 36.4036 167.737C36.199 167.689 35.9866 167.686 35.7804 167.726C35.5742 167.766 35.3788 167.849 35.2071 167.97C34.1907 168.722 34.2621 171.003 34.6233 172.074C34.6233 172.141 34.9929 172.88 35.1903 173.283C34.8375 173.031 34.4847 172.784 34.1193 172.544C33.0609 171.851 31.9689 171.183 30.8811 170.511L29.8899 169.89C30.0159 169.768 31.5069 168.357 31.8639 167.475C32.1831 166.694 32.3721 165.61 31.9143 164.841C31.8122 164.658 31.6728 164.498 31.505 164.371C31.3373 164.245 31.1449 164.155 30.9404 164.108C30.7358 164.06 30.5236 164.056 30.3173 164.096C30.1111 164.135 29.9154 164.218 29.7429 164.337C28.7265 165.093 28.7979 167.374 29.1591 168.445C29.1885 168.525 29.6883 169.587 29.8269 169.852C29.1003 169.394 28.3821 168.928 27.6891 168.445C26.7433 167.797 25.8412 167.087 24.9885 166.32C25.0473 166.265 26.6139 164.799 26.9793 163.896C27.2985 163.115 27.4833 162.032 27.0255 161.263C26.9248 161.079 26.7862 160.918 26.6189 160.791C26.4516 160.663 26.2594 160.573 26.0548 160.526C25.8502 160.478 25.6378 160.474 25.4316 160.514C25.2254 160.555 25.03 160.638 24.8583 160.759C23.8419 161.511 23.9133 163.791 24.2745 164.862C24.3039 164.946 24.8415 166.089 24.9549 166.29L24.7995 166.16C23.9738 165.367 23.2191 164.502 22.5441 163.577C22.1661 163.069 21.8343 162.565 21.5193 162.065C21.8385 161.822 23.2875 160.692 23.7075 159.919C24.1275 159.146 24.4131 158.121 24.0435 157.307C23.9631 157.113 23.8428 156.938 23.6903 156.793C23.5378 156.649 23.3566 156.538 23.1585 156.468C22.9604 156.398 22.7498 156.371 22.5404 156.388C22.3311 156.405 22.1277 156.466 21.9435 156.567C20.8515 157.206 20.6835 159.478 20.9103 160.583C20.9103 160.641 21.1287 161.238 21.2799 161.67C21.1413 161.444 20.9943 161.208 20.8599 160.99C20.3769 160.15 19.9863 159.377 19.6461 158.676C19.4571 158.256 19.2933 157.911 19.1421 157.571C19.3311 157.151 20.0703 155.538 20.0871 154.673C20.1039 153.808 19.8855 152.75 19.1799 152.199C19.0195 152.063 18.8321 151.963 18.6301 151.904C18.428 151.846 18.2159 151.831 18.0077 151.86C17.7995 151.89 17.5998 151.963 17.4218 152.075C17.2438 152.187 17.0915 152.335 16.9749 152.51C16.2987 153.577 17.1891 155.681 17.9115 156.551C17.9745 156.622 19.0875 157.685 19.0959 157.664V157.638C19.2345 157.97 19.3857 158.327 19.5579 158.714C19.8855 159.419 20.2593 160.217 20.7255 161.057C21.2174 161.969 21.7629 162.851 22.3593 163.699C23.0206 164.651 23.7656 165.542 24.5853 166.362L24.6147 166.387C24.2871 166.219 23.3547 165.778 23.2707 165.753C22.2039 165.387 19.9107 165.333 19.1673 166.328C19.0461 166.5 18.9624 166.695 18.9219 166.902C18.8813 167.108 18.8847 167.321 18.9319 167.526C18.9791 167.73 19.0689 167.923 19.1956 168.091C19.3223 168.259 19.4829 168.398 19.6671 168.5C20.4567 168.953 21.5403 168.768 22.3215 168.449Z" fill="#942B35"/>
<path d="M38.0422 152.351C38.0422 152.351 37.6222 150.872 37.6222 150.784C37.2022 149.738 35.7448 147.974 34.4848 148.075C34.2755 148.097 34.0733 148.164 33.8913 148.269C33.7093 148.375 33.5517 148.518 33.4288 148.689C33.3059 148.86 33.2205 149.055 33.1781 149.261C33.1357 149.467 33.1373 149.68 33.1828 149.885C33.3424 150.763 34.195 151.456 34.951 151.834C35.8204 152.279 38.038 152.351 38.0422 152.351Z" fill="#942B35"/>
<path d="M149.821 165.207C150.783 165.627 153.126 165.572 153.126 165.572C153.126 165.572 152.622 164.035 152.58 163.942C152.064 162.867 150.438 161.091 149.115 161.267C148.897 161.304 148.688 161.386 148.504 161.508C148.319 161.631 148.162 161.791 148.043 161.977C147.924 162.164 147.846 162.374 147.814 162.593C147.781 162.813 147.796 163.036 147.855 163.249C148.065 164.165 149.006 164.85 149.821 165.207Z" fill="#942B35"/>
<path d="M150.632 171.998C151.627 172.141 153.719 171.536 153.887 171.486C154.227 172.683 154.648 173.856 155.147 174.997C155.433 175.665 155.743 176.324 156.063 176.984C155.874 176.706 155.701 176.459 155.672 176.425C154.891 175.522 152.854 174.237 151.623 174.745C151.421 174.837 151.241 174.971 151.095 175.138C150.948 175.305 150.838 175.501 150.773 175.713C150.707 175.925 150.686 176.148 150.713 176.369C150.739 176.589 150.812 176.801 150.926 176.992C151.38 177.832 152.467 178.227 153.349 178.353C154.231 178.479 156.037 178.004 156.508 177.87C156.634 178.122 156.756 178.374 156.886 178.626C157.491 179.831 158.1 181.032 158.662 182.229C158.86 182.649 159.04 183.069 159.221 183.489C159.053 183.242 158.906 183.036 158.881 183.006C158.1 182.103 156.063 180.818 154.832 181.326C154.63 181.418 154.45 181.552 154.304 181.718C154.157 181.885 154.047 182.08 153.981 182.291C153.915 182.503 153.894 182.726 153.92 182.946C153.946 183.166 154.017 183.379 154.131 183.569C154.588 184.409 155.672 184.808 156.554 184.934C157.436 185.06 159.074 184.628 159.633 184.472C159.805 184.892 159.977 185.35 160.128 185.783C160.221 186.077 160.334 186.358 160.41 186.66C160.485 186.963 160.578 187.257 160.657 187.551C160.796 188.122 160.939 188.71 161.077 189.269C161.161 189.659 161.237 190.033 161.313 190.407C161.119 189.987 160.729 189.147 160.687 189.101C160.053 188.093 158.23 186.513 156.936 186.841C156.725 186.903 156.529 187.008 156.36 187.149C156.192 187.291 156.055 187.466 155.958 187.664C155.861 187.861 155.805 188.077 155.796 188.297C155.787 188.516 155.823 188.736 155.903 188.941C156.226 189.827 157.243 190.394 158.091 190.655C159.032 190.94 161.107 190.68 161.367 190.655C161.493 191.272 161.607 191.877 161.707 192.452C161.779 192.872 161.85 193.292 161.913 193.674H162.753C162.673 193.254 162.585 192.784 162.493 192.305C162.367 191.675 162.224 191.003 162.073 190.314C162.697 190.069 163.307 189.789 163.9 189.474C164.584 190.214 166.336 191.079 166.562 191.192C166.323 191.776 166.084 192.343 165.853 192.872C165.731 193.154 165.609 193.422 165.492 193.687H166.374C166.441 193.519 166.512 193.355 166.584 193.179C166.827 192.587 167.075 191.948 167.327 191.289C167.579 191.339 169.633 191.755 170.59 191.541C171.46 191.343 172.514 190.852 172.9 189.995C172.999 189.796 173.055 189.579 173.064 189.357C173.073 189.135 173.035 188.914 172.953 188.707C172.871 188.501 172.747 188.314 172.588 188.159C172.429 188.004 172.239 187.884 172.031 187.807C170.771 187.387 168.831 188.823 168.121 189.781C168.079 189.84 167.701 190.503 167.461 190.928C167.562 190.655 167.663 190.394 167.764 190.117C167.965 189.567 168.15 189.008 168.352 188.412L168.616 187.53C168.709 187.236 168.772 186.912 168.852 186.602C169.028 185.879 169.167 185.14 169.272 184.388C169.755 184.565 171.477 185.165 172.371 185.102C173.266 185.039 174.375 184.712 174.891 183.922C175.019 183.741 175.107 183.535 175.15 183.317C175.193 183.099 175.189 182.875 175.139 182.659C175.089 182.443 174.994 182.24 174.86 182.063C174.726 181.886 174.556 181.74 174.362 181.633C173.173 181.02 171.048 182.15 170.2 182.99C170.149 183.04 169.608 183.712 169.322 184.09C169.393 183.636 169.465 183.187 169.519 182.729C169.687 181.402 169.809 180.058 169.939 178.714C169.977 178.294 170.023 177.895 170.065 177.488C170.238 177.551 172.27 178.307 173.27 178.235C174.156 178.176 175.273 177.849 175.79 177.059C175.918 176.878 176.006 176.671 176.049 176.453C176.092 176.235 176.088 176.011 176.038 175.794C175.988 175.578 175.893 175.374 175.759 175.197C175.625 175.02 175.455 174.873 175.261 174.766C174.072 174.153 171.947 175.283 171.099 176.123C171.036 176.186 170.259 177.156 170.078 177.412C170.175 176.509 170.275 175.61 170.414 174.728C170.595 173.537 170.852 172.359 171.183 171.2C171.262 171.234 173.383 172.04 174.404 171.96C175.294 171.897 176.407 171.57 176.924 170.78C177.051 170.598 177.139 170.392 177.181 170.174C177.224 169.956 177.22 169.732 177.17 169.516C177.12 169.299 177.025 169.096 176.892 168.919C176.758 168.742 176.589 168.595 176.395 168.487C175.206 167.878 173.077 169.004 172.233 169.848C172.165 169.911 171.334 170.952 171.195 171.154C171.216 171.087 171.229 171.015 171.25 170.948C171.614 169.789 172.083 168.664 172.648 167.588C172.951 166.996 173.274 166.446 173.602 165.908C173.98 166.097 175.723 166.941 176.651 166.979C177.579 167.017 178.688 166.811 179.284 166.085C179.431 165.918 179.541 165.722 179.607 165.511C179.673 165.299 179.693 165.075 179.667 164.855C179.641 164.635 179.569 164.422 179.455 164.232C179.341 164.041 179.189 163.877 179.007 163.749C177.894 163.01 175.647 163.896 174.723 164.64C174.673 164.682 174.202 165.148 173.883 165.48C174.034 165.245 174.186 164.997 174.333 164.774C174.891 163.934 175.458 163.195 175.962 162.548C176.252 162.183 176.521 161.859 176.773 161.557C177.243 161.557 179.133 161.49 179.961 161.103C180.788 160.717 181.691 160.016 181.884 159.096C181.937 158.88 181.944 158.656 181.904 158.437C181.865 158.219 181.78 158.011 181.655 157.828C181.531 157.644 181.369 157.488 181.18 157.371C180.992 157.254 180.781 157.178 180.561 157.147C179.234 157.004 177.655 158.827 177.172 159.915C177.13 160.011 176.643 161.557 176.668 161.557H176.693C176.445 161.843 176.176 162.149 175.895 162.494C175.374 163.132 174.795 163.859 174.215 164.69C173.58 165.581 172.998 166.508 172.472 167.466C171.877 168.54 171.38 169.664 170.985 170.826V170.873C170.985 170.478 170.985 169.386 170.985 169.302C170.83 168.117 169.839 165.921 168.524 165.677C168.305 165.643 168.081 165.656 167.867 165.714C167.653 165.772 167.454 165.875 167.282 166.015C167.11 166.155 166.969 166.33 166.869 166.528C166.769 166.726 166.712 166.942 166.701 167.164C166.626 168.105 167.306 169.046 167.961 169.642C168.713 170.31 170.792 170.957 170.96 171.007C170.585 172.195 170.29 173.408 170.078 174.636C169.952 175.354 169.847 176.076 169.746 176.803C169.746 176.463 169.746 176.16 169.746 176.118C169.595 174.938 168.604 172.758 167.289 172.498C167.07 172.463 166.846 172.476 166.632 172.534C166.417 172.591 166.218 172.694 166.046 172.834C165.874 172.975 165.733 173.149 165.633 173.348C165.534 173.546 165.477 173.763 165.466 173.985C165.391 174.926 166.071 175.866 166.726 176.459C167.382 177.051 169.162 177.651 169.633 177.798C169.595 178.08 169.561 178.357 169.528 178.638C169.364 179.982 169.213 181.318 169.02 182.628C168.952 183.09 168.868 183.54 168.789 183.993C168.789 183.691 168.789 183.439 168.789 183.401C168.637 182.217 167.646 180.02 166.332 179.777C166.112 179.743 165.888 179.755 165.674 179.814C165.459 179.872 165.26 179.975 165.088 180.116C164.916 180.256 164.776 180.432 164.676 180.63C164.576 180.828 164.519 181.046 164.509 181.268C164.429 182.204 165.114 183.145 165.769 183.737C166.424 184.329 168.033 184.871 168.587 185.052C168.49 185.514 168.394 185.972 168.28 186.417C168.192 186.715 168.133 187.009 168.028 187.307C167.923 187.605 167.839 187.895 167.747 188.185C167.545 188.735 167.327 189.306 167.134 189.84C166.991 190.214 166.848 190.562 166.714 190.919C166.785 190.461 166.907 189.558 166.911 189.483C166.889 188.432 166.6 187.404 166.071 186.497C166.073 186.38 166.065 186.263 166.046 186.148C166.019 185.928 165.946 185.715 165.831 185.525C165.716 185.335 165.563 185.172 165.38 185.045C165.198 184.919 164.991 184.832 164.772 184.791C164.554 184.75 164.33 184.756 164.114 184.808C162.825 185.153 162.014 187.416 161.943 188.588C161.943 188.655 161.985 189.428 162.022 189.907C161.959 189.626 161.901 189.353 161.829 189.067C161.695 188.5 161.539 187.933 161.38 187.324C161.292 187.03 161.203 186.736 161.111 186.438C161.019 186.14 160.905 185.841 160.8 185.539C160.544 184.838 160.254 184.145 159.96 183.439C160.46 183.317 162.228 182.868 162.938 182.322C163.648 181.776 164.395 180.894 164.387 179.949C164.393 179.727 164.352 179.506 164.267 179.301C164.182 179.096 164.055 178.911 163.894 178.758C163.732 178.606 163.541 178.489 163.331 178.415C163.121 178.342 162.899 178.313 162.678 178.332C161.35 178.475 160.2 180.591 159.956 181.759C159.956 181.83 159.864 182.691 159.83 183.162C159.641 182.742 159.452 182.322 159.246 181.902C158.654 180.705 158.016 179.512 157.386 178.323C157.192 177.958 157.003 177.593 156.814 177.227C156.991 177.185 159.103 176.694 159.897 176.085C160.607 175.543 161.355 174.653 161.35 173.712C161.356 173.49 161.316 173.269 161.231 173.064C161.146 172.859 161.018 172.674 160.857 172.521C160.696 172.369 160.504 172.252 160.294 172.178C160.085 172.105 159.862 172.076 159.641 172.095C158.314 172.238 157.163 174.354 156.919 175.522C156.919 175.61 156.789 176.845 156.777 177.16C156.357 176.354 155.937 175.547 155.58 174.737C155.071 173.646 154.635 172.524 154.273 171.377C154.357 171.377 156.567 170.856 157.381 170.23C158.087 169.688 158.839 168.802 158.83 167.861C158.836 167.639 158.794 167.419 158.709 167.214C158.624 167.009 158.497 166.824 158.336 166.671C158.175 166.518 157.983 166.401 157.774 166.327C157.565 166.252 157.342 166.223 157.121 166.24C155.794 166.387 154.643 168.5 154.404 169.667C154.383 169.76 154.265 171.087 154.261 171.347C154.24 171.28 154.21 171.213 154.189 171.146C153.858 169.984 153.632 168.795 153.513 167.592C153.438 166.929 153.404 166.29 153.387 165.669C153.807 165.618 155.727 165.362 156.525 164.879C157.323 164.396 158.129 163.619 158.226 162.683C158.256 162.463 158.239 162.239 158.177 162.026C158.115 161.812 158.009 161.615 157.866 161.445C157.722 161.276 157.545 161.138 157.345 161.042C157.145 160.945 156.927 160.892 156.705 160.885C155.37 160.885 153.992 162.859 153.622 163.993C153.622 164.056 153.471 164.703 153.379 165.182C153.379 164.9 153.379 164.61 153.379 164.342C153.379 163.329 153.446 162.405 153.509 161.586C153.547 161.12 153.593 160.7 153.639 160.326C154.026 160.062 155.571 158.97 156.046 158.189C156.52 157.407 156.886 156.332 156.541 155.454C156.467 155.246 156.349 155.055 156.196 154.894C156.043 154.734 155.858 154.607 155.653 154.523C155.447 154.439 155.227 154.398 155.005 154.405C154.784 154.411 154.566 154.464 154.366 154.56C153.181 155.173 152.866 157.563 153.064 158.76C153.064 158.861 153.53 160.44 153.551 160.406H153.572C153.522 160.78 153.467 161.187 153.421 161.628C153.341 162.468 153.257 163.371 153.232 164.388C153.195 165.48 153.222 166.574 153.312 167.664C153.404 168.884 153.606 170.092 153.916 171.276V171.318C153.706 170.99 153.076 170.087 153.034 170.02C152.253 169.121 150.216 167.836 148.986 168.34C148.784 168.432 148.604 168.566 148.457 168.733C148.311 168.9 148.201 169.095 148.134 169.307C148.068 169.519 148.047 169.743 148.073 169.963C148.099 170.183 148.171 170.396 148.284 170.587C148.679 171.461 149.75 171.868 150.632 171.998Z" fill="#942B35"/>
<path d="M173.538 165.719C173.559 165.719 173.958 164.161 173.979 164.06C174.143 162.88 173.765 160.498 172.564 159.919C172.362 159.828 172.142 159.78 171.92 159.78C171.698 159.779 171.479 159.825 171.276 159.915C171.073 160.005 170.891 160.137 170.743 160.302C170.594 160.467 170.482 160.661 170.414 160.872C170.09 161.758 170.498 162.842 170.985 163.594C171.552 164.472 173.538 165.719 173.538 165.719Z" fill="#942B35"/>
<path d="M133.47 65.0791H44.401C41.6662 65.0791 39.4492 67.2961 39.4492 70.0309V188.731C39.4492 191.466 41.6662 193.683 44.401 193.683H133.47C136.205 193.683 138.422 191.466 138.422 188.731V70.0309C138.422 67.2961 136.205 65.0791 133.47 65.0791Z" fill="#651A21"/>
<path d="M133.684 72.6812H44.1816V187.581H133.684V72.6812Z" fill="white" stroke="#651A21" stroke-width="0.42" stroke-linecap="round" stroke-linejoin="round"/>
<path d="M100.724 62.4835C100.286 62.4796 99.8569 62.3568 99.4833 62.1283C99.1097 61.8998 98.8051 61.5742 98.602 61.1862C98.399 60.7981 98.305 60.3623 98.3303 59.925C98.3555 59.4878 98.499 59.0656 98.7453 58.7035C99.5545 57.4148 100.002 55.932 100.041 54.4108C100.079 52.8896 99.7082 51.386 98.9658 50.0577C98.2234 48.7293 97.1373 47.6252 95.8213 46.8612C94.5053 46.0972 93.008 45.7013 91.4863 45.7152C89.9647 45.7291 88.4748 46.1521 87.173 46.9401C85.8711 47.728 84.8053 48.8517 84.0872 50.1933C83.3692 51.535 83.0254 53.0451 83.0919 54.5654C83.1585 56.0856 83.6328 57.5599 84.4653 58.8337C84.6899 59.1982 84.8127 59.6162 84.8208 60.0442C84.8289 60.4722 84.7221 60.8946 84.5115 61.2673C84.3009 61.64 83.9943 61.9495 83.6234 62.1634C83.2526 62.3773 82.8312 62.4878 82.4031 62.4835H67.6611L71.6301 73.9201H111.48L115.466 62.4751L100.724 62.4835ZM91.5591 57.6073C90.9717 57.6082 90.3971 57.4347 89.9083 57.1089C89.4194 56.7832 89.0382 56.3197 88.8128 55.7772C88.5874 55.2347 88.528 54.6375 88.6421 54.0612C88.7562 53.4849 89.0387 52.9554 89.4538 52.5397C89.8689 52.124 90.398 51.8408 90.9741 51.7259C91.5502 51.611 92.1475 51.6695 92.6903 51.8942C93.2331 52.1188 93.6971 52.4994 94.0236 52.9878C94.3501 53.4762 94.5243 54.0505 94.5243 54.6379C94.5232 55.4244 94.2106 56.1784 93.6549 56.7349C93.0992 57.2914 92.3456 57.6051 91.5591 57.6073Z" fill="#C13E4A" stroke="#651A21" stroke-width="0.42" stroke-linecap="round" stroke-linejoin="round"/>
<path d="M61.2391 128.711C65.8875 128.711 69.6559 124.943 69.6559 120.294C69.6559 115.646 65.8875 111.878 61.2391 111.878C56.5906 111.878 52.8223 115.646 52.8223 120.294C52.8223 124.943 56.5906 128.711 61.2391 128.711Z" fill="white" stroke="#651A21" stroke-width="1.68" stroke-miterlimit="10"/>
<path d="M61.8404 123.89C61.5618 123.887 61.287 123.824 61.0343 123.707C60.7816 123.59 60.5567 123.42 60.3746 123.209L56.6996 118.896C56.3763 118.501 56.2205 117.995 56.2654 117.487C56.3103 116.979 56.5525 116.508 56.94 116.176C57.3275 115.844 57.8296 115.677 58.3389 115.71C58.8481 115.744 59.3241 115.975 59.6648 116.355L61.9118 118.976L69.4718 110.576C69.6551 110.372 69.8792 110.209 70.1296 110.098C70.3799 109.986 70.6509 109.929 70.925 109.929C71.3018 109.929 71.6704 110.039 71.9864 110.244C72.3024 110.449 72.5522 110.742 72.7058 111.086C72.8595 111.43 72.9103 111.811 72.8521 112.183C72.794 112.556 72.6294 112.903 72.3782 113.184L63.3398 123.264C63.157 123.467 62.9335 123.63 62.6839 123.741C62.4343 123.853 62.1641 123.91 61.8908 123.911L61.8404 123.89Z" fill="#C13E4A"/>
<mask id="path-17-inside-1_10943_26791" fill="white">
<path d="M70.89 110.555C71.2156 110.553 71.53 110.673 71.772 110.891C72.0324 111.126 72.1891 111.454 72.208 111.804C72.2269 112.155 72.1064 112.498 71.8728 112.76L62.8386 122.84C62.7127 122.974 62.5604 123.08 62.3912 123.153C62.2221 123.225 62.0398 123.261 61.8558 123.26C61.6678 123.258 61.4825 123.216 61.3122 123.136C61.1419 123.056 60.9907 122.941 60.8688 122.798L57.1728 118.484C56.9667 118.216 56.8715 117.878 56.9068 117.541C56.9421 117.205 57.1052 116.894 57.3625 116.674C57.6198 116.454 57.9517 116.341 58.2899 116.358C58.6281 116.375 58.9468 116.521 59.1804 116.767L61.8936 119.933L69.9198 110.992C70.0462 110.857 70.1992 110.75 70.3692 110.678C70.5391 110.605 70.7222 110.569 70.9068 110.572M70.9068 109.312C70.5453 109.31 70.1875 109.383 69.8562 109.528C69.5249 109.673 69.2275 109.885 68.9832 110.152L61.9146 118.022L60.1338 115.943C59.9181 115.67 59.6495 115.444 59.3441 115.277C59.0386 115.111 58.7027 115.008 58.3564 114.974C58.0102 114.941 57.6607 114.977 57.329 115.082C56.9973 115.187 56.6902 115.358 56.4261 115.584C56.162 115.811 55.9463 116.088 55.7921 116.4C55.6379 116.712 55.5482 117.052 55.5286 117.399C55.5089 117.746 55.5595 118.094 55.6775 118.421C55.7955 118.748 55.9784 119.048 56.2152 119.303L59.9112 123.613C60.1496 123.892 60.4449 124.117 60.7774 124.273C61.1099 124.428 61.4719 124.511 61.839 124.516H61.8726C62.2336 124.518 62.591 124.444 62.9216 124.3C63.2523 124.155 63.5489 123.942 63.792 123.676L72.8262 113.596C73.0543 113.345 73.2301 113.051 73.3433 112.732C73.4565 112.412 73.5049 112.073 73.4856 111.735C73.4512 111.075 73.1643 110.453 72.6844 109.998C72.2045 109.543 71.5681 109.29 70.9068 109.291V109.312Z"/>
</mask>
<path d="M70.89 110.555C71.2156 110.553 71.53 110.673 71.772 110.891C72.0324 111.126 72.1891 111.454 72.208 111.804C72.2269 112.155 72.1064 112.498 71.8728 112.76L62.8386 122.84C62.7127 122.974 62.5604 123.08 62.3912 123.153C62.2221 123.225 62.0398 123.261 61.8558 123.26C61.6678 123.258 61.4825 123.216 61.3122 123.136C61.1419 123.056 60.9907 122.941 60.8688 122.798L57.1728 118.484C56.9667 118.216 56.8715 117.878 56.9068 117.541C56.9421 117.205 57.1052 116.894 57.3625 116.674C57.6198 116.454 57.9517 116.341 58.2899 116.358C58.6281 116.375 58.9468 116.521 59.1804 116.767L61.8936 119.933L69.9198 110.992C70.0462 110.857 70.1992 110.75 70.3692 110.678C70.5391 110.605 70.7222 110.569 70.9068 110.572M70.9068 109.312C70.5453 109.31 70.1875 109.383 69.8562 109.528C69.5249 109.673 69.2275 109.885 68.9832 110.152L61.9146 118.022L60.1338 115.943C59.9181 115.67 59.6495 115.444 59.3441 115.277C59.0386 115.111 58.7027 115.008 58.3564 114.974C58.0102 114.941 57.6607 114.977 57.329 115.082C56.9973 115.187 56.6902 115.358 56.4261 115.584C56.162 115.811 55.9463 116.088 55.7921 116.4C55.6379 116.712 55.5482 117.052 55.5286 117.399C55.5089 117.746 55.5595 118.094 55.6775 118.421C55.7955 118.748 55.9784 119.048 56.2152 119.303L59.9112 123.613C60.1496 123.892 60.4449 124.117 60.7774 124.273C61.1099 124.428 61.4719 124.511 61.839 124.516H61.8726C62.2336 124.518 62.591 124.444 62.9216 124.3C63.2523 124.155 63.5489 123.942 63.792 123.676L72.8262 113.596C73.0543 113.345 73.2301 113.051 73.3433 112.732C73.4565 112.412 73.5049 112.073 73.4856 111.735C73.4512 111.075 73.1643 110.453 72.6844 109.998C72.2045 109.543 71.5681 109.29 70.9068 109.291V109.312Z" fill="#651A21"/>
<path d="M71.772 110.891L72.0535 110.579L72.0529 110.578L71.772 110.891ZM71.8728 112.76L72.1856 113.04L72.1862 113.039L71.8728 112.76ZM62.8386 122.84L63.1449 123.127L63.1514 123.12L62.8386 122.84ZM61.8558 123.26L61.8515 123.68L61.852 123.68L61.8558 123.26ZM60.8688 122.798L61.1885 122.525L61.1878 122.524L60.8688 122.798ZM57.1728 118.484L56.8396 118.74L56.8465 118.749L56.8539 118.758L57.1728 118.484ZM59.1804 116.767L59.4994 116.493L59.4922 116.485L59.4845 116.477L59.1804 116.767ZM61.8936 119.933L61.5747 120.207L61.8863 120.57L62.2062 120.214L61.8936 119.933ZM69.9198 110.992L69.6136 110.704L69.6073 110.711L69.9198 110.992ZM70.9068 109.312L70.9046 109.732L71.3268 109.734V109.312H70.9068ZM68.9832 110.152L68.6737 109.868L68.6708 109.871L68.9832 110.152ZM61.9146 118.022L61.5957 118.296L61.9072 118.659L62.2271 118.303L61.9146 118.022ZM60.1338 115.943L59.8043 116.204L59.8095 116.21L59.8148 116.217L60.1338 115.943ZM56.2152 119.303L56.534 119.03L56.5286 119.024L56.5229 119.017L56.2152 119.303ZM59.9112 123.613L60.2307 123.34L60.23 123.339L59.9112 123.613ZM61.839 124.516L61.8341 124.936H61.839V124.516ZM61.8726 124.516L61.8754 124.096H61.8726V124.516ZM63.792 123.676L64.1024 123.958L64.1048 123.956L63.792 123.676ZM72.8262 113.596L72.5155 113.313L72.5135 113.315L72.8262 113.596ZM73.4856 111.735L73.0662 111.757L73.0663 111.759L73.4856 111.735ZM70.9068 109.291L70.9063 108.871L70.4868 108.871V109.291H70.9068ZM70.8919 110.975C71.1131 110.974 71.3267 111.055 71.4912 111.203L72.0529 110.578C71.7332 110.291 71.318 110.133 70.8882 110.135L70.8919 110.975ZM71.4906 111.202C71.6686 111.363 71.7757 111.588 71.7886 111.827L72.6274 111.782C72.6025 111.321 72.3962 110.888 72.0535 110.579L71.4906 111.202ZM71.7886 111.827C71.8015 112.066 71.7192 112.301 71.5595 112.48L72.1862 113.039C72.4936 112.695 72.6523 112.243 72.6274 111.782L71.7886 111.827ZM71.5601 112.479L62.5259 122.559L63.1514 123.12L72.1856 113.04L71.5601 112.479ZM62.5324 122.552C62.4462 122.644 62.342 122.717 62.2262 122.766L62.5563 123.539C62.7788 123.444 62.9792 123.304 63.1448 123.127L62.5324 122.552ZM62.2262 122.766C62.1104 122.816 61.9856 122.841 61.8597 122.84L61.852 123.68C62.0939 123.682 62.3338 123.634 62.5563 123.539L62.2262 122.766ZM61.8602 122.84C61.7323 122.838 61.6061 122.81 61.4903 122.755L61.1341 123.516C61.3588 123.621 61.6034 123.677 61.8515 123.68L61.8602 122.84ZM61.4903 122.755C61.3744 122.701 61.2715 122.623 61.1885 122.525L60.5491 123.07C60.71 123.259 60.9095 123.411 61.1341 123.516L61.4903 122.755ZM61.1878 122.524L57.4918 118.211L56.8539 118.758L60.5499 123.071L61.1878 122.524ZM57.5061 118.229C57.3654 118.045 57.3005 117.815 57.3245 117.585L56.4891 117.498C56.4426 117.941 56.5681 118.386 56.8396 118.74L57.5061 118.229ZM57.3245 117.585C57.3486 117.355 57.4599 117.143 57.6356 116.993L57.0894 116.355C56.7505 116.645 56.5356 117.054 56.4891 117.498L57.3245 117.585ZM57.6356 116.993C57.8112 116.843 58.0377 116.766 58.2686 116.777L58.3113 115.938C57.8657 115.916 57.4284 116.065 57.0894 116.355L57.6356 116.993ZM58.2686 116.777C58.4994 116.789 58.7169 116.889 58.8764 117.056L59.4845 116.477C59.1767 116.154 58.7568 115.961 58.3113 115.938L58.2686 116.777ZM58.8615 117.04L61.5747 120.207L62.2126 119.66L59.4994 116.493L58.8615 117.04ZM62.2062 120.214L70.2324 111.272L69.6073 110.711L61.5811 119.653L62.2062 120.214ZM70.226 111.279C70.3126 111.187 70.4173 111.114 70.5336 111.064L70.2047 110.291C69.9812 110.386 69.7799 110.527 69.6136 110.704L70.226 111.279ZM70.5336 111.064C70.6499 111.015 70.7753 110.99 70.9017 110.991L70.912 110.152C70.6691 110.149 70.4282 110.196 70.2047 110.291L70.5336 111.064ZM70.909 108.892C70.489 108.889 70.0731 108.975 69.6881 109.143L70.0243 109.913C70.3018 109.792 70.6017 109.73 70.9046 109.732L70.909 108.892ZM69.6881 109.143C69.3031 109.311 68.9576 109.558 68.6737 109.868L69.2928 110.435C69.4975 110.212 69.7467 110.034 70.0243 109.913L69.6881 109.143ZM68.6708 109.871L61.6021 117.742L62.2271 118.303L69.2957 110.432L68.6708 109.871ZM62.2336 117.749L60.4528 115.67L59.8148 116.217L61.5957 118.296L62.2336 117.749ZM60.4633 115.683C60.2125 115.366 59.9002 115.102 59.5451 114.909L59.143 115.646C59.3987 115.786 59.6237 115.975 59.8043 116.204L60.4633 115.683ZM59.5451 114.909C59.19 114.715 58.7995 114.595 58.3969 114.556L58.3159 115.392C58.6059 115.42 58.8872 115.507 59.143 115.646L59.5451 114.909ZM58.3969 114.556C57.9944 114.517 57.5881 114.56 57.2024 114.682L57.4556 115.483C57.7333 115.395 58.026 115.364 58.3159 115.392L58.3969 114.556ZM57.2024 114.682C56.8168 114.804 56.4597 115.002 56.1527 115.265L56.6995 115.903C56.9206 115.713 57.1778 115.57 57.4556 115.483L57.2024 114.682ZM56.1527 115.265C55.8457 115.529 55.595 115.851 55.4156 116.214L56.1686 116.586C56.2977 116.325 56.4783 116.093 56.6995 115.903L56.1527 115.265ZM55.4156 116.214C55.2363 116.576 55.1321 116.971 55.1092 117.375L55.9479 117.423C55.9644 117.132 56.0394 116.847 56.1686 116.586L55.4156 116.214ZM55.1092 117.375C55.0863 117.779 55.1452 118.183 55.2824 118.564L56.0726 118.279C55.9738 118.005 55.9314 117.713 55.9479 117.423L55.1092 117.375ZM55.2824 118.564C55.4196 118.944 55.6323 119.293 55.9076 119.589L56.5229 119.017C56.3246 118.804 56.1714 118.553 56.0726 118.279L55.2824 118.564ZM55.8964 119.577L59.5924 123.886L60.23 123.339L56.534 119.03L55.8964 119.577ZM59.5918 123.885C59.869 124.21 60.2125 124.472 60.5993 124.653L60.9556 123.892C60.6773 123.762 60.4302 123.574 60.2307 123.34L59.5918 123.885ZM60.5993 124.653C60.986 124.834 61.407 124.93 61.8341 124.935L61.844 124.096C61.5368 124.092 61.2338 124.023 60.9556 123.892L60.5993 124.653ZM61.839 124.936H61.8726V124.096H61.839V124.936ZM61.8699 124.936C62.2897 124.938 62.7054 124.853 63.09 124.684L62.7533 123.915C62.4765 124.036 62.1774 124.098 61.8754 124.096L61.8699 124.936ZM63.09 124.684C63.4746 124.516 63.8196 124.269 64.1024 123.958L63.4817 123.393C63.2781 123.616 63.03 123.794 62.7533 123.915L63.09 124.684ZM64.1048 123.956L73.139 113.876L72.5135 113.315L63.4793 123.395L64.1048 123.956ZM73.1369 113.878C73.4026 113.586 73.6073 113.244 73.7392 112.872L72.9474 112.591C72.8529 112.858 72.706 113.103 72.5155 113.313L73.1369 113.878ZM73.7392 112.872C73.8711 112.5 73.9274 112.105 73.905 111.711L73.0663 111.759C73.0824 112.041 73.042 112.325 72.9474 112.591L73.7392 112.872ZM73.9051 111.713C73.865 110.945 73.5314 110.222 72.9733 109.693L72.3955 110.303C72.7972 110.683 73.0374 111.204 73.0662 111.757L73.9051 111.713ZM72.9733 109.693C72.4152 109.164 71.6752 108.869 70.9063 108.871L70.9074 109.711C71.461 109.71 71.9937 109.922 72.3955 110.303L72.9733 109.693ZM70.4868 109.291V109.312H71.3268V109.291H70.4868Z" fill="#651A21" mask="url(#path-17-inside-1_10943_26791)"/>
<path d="M61.2391 152.235C65.8875 152.235 69.6559 148.467 69.6559 143.819C69.6559 139.17 65.8875 135.402 61.2391 135.402C56.5906 135.402 52.8223 139.17 52.8223 143.819C52.8223 148.467 56.5906 152.235 61.2391 152.235Z" fill="white" stroke="#651A21" stroke-width="1.68" stroke-miterlimit="10"/>
<path d="M61.8398 147.414C61.561 147.412 61.2859 147.35 61.033 147.233C60.7801 147.116 60.5554 146.945 60.374 146.734L56.699 142.42C56.4158 142.022 56.2924 141.532 56.353 141.047C56.4135 140.562 56.6537 140.117 57.0262 139.801C57.3986 139.484 57.8761 139.319 58.3645 139.337C58.8529 139.356 59.3166 139.557 59.6642 139.9L61.9112 142.525L69.4712 134.125C69.6545 133.922 69.8786 133.759 70.1289 133.647C70.3793 133.536 70.6503 133.478 70.9244 133.479C71.3012 133.479 71.6698 133.588 71.9858 133.794C72.3018 133.999 72.5516 134.291 72.7052 134.635C72.8588 134.979 72.9096 135.361 72.8515 135.733C72.7934 136.105 72.6288 136.453 72.3776 136.734L63.3392 146.814C63.1563 147.017 62.9329 147.179 62.6833 147.291C62.4337 147.402 62.1635 147.46 61.8902 147.46L61.8398 147.414Z" fill="#C13E4A"/>
<mask id="path-21-inside-2_10943_26791" fill="white">
<path d="M70.89 134.079C71.1451 134.08 71.3946 134.154 71.6084 134.293C71.8223 134.433 71.9913 134.631 72.0951 134.864C72.199 135.097 72.2333 135.355 72.1938 135.607C72.1544 135.859 72.0429 136.094 71.8728 136.284L62.8386 146.364C62.7127 146.498 62.5604 146.605 62.3912 146.677C62.2221 146.749 62.0398 146.786 61.8558 146.784C61.6678 146.782 61.4825 146.74 61.3122 146.66C61.1419 146.581 60.9907 146.465 60.8688 146.322L57.1728 142.013C57.0539 141.882 56.9625 141.729 56.9039 141.562C56.8454 141.395 56.8209 141.218 56.8319 141.041C56.8429 140.865 56.8892 140.692 56.9681 140.534C57.0469 140.376 57.1567 140.235 57.291 140.119C57.4252 140.004 57.5812 139.917 57.7497 139.863C57.9182 139.81 58.0958 139.79 58.2719 139.806C58.4481 139.822 58.6193 139.873 58.7753 139.957C58.9314 140.04 59.0691 140.154 59.1804 140.291L61.8936 143.458L69.9198 134.516C70.0462 134.381 70.1992 134.274 70.3692 134.202C70.5391 134.13 70.7222 134.094 70.9068 134.096M70.9068 132.836C70.5453 132.834 70.1875 132.908 69.8562 133.052C69.5249 133.197 69.2275 133.41 68.9832 133.676L61.9146 141.547L60.1338 139.472C59.9181 139.199 59.6495 138.973 59.3441 138.806C59.0386 138.639 58.7027 138.536 58.3564 138.503C58.0102 138.469 57.6607 138.506 57.329 138.611C56.9973 138.716 56.6902 138.886 56.4261 139.113C56.162 139.339 55.9463 139.617 55.7921 139.929C55.6379 140.24 55.5482 140.58 55.5286 140.928C55.5089 141.275 55.5595 141.623 55.6775 141.95C55.7955 142.277 55.9784 142.577 56.2152 142.832L59.9112 147.145C60.1503 147.423 60.4459 147.647 60.7783 147.802C61.1107 147.957 61.4723 148.04 61.839 148.044H61.8726C62.2336 148.047 62.591 147.973 62.9216 147.828C63.2523 147.684 63.5489 147.471 63.792 147.204L72.8262 137.145C73.0534 136.893 73.2286 136.598 73.3418 136.278C73.455 135.958 73.5041 135.619 73.4861 135.28C73.4682 134.941 73.3836 134.609 73.2372 134.303C73.0908 133.997 72.8855 133.722 72.633 133.495C72.158 133.071 71.5436 132.837 70.9068 132.836Z"/>
</mask>
<path d="M70.89 134.079C71.1451 134.08 71.3946 134.154 71.6084 134.293C71.8223 134.433 71.9913 134.631 72.0951 134.864C72.199 135.097 72.2333 135.355 72.1938 135.607C72.1544 135.859 72.0429 136.094 71.8728 136.284L62.8386 146.364C62.7127 146.498 62.5604 146.605 62.3912 146.677C62.2221 146.749 62.0398 146.786 61.8558 146.784C61.6678 146.782 61.4825 146.74 61.3122 146.66C61.1419 146.581 60.9907 146.465 60.8688 146.322L57.1728 142.013C57.0539 141.882 56.9625 141.729 56.9039 141.562C56.8454 141.395 56.8209 141.218 56.8319 141.041C56.8429 140.865 56.8892 140.692 56.9681 140.534C57.0469 140.376 57.1567 140.235 57.291 140.119C57.4252 140.004 57.5812 139.917 57.7497 139.863C57.9182 139.81 58.0958 139.79 58.2719 139.806C58.4481 139.822 58.6193 139.873 58.7753 139.957C58.9314 140.04 59.0691 140.154 59.1804 140.291L61.8936 143.458L69.9198 134.516C70.0462 134.381 70.1992 134.274 70.3692 134.202C70.5391 134.13 70.7222 134.094 70.9068 134.096M70.9068 132.836C70.5453 132.834 70.1875 132.908 69.8562 133.052C69.5249 133.197 69.2275 133.41 68.9832 133.676L61.9146 141.547L60.1338 139.472C59.9181 139.199 59.6495 138.973 59.3441 138.806C59.0386 138.639 58.7027 138.536 58.3564 138.503C58.0102 138.469 57.6607 138.506 57.329 138.611C56.9973 138.716 56.6902 138.886 56.4261 139.113C56.162 139.339 55.9463 139.617 55.7921 139.929C55.6379 140.24 55.5482 140.58 55.5286 140.928C55.5089 141.275 55.5595 141.623 55.6775 141.95C55.7955 142.277 55.9784 142.577 56.2152 142.832L59.9112 147.145C60.1503 147.423 60.4459 147.647 60.7783 147.802C61.1107 147.957 61.4723 148.04 61.839 148.044H61.8726C62.2336 148.047 62.591 147.973 62.9216 147.828C63.2523 147.684 63.5489 147.471 63.792 147.204L72.8262 137.145C73.0534 136.893 73.2286 136.598 73.3418 136.278C73.455 135.958 73.5041 135.619 73.4861 135.28C73.4682 134.941 73.3836 134.609 73.2372 134.303C73.0908 133.997 72.8855 133.722 72.633 133.495C72.158 133.071 71.5436 132.837 70.9068 132.836Z" fill="#651A21"/>
<path d="M71.8728 136.284L72.1856 136.564L72.1859 136.564L71.8728 136.284ZM62.8386 146.364L63.1449 146.652L63.1514 146.644L62.8386 146.364ZM61.8558 146.784L61.8515 147.204L61.852 147.204L61.8558 146.784ZM60.8688 146.322L61.1885 146.05L61.1876 146.049L60.8688 146.322ZM57.1728 142.013L57.4918 141.739L57.4838 141.731L57.1728 142.013ZM59.1804 140.291L58.8539 140.555L58.8615 140.564L59.1804 140.291ZM61.8936 143.458L61.5747 143.731L61.8863 144.095L62.2062 143.738L61.8936 143.458ZM69.9198 134.516L69.6136 134.228L69.6073 134.235L69.9198 134.516ZM70.9068 132.836L70.9046 133.256L70.9064 133.256L70.9068 132.836ZM68.9832 133.676L68.6737 133.392L68.6708 133.395L68.9832 133.676ZM61.9146 141.547L61.5959 141.82L61.9075 142.183L62.2271 141.827L61.9146 141.547ZM60.1338 139.472L59.8043 139.732L59.8096 139.739L59.8151 139.746L60.1338 139.472ZM56.2152 142.832L56.5342 142.559L56.5287 142.552L56.5229 142.546L56.2152 142.832ZM59.9112 147.145L59.5923 147.419L59.5928 147.419L59.9112 147.145ZM61.839 148.044L61.834 148.464H61.839V148.044ZM61.8726 148.044L61.8754 147.624H61.8726V148.044ZM63.792 147.204L64.1024 147.487L64.1045 147.485L63.792 147.204ZM72.8262 137.145L72.5141 136.864L72.5138 136.865L72.8262 137.145ZM72.633 133.495L72.9137 133.183L72.9128 133.182L72.633 133.495ZM70.889 134.499C71.0631 134.5 71.2334 134.55 71.3793 134.645L71.8376 133.941C71.5559 133.758 71.2272 133.66 70.8911 133.659L70.889 134.499ZM71.3793 134.645C71.5253 134.74 71.6406 134.876 71.7115 135.035L72.4788 134.693C72.3419 134.386 72.1192 134.125 71.8376 133.941L71.3793 134.645ZM71.7115 135.035C71.7824 135.194 71.8058 135.37 71.7789 135.542L72.6088 135.672C72.6607 135.34 72.6156 135 72.4788 134.693L71.7115 135.035ZM71.7789 135.542C71.752 135.714 71.6759 135.874 71.5598 136.004L72.1859 136.564C72.41 136.314 72.5568 136.004 72.6088 135.672L71.7789 135.542ZM71.5601 136.004L62.5259 146.084L63.1514 146.644L72.1856 136.564L71.5601 136.004ZM62.5324 146.077C62.4463 146.168 62.342 146.241 62.2262 146.291L62.5563 147.063C62.7788 146.968 62.9792 146.828 63.1448 146.652L62.5324 146.077ZM62.2262 146.291C62.1104 146.34 61.9856 146.365 61.8597 146.364L61.852 147.204C62.094 147.206 62.3338 147.158 62.5563 147.063L62.2262 146.291ZM61.8602 146.364C61.7323 146.363 61.6061 146.334 61.4903 146.28L61.1341 147.041C61.3588 147.146 61.6034 147.202 61.8515 147.204L61.8602 146.364ZM61.4903 146.28C61.3744 146.226 61.2715 146.147 61.1885 146.05L60.5491 146.595C60.71 146.783 60.9095 146.936 61.1341 147.041L61.4903 146.28ZM61.1876 146.049L57.4916 141.74L56.854 142.286L60.55 146.596L61.1876 146.049ZM57.4838 141.731C57.4026 141.641 57.3402 141.537 57.3003 141.423L56.5076 141.701C56.5848 141.921 56.7052 142.123 56.8619 142.295L57.4838 141.731ZM57.3003 141.423C57.2603 141.309 57.2436 141.188 57.2511 141.067L56.4127 141.015C56.3982 141.248 56.4305 141.481 56.5076 141.701L57.3003 141.423ZM57.2511 141.067C57.2586 140.947 57.2902 140.829 57.344 140.721L56.5921 140.347C56.4882 140.555 56.4272 140.783 56.4127 141.015L57.2511 141.067ZM57.344 140.721C57.3978 140.613 57.4728 140.517 57.5644 140.438L57.0175 139.801C56.8407 139.952 56.696 140.138 56.5921 140.347L57.344 140.721ZM57.5644 140.438C57.6561 140.36 57.7625 140.3 57.8775 140.263L57.6219 139.463C57.3999 139.534 57.1944 139.649 57.0175 139.801L57.5644 140.438ZM57.8775 140.263C57.9925 140.227 58.1137 140.213 58.234 140.224L58.3099 139.388C58.0779 139.367 57.8439 139.392 57.6219 139.463L57.8775 140.263ZM58.234 140.224C58.3542 140.235 58.471 140.27 58.5775 140.327L58.9731 139.586C58.7675 139.476 58.542 139.409 58.3099 139.388L58.234 140.224ZM58.5775 140.327C58.6841 140.384 58.7781 140.462 58.8541 140.555L59.5068 140.027C59.3601 139.846 59.1786 139.696 58.9731 139.586L58.5775 140.327ZM58.8615 140.564L61.5747 143.731L62.2126 143.185L59.4994 140.018L58.8615 140.564ZM62.2062 143.738L70.2324 134.797L69.6073 134.235L61.5811 143.177L62.2062 143.738ZM70.226 134.803C70.3125 134.711 70.4173 134.638 70.5336 134.589L70.2047 133.816C69.9812 133.911 69.7799 134.051 69.6136 134.228L70.226 134.803ZM70.5336 134.589C70.6499 134.539 70.7753 134.514 70.9017 134.516L70.912 133.676C70.6691 133.673 70.4282 133.721 70.2047 133.816L70.5336 134.589ZM70.909 132.416C70.489 132.414 70.0731 132.499 69.6881 132.668L70.0243 133.437C70.3019 133.316 70.6017 133.254 70.9046 133.256L70.909 132.416ZM69.6881 132.668C69.3031 132.836 68.9576 133.082 68.6737 133.392L69.2928 133.96C69.4975 133.737 69.7467 133.559 70.0243 133.437L69.6881 132.668ZM68.6708 133.395L61.6021 141.266L62.2271 141.827L69.2957 133.957L68.6708 133.395ZM62.2333 141.273L60.4525 139.198L59.8151 139.746L61.5959 141.82L62.2333 141.273ZM60.4633 139.212C60.2125 138.894 59.9002 138.631 59.5451 138.437L59.143 139.175C59.3987 139.314 59.6237 139.504 59.8043 139.732L60.4633 139.212ZM59.5451 138.437C59.19 138.244 58.7995 138.124 58.3969 138.085L58.3159 138.921C58.6059 138.949 58.8872 139.035 59.143 139.175L59.5451 138.437ZM58.3969 138.085C57.9944 138.046 57.5881 138.088 57.2024 138.21L57.4556 139.011C57.7333 138.923 58.026 138.893 58.3159 138.921L58.3969 138.085ZM57.2024 138.21C56.8168 138.332 56.4597 138.531 56.1527 138.794L56.6995 139.432C56.9206 139.242 57.1778 139.099 57.4556 139.011L57.2024 138.21ZM56.1527 138.794C55.8456 139.057 55.595 139.38 55.4156 139.742L56.1686 140.115C56.2977 139.854 56.4783 139.621 56.6995 139.432L56.1527 138.794ZM55.4156 139.742C55.2363 140.105 55.1321 140.5 55.1092 140.904L55.9479 140.951C55.9644 140.66 56.0394 140.376 56.1686 140.115L55.4156 139.742ZM55.1092 140.904C55.0863 141.308 55.1452 141.712 55.2824 142.092L56.0726 141.807C55.9738 141.533 55.9314 141.242 55.9479 140.951L55.1092 140.904ZM55.2824 142.092C55.4196 142.473 55.6323 142.822 55.9076 143.118L56.5229 142.546C56.3246 142.333 56.1714 142.081 56.0726 141.807L55.2824 142.092ZM55.8963 143.105L59.5923 147.419L60.2302 146.872L56.5342 142.559L55.8963 143.105ZM59.5928 147.419C59.8707 147.743 60.2144 148.003 60.6008 148.183L60.9558 147.422C60.6774 147.292 60.4299 147.104 60.2297 146.872L59.5928 147.419ZM60.6008 148.183C60.9873 148.363 61.4077 148.459 61.834 148.464L61.844 147.624C61.5369 147.621 61.2341 147.552 60.9558 147.422L60.6008 148.183ZM61.839 148.464H61.8726V147.624H61.839V148.464ZM61.8699 148.464C62.2897 148.467 62.7054 148.381 63.09 148.213L62.7533 147.443C62.4765 147.565 62.1774 147.626 61.8754 147.624L61.8699 148.464ZM63.09 148.213C63.4746 148.045 63.8196 147.797 64.1024 147.487L63.4817 146.921C63.2782 147.144 63.03 147.322 62.7533 147.443L63.09 148.213ZM64.1045 147.485L73.1387 137.426L72.5138 136.865L63.4796 146.924L64.1045 147.485ZM73.1383 137.426C73.4024 137.133 73.6061 136.791 73.7377 136.418L72.9458 136.138C72.851 136.406 72.7043 136.653 72.5141 136.864L73.1383 137.426ZM73.7377 136.418C73.8694 136.046 73.9264 135.652 73.9055 135.258L73.0667 135.302C73.0817 135.586 73.0407 135.87 72.9458 136.138L73.7377 136.418ZM73.9055 135.258C73.8847 134.864 73.7863 134.478 73.6162 134.122L72.8583 134.484C72.9808 134.74 73.0517 135.019 73.0667 135.302L73.9055 135.258ZM73.6162 134.122C73.446 133.766 73.2073 133.447 72.9137 133.183L72.3523 133.808C72.5638 133.998 72.7357 134.228 72.8583 134.484L73.6162 134.122ZM72.9128 133.182C72.3609 132.689 71.6471 132.417 70.9072 132.416L70.9064 133.256C71.4402 133.256 71.9551 133.453 72.3533 133.809L72.9128 133.182Z" fill="#651A21" mask="url(#path-21-inside-2_10943_26791)"/>
<path d="M68.7363 171.604C71.1999 167.653 69.9941 162.452 66.0429 159.989C62.0917 157.525 56.8914 158.731 54.4277 162.682C51.964 166.633 53.1699 171.834 57.1211 174.297C61.0723 176.761 66.2726 175.555 68.7363 171.604Z" fill="white" stroke="#651A21" stroke-width="1.68285" stroke-miterlimit="10"/>
<path d="M61.8406 170.938C61.5617 170.937 61.2863 170.876 61.0333 170.758C60.7803 170.641 60.5557 170.47 60.3748 170.258L56.6998 165.948C56.3623 165.555 56.1948 165.044 56.2342 164.527C56.2736 164.011 56.5166 163.531 56.9098 163.193C57.303 162.856 57.8142 162.688 58.3309 162.728C58.8476 162.767 59.3275 163.01 59.665 163.403L61.912 166.028L69.472 157.628C69.6553 157.425 69.8794 157.262 70.1298 157.15C70.3801 157.039 70.6511 156.981 70.9252 156.981C71.3028 156.981 71.6724 157.09 71.9892 157.296C72.306 157.501 72.5564 157.794 72.7102 158.139C72.864 158.484 72.9145 158.866 72.8556 159.239C72.7967 159.612 72.6309 159.96 72.3784 160.241L63.34 170.3C63.1572 170.503 62.9337 170.665 62.6841 170.777C62.4345 170.888 62.1643 170.946 61.891 170.946L61.8406 170.938Z" fill="#C13E4A"/>
<mask id="path-25-inside-3_10943_26791" fill="white">
<path d="M70.8906 157.603C71.1457 157.604 71.3952 157.678 71.609 157.817C71.8228 157.956 71.9918 158.154 72.0957 158.387C72.1995 158.62 72.2338 158.879 72.1944 159.131C72.1549 159.383 72.0435 159.618 71.8734 159.808L62.8392 169.888C62.7133 170.022 62.5609 170.129 62.3918 170.201C62.2226 170.273 62.0403 170.31 61.8564 170.308C61.6684 170.306 61.483 170.264 61.3128 170.184C61.1425 170.104 60.9913 169.989 60.8694 169.846L57.1734 165.537C57.0545 165.406 56.963 165.252 56.9045 165.086C56.8459 164.919 56.8214 164.742 56.8324 164.565C56.8435 164.389 56.8898 164.216 56.9686 164.058C57.0475 163.899 57.1573 163.758 57.2915 163.643C57.4258 163.528 57.5818 163.441 57.7503 163.387C57.9188 163.333 58.0963 163.314 58.2725 163.33C58.4487 163.346 58.6198 163.397 58.7759 163.48C58.9319 163.564 59.0697 163.677 59.181 163.815L61.8942 166.982L69.9204 158.044C70.0446 157.905 70.1967 157.794 70.3668 157.718C70.5369 157.642 70.7211 157.603 70.9074 157.603M70.9074 156.343C70.5461 156.342 70.1885 156.416 69.8574 156.561C69.5262 156.706 69.2287 156.917 68.9838 157.183L61.9152 165.054L60.1344 162.979C59.8923 162.695 59.5916 162.468 59.2529 162.312C58.9143 162.156 58.5458 162.076 58.173 162.076C57.6788 162.075 57.1947 162.216 56.7784 162.483C56.3622 162.749 56.0313 163.13 55.825 163.579C55.6188 164.028 55.546 164.527 55.6153 165.016C55.6846 165.506 55.893 165.965 56.2158 166.339L59.9118 170.652C60.1509 170.931 60.4465 171.154 60.7789 171.309C61.1113 171.464 61.4729 171.547 61.8396 171.551H61.8732C62.2341 171.554 62.5915 171.48 62.9222 171.335C63.2529 171.191 63.5494 170.978 63.7926 170.711L72.8268 160.652C73.1602 160.281 73.379 159.821 73.4568 159.328C73.5345 158.836 73.4678 158.331 73.2648 157.875C73.0618 157.419 72.7312 157.032 72.3128 156.76C71.8945 156.488 71.4063 156.343 70.9074 156.343Z"/>
</mask>
<path d="M70.8906 157.603C71.1457 157.604 71.3952 157.678 71.609 157.817C71.8228 157.956 71.9918 158.154 72.0957 158.387C72.1995 158.62 72.2338 158.879 72.1944 159.131C72.1549 159.383 72.0435 159.618 71.8734 159.808L62.8392 169.888C62.7133 170.022 62.5609 170.129 62.3918 170.201C62.2226 170.273 62.0403 170.31 61.8564 170.308C61.6684 170.306 61.483 170.264 61.3128 170.184C61.1425 170.104 60.9913 169.989 60.8694 169.846L57.1734 165.537C57.0545 165.406 56.963 165.252 56.9045 165.086C56.8459 164.919 56.8214 164.742 56.8324 164.565C56.8435 164.389 56.8898 164.216 56.9686 164.058C57.0475 163.899 57.1573 163.758 57.2915 163.643C57.4258 163.528 57.5818 163.441 57.7503 163.387C57.9188 163.333 58.0963 163.314 58.2725 163.33C58.4487 163.346 58.6198 163.397 58.7759 163.48C58.9319 163.564 59.0697 163.677 59.181 163.815L61.8942 166.982L69.9204 158.044C70.0446 157.905 70.1967 157.794 70.3668 157.718C70.5369 157.642 70.7211 157.603 70.9074 157.603M70.9074 156.343C70.5461 156.342 70.1885 156.416 69.8574 156.561C69.5262 156.706 69.2287 156.917 68.9838 157.183L61.9152 165.054L60.1344 162.979C59.8923 162.695 59.5916 162.468 59.2529 162.312C58.9143 162.156 58.5458 162.076 58.173 162.076C57.6788 162.075 57.1947 162.216 56.7784 162.483C56.3622 162.749 56.0313 163.13 55.825 163.579C55.6188 164.028 55.546 164.527 55.6153 165.016C55.6846 165.506 55.893 165.965 56.2158 166.339L59.9118 170.652C60.1509 170.931 60.4465 171.154 60.7789 171.309C61.1113 171.464 61.4729 171.547 61.8396 171.551H61.8732C62.2341 171.554 62.5915 171.48 62.9222 171.335C63.2529 171.191 63.5494 170.978 63.7926 170.711L72.8268 160.652C73.1602 160.281 73.379 159.821 73.4568 159.328C73.5345 158.836 73.4678 158.331 73.2648 157.875C73.0618 157.419 72.7312 157.032 72.3128 156.76C71.8945 156.488 71.4063 156.343 70.9074 156.343Z" fill="#651A21"/>
<path d="M71.609 157.817L71.8381 157.465L71.609 157.817ZM71.8734 159.808L72.1861 160.088L72.1864 160.088L71.8734 159.808ZM62.8392 169.888L63.1454 170.176L63.1519 170.168L62.8392 169.888ZM61.8564 170.308L61.852 170.728L61.8525 170.728L61.8564 170.308ZM60.8694 169.846L61.1891 169.574L61.1882 169.573L60.8694 169.846ZM57.1734 165.537L57.4923 165.263L57.4843 165.255L57.1734 165.537ZM59.181 163.815L58.8545 164.079L58.862 164.088L59.181 163.815ZM61.8942 166.982L61.5752 167.255L61.8868 167.618L62.2067 167.262L61.8942 166.982ZM69.9204 158.044L70.2329 158.325L70.2334 158.324L69.9204 158.044ZM70.9074 156.343L70.9064 156.763L70.907 156.763L70.9074 156.343ZM68.9838 157.183L68.675 156.898L68.6713 156.902L68.9838 157.183ZM61.9152 165.054L61.5965 165.327L61.908 165.69L62.2277 165.334L61.9152 165.054ZM60.1344 162.979L59.8149 163.252L59.8157 163.253L60.1344 162.979ZM58.173 162.076L58.1723 162.496L58.1735 162.496L58.173 162.076ZM56.2158 166.339L56.5347 166.066L56.5338 166.065L56.2158 166.339ZM59.9118 170.652L59.5928 170.926L59.5933 170.926L59.9118 170.652ZM61.8396 171.551L61.8346 171.971H61.8396V171.551ZM61.8732 171.551L61.8759 171.131H61.8732V171.551ZM63.7926 170.711L64.103 170.994L64.1051 170.992L63.7926 170.711ZM72.8268 160.652L72.5143 160.372L72.5143 160.372L72.8268 160.652ZM70.8895 158.023C71.0637 158.023 71.2339 158.074 71.3799 158.169L71.8381 157.465C71.5564 157.282 71.2277 157.184 70.8916 157.183L70.8895 158.023ZM71.3799 158.169C71.5258 158.264 71.6412 158.399 71.7121 158.558L72.4793 158.216C72.3425 157.909 72.1198 157.649 71.8381 157.465L71.3799 158.169ZM71.7121 158.558C71.7829 158.717 71.8063 158.894 71.7794 159.066L72.6093 159.195C72.6613 158.863 72.6161 158.523 72.4793 158.216L71.7121 158.558ZM71.7794 159.066C71.7525 159.238 71.6764 159.398 71.5603 159.528L72.1864 160.088C72.4105 159.838 72.5574 159.528 72.6093 159.195L71.7794 159.066ZM71.5606 159.528L62.5264 169.608L63.1519 170.168L72.1861 160.088L71.5606 159.528ZM62.533 169.601C62.4468 169.692 62.3425 169.765 62.2267 169.815L62.5568 170.587C62.7793 170.492 62.9797 170.352 63.1454 170.176L62.533 169.601ZM62.2267 169.815C62.1109 169.864 61.9862 169.889 61.8602 169.888L61.8525 170.728C62.0945 170.73 62.3343 170.682 62.5568 170.587L62.2267 169.815ZM61.8608 169.888C61.7328 169.887 61.6067 169.858 61.4908 169.804L61.1347 170.565C61.3594 170.67 61.604 170.725 61.852 170.728L61.8608 169.888ZM61.4908 169.804C61.3749 169.749 61.272 169.671 61.1891 169.574L60.5497 170.118C60.7105 170.307 60.91 170.459 61.1347 170.565L61.4908 169.804ZM61.1882 169.573L57.4922 165.263L56.8546 165.81L60.5506 170.119L61.1882 169.573ZM57.4843 165.255C57.4032 165.165 57.3408 165.06 57.3008 164.946L56.5082 165.225C56.5853 165.444 56.7058 165.647 56.8624 165.819L57.4843 165.255ZM57.3008 164.946C57.2608 164.833 57.2441 164.712 57.2516 164.591L56.4133 164.539C56.3988 164.772 56.431 165.005 56.5082 165.225L57.3008 164.946ZM57.2516 164.591C57.2592 164.471 57.2908 164.353 57.3446 164.245L56.5927 163.87C56.4888 164.079 56.4278 164.306 56.4133 164.539L57.2516 164.591ZM57.3446 164.245C57.3984 164.137 57.4733 164.041 57.565 163.962L57.0181 163.324C56.8412 163.476 56.6966 163.662 56.5927 163.87L57.3446 164.245ZM57.565 163.962C57.6566 163.883 57.7631 163.824 57.8781 163.787L57.6225 162.987C57.4005 163.058 57.195 163.173 57.0181 163.324L57.565 163.962ZM57.8781 163.787C57.9931 163.751 58.1143 163.737 58.2345 163.748L58.3105 162.912C58.0784 162.891 57.8444 162.916 57.6225 162.987L57.8781 163.787ZM58.2345 163.748C58.3548 163.759 58.4716 163.794 58.5781 163.851L58.9736 163.11C58.768 163 58.5425 162.933 58.3105 162.912L58.2345 163.748ZM58.5781 163.851C58.6846 163.908 58.7786 163.985 58.8546 164.079L59.5074 163.55C59.3607 163.369 59.1792 163.22 58.9736 163.11L58.5781 163.851ZM58.862 164.088L61.5752 167.255L62.2131 166.708L59.4999 163.542L58.862 164.088ZM62.2067 167.262L70.2329 158.325L69.6079 157.763L61.5817 166.701L62.2067 167.262ZM70.2334 158.324C70.3182 158.229 70.422 158.153 70.5381 158.102L70.1954 157.335C69.9714 157.435 69.771 157.581 69.6073 157.764L70.2334 158.324ZM70.5381 158.102C70.6542 158.05 70.78 158.023 70.9071 158.023L70.9077 157.183C70.6622 157.183 70.4195 157.235 70.1954 157.335L70.5381 158.102ZM70.9084 155.923C70.4889 155.922 70.0737 156.008 69.6893 156.176L70.0254 156.946C70.3032 156.825 70.6032 156.762 70.9064 156.763L70.9084 155.923ZM69.6893 156.176C69.3048 156.344 68.9594 156.59 68.675 156.898L69.2925 157.468C69.498 157.245 69.7476 157.067 70.0254 156.946L69.6893 156.176ZM68.6713 156.902L61.6027 164.773L62.2277 165.334L69.2963 157.464L68.6713 156.902ZM62.2339 164.78L60.4531 162.705L59.8157 163.253L61.5965 165.327L62.2339 164.78ZM60.4538 162.706C60.1723 162.377 59.8225 162.112 59.4286 161.93L59.0773 162.693C59.3607 162.824 59.6124 163.014 59.8149 163.252L60.4538 162.706ZM59.4286 161.93C59.0347 161.749 58.6061 161.655 58.1724 161.656L58.1735 162.496C58.4855 162.496 58.7939 162.563 59.0773 162.693L59.4286 161.93ZM58.1737 161.656C57.599 161.655 57.0361 161.819 56.552 162.129L57.0049 162.837C57.3533 162.614 57.7585 162.495 58.1723 162.496L58.1737 161.656ZM56.552 162.129C56.068 162.439 55.6831 162.881 55.4433 163.404L56.2067 163.754C56.3794 163.378 56.6564 163.06 57.0049 162.837L56.552 162.129ZM55.4433 163.404C55.2036 163.926 55.1189 164.506 55.1994 165.075L56.0312 164.957C55.9732 164.548 56.0341 164.13 56.2067 163.754L55.4433 163.404ZM55.1994 165.075C55.28 165.644 55.5224 166.178 55.8977 166.613L56.5338 166.065C56.2636 165.751 56.0891 165.367 56.0312 164.957L55.1994 165.075ZM55.8969 166.612L59.5928 170.926L60.2307 170.379L56.5347 166.066L55.8969 166.612ZM59.5933 170.926C59.8713 171.25 60.2149 171.51 60.6014 171.69L60.9563 170.929C60.678 170.799 60.4305 170.611 60.2302 170.379L59.5933 170.926ZM60.6014 171.69C60.9878 171.87 61.4082 171.966 61.8346 171.971L61.8446 171.131C61.5375 171.128 61.2347 171.059 60.9563 170.929L60.6014 171.69ZM61.8396 171.971H61.8732V171.131H61.8396V171.971ZM61.8704 171.971C62.2903 171.974 62.706 171.888 63.0906 171.72L62.7538 170.951C62.4771 171.072 62.178 171.133 61.8759 171.131L61.8704 171.971ZM63.0906 171.72C63.4752 171.552 63.8201 171.304 64.103 170.994L63.4822 170.428C63.2787 170.651 63.0305 170.829 62.7538 170.951L63.0906 171.72ZM64.1051 170.992L73.1393 160.933L72.5143 160.372L63.4801 170.431L64.1051 170.992ZM73.1392 160.933C73.5269 160.501 73.7812 159.967 73.8716 159.394L73.0419 159.263C72.9768 159.676 72.7936 160.061 72.5143 160.372L73.1392 160.933ZM73.8716 159.394C73.962 158.821 73.8845 158.234 73.6485 157.704L72.8812 158.046C73.0511 158.428 73.107 158.85 73.0419 159.263L73.8716 159.394ZM73.6485 157.704C73.4125 157.174 73.028 156.724 72.5417 156.408L72.0839 157.112C72.4343 157.34 72.7112 157.664 72.8812 158.046L73.6485 157.704ZM72.5417 156.408C72.0553 156.092 71.4878 155.923 70.9077 155.923L70.907 156.763C71.3248 156.763 71.7336 156.885 72.0839 157.112L72.5417 156.408Z" fill="#651A21" mask="url(#path-25-inside-3_10943_26791)"/>
<path d="M77.5098 120.228H118.027" stroke="#651A21" stroke-width="0.42" stroke-linecap="round" stroke-linejoin="round"/>
<path d="M74.1123 120.228H76.2039" stroke="#651A21" stroke-width="0.42" stroke-linecap="round" stroke-linejoin="round"/>
<path d="M61.3729 102.508C66.0213 102.508 69.7897 98.7393 69.7897 94.0909C69.7897 89.4424 66.0213 85.6741 61.3729 85.6741C56.7244 85.6741 52.9561 89.4424 52.9561 94.0909C52.9561 98.7393 56.7244 102.508 61.3729 102.508Z" fill="white" stroke="#651A21" stroke-width="1.68" stroke-miterlimit="10"/>
<path d="M61.9742 97.6861C61.6956 97.6831 61.4208 97.6209 61.1681 97.5035C60.9154 97.3862 60.6905 97.2166 60.5084 97.0057L56.8334 92.6924C56.5101 92.2974 56.3543 91.7917 56.3992 91.2833C56.4441 90.7749 56.6863 90.3044 57.0738 89.9723C57.4613 89.6402 57.9634 89.473 58.4727 89.5065C58.9819 89.5399 59.4578 89.7714 59.7986 90.1513L62.0456 92.7721L69.6056 84.3721C69.7889 84.1684 70.013 84.0055 70.2633 83.8941C70.5137 83.7827 70.7847 83.7252 71.0588 83.7253C71.4356 83.7258 71.8042 83.8353 72.1202 84.0406C72.4362 84.2458 72.686 84.5381 72.8396 84.8822C72.9932 85.2262 73.044 85.6074 72.9859 85.9797C72.9278 86.352 72.7632 86.6995 72.512 86.9803L63.4736 97.0603C63.2908 97.2636 63.0673 97.4261 62.8177 97.5375C62.5681 97.649 62.2979 97.7067 62.0246 97.7071L61.9742 97.6861Z" fill="#C13E4A"/>
<mask id="path-31-inside-4_10943_26791" fill="white">
<path d="M71.0238 84.3511C71.3493 84.3497 71.6638 84.4694 71.9058 84.6871C72.1662 84.9221 72.3229 85.2506 72.3418 85.6008C72.3607 85.951 72.2402 86.2945 72.0066 86.5561L62.9724 96.6361C62.8465 96.7702 62.6942 96.8768 62.525 96.9491C62.3559 97.0214 62.1736 97.0578 61.9896 97.0561C61.8016 97.0542 61.6163 97.0119 61.446 96.9322C61.2757 96.8525 61.1245 96.7372 61.0026 96.5941L57.3066 92.2807C57.1005 92.012 57.0053 91.6745 57.0406 91.3377C57.0759 91.0009 57.239 90.6905 57.4963 90.4703C57.7536 90.2502 58.0855 90.1371 58.4237 90.1543C58.7619 90.1715 59.0806 90.3178 59.3142 90.5629L62.0274 93.7297L70.0536 84.7879C70.18 84.6533 70.333 84.5464 70.503 84.4741C70.6729 84.4018 70.856 84.3657 71.0406 84.3679M71.0406 83.1079C70.6791 83.106 70.3213 83.1798 69.99 83.3244C69.6587 83.4691 69.3613 83.6815 69.117 83.9479L62.0484 91.8187L60.2676 89.7397C60.0519 89.4668 59.7833 89.2403 59.4778 89.0737C59.1724 88.9072 58.8365 88.804 58.4902 88.7705C58.144 88.7369 57.7945 88.7737 57.4628 88.8785C57.1311 88.9834 56.824 89.1541 56.5599 89.3806C56.2958 89.607 56.0801 89.8845 55.9259 90.1963C55.7717 90.5081 55.682 90.8479 55.6623 91.1952C55.6427 91.5426 55.6933 91.8903 55.8113 92.2176C55.9293 92.5448 56.1122 92.8449 56.349 93.0997L60.045 97.4089C60.2834 97.6882 60.5787 97.9133 60.9112 98.069C61.2437 98.2247 61.6057 98.3076 61.9728 98.3119H62.0064C62.3674 98.3143 62.7248 98.2407 63.0554 98.096C63.3861 97.9513 63.6826 97.7386 63.9258 97.4719L72.96 87.3919C73.1881 87.1412 73.3639 86.8475 73.4771 86.528C73.5903 86.2086 73.6387 85.8697 73.6194 85.5313C73.585 84.8709 73.2981 84.249 72.8182 83.7941C72.3383 83.3392 71.7019 83.086 71.0406 83.0869V83.1079Z"/>
</mask>
<path d="M71.0238 84.3511C71.3493 84.3497 71.6638 84.4694 71.9058 84.6871C72.1662 84.9221 72.3229 85.2506 72.3418 85.6008C72.3607 85.951 72.2402 86.2945 72.0066 86.5561L62.9724 96.6361C62.8465 96.7702 62.6942 96.8768 62.525 96.9491C62.3559 97.0214 62.1736 97.0578 61.9896 97.0561C61.8016 97.0542 61.6163 97.0119 61.446 96.9322C61.2757 96.8525 61.1245 96.7372 61.0026 96.5941L57.3066 92.2807C57.1005 92.012 57.0053 91.6745 57.0406 91.3377C57.0759 91.0009 57.239 90.6905 57.4963 90.4703C57.7536 90.2502 58.0855 90.1371 58.4237 90.1543C58.7619 90.1715 59.0806 90.3178 59.3142 90.5629L62.0274 93.7297L70.0536 84.7879C70.18 84.6533 70.333 84.5464 70.503 84.4741C70.6729 84.4018 70.856 84.3657 71.0406 84.3679M71.0406 83.1079C70.6791 83.106 70.3213 83.1798 69.99 83.3244C69.6587 83.4691 69.3613 83.6815 69.117 83.9479L62.0484 91.8187L60.2676 89.7397C60.0519 89.4668 59.7833 89.2403 59.4778 89.0737C59.1724 88.9072 58.8365 88.804 58.4902 88.7705C58.144 88.7369 57.7945 88.7737 57.4628 88.8785C57.1311 88.9834 56.824 89.1541 56.5599 89.3806C56.2958 89.607 56.0801 89.8845 55.9259 90.1963C55.7717 90.5081 55.682 90.8479 55.6623 91.1952C55.6427 91.5426 55.6933 91.8903 55.8113 92.2176C55.9293 92.5448 56.1122 92.8449 56.349 93.0997L60.045 97.4089C60.2834 97.6882 60.5787 97.9133 60.9112 98.069C61.2437 98.2247 61.6057 98.3076 61.9728 98.3119H62.0064C62.3674 98.3143 62.7248 98.2407 63.0554 98.096C63.3861 97.9513 63.6826 97.7386 63.9258 97.4719L72.96 87.3919C73.1881 87.1412 73.3639 86.8475 73.4771 86.528C73.5903 86.2086 73.6387 85.8697 73.6194 85.5313C73.585 84.8709 73.2981 84.249 72.8182 83.7941C72.3383 83.3392 71.7019 83.086 71.0406 83.0869V83.1079Z" fill="#651A21"/>
<path d="M71.9058 84.6871L72.1873 84.3753L72.1867 84.3748L71.9058 84.6871ZM72.0066 86.5561L72.3194 86.8364L72.32 86.8358L72.0066 86.5561ZM62.9724 96.6361L63.2787 96.9237L63.2852 96.9164L62.9724 96.6361ZM61.9896 97.0561L61.9852 97.4761L61.9858 97.4761L61.9896 97.0561ZM61.0026 96.5941L61.3223 96.3217L61.3215 96.3208L61.0026 96.5941ZM57.3066 92.2807L56.9734 92.5363L56.9803 92.5454L56.9877 92.554L57.3066 92.2807ZM59.3142 90.5629L59.6332 90.2897L59.6259 90.2812L59.6183 90.2732L59.3142 90.5629ZM62.0274 93.7297L61.7085 94.003L62.0201 94.3667L62.34 94.0103L62.0274 93.7297ZM70.0536 84.7879L69.7473 84.5004L69.7411 84.5074L70.0536 84.7879ZM71.0406 83.1079L71.0384 83.5279L71.4606 83.5301V83.1079H71.0406ZM69.117 83.9479L68.8074 83.6641L68.8045 83.6673L69.117 83.9479ZM62.0484 91.8187L61.7294 92.0919L62.0409 92.4556L62.3609 92.0993L62.0484 91.8187ZM60.2676 89.7397L59.9381 90.0002L59.9433 90.0066L59.9486 90.0129L60.2676 89.7397ZM56.349 93.0997L56.6678 92.8263L56.6624 92.8199L56.6567 92.8138L56.349 93.0997ZM60.045 97.4089L60.3645 97.1363L60.3638 97.1355L60.045 97.4089ZM61.9728 98.3119L61.9678 98.7319H61.9728V98.3119ZM62.0064 98.3119L62.0092 97.8919H62.0064V98.3119ZM63.9258 97.4719L64.2362 97.7549L64.2386 97.7522L63.9258 97.4719ZM72.96 87.3919L72.6493 87.1093L72.6473 87.1116L72.96 87.3919ZM73.6194 85.5313L73.2 85.5532L73.2001 85.5552L73.6194 85.5313ZM71.0406 83.0869L71.0401 82.6669L70.6206 82.6675V83.0869H71.0406ZM71.0257 84.7711C71.2469 84.7701 71.4605 84.8515 71.625 84.9994L72.1867 84.3748C71.867 84.0874 71.4518 83.9292 71.022 83.9311L71.0257 84.7711ZM71.6244 84.9989C71.8023 85.1595 71.9095 85.3841 71.9224 85.6234L72.7612 85.5782C72.7363 85.1172 72.53 84.6847 72.1873 84.3753L71.6244 84.9989ZM71.9224 85.6234C71.9353 85.8628 71.8529 86.0976 71.6933 86.2764L72.32 86.8358C72.6274 86.4914 72.786 86.0392 72.7612 85.5782L71.9224 85.6234ZM71.6939 86.2758L62.6597 96.3558L63.2852 96.9164L72.3194 86.8364L71.6939 86.2758ZM62.6662 96.3486C62.58 96.4404 62.4758 96.5134 62.36 96.5629L62.6901 97.3353C62.9126 97.2402 63.113 97.1 63.2786 96.9236L62.6662 96.3486ZM62.36 96.5629C62.2442 96.6123 62.1194 96.6373 61.9935 96.6361L61.9858 97.4761C62.2277 97.4783 62.4675 97.4304 62.6901 97.3353L62.36 96.5629ZM61.994 96.6361C61.8661 96.6348 61.7399 96.6061 61.624 96.5518L61.2679 97.3126C61.4926 97.4178 61.7372 97.4735 61.9852 97.4761L61.994 96.6361ZM61.624 96.5518C61.5082 96.4976 61.4053 96.4191 61.3223 96.3217L60.6829 96.8665C60.8438 97.0553 61.0433 97.2074 61.2679 97.3126L61.624 96.5518ZM61.3215 96.3208L57.6256 92.0074L56.9877 92.554L60.6837 96.8674L61.3215 96.3208ZM57.6399 92.0251C57.4992 91.8417 57.4342 91.6114 57.4583 91.3815L56.6229 91.294C56.5764 91.7377 56.7018 92.1823 56.9734 92.5363L57.6399 92.0251ZM57.4583 91.3815C57.4824 91.1516 57.5937 90.9397 57.7693 90.7895L57.2232 90.1512C56.8843 90.4413 56.6694 90.8502 56.6229 91.294L57.4583 91.3815ZM57.7693 90.7895C57.945 90.6392 58.1715 90.562 58.4023 90.5737L58.4451 89.7348C57.9995 89.7121 57.5622 89.8612 57.2232 90.1512L57.7693 90.7895ZM58.4023 90.5737C58.6332 90.5855 58.8507 90.6853 59.0102 90.8527L59.6183 90.2732C59.3105 89.9502 58.8906 89.7575 58.4451 89.7348L58.4023 90.5737ZM58.9953 90.8362L61.7085 94.003L62.3464 93.4564L59.6332 90.2897L58.9953 90.8362ZM62.34 94.0103L70.3662 85.0685L69.7411 84.5074L61.7149 93.4492L62.34 94.0103ZM70.3598 85.0754C70.4463 84.9832 70.5511 84.9101 70.6674 84.8606L70.3385 84.0877C70.115 84.1828 69.9137 84.3233 69.7474 84.5004L70.3598 85.0754ZM70.6674 84.8606C70.7837 84.8111 70.9091 84.7863 71.0355 84.7879L71.0458 83.9479C70.8029 83.945 70.562 83.9925 70.3385 84.0877L70.6674 84.8606ZM71.0428 82.6879C70.6228 82.6857 70.2069 82.7714 69.8219 82.9395L70.158 83.7093C70.4356 83.5881 70.7355 83.5263 71.0384 83.5279L71.0428 82.6879ZM69.8219 82.9395C69.4369 83.1076 69.0914 83.3544 68.8075 83.6641L69.4266 84.2318C69.6313 84.0085 69.8805 83.8306 70.158 83.7093L69.8219 82.9395ZM68.8045 83.6673L61.7359 91.5381L62.3609 92.0993L69.4295 84.2286L68.8045 83.6673ZM62.3674 91.5455L60.5866 89.4665L59.9486 90.0129L61.7294 92.0919L62.3674 91.5455ZM60.5971 89.4793C60.3463 89.162 60.034 88.8986 59.6789 88.705L59.2768 89.4424C59.5325 89.5819 59.7575 89.7716 59.9381 90.0002L60.5971 89.4793ZM59.6789 88.705C59.3238 88.5113 58.9333 88.3914 58.5307 88.3524L58.4497 89.1885C58.7397 89.2166 59.021 89.303 59.2768 89.4424L59.6789 88.705ZM58.5307 88.3524C58.1282 88.3134 57.7219 88.3562 57.3362 88.478L57.5894 89.279C57.8671 89.1912 58.1598 89.1604 58.4497 89.1885L58.5307 88.3524ZM57.3362 88.478C56.9506 88.5999 56.5935 88.7985 56.2865 89.0617L56.8333 89.6994C57.0544 89.5098 57.3116 89.3668 57.5894 89.279L57.3362 88.478ZM56.2865 89.0617C55.9794 89.325 55.7287 89.6476 55.5494 90.0101L56.3024 90.3825C56.4315 90.1214 56.6121 89.889 56.8333 89.6994L56.2865 89.0617ZM55.5494 90.0101C55.3701 90.3727 55.2659 90.7677 55.243 91.1715L56.0817 91.219C56.0982 90.9282 56.1732 90.6436 56.3024 90.3825L55.5494 90.0101ZM55.243 91.1715C55.2201 91.5753 55.279 91.9795 55.4162 92.36L56.2064 92.0751C56.1076 91.8011 56.0652 91.5099 56.0817 91.219L55.243 91.1715ZM55.4162 92.36C55.5534 92.7405 55.766 93.0893 56.0414 93.3856L56.6567 92.8138C56.4584 92.6004 56.3052 92.3491 56.2064 92.0751L55.4162 92.36ZM56.0302 93.3731L59.7262 97.6823L60.3638 97.1355L56.6678 92.8263L56.0302 93.3731ZM59.7256 97.6816C60.0028 98.0064 60.3463 98.2682 60.7331 98.4493L61.0894 97.6887C60.8111 97.5583 60.564 97.37 60.3645 97.1363L59.7256 97.6816ZM60.7331 98.4493C61.1198 98.6305 61.5408 98.7268 61.9678 98.7319L61.9778 97.8919C61.6705 97.8883 61.3676 97.819 61.0894 97.6887L60.7331 98.4493ZM61.9728 98.7319H62.0064V97.8919H61.9728V98.7319ZM62.0037 98.7319C62.4235 98.7346 62.8392 98.6491 63.2238 98.4808L62.887 97.7112C62.6103 97.8323 62.3112 97.8939 62.0092 97.8919L62.0037 98.7319ZM63.2238 98.4808C63.6084 98.3124 63.9534 98.0651 64.2362 97.7549L63.6154 97.189C63.4119 97.4122 63.1638 97.5901 62.887 97.7112L63.2238 98.4808ZM64.2386 97.7522L73.2728 87.6722L72.6473 87.1116L63.6131 97.1916L64.2386 97.7522ZM73.2707 87.6745C73.5364 87.3825 73.7411 87.0404 73.873 86.6683L73.0812 86.3877C72.9867 86.6546 72.8398 86.8999 72.6493 87.1093L73.2707 87.6745ZM73.873 86.6683C74.0049 86.2962 74.0612 85.9016 74.0387 85.5074L73.2001 85.5552C73.2162 85.8379 73.1758 86.1209 73.0812 86.3877L73.873 86.6683ZM74.0389 85.5094C73.9988 84.7415 73.6652 84.0183 73.1071 83.4893L72.5293 84.0989C72.931 84.4798 73.1711 85.0004 73.2 85.5532L74.0389 85.5094ZM73.1071 83.4893C72.549 82.9603 71.809 82.6659 71.0401 82.6669L71.0412 83.5069C71.5948 83.5062 72.1275 83.7181 72.5293 84.0989L73.1071 83.4893ZM70.6206 83.0869V83.1079H71.4606V83.0869H70.6206Z" fill="#651A21" mask="url(#path-31-inside-4_10943_26791)"/>
<path d="M77.6436 94.0239H118.161" stroke="#651A21" stroke-width="0.42" stroke-linecap="round" stroke-linejoin="round"/>
<path d="M74.2461 94.0239H76.3377" stroke="#651A21" stroke-width="0.42" stroke-linecap="round" stroke-linejoin="round"/>
<path d="M89.2734 145.318H118.027" stroke="#651A21" stroke-width="0.42" stroke-linecap="round" stroke-linejoin="round"/>
<path d="M74.1123 145.318H85.8765" stroke="#651A21" stroke-width="0.42" stroke-linecap="round" stroke-linejoin="round"/>
<path d="M113.058 168.061H118.026" stroke="#651A21" stroke-width="0.42" stroke-linecap="round" stroke-linejoin="round"/>
<path d="M74.1123 168.061H107.83" stroke="#651A21" stroke-width="0.42" stroke-linecap="round" stroke-linejoin="round"/>
<path d="M192.225 193.683H197.449" stroke="#651A21" stroke-width="0.42" stroke-linecap="round" stroke-linejoin="round"/>
<path d="M11.9785 193.683H187.98" stroke="#651A21" stroke-width="0.42" stroke-linecap="round" stroke-linejoin="round"/>
</svg>
