<svg width="24" height="24" viewBox="0 0 24 24" fill="none" stroke="currentColor" xmlns="http://www.w3.org/2000/svg">
<g clip-path="url(#clip0_3747_45397)">
<path d="M8.25 6.00129L15.007 5.98829C16.67 5.98529 18.019 7.33629 18.012 8.99929V9.01329C18.005 10.6653 16.664 12.0013 15.013 12.0013H9.999C8.343 12.0013 7 13.3443 7 15.0003C7 16.6573 8.344 18.0003 10.001 17.9993L20 17.9963" stroke-width="1.5" stroke-linecap="round" stroke-linejoin="round"/>
<path d="M20.0009 17.9961L18.0039 19.9931" stroke-width="1.5" stroke-linecap="round" stroke-linejoin="round"/>
<path d="M18.0029 15.9971L19.9999 17.9951" stroke-width="1.5" stroke-linecap="round" stroke-linejoin="round"/>
<path d="M7.59099 4.40901C8.46967 5.28769 8.46967 6.71231 7.59099 7.59099C6.71231 8.46967 5.28769 8.46967 4.40901 7.59099C3.53033 6.71231 3.53033 5.28769 4.40901 4.40901C5.28769 3.53033 6.71231 3.53033 7.59099 4.40901Z" stroke-width="1.5" stroke-linecap="round" stroke-linejoin="round"/>
</g>
<defs>
<clipPath id="clip0_3747_45397">
<rect width="24" height="24" fill="white"/>
</clipPath>
</defs>
</svg>
