<svg width="24" height="24" viewBox="0 0 24 24" fill="none" stroke="currentColor" xmlns="http://www.w3.org/2000/svg">
<path fill-rule="evenodd" clip-rule="evenodd" d="M14.6012 7.50519L17.1592 4.94719C17.1932 4.91319 17.1822 4.85319 17.1382 4.83419C15.6862 4.21319 13.9022 4.47319 12.7052 5.67019C11.5432 6.83219 11.2372 8.48419 11.7882 9.89019L7.95522 13.7232C7.32222 14.3562 7.32222 15.3832 7.95522 16.0172V16.0172C8.58822 16.6502 9.61522 16.6502 10.2492 16.0172L14.1132 12.1532C15.5202 12.7032 17.1712 12.3982 18.3332 11.2362C19.5322 10.0372 19.8502 8.25019 19.1712 6.79819C19.1512 6.75619 19.0932 6.74519 19.0592 6.77819L16.4362 9.34019V9.34019L15.5192 8.42319L14.6012 7.50519Z"  stroke-width="1.5" stroke-linecap="round" stroke-linejoin="round"/>
<path d="M11 2.55469C6.224 3.05469 2.5 7.09269 2.5 12.0017C2.5 17.2487 6.753 21.5017 12 21.5017C16.909 21.5017 20.947 17.7777 21.447 13.0017"  stroke-width="1.5" stroke-linecap="round" stroke-linejoin="round"/>
</svg>
