<svg width="24" height="24" viewBox="0 0 24 24" fill="none" stroke="currentColor" xmlns="http://www.w3.org/2000/svg">
<circle cx="12.0008" cy="12.5047" r="2.00083"  stroke-width="1.5" stroke-linecap="round" stroke-linejoin="round"/>
<path d="M16.001 8.50391L13.5 11.0049"  stroke-width="1.5" stroke-linecap="round" stroke-linejoin="round"/>
<path d="M18.2981 12.508H17.3977"  stroke-width="1.5" stroke-linecap="round" stroke-linejoin="round"/>
<path d="M5.69455 12.508H6.59493"  stroke-width="1.5" stroke-linecap="round" stroke-linejoin="round"/>
<path d="M11.9963 6.20236V7.10274"  stroke-width="1.5" stroke-linecap="round" stroke-linejoin="round"/>
<path d="M7.54074 8.04855L7.99093 8.49874"  stroke-width="1.5" stroke-linecap="round" stroke-linejoin="round"/>
<path fill-rule="evenodd" clip-rule="evenodd" d="M11.7188 3.49695C6.88611 3.6991 3.0552 7.64512 2.99614 12.4817C2.98728 15.3833 4.38049 18.1104 6.73674 19.8037C7.40374 20.2697 8.20012 20.5146 9.01368 20.504H14.9942C15.7892 20.5159 16.5682 20.2791 17.2221 19.8267C20.4584 17.5275 21.8055 13.3791 20.5377 9.61713C19.2699 5.85513 15.6866 3.3684 11.7188 3.49695Z"  stroke-width="1.5" stroke-linecap="round" stroke-linejoin="round"/>
</svg>
