<svg width="24" height="25" viewBox="0 0 24 25" fill="none" xmlns="http://www.w3.org/2000/svg">
<g id="Group">
<g id="Group_2">
<path id="Path" fill-rule="evenodd" clip-rule="evenodd" d="M6.5 7.5H12.5V11.5H6.5V7.5Z" stroke="white" stroke-width="1.5" stroke-linecap="round" stroke-linejoin="round"/>
<path id="Path_2" d="M7.5 15.5H11.5" stroke="white" stroke-width="1.5" stroke-linecap="round" stroke-linejoin="round"/>
<path id="Path_3" d="M3.5 21.5V5.5C3.5 4.395 4.395 3.5 5.5 3.5H13.5C14.605 3.5 15.5 4.395 15.5 5.5V21.5" stroke="white" stroke-width="1.5" stroke-linecap="round" stroke-linejoin="round"/>
<path id="Path_4" d="M19.5 5.5L20.914 6.914C21.289 7.289 21.5 7.798 21.5 8.328V18C21.5 18.828 20.828 19.5 20 19.5V19.5C19.172 19.5 18.5 18.828 18.5 18V16.5C18.5 15.948 18.052 15.5 17.5 15.5H15.5" stroke="white" stroke-width="1.5" stroke-linecap="round" stroke-linejoin="round"/>
<path id="Path_5" d="M21.5 12.5H19.633C19.032 12.5 18.566 11.973 18.641 11.376L18.891 9.376C18.953 8.876 19.378 8.5 19.883 8.5H21.5" stroke="white" stroke-width="1.5" stroke-linecap="round" stroke-linejoin="round"/>
<path id="Path_6" d="M2.5 21.5H16.5" stroke="white" stroke-width="1.5" stroke-linecap="round" stroke-linejoin="round"/>
</g>
</g>
</svg>