<svg width="24" height="25" viewBox="0 0 24 25" fill="none" xmlns="http://www.w3.org/2000/svg">
<g id="Group">
<path id="Path" d="M18.0027 16.2517H21.0039V19.253" stroke="white" stroke-width="1.5" stroke-linecap="round" stroke-linejoin="round"/>
<path id="Path_2" d="M16.5349 4.57279C15.6191 4.04282 14.617 3.67842 13.5747 3.49634" stroke="white" stroke-width="1.5" stroke-linecap="round" stroke-linejoin="round"/>
<path id="Path_3" d="M20.5216 9.32586C20.1613 8.33088 19.6297 7.40658 18.9509 6.59473" stroke="white" stroke-width="1.5" stroke-linecap="round" stroke-linejoin="round"/>
<path id="Path_4" d="M10.4256 3.49634C9.38323 3.67842 8.38116 4.04282 7.46533 4.57279" stroke="white" stroke-width="1.5" stroke-linecap="round" stroke-linejoin="round"/>
<path id="Path_5" d="M5.04917 6.59766C4.3704 7.40951 3.83884 8.33381 3.47852 9.32879" stroke="white" stroke-width="1.5" stroke-linecap="round" stroke-linejoin="round"/>
<path id="Path_6" d="M2.99634 12.5C3.00402 16.7264 5.95026 20.3785 10.0793 21.2801C14.2084 22.1817 18.4088 20.09 20.1775 16.2516" stroke="white" stroke-width="1.5" stroke-linecap="round" stroke-linejoin="round"/>
<path id="Path_7" d="M2.99634 12.5C2.99634 17.4726 7.02745 21.5037 12.0001 21.5037" stroke="white" stroke-width="1.5" stroke-linecap="round" stroke-linejoin="round"/>
<path id="Path_8" fill-rule="evenodd" clip-rule="evenodd" d="M12.6403 8.81965L14.5581 11.3857C15.2817 12.3553 15.397 13.6501 14.8559 14.7322C14.3148 15.8143 13.2099 16.499 12 16.5018V16.5018C10.7901 16.499 9.68522 15.8143 9.14414 14.7322C8.60307 13.6501 8.71829 12.3553 9.44195 11.3857L11.3598 8.81965C11.5109 8.61812 11.7481 8.49951 12 8.49951C12.2519 8.49951 12.4891 8.61812 12.6403 8.81965Z" stroke="white" stroke-width="1.5" stroke-linecap="round" stroke-linejoin="round"/>
</g>
</svg>
