<svg width="24" height="25" viewBox="0 0 24 25" fill="none" xmlns="http://www.w3.org/2000/svg">
<g id="Group">
<g id="Group_2">
<path id="Path" d="M18.3639 6.13604C21.8787 9.65076 21.8787 15.3492 18.3639 18.8639C14.8492 22.3787 9.15074 22.3787 5.63604 18.8639C2.12132 15.3492 2.12132 9.65074 5.63604 6.13604C9.15076 2.62132 14.8492 2.62132 18.3639 6.13604" stroke="white" stroke-width="1.5" stroke-linecap="round" stroke-linejoin="round"/>
<path id="Path_2" d="M17.4129 19.531C17.2359 19.085 16.9609 18.685 16.6089 18.359C16.0139 17.807 15.2359 17.5 14.4239 17.5C13.0699 17.5 10.9299 17.5 9.57594 17.5C8.76394 17.5 7.98594 17.807 7.38994 18.359C7.03794 18.685 6.76394 19.085 6.58594 19.531" stroke="white" stroke-width="1.5" stroke-linecap="round" stroke-linejoin="round"/>
<path id="Path_3" d="M13.4142 11.0858C14.1953 11.8668 14.1953 13.1332 13.4142 13.9142C12.6332 14.6953 11.3668 14.6953 10.5858 13.9142C9.80474 13.1332 9.80474 11.8668 10.5858 11.0858C11.3668 10.3047 12.6332 10.3047 13.4142 11.0858" stroke="white" stroke-width="1.5" stroke-linecap="round" stroke-linejoin="round"/>
<path id="Path_4" d="M12 3.5V5.5" stroke="white" stroke-width="1.5" stroke-linecap="round" stroke-linejoin="round"/>
<path id="Path_5" d="M16.4999 4.70996L15.6299 6.20996" stroke="white" stroke-width="1.5" stroke-linecap="round" stroke-linejoin="round"/>
<path id="Path_6" d="M7.50006 4.70996L8.37006 6.20996" stroke="white" stroke-width="1.5" stroke-linecap="round" stroke-linejoin="round"/>
<path id="Path_7" d="M4.20996 8.00006L5.70996 8.87006" stroke="white" stroke-width="1.5" stroke-linecap="round" stroke-linejoin="round"/>
<path id="Path_8" d="M21 12.5H19.5" stroke="white" stroke-width="1.5" stroke-linecap="round" stroke-linejoin="round"/>
<path id="Path_9" d="M4.5 12.5H3" stroke="white" stroke-width="1.5" stroke-linecap="round" stroke-linejoin="round"/>
<path id="Path_10" d="M13.79 11.63L19.79 8" stroke="white" stroke-width="1.5" stroke-linecap="round" stroke-linejoin="round"/>
</g>
</g>
</svg>
