<svg width="24" height="25" viewBox="0 0 24 25" fill="none" xmlns="http://www.w3.org/2000/svg">
<g id="Group">
<g id="Group_2">
<path id="Path" d="M18.3639 4.37165C21.8787 5.76465 21.8787 8.02315 18.3639 9.41615C14.8492 10.8092 9.15074 10.8092 5.63604 9.41615C2.12132 8.02315 2.12132 5.76465 5.63604 4.37165C9.15076 2.97865 14.8492 2.97865 18.3639 4.37165" stroke="white" stroke-width="1.5" stroke-linecap="round" stroke-linejoin="round"/>
<path id="Path_2" d="M18.3639 15.5838C21.8787 16.9768 21.8787 19.2353 18.3639 20.6283C14.8492 22.0213 9.15074 22.0213 5.63604 20.6283C2.12132 19.2353 2.12132 16.9768 5.63604 15.5838C9.15076 14.1908 14.8492 14.1908 18.3639 15.5838" stroke="white" stroke-width="1.5" stroke-linecap="round" stroke-linejoin="round"/>
<path id="Path_3" d="M21 6.88989V18.1099" stroke="white" stroke-width="1.5" stroke-linecap="round" stroke-linejoin="round"/>
<path id="Path_4" d="M3 6.88989V18.1099" stroke="white" stroke-width="1.5" stroke-linecap="round" stroke-linejoin="round"/>
</g>
</g>
</svg>
