<svg width="18" height="18" viewBox="0 0 18 18" fill="none" xmlns="http://www.w3.org/2000/svg">
<g id="Group">
<g id="Group_2">
<path id="Path" fill-rule="evenodd" clip-rule="evenodd" d="M14.2177 15.753H3.78236C2.95327 15.753 2.28174 15.0814 2.28174 14.2524V5.99892C2.28174 5.16982 2.95327 4.49829 3.78236 4.49829H14.2177C15.0468 4.49829 15.7183 5.16982 15.7183 5.99892V14.2524C15.7183 15.0814 15.0461 15.753 14.2177 15.753Z" stroke="#26333B" stroke-width="1.5" stroke-linecap="round" stroke-linejoin="round"/>
<path id="Path_2" d="M8.9998 6.74927C10.036 6.74927 10.8756 7.58887 10.8756 8.62505C10.8756 9.66123 10.036 10.5008 8.9998 10.5008C7.96362 10.5008 7.12402 9.66123 7.12402 8.62505C7.12402 7.58887 7.96362 6.74927 8.9998 6.74927" stroke="#26333B" stroke-width="1.5" stroke-linecap="round" stroke-linejoin="round"/>
<path id="Path_3" d="M12.3763 13.5019C12.2781 13.2551 12.1257 13.033 11.9307 12.8522V12.8522C11.6013 12.546 11.1698 12.3765 10.7197 12.3765C9.96934 12.3765 8.03054 12.3765 7.28023 12.3765C6.83004 12.3765 6.39936 12.5468 6.06922 12.8522V12.8522C5.87414 13.033 5.72183 13.2551 5.62354 13.5019" stroke="#26333B" stroke-width="1.5" stroke-linecap="round" stroke-linejoin="round"/>
<path id="Path_4" d="M3.58447 4.49825V3.74794C3.58447 2.91884 4.256 2.24731 5.0851 2.24731H12.9146C13.7437 2.24731 14.4152 2.91884 14.4152 3.74794V4.49825" stroke="#26333B" stroke-width="1.5" stroke-linecap="round" stroke-linejoin="round"/>
</g>
</g>
</svg>
