<svg width="40" height="40" viewBox="0 0 40 40" fill="none" xmlns="http://www.w3.org/2000/svg">
<g id="Group">
<g id="Group_2">
<path id="Path" d="M16.6667 30V36.6667H23.3334V30" stroke="#6B757C" stroke-width="1.5" stroke-linecap="round" stroke-linejoin="round"/>
<path id="Path_2" d="M10 20.0001H11.6667" stroke="#6B757C" stroke-width="1.5" stroke-linecap="round" stroke-linejoin="round"/>
<path id="Path_3" fill-rule="evenodd" clip-rule="evenodd" d="M29.1667 13.3333H10.8333C7.61167 13.3333 5 15.9449 5 19.1666V28.3333C5 29.2533 5.74667 29.9999 6.66667 29.9999H33.3333C34.2533 29.9999 35 29.2533 35 28.3333V19.1666C35 15.9449 32.3883 13.3333 29.1667 13.3333Z" stroke="#6B757C" stroke-width="1.5" stroke-linecap="round" stroke-linejoin="round"/>
<path id="Path_4" d="M23.3333 8.33325V19.9999" stroke="#6B757C" stroke-width="1.5" stroke-linecap="round" stroke-linejoin="round"/>
<rect id="Rectangle" x="23.3333" y="3.33325" width="8.33333" height="5" stroke="#6B757C" stroke-width="1.5" stroke-linecap="round" stroke-linejoin="round"/>
<path id="Path_5" d="M23.3317 19.3751C22.9867 19.3767 22.7083 19.6567 22.7083 20.0017C22.7083 20.3467 22.9883 20.6267 23.3333 20.6251C23.6783 20.6251 23.9583 20.3451 23.9583 20.0001C23.9583 19.6551 23.6783 19.3751 23.3317 19.3751" stroke="#6B757C" stroke-width="1.5" stroke-linecap="round" stroke-linejoin="round"/>
<path id="Path_6" d="M10.8333 13.3333C14.0549 13.3333 16.6666 15.9449 16.6666 19.1666V29.9999" stroke="#6B757C" stroke-width="1.5" stroke-linecap="round" stroke-linejoin="round"/>
</g>
</g>
</svg>
