<svg width="510" height="255" viewBox="0 0 510 255" fill="none" xmlns="http://www.w3.org/2000/svg">
<g clip-path="url(#clip0_5070_21290)">
<path d="M236.796 35.67C208.824 40.7138 180.923 60.1965 164.095 83.3245C149.608 103.238 145.003 127.192 147.778 148.921C150.984 174.136 163.709 197.628 184.124 212.187C189.492 216.018 194.616 219.819 200.832 222.572C226.331 233.88 251.004 209.913 265.581 209.731C277.853 209.576 283.589 222.332 294.853 224.743C325.263 231.252 360.086 188.894 360.672 157.499C361.325 120.945 306.082 23.1758 236.796 35.67Z" fill="#942B35"/>
<path d="M236.796 35.67C208.824 40.7138 180.923 60.1965 164.095 83.3245C149.608 103.238 145.003 127.192 147.778 148.921C150.984 174.136 163.709 197.628 184.124 212.187C189.492 216.018 194.616 219.819 200.832 222.572C226.331 233.88 251.004 209.913 265.581 209.731C277.853 209.576 283.589 222.332 294.853 224.743C325.263 231.252 360.086 188.894 360.672 157.499C361.325 120.945 306.082 23.1758 236.796 35.67Z" fill="#FAEAEC"/>
<path d="M331.72 111.134C338.767 109.447 343.113 102.367 341.426 95.3199C339.739 88.2729 332.659 83.9274 325.612 85.614C318.565 87.3007 314.22 94.3807 315.906 101.428C317.593 108.475 324.673 112.82 331.72 111.134Z" stroke="#942B35" stroke-miterlimit="10"/>
<path d="M331.361 97.7254C337.905 96.2362 342.003 89.7238 340.514 83.1796C339.025 76.6354 332.512 72.5375 325.968 74.0267C319.424 75.5159 315.326 82.0283 316.815 88.5725C318.304 95.1167 324.817 99.2146 331.361 97.7254Z" stroke="#942B35" stroke-miterlimit="10"/>
<path d="M331.366 122.24C337.91 120.751 342.008 114.238 340.519 107.694C339.03 101.15 332.518 97.0521 325.973 98.5413C319.429 100.031 315.331 106.543 316.82 113.087C318.31 119.631 324.822 123.729 331.366 122.24Z" stroke="#942B35" stroke-miterlimit="10"/>
<path d="M318.775 119.054C326.445 117.821 331.663 110.604 330.431 102.934C329.198 95.2642 321.981 90.0457 314.311 91.2783C306.641 92.511 301.423 99.728 302.655 107.398C303.888 115.068 311.105 120.286 318.775 119.054Z" stroke="#942B35" stroke-miterlimit="10"/>
<path d="M344.22 118.883C351.786 117.122 356.492 109.561 354.731 101.995C352.971 94.4289 345.41 89.7226 337.843 91.4833C330.277 93.244 325.571 100.805 327.332 108.371C329.092 115.937 336.653 120.644 344.22 118.883Z" stroke="#942B35" stroke-miterlimit="10"/>
<path d="M345.292 104.914C352.775 102.829 357.151 95.0719 355.066 87.5886C352.981 80.1053 345.224 75.7292 337.741 77.8143C330.257 79.8995 325.881 87.6563 327.966 95.1396C330.052 102.623 337.808 106.999 345.292 104.914Z" stroke="#942B35" stroke-miterlimit="10"/>
<path d="M319.331 105.03C326.886 103.221 331.543 95.6295 329.734 88.0748C327.924 80.5201 320.333 75.8627 312.778 77.6723C305.223 79.4818 300.566 87.073 302.376 94.6277C304.185 102.182 311.776 106.84 319.331 105.03Z" stroke="#942B35" stroke-miterlimit="10"/>
<path d="M317.711 92.6888C318.588 92.6888 319.3 91.9772 319.3 91.0993C319.3 90.2214 318.588 89.5098 317.711 89.5098C316.833 89.5098 316.121 90.2214 316.121 91.0993C316.121 91.9772 316.833 92.6888 317.711 92.6888Z" fill="#942B35" stroke="#942B35" stroke-miterlimit="10"/>
<path d="M330.298 85.2692C330.298 84.9548 330.205 84.6475 330.03 84.3861C329.856 84.1247 329.607 83.921 329.317 83.8007C329.026 83.6804 328.707 83.6489 328.399 83.7102C328.09 83.7716 327.807 83.9229 327.585 84.1452C327.362 84.3675 327.211 84.6508 327.15 84.9591C327.088 85.2674 327.12 85.587 327.24 85.8775C327.36 86.1679 327.564 86.4162 327.826 86.5908C328.087 86.7655 328.394 86.8587 328.709 86.8587C329.13 86.8587 329.535 86.6913 329.833 86.3932C330.131 86.0951 330.298 85.6908 330.298 85.2692Z" fill="#942B35" stroke="#942B35" stroke-miterlimit="10"/>
<path d="M317.711 106.866C318.588 106.866 319.3 106.154 319.3 105.276C319.3 104.398 318.588 103.687 317.711 103.687C316.833 103.687 316.121 104.398 316.121 105.276C316.121 106.154 316.833 106.866 317.711 106.866Z" fill="#942B35" stroke="#942B35" stroke-miterlimit="10"/>
<path d="M339.311 92.6888C340.189 92.6888 340.901 91.9772 340.901 91.0993C340.901 90.2214 340.189 89.5098 339.311 89.5098C338.433 89.5098 337.722 90.2214 337.722 91.0993C337.722 91.9772 338.433 92.6888 339.311 92.6888Z" fill="#942B35" stroke="#942B35" stroke-miterlimit="10"/>
<path d="M339.311 106.866C340.189 106.866 340.901 106.154 340.901 105.276C340.901 104.398 340.189 103.687 339.311 103.687C338.433 103.687 337.722 104.398 337.722 105.276C337.722 106.154 338.433 106.866 339.311 106.866Z" fill="#942B35" stroke="#942B35" stroke-miterlimit="10"/>
<path d="M330.298 98.3898C330.298 98.0754 330.205 97.7681 330.03 97.5067C329.856 97.2453 329.607 97.0416 329.317 96.9213C329.026 96.801 328.707 96.7695 328.399 96.8308C328.09 96.8922 327.807 97.0436 327.585 97.2659C327.362 97.4882 327.211 97.7714 327.15 98.0797C327.088 98.388 327.12 98.7077 327.24 98.9981C327.36 99.2885 327.564 99.5368 327.826 99.7115C328.087 99.8861 328.394 99.9793 328.709 99.9793C328.917 99.9793 329.124 99.9382 329.317 99.8583C329.51 99.7785 329.685 99.6614 329.833 99.5138C329.98 99.3662 330.097 99.1909 330.177 98.9981C330.257 98.8052 330.298 98.5986 330.298 98.3898Z" fill="#942B35" stroke="#942B35" stroke-miterlimit="10"/>
<path d="M330.298 111.638C330.298 111.324 330.205 111.017 330.03 110.755C329.856 110.494 329.607 110.29 329.317 110.17C329.026 110.05 328.707 110.018 328.399 110.079C328.09 110.141 327.807 110.292 327.585 110.514C327.362 110.737 327.211 111.02 327.15 111.328C327.088 111.637 327.12 111.956 327.24 112.247C327.36 112.537 327.564 112.785 327.826 112.96C328.087 113.135 328.394 113.228 328.709 113.228C329.13 113.228 329.535 113.06 329.833 112.762C330.131 112.464 330.298 112.06 330.298 111.638Z" fill="#942B35" stroke="#942B35" stroke-miterlimit="10"/>
<path d="M261.733 191.987C282.438 188.626 296.498 169.117 293.137 148.412C289.776 127.708 270.267 113.648 249.562 117.008C228.858 120.369 214.798 139.878 218.159 160.583C221.519 181.287 241.028 195.347 261.733 191.987Z" stroke="#942B35" stroke-miterlimit="10"/>
<path d="M269.986 168.832C277.905 160.913 277.905 148.074 269.986 140.155C262.067 132.236 249.228 132.236 241.31 140.155C233.391 148.074 233.391 160.913 241.31 168.832C249.228 176.751 262.067 176.751 269.986 168.832Z" stroke="#942B35" stroke-miterlimit="10"/>
<path d="M211.457 124.563C205.129 133.905 201.926 145.012 202.306 156.289C202.686 167.566 206.63 178.433 213.572 187.327C220.514 196.222 230.097 202.688 240.944 205.796C251.791 208.904 263.344 208.494 273.943 204.625C284.542 200.757 293.643 193.628 299.937 184.264C306.232 174.899 309.396 163.781 308.976 152.505C308.556 141.23 304.573 130.378 297.6 121.507C290.626 112.637 281.02 106.205 270.163 103.136" stroke="#942B35" stroke-miterlimit="10"/>
<path d="M220.149 93.0793C234.811 78.4172 234.811 54.6453 220.149 39.9832C205.487 25.3211 181.715 25.3211 167.052 39.9832C152.39 54.6453 152.39 78.4172 167.052 93.0793C181.715 107.741 205.487 107.741 220.149 93.0793Z" stroke="#942B35" stroke-miterlimit="10"/>
<path d="M193.604 104.082C208.263 104.082 220.146 92.1983 220.146 77.5394C220.146 62.8805 208.263 50.9971 193.604 50.9971C178.945 50.9971 167.062 62.8805 167.062 77.5394C167.062 92.1983 178.945 104.082 193.604 104.082Z" stroke="#942B35" stroke-miterlimit="10"/>
<path d="M204.59 99.5336C210.657 93.4666 210.657 83.6301 204.59 77.563C198.523 71.496 188.686 71.496 182.619 77.563C176.552 83.6301 176.552 93.4666 182.619 99.5336C188.686 105.601 198.523 105.601 204.59 99.5336Z" stroke="#942B35" stroke-miterlimit="10"/>
<path d="M193.604 72.713C199.479 72.713 204.242 67.9501 204.242 62.0748C204.242 56.1994 199.479 51.4365 193.604 51.4365C187.728 51.4365 182.965 56.1994 182.965 62.0748C182.965 67.9501 187.728 72.713 193.604 72.713Z" stroke="#942B35" stroke-miterlimit="10"/>
<path d="M196.143 50.3957C201.848 48.9923 205.335 43.2295 203.932 37.5243C202.528 31.819 196.766 28.3317 191.06 29.7352C185.355 31.1386 181.868 36.9014 183.271 42.6066C184.675 48.3119 190.437 51.7992 196.143 50.3957Z" stroke="#942B35" stroke-miterlimit="10"/>
<path d="M167.559 62.954C172.152 62.954 175.875 59.2308 175.875 54.6379C175.875 50.045 172.152 46.3218 167.559 46.3218C162.966 46.3218 159.243 50.045 159.243 54.6379C159.243 59.2308 162.966 62.954 167.559 62.954Z" stroke="#942B35" stroke-miterlimit="10"/>
<path d="M219.897 62.954C224.49 62.954 228.213 59.2308 228.213 54.6379C228.213 50.045 224.49 46.3218 219.897 46.3218C215.304 46.3218 211.581 50.045 211.581 54.6379C211.581 59.2308 215.304 62.954 219.897 62.954Z" stroke="#942B35" stroke-miterlimit="10"/>
<path d="M181.141 191.794C186.128 191.794 190.172 187.751 190.172 182.763C190.172 177.775 186.128 173.732 181.141 173.732C176.153 173.732 172.11 177.775 172.11 182.763C172.11 187.751 176.153 191.794 181.141 191.794Z" fill="white" stroke="#942B35" stroke-miterlimit="10"/>
<path d="M181.141 190.395C185.356 190.395 188.773 186.978 188.773 182.763C188.773 178.547 185.356 175.13 181.141 175.13C176.925 175.13 173.508 178.547 173.508 182.763C173.508 186.978 176.925 190.395 181.141 190.395Z" fill="white" stroke="#942B35" stroke-miterlimit="10"/>
<path d="M181.14 188.997C184.583 188.997 187.374 186.206 187.374 182.763C187.374 179.32 184.583 176.529 181.14 176.529C177.698 176.529 174.907 179.32 174.907 182.763C174.907 186.206 177.698 188.997 181.14 188.997Z" fill="white" stroke="#942B35" stroke-miterlimit="10"/>
<path d="M181.141 187.598C183.811 187.598 185.976 185.433 185.976 182.763C185.976 180.093 183.811 177.928 181.141 177.928C178.47 177.928 176.306 180.093 176.306 182.763C176.306 185.433 178.47 187.598 181.141 187.598Z" fill="white" stroke="#942B35" stroke-miterlimit="10"/>
<path d="M181.141 186.199C183.039 186.199 184.577 184.661 184.577 182.763C184.577 180.865 183.039 179.326 181.141 179.326C179.243 179.326 177.704 180.865 177.704 182.763C177.704 184.661 179.243 186.199 181.141 186.199Z" fill="white" stroke="#942B35" stroke-miterlimit="10"/>
<path d="M181.141 184.801C182.266 184.801 183.178 183.889 183.178 182.763C183.178 181.638 182.266 180.725 181.141 180.725C180.015 180.725 179.103 181.638 179.103 182.763C179.103 183.889 180.015 184.801 181.141 184.801Z" fill="white" stroke="#942B35" stroke-miterlimit="10"/>
<path d="M163.541 201.957C168.528 201.957 172.572 197.914 172.572 192.926C172.572 187.938 168.528 183.895 163.541 183.895C158.553 183.895 154.51 187.938 154.51 192.926C154.51 197.914 158.553 201.957 163.541 201.957Z" fill="white" stroke="#942B35" stroke-miterlimit="10"/>
<path d="M164.486 200.239C168.617 199.438 171.316 195.44 170.516 191.309C169.715 187.178 165.717 184.478 161.586 185.279C157.455 186.08 154.755 190.078 155.556 194.209C156.357 198.34 160.355 201.04 164.486 200.239Z" fill="white" stroke="#942B35" stroke-width="0.998248" stroke-miterlimit="10"/>
<path d="M166.644 187.527C165.579 186.916 164.357 186.635 163.132 186.718C161.907 186.801 160.734 187.245 159.76 187.994C158.787 188.743 158.058 189.763 157.664 190.926C157.27 192.089 157.23 193.343 157.548 194.529C157.866 195.715 158.528 196.78 159.45 197.59C160.373 198.4 161.515 198.919 162.732 199.081C163.949 199.243 165.187 199.041 166.289 198.5C167.392 197.96 168.309 197.105 168.926 196.043C169.338 195.335 169.605 194.552 169.714 193.74C169.822 192.928 169.768 192.102 169.556 191.311C169.344 190.519 168.978 189.777 168.478 189.128C167.978 188.479 167.355 187.935 166.644 187.527Z" fill="white" stroke="#942B35" stroke-miterlimit="10"/>
<path d="M167.511 195.682C169.04 193.493 168.506 190.479 166.316 188.949C164.127 187.42 161.113 187.955 159.584 190.144C158.054 192.333 158.589 195.347 160.778 196.877C162.967 198.406 165.982 197.871 167.511 195.682Z" fill="white" stroke="#942B35" stroke-miterlimit="10"/>
<path d="M165.259 189.951C164.67 189.611 163.994 189.453 163.316 189.497C162.638 189.541 161.988 189.786 161.448 190.199C160.909 190.613 160.504 191.177 160.285 191.821C160.067 192.464 160.044 193.158 160.219 193.815C160.395 194.472 160.762 195.062 161.273 195.51C161.784 195.958 162.416 196.245 163.09 196.333C163.764 196.422 164.45 196.309 165.059 196.008C165.669 195.708 166.176 195.233 166.515 194.644C166.97 193.855 167.092 192.918 166.857 192.038C166.621 191.158 166.047 190.408 165.259 189.951Z" fill="white" stroke="#942B35" stroke-miterlimit="10"/>
<path d="M164.557 191.159C164.207 190.959 163.806 190.868 163.405 190.896C163.003 190.924 162.619 191.07 162.3 191.316C161.982 191.563 161.743 191.898 161.615 192.28C161.487 192.661 161.474 193.072 161.58 193.461C161.685 193.85 161.903 194.199 162.206 194.463C162.509 194.728 162.884 194.897 163.284 194.949C163.683 195.001 164.089 194.934 164.45 194.756C164.811 194.577 165.111 194.296 165.312 193.947C165.446 193.715 165.533 193.458 165.568 193.192C165.602 192.926 165.584 192.655 165.514 192.396C165.444 192.137 165.323 191.894 165.159 191.682C164.995 191.47 164.79 191.292 164.557 191.159Z" fill="white" stroke="#942B35" stroke-miterlimit="10"/>
<path d="M168.817 220.584C172.865 217.67 173.785 212.027 170.872 207.978C167.959 203.93 162.315 203.01 158.267 205.923C154.218 208.837 153.298 214.48 156.212 218.528C159.125 222.577 164.768 223.497 168.817 220.584Z" fill="white" stroke="#942B35" stroke-miterlimit="10"/>
<path d="M164.681 220.798C168.85 220.17 171.72 216.282 171.093 212.114C170.465 207.946 166.577 205.075 162.409 205.703C158.241 206.33 155.37 210.218 155.998 214.386C156.625 218.554 160.513 221.425 164.681 220.798Z" fill="white" stroke="#942B35" stroke-miterlimit="10"/>
<path d="M167.947 217.66C170.382 215.225 170.382 211.278 167.947 208.844C165.513 206.41 161.566 206.41 159.132 208.844C156.697 211.278 156.697 215.225 159.132 217.66C161.566 220.094 165.513 220.094 167.947 217.66Z" fill="white" stroke="#942B35" stroke-miterlimit="10"/>
<path d="M163.541 218.087C166.211 218.087 168.376 215.923 168.376 213.252C168.376 210.582 166.211 208.417 163.541 208.417C160.87 208.417 158.706 210.582 158.706 213.252C158.706 215.923 160.87 218.087 163.541 218.087Z" fill="white" stroke="#942B35" stroke-miterlimit="10"/>
<path d="M163.541 216.689C165.439 216.689 166.977 215.15 166.977 213.252C166.977 211.355 165.439 209.816 163.541 209.816C161.643 209.816 160.104 211.355 160.104 213.252C160.104 215.15 161.643 216.689 163.541 216.689Z" fill="white" stroke="#942B35" stroke-miterlimit="10"/>
<path d="M162.52 211.472C162.171 211.673 161.89 211.973 161.712 212.334C161.534 212.695 161.467 213.1 161.518 213.499C161.57 213.898 161.739 214.273 162.004 214.576C162.268 214.879 162.617 215.097 163.005 215.203C163.393 215.308 163.804 215.297 164.185 215.169C164.567 215.042 164.902 214.804 165.149 214.486C165.396 214.168 165.543 213.785 165.572 213.383C165.601 212.982 165.511 212.581 165.312 212.231C165.18 211.997 165.002 211.792 164.789 211.627C164.577 211.462 164.334 211.34 164.074 211.27C163.814 211.199 163.543 211.181 163.277 211.215C163.01 211.25 162.752 211.337 162.52 211.472Z" fill="white" stroke="#942B35" stroke-miterlimit="10"/>
<path d="M181.141 232.442C186.128 232.442 190.172 228.399 190.172 223.411C190.172 218.424 186.128 214.38 181.141 214.38C176.153 214.38 172.11 218.424 172.11 223.411C172.11 228.399 176.153 232.442 181.141 232.442Z" fill="white" stroke="#942B35" stroke-miterlimit="10"/>
<path d="M181.141 231.044C185.356 231.044 188.773 227.626 188.773 223.411C188.773 219.196 185.356 215.779 181.141 215.779C176.925 215.779 173.508 219.196 173.508 223.411C173.508 227.626 176.925 231.044 181.141 231.044Z" fill="white" stroke="#942B35" stroke-miterlimit="10"/>
<path d="M181.14 229.645C184.583 229.645 187.374 226.854 187.374 223.411C187.374 219.968 184.583 217.177 181.14 217.177C177.698 217.177 174.907 219.968 174.907 223.411C174.907 226.854 177.698 229.645 181.14 229.645Z" fill="white" stroke="#942B35" stroke-miterlimit="10"/>
<path d="M181.141 228.246C183.811 228.246 185.976 226.082 185.976 223.411C185.976 220.741 183.811 218.576 181.141 218.576C178.47 218.576 176.306 220.741 176.306 223.411C176.306 226.082 178.47 228.246 181.141 228.246Z" fill="white" stroke="#942B35" stroke-miterlimit="10"/>
<path d="M181.141 226.848C183.039 226.848 184.577 225.309 184.577 223.411C184.577 221.513 183.039 219.975 181.141 219.975C179.243 219.975 177.704 221.513 177.704 223.411C177.704 225.309 179.243 226.848 181.141 226.848Z" fill="white" stroke="#942B35" stroke-miterlimit="10"/>
<path d="M181.141 225.449C182.266 225.449 183.178 224.537 183.178 223.411C183.178 222.285 182.266 221.373 181.141 221.373C180.015 221.373 179.103 222.285 179.103 223.411C179.103 224.537 180.015 225.449 181.141 225.449Z" fill="white" stroke="#942B35" stroke-miterlimit="10"/>
<path d="M207.345 216.005C208.867 211.255 206.251 206.171 201.501 204.649C196.752 203.127 191.667 205.743 190.145 210.493C188.623 215.242 191.239 220.327 195.989 221.849C200.738 223.371 205.823 220.755 207.345 216.005Z" fill="white" stroke="#942B35" stroke-miterlimit="10"/>
<path d="M194.927 219.864C196.235 220.618 197.736 220.967 199.242 220.867C200.748 220.768 202.191 220.224 203.388 219.305C204.585 218.385 205.482 217.132 205.967 215.702C206.452 214.273 206.502 212.732 206.111 211.274C205.72 209.817 204.905 208.508 203.771 207.513C202.636 206.518 201.231 205.881 199.735 205.684C198.239 205.487 196.717 205.739 195.364 206.406C194.01 207.073 192.885 208.127 192.13 209.434C191.628 210.302 191.302 211.261 191.17 212.256C191.039 213.25 191.106 214.26 191.365 215.229C191.625 216.198 192.073 217.106 192.685 217.901C193.296 218.696 194.058 219.363 194.927 219.864Z" fill="white" stroke="#942B35" stroke-miterlimit="10"/>
<path d="M203.488 217.293C205.719 214.671 205.402 210.736 202.779 208.505C200.157 206.275 196.223 206.592 193.992 209.214C191.761 211.836 192.078 215.77 194.701 218.001C197.323 220.232 201.257 219.915 203.488 217.293Z" fill="white" stroke="#942B35" stroke-miterlimit="10"/>
<path d="M203.51 214.072C203.961 211.44 202.194 208.94 199.562 208.489C196.93 208.038 194.43 209.806 193.979 212.438C193.527 215.069 195.295 217.569 197.927 218.02C200.559 218.472 203.059 216.704 203.51 214.072Z" fill="white" stroke="#942B35" stroke-miterlimit="10"/>
<path d="M198.741 216.689C200.639 216.689 202.177 215.15 202.177 213.252C202.177 211.355 200.639 209.816 198.741 209.816C196.843 209.816 195.304 211.355 195.304 213.252C195.304 215.15 196.843 216.689 198.741 216.689Z" fill="white" stroke="#942B35" stroke-miterlimit="10"/>
<path d="M197.724 215.024C198.074 215.224 198.475 215.317 198.876 215.289C199.278 215.262 199.663 215.116 199.982 214.871C200.301 214.625 200.54 214.29 200.669 213.908C200.798 213.527 200.811 213.116 200.706 212.727C200.601 212.338 200.384 211.989 200.081 211.723C199.778 211.458 199.403 211.288 199.004 211.236C198.604 211.183 198.198 211.25 197.837 211.428C197.476 211.606 197.176 211.887 196.974 212.236C196.704 212.705 196.631 213.262 196.772 213.785C196.913 214.308 197.255 214.754 197.724 215.024Z" fill="white" stroke="#942B35" stroke-miterlimit="10"/>
<path d="M198.741 201.957C203.729 201.957 207.772 197.914 207.772 192.926C207.772 187.938 203.729 183.895 198.741 183.895C193.753 183.895 189.71 187.938 189.71 192.926C189.71 197.914 193.753 201.957 198.741 201.957Z" fill="white" stroke="#942B35" stroke-miterlimit="10"/>
<path d="M198.741 200.559C202.956 200.559 206.373 197.142 206.373 192.926C206.373 188.711 202.956 185.294 198.741 185.294C194.526 185.294 191.108 188.711 191.108 192.926C191.108 197.142 194.526 200.559 198.741 200.559Z" fill="white" stroke="#942B35" stroke-miterlimit="10"/>
<path d="M201.858 198.325C202.919 197.708 203.774 196.791 204.315 195.688C204.856 194.586 205.058 193.348 204.896 192.131C204.734 190.914 204.215 189.772 203.405 188.849C202.594 187.927 201.529 187.265 200.343 186.947C199.157 186.629 197.904 186.669 196.741 187.063C195.578 187.457 194.557 188.186 193.808 189.159C193.059 190.132 192.615 191.305 192.532 192.53C192.449 193.756 192.731 194.978 193.342 196.043C193.749 196.754 194.293 197.377 194.943 197.877C195.592 198.376 196.334 198.743 197.125 198.955C197.916 199.167 198.742 199.221 199.554 199.113C200.366 199.004 201.149 198.737 201.858 198.325Z" fill="white" stroke="#942B35" stroke-miterlimit="10"/>
<path d="M201.161 197.118C201.989 196.64 202.657 195.927 203.08 195.07C203.503 194.213 203.663 193.249 203.538 192.301C203.414 191.353 203.012 190.463 202.382 189.744C201.752 189.025 200.923 188.508 200 188.26C199.076 188.012 198.1 188.043 197.194 188.349C196.289 188.656 195.494 189.224 194.911 189.982C194.329 190.74 193.984 191.654 193.92 192.608C193.856 193.561 194.077 194.513 194.554 195.342C195.195 196.453 196.251 197.264 197.49 197.597C198.728 197.93 200.049 197.758 201.161 197.118Z" fill="white" stroke="#942B35" stroke-miterlimit="10"/>
<path d="M200.459 195.905C201.048 195.566 201.523 195.059 201.824 194.45C202.125 193.841 202.239 193.156 202.151 192.482C202.062 191.808 201.776 191.175 201.329 190.664C200.881 190.152 200.291 189.785 199.635 189.609C198.978 189.433 198.284 189.455 197.641 189.673C196.997 189.891 196.432 190.295 196.018 190.834C195.604 191.373 195.359 192.023 195.314 192.701C195.269 193.379 195.427 194.055 195.766 194.644C196.221 195.434 196.971 196.01 197.851 196.247C198.732 196.483 199.67 196.36 200.459 195.905Z" fill="white" stroke="#942B35" stroke-miterlimit="10"/>
<path d="M199.762 194.693C200.11 194.491 200.391 194.19 200.569 193.829C200.746 193.467 200.813 193.061 200.76 192.662C200.707 192.262 200.537 191.888 200.271 191.585C200.005 191.282 199.655 191.065 199.266 190.961C198.877 190.857 198.466 190.871 198.084 191C197.703 191.13 197.369 191.369 197.123 191.689C196.878 192.008 196.733 192.393 196.706 192.795C196.679 193.197 196.773 193.598 196.974 193.947C197.107 194.179 197.286 194.383 197.498 194.546C197.711 194.71 197.954 194.829 198.213 194.899C198.472 194.968 198.742 194.986 199.008 194.95C199.274 194.915 199.53 194.828 199.762 194.693Z" fill="white" stroke="#942B35" stroke-miterlimit="10"/>
<path d="M181.141 220.592C190.807 220.592 198.643 212.756 198.643 203.089C198.643 193.423 190.807 185.587 181.141 185.587C171.474 185.587 163.638 193.423 163.638 203.089C163.638 212.756 171.474 220.592 181.141 220.592Z" fill="#942B35" stroke="#942B35" stroke-miterlimit="10"/>
<path d="M181.141 217.879C189.309 217.879 195.93 211.258 195.93 203.089C195.93 194.921 189.309 188.3 181.141 188.3C172.973 188.3 166.351 194.921 166.351 203.089C166.351 211.258 172.973 217.879 181.141 217.879Z" fill="white" stroke="#942B35" stroke-miterlimit="10"/>
<path d="M183.871 214.86C190.369 213.346 194.409 206.85 192.895 200.352C191.38 193.854 184.885 189.814 178.386 191.328C171.888 192.843 167.848 199.339 169.363 205.837C170.877 212.335 177.373 216.375 183.871 214.86Z" fill="#942B35" stroke="#942B35" stroke-miterlimit="10"/>
<path d="M183.262 212.222C188.303 211.046 191.436 206.006 190.26 200.965C189.084 195.924 184.044 192.79 179.003 193.966C173.962 195.142 170.829 200.182 172.005 205.223C173.181 210.264 178.22 213.398 183.262 212.222Z" fill="white" stroke="#942B35" stroke-miterlimit="10"/>
<path d="M181.14 209.749C184.819 209.749 187.8 206.767 187.8 203.089C187.8 199.411 184.819 196.429 181.14 196.429C177.462 196.429 174.48 199.411 174.48 203.089C174.48 206.767 177.462 209.749 181.14 209.749Z" fill="#942B35" stroke="#942B35" stroke-miterlimit="10"/>
<path d="M181.141 207.041C183.323 207.041 185.092 205.272 185.092 203.089C185.092 200.907 183.323 199.138 181.141 199.138C178.958 199.138 177.189 200.907 177.189 203.089C177.189 205.272 178.958 207.041 181.141 207.041Z" fill="white" stroke="#942B35" stroke-miterlimit="10"/>
<path d="M329.943 231.008C324.674 231.008 319.523 229.446 315.142 226.518C310.761 223.591 307.347 219.431 305.331 214.563C303.314 209.695 302.787 204.338 303.815 199.171C304.843 194.003 307.38 189.256 311.105 185.531C314.831 181.805 319.578 179.268 324.746 178.24C329.913 177.212 335.27 177.74 340.137 179.756C345.005 181.772 349.166 185.187 352.093 189.568C355.02 193.949 356.583 199.099 356.583 204.368C356.575 211.431 353.765 218.202 348.771 223.196C343.777 228.19 337.006 231 329.943 231.008ZM329.943 184.202C325.954 184.202 322.055 185.384 318.739 187.6C315.422 189.816 312.838 192.966 311.311 196.651C309.785 200.336 309.386 204.39 310.164 208.302C310.942 212.214 312.863 215.808 315.683 218.628C318.503 221.448 322.097 223.369 326.008 224.147C329.92 224.925 333.975 224.526 337.66 222.999C341.345 221.473 344.495 218.888 346.711 215.572C348.926 212.256 350.109 208.357 350.109 204.368C350.103 199.021 347.977 193.895 344.196 190.115C340.415 186.334 335.289 184.207 329.943 184.202Z" fill="#C13E4A"/>
<path d="M329.943 222.044C326.447 222.044 323.029 221.007 320.123 219.065C317.216 217.123 314.95 214.362 313.613 211.132C312.275 207.902 311.925 204.348 312.607 200.92C313.289 197.491 314.972 194.341 317.444 191.869C319.916 189.397 323.066 187.714 326.494 187.032C329.923 186.35 333.477 186.7 336.707 188.038C339.937 189.376 342.697 191.641 344.639 194.548C346.582 197.455 347.618 200.872 347.618 204.368C347.613 209.054 345.748 213.547 342.435 216.86C339.121 220.174 334.629 222.038 329.943 222.044ZM329.943 193.184C327.726 193.182 325.559 193.838 323.715 195.068C321.871 196.299 320.434 198.049 319.585 200.097C318.737 202.145 318.515 204.398 318.947 206.572C319.38 208.746 320.448 210.743 322.016 212.31C323.584 213.877 325.582 214.943 327.756 215.374C329.93 215.805 332.184 215.581 334.231 214.731C336.278 213.881 338.027 212.442 339.256 210.597C340.485 208.753 341.139 206.585 341.136 204.368C341.132 201.4 339.952 198.554 337.854 196.454C335.756 194.354 332.911 193.172 329.943 193.166V193.184Z" fill="#C13E4A"/>
<path d="M329.943 213.093C328.217 213.093 326.53 212.581 325.096 211.622C323.661 210.664 322.543 209.301 321.882 207.707C321.222 206.113 321.049 204.358 321.386 202.666C321.723 200.974 322.553 199.419 323.774 198.199C324.994 196.979 326.548 196.148 328.241 195.811C329.933 195.475 331.687 195.647 333.282 196.308C334.876 196.968 336.238 198.086 337.197 199.521C338.156 200.956 338.667 202.643 338.667 204.368C338.665 206.681 337.745 208.899 336.109 210.535C334.474 212.17 332.256 213.09 329.943 213.093ZM329.943 201.775C329.43 201.775 328.929 201.927 328.502 202.212C328.076 202.497 327.744 202.902 327.547 203.376C327.351 203.85 327.3 204.371 327.4 204.874C327.5 205.377 327.747 205.839 328.109 206.202C328.472 206.564 328.934 206.811 329.437 206.911C329.94 207.011 330.461 206.96 330.935 206.764C331.409 206.567 331.814 206.235 332.099 205.809C332.384 205.382 332.536 204.881 332.536 204.368C332.535 203.681 332.261 203.022 331.775 202.536C331.289 202.05 330.63 201.776 329.943 201.775Z" fill="#942B35"/>
<path d="M260.071 76.6425C260.071 76.6425 262.011 75.3105 262.41 73.641C262.81 71.9716 258.139 71.4876 257.322 71.2212C256.505 70.9548 255.422 71.9538 255.204 73.0905C254.987 74.2271 254.671 75.1773 255.036 75.4437C255.4 75.7101 258.845 76.6957 260.071 76.6425Z" fill="#E19199" fill-opacity="0.1" stroke="#942B35" stroke-miterlimit="10"/>
<path d="M253.06 79.16C253.06 79.16 258.739 82.0771 260.675 80.3011C262.61 78.5251 260.706 76.9933 259.387 75.9588C258.272 75.1384 257.102 74.3966 255.884 73.7388L253.06 79.16Z" fill="#E19199" fill-opacity="0.1" stroke="#942B35" stroke-miterlimit="10"/>
<path d="M255.262 151.887L255.653 154.493L255.853 151.812L255.262 151.887Z" fill="#942B35"/>
<path d="M256.692 125.545C257.225 130.99 257.242 136.474 256.745 141.924L255.83 151.976C255.801 152.033 255.753 152.08 255.695 152.108C255.636 152.137 255.57 152.146 255.507 152.134C255.443 152.122 255.385 152.09 255.341 152.042C255.297 151.994 255.269 151.934 255.262 151.869L250.116 98.6958L254.072 98.3096L256.692 125.545Z" fill="#942B35" stroke="#942B35" stroke-miterlimit="10"/>
<path d="M216.705 124.572L219.356 127.312L248.629 98.0432L245.974 95.3037L216.705 124.572Z" fill="#942B35" stroke="#942B35" stroke-miterlimit="10"/>
<path d="M217.749 115.587L216.143 113.942L214.885 115.17L216.492 116.816L217.749 115.587Z" fill="#942B35" stroke="#942B35" stroke-miterlimit="10"/>
<path d="M217.148 113.716L215.919 112.458L213.404 114.915L214.632 116.173L217.148 113.716Z" fill="#942B35" stroke="#942B35" stroke-miterlimit="10"/>
<path d="M217.402 123.666L208.727 129.301L214.57 120.763L231.215 104.508L234.052 107.412L217.402 123.666Z" fill="#942B35" stroke="#942B35" stroke-miterlimit="10"/>
<path d="M217.402 123.666L214.57 120.763L208.727 129.301L217.402 123.666Z" fill="white" stroke="#942B35" stroke-miterlimit="10"/>
<path d="M211.386 127.574L210.52 126.686L208.727 129.301L211.386 127.574Z" fill="#942B35" stroke="#942B35" stroke-miterlimit="10"/>
<path d="M219.005 115.297C218.618 115.033 218.152 114.912 217.685 114.953C217.218 114.994 216.78 115.195 216.445 115.522C216.11 115.85 215.898 116.283 215.846 116.748C215.794 117.214 215.905 117.683 216.159 118.077L219.747 123.649L224.489 119.018L219.005 115.297ZM220.146 121.638L217.371 117.864C216.967 117.313 216.927 116.683 217.26 116.354C217.593 116.025 218.228 116.088 218.766 116.505L222.473 119.369L220.146 121.638Z" fill="white" stroke="#942B35" stroke-miterlimit="10"/>
<path d="M254.112 92.227L249.739 90.7929L254.179 80.5409C254.305 80.2532 254.533 80.0225 254.819 79.8936C255.106 79.7648 255.43 79.747 255.728 79.8438C256.028 79.9421 256.28 80.1486 256.435 80.4229C256.59 80.6972 256.637 81.0195 256.567 81.3268L254.112 92.227Z" fill="#942B35" stroke="#942B35" stroke-miterlimit="10"/>
<path d="M248.029 89.1055H249.361C251.434 89.1158 253.446 89.8104 255.084 91.0813L256.163 91.916L254.831 96.0008C254.294 97.6441 253.503 99.1932 252.487 100.592L251.368 102.132L250.884 103.908H250.56C248.92 103.907 247.324 103.381 246.005 102.408L245.414 101.964L246.036 100.068L246.133 97.8478C246.185 96.6875 246.357 95.5357 246.648 94.4113L248.029 89.1055Z" fill="#942B35" stroke="#942B35" stroke-miterlimit="10"/>
<path d="M250.742 93.1414C250.668 93.3646 250.53 93.5609 250.344 93.7055C250.159 93.8501 249.935 93.9365 249.7 93.9538C249.466 93.9711 249.231 93.9185 249.027 93.8026C248.822 93.6868 248.656 93.5129 248.55 93.303C248.444 93.093 248.403 92.8564 248.432 92.6229C248.46 92.3895 248.557 92.1698 248.71 91.9914C248.864 91.8131 249.066 91.6842 249.293 91.6209C249.519 91.5577 249.76 91.5631 249.983 91.6362C250.132 91.6845 250.27 91.7618 250.389 91.8638C250.509 91.9657 250.606 92.0903 250.677 92.2303C250.747 92.3703 250.79 92.5229 250.801 92.6793C250.812 92.8357 250.792 92.9927 250.742 93.1414Z" fill="#942B35" stroke="#942B35" stroke-miterlimit="10"/>
<path d="M254.219 94.2784C254.145 94.5031 254.007 94.7009 253.821 94.847C253.636 94.9931 253.411 95.0808 253.175 95.099C252.94 95.1173 252.704 95.0652 252.498 94.9494C252.292 94.8336 252.125 94.6594 252.018 94.4486C251.911 94.2379 251.869 94.0002 251.897 93.7656C251.925 93.531 252.023 93.31 252.176 93.1307C252.33 92.9513 252.534 92.8216 252.761 92.758C252.989 92.6944 253.23 92.6997 253.455 92.7732C253.604 92.8215 253.742 92.8988 253.862 93.0007C253.981 93.1026 254.079 93.2271 254.15 93.367C254.221 93.5069 254.263 93.6594 254.275 93.8158C254.287 93.9722 254.268 94.1294 254.219 94.2784Z" fill="#942B35" stroke="#942B35" stroke-miterlimit="10"/>
<path d="M323.914 35.9009C323.914 35.9009 316.605 41.1934 310.629 41.9482C304.653 42.703 284.18 43.5377 276.308 45.5002C268.436 47.4626 253.833 53.3634 248.549 57.0442C243.265 60.7249 243.643 62.8162 244.074 67.487C244.504 72.1579 247.705 77.1174 247.705 77.1174C247.705 77.1174 244.842 84.4745 245.801 85.691C246.76 86.9076 250.059 86.0329 252.132 83.3911C254.206 80.7493 257.664 72.078 261.518 67.6158C265.372 63.1536 270.505 62.2878 272.725 61.9415C274.945 61.5952 278.892 63.3578 279.003 67.1629C279.085 68.8533 278.701 70.5337 277.894 72.0212C277.087 73.5087 275.887 74.7462 274.425 75.5989C271.624 77.2462 259.138 80.3897 256.665 83.3467C254.192 86.3038 258.912 88.9056 262.353 88.5282C265.794 88.1508 268.569 86.1839 273.613 84.0882C278.945 81.9197 284.573 80.5622 290.307 80.0611C295.56 79.6704 307.428 78.8845 312.791 73.5565C318.155 68.2285 322.786 61.906 327.168 59.575C331.55 57.244 337.109 54.9929 337.109 54.9929L323.914 35.9009Z" fill="#E19199" fill-opacity="0.1" stroke="#942B35" stroke-miterlimit="10"/>
<path d="M327.164 59.5794L327.559 59.3707L317.458 43.3867L316.716 44.8741L322.213 63.5221C323.914 61.8438 325.556 60.4319 327.164 59.5794Z" fill="#942B35"/>
<path d="M261.296 51.2681C261.296 51.2681 248.98 60.8007 247.59 64.113C246.2 67.4252 247.706 77.1133 247.706 77.1133C247.706 77.1133 253.477 64.0819 256.27 60.6231C259.063 57.1644 266.869 51.2991 266.869 51.2991" stroke="#942B35" stroke-miterlimit="10"/>
<path d="M314.683 40.5496L328.247 67.2917L339.72 61.28L328.251 33.7031L314.683 40.5496Z" fill="white" stroke="#942B35" stroke-miterlimit="10"/>
<path d="M331.541 61.5645C331.457 61.8126 331.301 62.0302 331.093 62.1901C330.886 62.35 330.636 62.4451 330.374 62.4635C330.113 62.4818 329.852 62.4227 329.624 62.2934C329.396 62.1641 329.211 61.9704 329.092 61.7366C328.974 61.5028 328.927 61.2393 328.958 60.979C328.989 60.7187 329.095 60.4733 329.265 60.2733C329.434 60.0734 329.659 59.928 329.911 59.8552C330.162 59.7824 330.43 59.7854 330.68 59.864C330.85 59.9173 331.007 60.0039 331.142 60.1187C331.278 60.2336 331.389 60.3744 331.469 60.5328C331.549 60.6913 331.597 60.8642 331.609 61.0414C331.622 61.2185 331.599 61.3964 331.541 61.5645Z" fill="white" stroke="#942B35" stroke-miterlimit="10"/>
<path d="M364.224 53.3059C364.224 53.3059 345.776 62.6299 344.378 63.7C343.722 64.1881 342.933 64.4649 342.116 64.4935C341.299 64.5221 340.493 64.301 339.804 63.8598C338.552 63.0073 324.584 33.872 324.584 33.872C324.584 33.872 324.14 32.065 324.584 30.7019C325.028 29.3388 342.943 18.332 342.943 18.332" fill="white"/>
<path d="M364.224 53.3059C364.224 53.3059 345.776 62.6299 344.378 63.7C343.722 64.1881 342.933 64.4649 342.116 64.4935C341.299 64.5221 340.493 64.301 339.804 63.8598C338.552 63.0073 324.584 33.872 324.584 33.872C324.584 33.872 324.14 32.065 324.584 30.7019C325.028 29.3388 342.943 18.332 342.943 18.332" stroke="#942B35" stroke-miterlimit="10"/>
</g>
<defs>
<clipPath id="clip0_5070_21290">
<rect width="222" height="222" fill="white" transform="translate(144 17)"/>
</clipPath>
</defs>
</svg>
