<svg width="24" height="24" viewBox="0 0 24 24" fill="none" xmlns="http://www.w3.org/2000/svg">
<path d="M20.0031 7.99818H16.0014C15.4489 7.99818 15.001 7.55028 15.001 6.99776V2.99609" stroke="#008764" stroke-width="1.5" stroke-linecap="round" stroke-linejoin="round"/>
<path d="M5.99805 7.99818V4.99693C5.99805 3.8919 6.89385 2.99609 7.99888 2.99609H15.1739C15.7045 2.99609 16.2133 3.20708 16.5885 3.58234L19.4176 6.41152C19.7929 6.78666 20.0039 7.29549 20.0039 7.82611V19.0028C20.0039 20.1078 19.1081 21.0036 18.003 21.0036H7.99888C6.89385 21.0036 5.99805 20.1078 5.99805 19.0028V18.0023" stroke="#008764" stroke-width="1.5" stroke-linecap="round" stroke-linejoin="round"/>
<path d="M9.5657 14.7515L6.56445 11.25" stroke="#008764" stroke-width="1.5" stroke-linecap="round" stroke-linejoin="round"/>
<path d="M6.56445 14.7515L9.5657 11.25" stroke="#008764" stroke-width="1.5" stroke-linecap="round" stroke-linejoin="round"/>
<rect x="2.99609" y="7.99805" width="10.0042" height="10.0042" rx="3" stroke="#008764" stroke-width="1.5" stroke-linecap="round" stroke-linejoin="round"/>
</svg>
