<svg width="25" height="26" viewBox="0 0 25 26" fill="none" xmlns="http://www.w3.org/2000/svg">
<path d="M14.5014 19.0019V20.1264C14.5014 20.7006 14.1103 21.2008 13.5541 21.3399L11.053 21.9652C10.2637 22.1622 9.49936 21.565 9.49936 20.7517V14.5001L4.29019 9.29088C4.10211 9.1038 3.99707 8.8487 3.99707 8.58359V5.99651C3.99707 5.44428 4.44526 4.99609 4.99749 4.99609H19.0033C19.5556 4.99609 20.0037 5.44428 20.0037 5.99651V6.99693" stroke="#26333B" stroke-width="1.5" stroke-linecap="round" stroke-linejoin="round"/>
<path fill-rule="evenodd" clip-rule="evenodd" d="M17.1151 16.2681L21.3848 11.9994C21.695 11.6892 21.695 11.186 21.3848 10.8769L20.1253 9.61736C19.8152 9.30723 19.312 9.30723 19.0029 9.61736L14.7341 13.8861C14.585 14.0352 14.501 14.2373 14.501 14.4474V16.5012H16.5538C16.7649 16.5012 16.966 16.4182 17.1151 16.2681Z" stroke="#26333B" stroke-width="1.5" stroke-linecap="round" stroke-linejoin="round"/>
</svg>
