<svg width="24" height="25" viewBox="0 0 24 25" fill="none" xmlns="http://www.w3.org/2000/svg">
<g id="Group">
<circle id="Oval" cx="12.0002" cy="13.0002" r="1.75073" stroke="white" stroke-width="1.5" stroke-linecap="round" stroke-linejoin="round"/>
<path id="Path" d="M12.0002 6.99976V8.00017" stroke="white" stroke-width="1.5" stroke-linecap="round" stroke-linejoin="round"/>
<path id="Path_2" d="M7.75545 8.75862L8.46274 9.46592" stroke="white" stroke-width="1.5" stroke-linecap="round" stroke-linejoin="round"/>
<path id="Path_3" d="M13.2397 11.7638L16.245 8.75854" stroke="white" stroke-width="1.5" stroke-linecap="round" stroke-linejoin="round"/>
<path id="Path_4" d="M8.49854 17.5041H15.5015" stroke="white" stroke-width="1.5" stroke-linecap="round" stroke-linejoin="round"/>
<path id="Path_5" d="M18.0029 13.0024H17.0024" stroke="white" stroke-width="1.5" stroke-linecap="round" stroke-linejoin="round"/>
<path id="Path_6" d="M6.99798 13.0024H5.99756" stroke="white" stroke-width="1.5" stroke-linecap="round" stroke-linejoin="round"/>
<path id="Path_7" fill-rule="evenodd" clip-rule="evenodd" d="M11.7188 3.99646C6.88611 4.19861 3.0552 8.14464 2.99614 12.9812C2.98728 15.8828 4.38049 18.6099 6.73674 20.3032C7.40374 20.7692 8.20012 21.0141 9.01368 21.0035H14.9942C15.7892 21.0154 16.5682 20.7787 17.2221 20.3263C20.4584 18.027 21.8055 13.8786 20.5377 10.1166C19.2699 6.35464 15.6866 3.86791 11.7188 3.99646Z" stroke="white" stroke-width="1.5" stroke-linecap="round" stroke-linejoin="round"/>
</g>
</svg>
