<svg width="32" height="32" viewBox="0 0 32 32" fill="none" xmlns="http://www.w3.org/2000/svg">
<rect width="32" height="32" rx="4" fill="#3B485B"/>
<path fill-rule="evenodd" clip-rule="evenodd" d="M16 17V17C14.343 17 13 15.657 13 14V14C13 12.343 14.343 11 16 11V11C17.657 11 19 12.343 19 14V14C19 15.657 17.657 17 16 17Z" stroke="white" stroke-width="1.5" stroke-linecap="round" stroke-linejoin="round"/>
<path fill-rule="evenodd" clip-rule="evenodd" d="M16 25C16 25 9 19.25 9 14C9 10.134 12.134 7 16 7C19.866 7 23 10.134 23 14C23 19.25 16 25 16 25Z" stroke="white" stroke-width="1.5" stroke-linecap="round" stroke-linejoin="round"/>
</svg>
