<svg width="361" height="228" viewBox="0 0 361 228" fill="none" xmlns="http://www.w3.org/2000/svg">
<rect y="0.5" width="361" height="227" rx="4" fill="#E19199" fill-opacity="0.1"/>
<path d="M317.364 178.9C319.212 171.832 324.964 146.072 320.044 114.98C314.264 78.3518 277.324 46.8718 242.308 35.6318C207.292 24.3918 158.792 67.7518 134.38 76.0998C109.968 84.4478 57.2881 87.3478 46.6881 123.644C37.6361 154.64 49.8881 173.924 53.6761 178.892L317.364 178.9Z" fill="#C13E4A"/>
<path opacity="0.8" d="M317.364 178.9C319.212 171.832 324.964 146.072 320.044 114.98C314.264 78.3518 277.324 46.8718 242.308 35.6318C207.292 24.3918 158.792 67.7518 134.38 76.0998C109.968 84.4478 57.2881 87.3478 46.6881 123.644C37.6361 154.64 49.8881 173.924 53.6761 178.892L317.364 178.9Z" fill="white"/>
<path d="M53.8965 166.488L129.628 103.22L161.872 131.376L225.476 102.588L298.844 159.528" stroke="#651A21" stroke-width="0.4" stroke-linecap="round" stroke-linejoin="round"/>
<path d="M112.868 117.184L119.3 115.012L122.516 118.452L128.612 113.924L131.152 115.736L134.704 111.932L143.844 120.804L145.368 117.364" stroke="#651A21" stroke-width="0.4" stroke-linecap="round" stroke-linejoin="round"/>
<path d="M198.86 114.828L209.184 113.02L210.708 117.724L215.956 114.648L219.34 118.812L230.176 112.476L235.592 115.736L238.3 113.02" stroke="#651A21" stroke-width="0.4" stroke-linecap="round" stroke-linejoin="round"/>
<path d="M308.349 143.474L308.349 143.473C308.217 141.501 308.932 139.433 309.643 137.378L309.699 137.214C310.435 135.085 311.145 132.965 310.993 130.883C310.848 128.922 309.844 126.991 308.805 124.992L308.801 124.985C307.77 123.002 306.707 120.954 306.533 118.816C306.365 116.75 307.069 114.606 307.76 112.506L307.783 112.435C308.487 110.292 309.167 108.195 308.985 106.182C308.803 104.169 307.761 102.227 306.685 100.244L306.648 100.175C305.594 98.2326 304.518 96.2493 304.309 94.1841C304.093 92.0478 304.762 89.8399 305.409 87.703L305.412 87.6946C306.066 85.5356 306.696 83.452 306.47 81.4993C306.227 79.4236 305.125 77.4802 303.989 75.537C303.949 75.4683 303.909 75.3996 303.869 75.3309C302.782 73.4738 301.691 71.6082 301.422 69.6763C301.106 67.4566 301.675 65.1668 302.225 62.9984L302.245 62.9183C302.793 60.7593 303.306 58.7335 302.987 56.935L302.987 56.9343C302.596 54.6786 301.344 52.7249 300.056 50.89C299.902 50.6696 299.746 50.4506 299.592 50.233C299.107 49.5498 298.632 48.8801 298.218 48.2213C297.672 47.3516 297.222 46.4859 296.991 45.6074L308.349 143.474ZM308.349 143.474C308.502 145.708 309.538 147.819 310.543 149.819L310.623 149.977C311.608 151.937 312.537 153.784 312.649 155.6M308.349 143.474L312.848 155.588M285.943 68.9859L285.943 68.9864C285.728 70.9071 284.687 72.7832 283.652 74.6505C283.613 74.72 283.575 74.7895 283.536 74.859C282.454 76.8133 281.405 78.7669 281.219 80.8299C281.046 82.7662 281.728 84.8131 282.439 86.935L282.447 86.9566C283.149 89.0523 283.875 91.2183 283.724 93.3343L283.724 93.3351C283.57 95.3738 282.551 97.357 281.551 99.3015L281.508 99.386C280.485 101.376 279.495 103.328 279.368 105.333C279.241 107.338 279.975 109.397 280.737 111.498L280.769 111.587C281.513 113.641 282.273 115.735 282.168 117.778L282.168 117.779C282.051 119.903 281.041 121.959 280.062 123.948L280.056 123.96C279.07 125.964 278.117 127.899 278.024 129.842C277.926 131.905 278.691 133.987 279.482 136.077L279.543 136.239C280.307 138.256 281.076 140.285 280.996 142.24L280.996 142.24C280.904 144.46 279.921 146.576 278.965 148.582L278.881 148.757C277.946 150.716 277.066 152.561 276.996 154.356C276.916 156.613 277.7 158.792 278.511 160.872C278.571 161.027 278.631 161.181 278.692 161.335C279.035 162.209 279.37 163.065 279.629 163.892C279.932 164.865 280.134 165.813 280.112 166.721L280.112 166.722C280.056 168.637 279.793 169.986 279.424 171.028C279.055 172.071 278.582 172.797 278.121 173.464C278.075 173.531 278.029 173.597 277.983 173.663C277.572 174.254 277.185 174.811 276.881 175.54C276.559 176.311 276.328 177.281 276.281 178.684L277 178.7H277.002H313.812C313.499 176.977 312.853 176.087 312.153 175.123C312.022 174.943 311.89 174.761 311.758 174.571C310.873 173.296 310.038 171.704 309.848 168.155M285.943 68.9859L310.048 168.144M285.943 68.9859C286.186 66.7704 285.552 64.5122 284.945 62.3748L284.927 62.3133C284.32 60.1787 283.75 58.1768 284.018 56.3777L285.943 68.9859ZM309.848 168.155L310.048 168.144M309.848 168.155C309.848 168.155 309.848 168.155 309.848 168.155L310.048 168.144M309.848 168.155C309.798 167.239 309.972 166.279 310.249 165.289C310.488 164.44 310.806 163.558 311.13 162.658C311.183 162.51 311.237 162.362 311.29 162.214C312.05 160.095 312.784 157.876 312.649 155.6M310.048 168.144C309.957 166.501 310.615 164.676 311.318 162.727C312.127 160.482 312.996 158.074 312.848 155.588M312.649 155.6C312.649 155.6 312.649 155.6 312.649 155.6L312.848 155.588M312.649 155.6C312.649 155.6 312.649 155.6 312.649 155.6L312.848 155.588M314.048 178.9C314.038 178.832 314.026 178.766 314.015 178.7L313.846 178.9H314.048Z" fill="#651A21" stroke="#651A21" stroke-width="0.4"/>
<path opacity="0.3" d="M308.349 143.474L308.349 143.473C308.217 141.501 308.932 139.433 309.643 137.378L309.699 137.214C310.435 135.085 311.145 132.965 310.993 130.883C310.848 128.922 309.844 126.991 308.805 124.992L308.801 124.985C307.77 123.002 306.707 120.954 306.533 118.816C306.365 116.75 307.069 114.606 307.76 112.506L307.783 112.435C308.487 110.292 309.167 108.195 308.985 106.182C308.803 104.169 307.761 102.227 306.685 100.244L306.648 100.175C305.594 98.2326 304.518 96.2493 304.309 94.1841C304.093 92.0478 304.762 89.8399 305.409 87.703L305.412 87.6946C306.066 85.5356 306.696 83.452 306.47 81.4993C306.227 79.4236 305.125 77.4802 303.989 75.537C303.949 75.4683 303.909 75.3996 303.869 75.3309C302.782 73.4738 301.691 71.6082 301.422 69.6763C301.106 67.4566 301.675 65.1668 302.225 62.9984L302.245 62.9183C302.793 60.7593 303.306 58.7335 302.987 56.935L302.987 56.9343C302.596 54.6786 301.344 52.7249 300.056 50.89C299.902 50.6696 299.746 50.4506 299.592 50.233C299.107 49.5498 298.632 48.8801 298.218 48.2213C297.672 47.3516 297.222 46.4859 296.991 45.6074L308.349 143.474ZM308.349 143.474C308.502 145.708 309.538 147.819 310.543 149.819L310.623 149.977C311.608 151.937 312.537 153.784 312.649 155.6M308.349 143.474L312.848 155.588M285.943 68.9859L285.943 68.9864C285.728 70.9071 284.687 72.7832 283.652 74.6505C283.613 74.72 283.575 74.7895 283.536 74.859C282.454 76.8133 281.405 78.7669 281.219 80.8299C281.046 82.7662 281.728 84.8131 282.439 86.935L282.447 86.9566C283.149 89.0523 283.875 91.2183 283.724 93.3343L283.724 93.3351C283.57 95.3738 282.551 97.357 281.551 99.3015L281.508 99.386C280.485 101.376 279.495 103.328 279.368 105.333C279.241 107.338 279.975 109.397 280.737 111.498L280.769 111.587C281.513 113.641 282.273 115.735 282.168 117.778L282.168 117.779C282.051 119.903 281.041 121.959 280.062 123.948L280.056 123.96C279.07 125.964 278.117 127.899 278.024 129.842C277.926 131.905 278.691 133.987 279.482 136.077L279.543 136.239C280.307 138.256 281.076 140.285 280.996 142.24L280.996 142.24C280.904 144.46 279.921 146.576 278.965 148.582L278.881 148.757C277.946 150.716 277.066 152.561 276.996 154.356C276.916 156.613 277.7 158.792 278.511 160.872C278.571 161.027 278.631 161.181 278.692 161.335C279.035 162.209 279.37 163.065 279.629 163.892C279.932 164.865 280.134 165.813 280.112 166.721L280.112 166.722C280.056 168.637 279.793 169.986 279.424 171.028C279.055 172.071 278.582 172.797 278.121 173.464C278.075 173.531 278.029 173.597 277.983 173.663C277.572 174.254 277.185 174.811 276.881 175.54C276.559 176.311 276.328 177.281 276.281 178.684L277 178.7H277.002H313.812C313.499 176.977 312.853 176.087 312.153 175.123C312.022 174.943 311.89 174.761 311.758 174.571C310.873 173.296 310.038 171.704 309.848 168.155M285.943 68.9859L310.048 168.144M285.943 68.9859C286.186 66.7704 285.552 64.5122 284.945 62.3748L284.927 62.3133C284.32 60.1787 283.75 58.1768 284.018 56.3777L285.943 68.9859ZM309.848 168.155L310.048 168.144M309.848 168.155C309.848 168.155 309.848 168.155 309.848 168.155L310.048 168.144M309.848 168.155C309.798 167.239 309.972 166.279 310.249 165.289C310.488 164.44 310.806 163.558 311.13 162.658C311.183 162.51 311.237 162.362 311.29 162.214C312.05 160.095 312.784 157.876 312.649 155.6M310.048 168.144C309.957 166.501 310.615 164.676 311.318 162.727C312.127 160.482 312.996 158.074 312.848 155.588M312.649 155.6C312.649 155.6 312.649 155.6 312.649 155.6L312.848 155.588M312.649 155.6C312.649 155.6 312.649 155.6 312.649 155.6L312.848 155.588M314.048 178.9C314.038 178.832 314.026 178.766 314.015 178.7L313.846 178.9H314.048Z" fill="white" stroke="#651A21" stroke-width="0.4"/>
<path d="M292.912 44.8721V177.184" stroke="#651A21" stroke-width="0.4" stroke-linecap="round" stroke-linejoin="round"/>
<path d="M298.696 58.7441L292.664 63.9521L287.728 57.3721" stroke="#651A21" stroke-width="0.4" stroke-linecap="round" stroke-linejoin="round"/>
<path d="M298.696 81.7723L292.664 86.9843L287.728 80.4043" stroke="#651A21" stroke-width="0.4" stroke-linecap="round" stroke-linejoin="round"/>
<path d="M298.696 103.432L292.664 108.64L287.728 102.06" stroke="#651A21" stroke-width="0.4" stroke-linecap="round" stroke-linejoin="round"/>
<path d="M298.696 129.204L292.664 134.412L287.728 127.832" stroke="#651A21" stroke-width="0.4" stroke-linecap="round" stroke-linejoin="round"/>
<path d="M298.696 155.247L292.664 160.455L287.728 153.875" stroke="#651A21" stroke-width="0.4" stroke-linecap="round" stroke-linejoin="round"/>
<path d="M266.564 170.875C266.71 173.53 267.338 174.729 268.004 175.69C268.103 175.833 268.202 175.969 268.299 176.103C268.813 176.814 269.283 177.463 269.518 178.7H242.085L241.582 178.677C241.62 177.658 241.79 176.953 242.023 176.393C242.248 175.854 242.534 175.443 242.841 175.002C242.876 174.953 242.91 174.903 242.944 174.853C243.29 174.355 243.646 173.808 243.925 173.022C244.203 172.238 244.4 171.224 244.444 169.786L244.444 169.786C244.463 169.099 244.312 168.385 244.084 167.655C243.89 167.033 243.637 166.388 243.379 165.732C243.335 165.62 243.291 165.507 243.247 165.395C242.639 163.84 242.056 162.221 242.116 160.547L242.116 160.547C242.163 159.215 242.816 157.842 243.517 156.37L243.573 156.253C244.285 154.756 245.024 153.166 245.092 151.497C245.154 150.023 244.576 148.497 244.007 146.992L243.961 146.869C243.369 145.305 242.802 143.759 242.876 142.23L242.876 142.229C242.943 140.787 243.65 139.348 244.389 137.846L244.39 137.845C245.12 136.361 245.879 134.817 245.968 133.219C246.053 131.676 245.482 130.097 244.927 128.562L244.906 128.504C244.337 126.931 243.793 125.404 243.888 123.921C243.982 122.438 244.716 120.99 245.482 119.502L245.516 119.435C246.261 117.986 247.028 116.496 247.143 114.963L247.143 114.963C247.263 113.368 246.716 111.738 246.19 110.175L246.186 110.161C245.653 108.574 245.146 107.056 245.275 105.622L245.275 105.622C245.413 104.093 246.189 102.642 246.998 101.18C247.027 101.128 247.056 101.075 247.086 101.022C247.857 99.6296 248.637 98.2196 248.799 96.7744C248.986 95.1068 248.514 93.4127 248.063 91.819L248.046 91.7578C247.595 90.1675 247.176 88.6889 247.366 87.357C247.615 85.6817 248.503 84.2167 249.426 82.8368C249.541 82.664 249.658 82.4923 249.773 82.3216C250.116 81.8156 250.452 81.3188 250.744 80.8322C251.135 80.1803 251.456 79.5308 251.614 78.8749L251.614 78.8747C251.915 77.6207 252.163 76.4003 252.389 75.2833L252.393 75.2609C252.618 74.1507 252.821 73.1463 253.036 72.3061C253.253 71.4562 253.478 70.7958 253.737 70.3703C253.866 70.1587 253.996 70.019 254.124 69.9398C254.246 69.8643 254.375 69.8387 254.525 69.8681C254.788 69.9225 255.022 70.1747 255.231 70.7079C255.436 71.2314 255.593 71.96 255.744 72.8453C255.819 73.2799 255.892 73.7503 255.969 74.2482C256.205 75.7636 256.48 77.5338 256.955 79.3234L256.955 79.3235C257.131 79.9868 257.47 80.6385 257.88 81.2901C258.189 81.7832 258.545 82.2848 258.907 82.7951C259.022 82.9578 259.138 83.1214 259.254 83.2859C260.215 84.6568 261.143 86.1087 261.439 87.7828C261.676 89.1269 261.294 90.6392 260.883 92.2648L260.873 92.3045C260.463 93.9248 260.034 95.6463 260.266 97.3196C260.467 98.7744 261.287 100.177 262.097 101.562C262.128 101.614 262.158 101.666 262.189 101.718C263.038 103.171 263.855 104.614 264.033 106.151L264.033 106.152C264.209 107.599 263.747 109.145 263.259 110.761L263.25 110.79C262.77 112.377 262.271 114.029 262.433 115.628C262.584 117.174 263.394 118.662 264.182 120.108L264.212 120.163C265.019 121.645 265.795 123.087 265.929 124.578C266.062 126.069 265.559 127.626 265.032 129.23L265.014 129.287C264.499 130.853 263.97 132.463 264.097 134.016C264.226 135.626 265.026 137.165 265.795 138.644C266.573 140.141 267.318 141.576 267.425 143.031L267.425 143.031L266.764 170.864M266.564 170.875L266.764 170.864M266.564 170.875C266.564 170.875 266.564 170.875 266.564 170.875L266.764 170.864M266.564 170.875C266.526 170.184 266.657 169.46 266.864 168.719C267.043 168.083 267.281 167.423 267.523 166.751C267.562 166.64 267.602 166.53 267.642 166.419C268.21 164.835 268.753 163.186 268.652 161.496M266.764 170.864C266.695 169.637 267.186 168.275 267.71 166.82C268.315 165.143 268.963 163.343 268.852 161.484M268.652 161.496L268.852 161.484M268.652 161.496C268.652 161.496 268.652 161.496 268.652 161.496L268.852 161.484M268.652 161.496L268.852 161.484M265.452 152.437C265.452 152.437 265.452 152.437 265.452 152.438L265.652 152.424L265.452 152.437C265.452 152.437 265.452 152.437 265.452 152.437ZM269.756 178.9C269.745 178.832 269.734 178.765 269.722 178.7L269.553 178.9H269.756Z" fill="#651A21" stroke="#651A21" stroke-width="0.4"/>
<path opacity="0.3" d="M266.564 170.875C266.71 173.53 267.338 174.729 268.004 175.69C268.103 175.833 268.202 175.969 268.299 176.103C268.813 176.814 269.283 177.463 269.518 178.7H242.085L241.582 178.677C241.62 177.658 241.79 176.953 242.023 176.393C242.248 175.854 242.534 175.443 242.841 175.002C242.876 174.953 242.91 174.903 242.944 174.853C243.29 174.355 243.646 173.808 243.925 173.022C244.203 172.238 244.4 171.224 244.444 169.786L244.444 169.786C244.463 169.099 244.312 168.385 244.084 167.655C243.89 167.033 243.637 166.388 243.379 165.732C243.335 165.62 243.291 165.507 243.247 165.395C242.639 163.84 242.056 162.221 242.116 160.547L242.116 160.547C242.163 159.215 242.816 157.842 243.517 156.37L243.573 156.253C244.285 154.756 245.024 153.166 245.092 151.497C245.154 150.023 244.576 148.497 244.007 146.992L243.961 146.869C243.369 145.305 242.802 143.759 242.876 142.23L242.876 142.229C242.943 140.787 243.65 139.348 244.389 137.846L244.39 137.845C245.12 136.361 245.879 134.817 245.968 133.219C246.053 131.676 245.482 130.097 244.927 128.562L244.906 128.504C244.337 126.931 243.793 125.404 243.888 123.921C243.982 122.438 244.716 120.99 245.482 119.502L245.516 119.435C246.261 117.986 247.028 116.496 247.143 114.963L247.143 114.963C247.263 113.368 246.716 111.738 246.19 110.175L246.186 110.161C245.653 108.574 245.146 107.056 245.275 105.622L245.275 105.622C245.413 104.093 246.189 102.642 246.998 101.18C247.027 101.128 247.056 101.075 247.086 101.022C247.857 99.6296 248.637 98.2196 248.799 96.7744C248.986 95.1068 248.514 93.4127 248.063 91.819L248.046 91.7578C247.595 90.1675 247.176 88.6889 247.366 87.357C247.615 85.6817 248.503 84.2167 249.426 82.8368C249.541 82.664 249.658 82.4923 249.773 82.3216C250.116 81.8156 250.452 81.3188 250.744 80.8322C251.135 80.1803 251.456 79.5308 251.614 78.8749L251.614 78.8747C251.915 77.6207 252.163 76.4003 252.389 75.2833L252.393 75.2609C252.618 74.1507 252.821 73.1463 253.036 72.3061C253.253 71.4562 253.478 70.7958 253.737 70.3703C253.866 70.1587 253.996 70.019 254.124 69.9398C254.246 69.8643 254.375 69.8387 254.525 69.8681C254.788 69.9225 255.022 70.1747 255.231 70.7079C255.436 71.2314 255.593 71.96 255.744 72.8453C255.819 73.2799 255.892 73.7503 255.969 74.2482C256.205 75.7636 256.48 77.5338 256.955 79.3234L256.955 79.3235C257.131 79.9868 257.47 80.6385 257.88 81.2901C258.189 81.7832 258.545 82.2848 258.907 82.7951C259.022 82.9578 259.138 83.1214 259.254 83.2859C260.215 84.6568 261.143 86.1087 261.439 87.7828C261.676 89.1269 261.294 90.6392 260.883 92.2648L260.873 92.3045C260.463 93.9248 260.034 95.6463 260.266 97.3196C260.467 98.7744 261.287 100.177 262.097 101.562C262.128 101.614 262.158 101.666 262.189 101.718C263.038 103.171 263.855 104.614 264.033 106.151L264.033 106.152C264.209 107.599 263.747 109.145 263.259 110.761L263.25 110.79C262.77 112.377 262.271 114.029 262.433 115.628C262.584 117.174 263.394 118.662 264.182 120.108L264.212 120.163C265.019 121.645 265.795 123.087 265.929 124.578C266.062 126.069 265.559 127.626 265.032 129.23L265.014 129.287C264.499 130.853 263.97 132.463 264.097 134.016C264.226 135.626 265.026 137.165 265.795 138.644C266.573 140.141 267.318 141.576 267.425 143.031L267.425 143.031L266.764 170.864M266.564 170.875L266.764 170.864M266.564 170.875C266.564 170.875 266.564 170.875 266.564 170.875L266.764 170.864M266.564 170.875C266.526 170.184 266.657 169.46 266.864 168.719C267.043 168.083 267.281 167.423 267.523 166.751C267.562 166.64 267.602 166.53 267.642 166.419C268.21 164.835 268.753 163.186 268.652 161.496M266.764 170.864C266.695 169.637 267.186 168.275 267.71 166.82C268.315 165.143 268.963 163.343 268.852 161.484M268.652 161.496L268.852 161.484M268.652 161.496C268.652 161.496 268.652 161.496 268.652 161.496L268.852 161.484M268.652 161.496L268.852 161.484M265.452 152.437C265.452 152.437 265.452 152.437 265.452 152.438L265.652 152.424L265.452 152.437C265.452 152.437 265.452 152.437 265.452 152.437ZM269.756 178.9C269.745 178.832 269.734 178.765 269.722 178.7L269.553 178.9H269.756Z" fill="white" stroke="#651A21" stroke-width="0.4"/>
<path d="M253.96 78.7676V177.616" stroke="#651A21" stroke-width="0.4" stroke-linecap="round" stroke-linejoin="round"/>
<path d="M258.284 89.1329L253.776 93.0249L250.088 88.1089" stroke="#651A21" stroke-width="0.4" stroke-linecap="round" stroke-linejoin="round"/>
<path d="M258.284 106.336L253.776 110.228L250.088 105.312" stroke="#651A21" stroke-width="0.4" stroke-linecap="round" stroke-linejoin="round"/>
<path d="M258.284 122.516L253.776 126.408L250.088 121.492" stroke="#651A21" stroke-width="0.4" stroke-linecap="round" stroke-linejoin="round"/>
<path d="M258.284 141.772L253.776 145.664L250.088 140.748" stroke="#651A21" stroke-width="0.4" stroke-linecap="round" stroke-linejoin="round"/>
<path d="M258.284 161.228L253.776 165.12L250.088 160.204" stroke="#651A21" stroke-width="0.4" stroke-linecap="round" stroke-linejoin="round"/>
<path d="M76.8563 173.068L76.8563 173.068C76.8286 172.556 76.9263 172.024 77.0784 171.482C77.2085 171.019 77.3816 170.539 77.557 170.052C77.5866 169.97 77.6162 169.888 77.6457 169.805C78.0586 168.653 78.4496 167.463 78.3763 166.245C78.3168 165.281 77.8208 164.295 77.2819 163.223L77.2413 163.143C76.6962 162.058 76.1236 160.895 76.0404 159.658C75.9672 158.568 76.3608 157.427 76.7445 156.315L76.7764 156.223C77.1764 155.062 77.555 153.928 77.4765 152.819L76.8563 173.068ZM76.8563 173.068C76.9643 175.013 77.4214 175.894 77.9111 176.601C77.9849 176.708 78.0583 176.809 78.1304 176.908C78.4924 177.408 78.8195 177.86 78.9956 178.701H59.1072H59.104L58.7913 178.691C58.8265 177.987 58.9487 177.497 59.1121 177.107C59.2732 176.723 59.4763 176.43 59.6979 176.11C59.7236 176.073 59.7495 176.035 59.7757 175.997C60.0265 175.633 60.2871 175.231 60.4905 174.652C60.6935 174.075 60.8364 173.332 60.8679 172.283L60.8679 172.283C60.8828 171.771 60.7714 171.243 60.6053 170.709C60.4628 170.252 60.2763 169.778 60.0877 169.299C60.0567 169.221 60.0256 169.142 59.9947 169.063C59.5522 167.933 59.1316 166.769 59.1759 165.564L59.1759 165.564C59.2093 164.608 59.6799 163.618 60.1917 162.543L60.2296 162.463C60.7466 161.376 61.2897 160.209 61.3398 158.982C61.3906 157.897 60.9672 156.774 60.5553 155.682L60.5226 155.596C60.0932 154.457 59.6861 153.344 59.7397 152.247L59.7398 152.246C59.7894 151.217 60.2978 150.167 60.8363 149.063L60.8462 149.042C61.3721 147.964 61.9234 146.833 61.9877 145.692C62.0515 144.56 61.6326 143.402 61.2301 142.29L61.2126 142.241C60.7978 141.095 60.4068 139.994 60.4756 138.93C60.5444 137.865 61.0725 136.822 61.6304 135.737L61.6566 135.686C62.1971 134.635 62.7592 133.542 62.8434 132.416L62.8434 132.416C62.9306 131.243 62.5292 130.048 62.1482 128.913L62.1431 128.898C61.754 127.739 61.3897 126.647 61.4832 125.619L61.4832 125.619C61.5828 124.52 62.1415 123.474 62.7305 122.409C62.7527 122.369 62.775 122.329 62.7973 122.288C63.3559 121.28 63.9281 120.247 64.0467 119.187L64.0467 119.187C64.1839 117.961 63.8343 116.716 63.5049 115.558L63.4967 115.529C63.1645 114.361 62.8607 113.293 63.0018 112.338C63.1826 111.133 63.8225 110.077 64.4942 109.073C64.577 108.949 64.6606 108.826 64.7437 108.703C64.9942 108.334 65.2411 107.969 65.455 107.612C65.7407 107.136 65.9775 106.657 66.0944 106.172L66.0945 106.171C66.3125 105.262 66.4926 104.377 66.6573 103.568L66.6593 103.558C66.825 102.744 66.9747 102.009 67.1327 101.396C67.2917 100.779 67.4541 100.305 67.6379 100.004C67.7292 99.8537 67.8175 99.7601 67.9 99.709C67.9767 99.6615 68.0551 99.646 68.1485 99.6648L68.1486 99.6648C68.31 99.6972 68.4698 99.8543 68.6206 100.239C68.7674 100.613 68.8801 101.137 68.9904 101.78C69.0443 102.095 69.0974 102.437 69.1536 102.799C69.3247 103.9 69.5252 105.191 69.8706 106.496L69.8707 106.496C70.0013 106.987 70.2513 107.466 70.5503 107.942C70.7765 108.302 71.0365 108.668 71.2998 109.039C71.3838 109.158 71.4681 109.276 71.5518 109.396C72.2511 110.392 72.9192 111.439 73.1309 112.643C73.2946 113.605 73.0216 114.691 72.7242 115.874L72.7155 115.908C72.4198 117.085 72.1076 118.347 72.2779 119.576L72.2779 119.576C72.4268 120.647 73.0289 121.676 73.6164 122.68C73.6391 122.719 73.6617 122.757 73.6843 122.796C74.3029 123.855 74.8909 124.894 75.0213 126C75.1416 127.039 74.8076 128.167 74.451 129.352L74.4393 129.39C74.0924 130.543 73.7295 131.748 73.845 132.889C73.9601 134.025 74.5514 135.115 75.1199 136.162L75.1457 136.21C75.7317 137.289 76.2872 138.327 76.3848 139.399C76.4824 140.47 76.1219 141.591 75.7385 142.759L75.7206 142.814C75.3489 143.946 74.9623 145.123 75.0526 146.261L75.0526 146.261M76.8563 173.068L75.0526 146.261M75.0526 146.261C75.1484 147.445 75.7357 148.574 76.294 149.647M75.0526 146.261L76.294 149.647M76.294 149.647L76.2956 149.65M76.294 149.647L76.2956 149.65M76.2956 149.65C76.8636 150.742 77.4 151.774 77.4765 152.819L76.2956 149.65Z" fill="#651A21" stroke="#651A21" stroke-width="0.4"/>
<path opacity="0.3" d="M76.8563 173.068L76.8563 173.068C76.8286 172.556 76.9263 172.024 77.0784 171.482C77.2085 171.019 77.3816 170.539 77.557 170.052C77.5866 169.97 77.6162 169.888 77.6457 169.805C78.0586 168.653 78.4496 167.463 78.3763 166.245C78.3168 165.281 77.8208 164.295 77.2819 163.223L77.2413 163.143C76.6962 162.058 76.1236 160.895 76.0404 159.658C75.9672 158.568 76.3608 157.427 76.7445 156.315L76.7764 156.223C77.1764 155.062 77.555 153.928 77.4765 152.819L76.8563 173.068ZM76.8563 173.068C76.9643 175.013 77.4214 175.894 77.9111 176.601C77.9849 176.708 78.0583 176.809 78.1304 176.908C78.4924 177.408 78.8195 177.86 78.9956 178.701H59.1072H59.104L58.7913 178.691C58.8265 177.987 58.9487 177.497 59.1121 177.107C59.2732 176.723 59.4763 176.43 59.6979 176.11C59.7236 176.073 59.7495 176.035 59.7757 175.997C60.0265 175.633 60.2871 175.231 60.4905 174.652C60.6935 174.075 60.8364 173.332 60.8679 172.283L60.8679 172.283C60.8828 171.771 60.7714 171.243 60.6053 170.709C60.4628 170.252 60.2763 169.778 60.0877 169.299C60.0567 169.221 60.0256 169.142 59.9947 169.063C59.5522 167.933 59.1316 166.769 59.1759 165.564L59.1759 165.564C59.2093 164.608 59.6799 163.618 60.1917 162.543L60.2296 162.463C60.7466 161.376 61.2897 160.209 61.3398 158.982C61.3906 157.897 60.9672 156.774 60.5553 155.682L60.5226 155.596C60.0932 154.457 59.6861 153.344 59.7397 152.247L59.7398 152.246C59.7894 151.217 60.2978 150.167 60.8363 149.063L60.8462 149.042C61.3721 147.964 61.9234 146.833 61.9877 145.692C62.0515 144.56 61.6326 143.402 61.2301 142.29L61.2126 142.241C60.7978 141.095 60.4068 139.994 60.4756 138.93C60.5444 137.865 61.0725 136.822 61.6304 135.737L61.6566 135.686C62.1971 134.635 62.7592 133.542 62.8434 132.416L62.8434 132.416C62.9306 131.243 62.5292 130.048 62.1482 128.913L62.1431 128.898C61.754 127.739 61.3897 126.647 61.4832 125.619L61.4832 125.619C61.5828 124.52 62.1415 123.474 62.7305 122.409C62.7527 122.369 62.775 122.329 62.7973 122.288C63.3559 121.28 63.9281 120.247 64.0467 119.187L64.0467 119.187C64.1839 117.961 63.8343 116.716 63.5049 115.558L63.4967 115.529C63.1645 114.361 62.8607 113.293 63.0018 112.338C63.1826 111.133 63.8225 110.077 64.4942 109.073C64.577 108.949 64.6606 108.826 64.7437 108.703C64.9942 108.334 65.2411 107.969 65.455 107.612C65.7407 107.136 65.9775 106.657 66.0944 106.172L66.0945 106.171C66.3125 105.262 66.4926 104.377 66.6573 103.568L66.6593 103.558C66.825 102.744 66.9747 102.009 67.1327 101.396C67.2917 100.779 67.4541 100.305 67.6379 100.004C67.7292 99.8537 67.8175 99.7601 67.9 99.709C67.9767 99.6615 68.0551 99.646 68.1485 99.6648L68.1486 99.6648C68.31 99.6972 68.4698 99.8543 68.6206 100.239C68.7674 100.613 68.8801 101.137 68.9904 101.78C69.0443 102.095 69.0974 102.437 69.1536 102.799C69.3247 103.9 69.5252 105.191 69.8706 106.496L69.8707 106.496C70.0013 106.987 70.2513 107.466 70.5503 107.942C70.7765 108.302 71.0365 108.668 71.2998 109.039C71.3838 109.158 71.4681 109.276 71.5518 109.396C72.2511 110.392 72.9192 111.439 73.1309 112.643C73.2946 113.605 73.0216 114.691 72.7242 115.874L72.7155 115.908C72.4198 117.085 72.1076 118.347 72.2779 119.576L72.2779 119.576C72.4268 120.647 73.0289 121.676 73.6164 122.68C73.6391 122.719 73.6617 122.757 73.6843 122.796C74.3029 123.855 74.8909 124.894 75.0213 126C75.1416 127.039 74.8076 128.167 74.451 129.352L74.4393 129.39C74.0924 130.543 73.7295 131.748 73.845 132.889C73.9601 134.025 74.5514 135.115 75.1199 136.162L75.1457 136.21C75.7317 137.289 76.2872 138.327 76.3848 139.399C76.4824 140.47 76.1219 141.591 75.7385 142.759L75.7206 142.814C75.3489 143.946 74.9623 145.123 75.0526 146.261L75.0526 146.261M76.8563 173.068L75.0526 146.261M75.0526 146.261C75.1484 147.445 75.7357 148.574 76.294 149.647M75.0526 146.261L76.294 149.647M76.294 149.647L76.2956 149.65M76.294 149.647L76.2956 149.65M76.2956 149.65C76.8636 150.742 77.4 151.774 77.4765 152.819L76.2956 149.65Z" fill="white" stroke="#651A21" stroke-width="0.4"/>
<path d="M67.748 106.076V177.964" stroke="#651A21" stroke-width="0.4" stroke-linecap="round" stroke-linejoin="round"/>
<path d="M70.8876 113.613L67.6116 116.441L64.9316 112.869" stroke="#651A21" stroke-width="0.4" stroke-linecap="round" stroke-linejoin="round"/>
<path d="M70.8876 126.124L67.6116 128.956L64.9316 125.38" stroke="#651A21" stroke-width="0.4" stroke-linecap="round" stroke-linejoin="round"/>
<path d="M70.8876 137.892L67.6116 140.724L64.9316 137.148" stroke="#651A21" stroke-width="0.4" stroke-linecap="round" stroke-linejoin="round"/>
<path d="M70.8876 151.896L67.6116 154.724L64.9316 151.152" stroke="#651A21" stroke-width="0.4" stroke-linecap="round" stroke-linejoin="round"/>
<path d="M70.8876 166.048L67.6116 168.876L64.9316 165.3" stroke="#651A21" stroke-width="0.4" stroke-linecap="round" stroke-linejoin="round"/>
<path d="M62.5999 61.9607C62.1999 61.5607 61.5159 61.1607 60.3239 61.1407C57.6479 61.0767 58.3639 62.9727 57.6479 63.4287C56.9319 63.8847 56.7319 63.1687 56.0119 63.6247C55.2919 64.0807 55.6119 64.9967 55.0319 65.1287C54.4519 65.2607 53.6599 64.5407 52.9399 64.9967C52.2199 65.4527 52.2239 65.8447 51.8959 65.8447C51.5679 65.8447 50.9159 65.5847 50.5239 65.8447C50.1319 66.1047 49.6719 66.4327 49.6719 66.4327H56.6959" stroke="#651A21" stroke-width="0.4" stroke-linecap="round" stroke-linejoin="round"/>
<path d="M63.3444 63.1281L63.1404 63.0361C63.1086 62.7927 63.0269 62.5585 62.9004 62.3481" stroke="#651A21" stroke-width="0.4" stroke-linecap="round" stroke-linejoin="round"/>
<path d="M57.5918 66.4322H66.1998C66.2459 66.2331 66.2182 66.024 66.1218 65.8438C66.0255 65.6636 65.867 65.5244 65.6758 65.4522C64.9558 65.0522 64.6318 65.3882 64.3678 65.0522C64.1038 64.7162 64.8878 64.0562 63.6718 63.3042" stroke="#651A21" stroke-width="0.4" stroke-linecap="round" stroke-linejoin="round"/>
<path d="M102.748 66.4321H119.836C119.836 66.4321 120.42 64.6881 118.284 63.5241C116.148 62.3601 115.18 63.3281 114.404 62.3561C113.628 61.3841 116.536 58.8641 110.716 56.3561C110.716 56.3561 110.316 50.9241 102.368 50.7281C98.9358 50.6441 97.3798 51.6441 96.5518 52.9201" stroke="#651A21" stroke-width="0.4" stroke-linecap="round" stroke-linejoin="round"/>
<path d="M97.5322 66.4321H100.38" stroke="#651A21" stroke-width="0.4" stroke-linecap="round" stroke-linejoin="round"/>
<path d="M92.5554 66.4322H70.7314C70.7314 66.4322 72.0914 65.4642 73.2554 64.6882C74.4194 63.9122 76.3594 64.6882 77.3314 64.6882C78.3034 64.6882 78.2994 63.5242 80.4354 62.1642C82.5714 60.8042 84.8994 62.9402 86.6474 62.5642C88.3954 62.1882 87.4234 59.4602 89.5594 58.1002C91.6954 56.7402 92.2754 58.8762 94.4114 57.5162C95.0074 57.1162 95.2714 56.4242 95.5154 55.5962" stroke="#651A21" stroke-width="0.4" stroke-linecap="round" stroke-linejoin="round"/>
<path d="M260.508 66.4328H271.088C271.088 66.4328 271.452 65.3528 270.128 64.6328C268.804 63.9128 268.204 64.5128 267.728 63.9088C267.252 63.3048 269.052 61.7488 265.444 60.1848C265.444 60.1848 265.204 56.8208 260.276 56.7008C258.152 56.6488 257.188 57.2688 256.676 58.0568" stroke="#651A21" stroke-width="0.4" stroke-linecap="round" stroke-linejoin="round"/>
<path d="M257.28 66.4321H259.04" stroke="#651A21" stroke-width="0.4" stroke-linecap="round" stroke-linejoin="round"/>
<path d="M256.028 59.6997C255.955 60.1694 255.713 60.5963 255.348 60.8997C254.024 61.7437 253.664 60.4197 252.34 61.2597C251.016 62.0997 251.62 63.7837 250.54 64.0277C249.46 64.2717 248.016 62.9437 246.692 63.7837C245.368 64.6237 245.372 65.3477 244.772 65.3477C244.172 65.3477 242.968 64.8677 242.248 65.3477C241.528 65.8277 240.684 66.4277 240.684 66.4277H254.2" stroke="#651A21" stroke-width="0.4" stroke-linecap="round" stroke-linejoin="round"/>
<path d="M205.176 99.5803H215.756C215.756 99.5803 216.116 98.5003 214.796 97.7803C213.476 97.0603 212.872 97.6603 212.396 97.0563C211.92 96.4523 213.716 94.8923 210.112 93.3323C210.112 93.3323 209.872 89.9683 204.944 89.8483C202.82 89.7963 201.856 90.4163 201.344 91.2043" stroke="#651A21" stroke-width="0.4" stroke-linecap="round" stroke-linejoin="round"/>
<path d="M201.948 99.5796H203.708" stroke="#651A21" stroke-width="0.4" stroke-linecap="round" stroke-linejoin="round"/>
<path d="M200.696 92.8638C200.621 93.3335 200.378 93.76 200.012 94.0638C198.692 94.9038 198.332 93.5838 197.008 94.4238C195.684 95.2638 196.288 96.9478 195.204 97.1878C194.12 97.4278 192.684 96.1078 191.36 96.9478C190.036 97.7878 190.04 98.5118 189.436 98.5118C188.832 98.5118 187.636 98.0318 186.912 98.5118C186.188 98.9918 185.352 99.5918 185.352 99.5918H198.864" stroke="#651A21" stroke-width="0.4" stroke-linecap="round" stroke-linejoin="round"/>
<path d="M117.512 178.9H119.448V171.088C119.487 169.623 120.096 168.231 121.146 167.209C122.196 166.186 123.604 165.614 125.07 165.614C126.535 165.614 127.943 166.186 128.993 167.209C130.043 168.231 130.653 169.623 130.692 171.088V178.9H132.628V171.088C132.582 169.114 131.766 167.236 130.354 165.855C128.941 164.475 127.045 163.702 125.07 163.702C123.095 163.702 121.198 164.475 119.786 165.855C118.373 167.236 117.557 169.114 117.512 171.088V178.9Z" fill="#BDBDBD" stroke="#651A21" stroke-width="0.4" stroke-miterlimit="10"/>
<path d="M101.04 175.46H113.712L113.712 83.336H101.04L101.04 175.46Z" fill="#E19199" stroke="#651A21" stroke-width="0.4" stroke-miterlimit="10"/>
<path d="M101.04 175.46H106.584L106.584 83.336H101.04L101.04 175.46Z" fill="white" stroke="#651A21" stroke-width="0.4" stroke-miterlimit="10"/>
<path d="M101.04 89.832H113.712V82.54H101.04V89.832Z" fill="#651A21" stroke="#651A21" stroke-width="0.4" stroke-miterlimit="10"/>
<path d="M101.04 89.832H106.584V82.54H101.04V89.832Z" fill="#651A21" stroke="#651A21" stroke-width="0.4" stroke-miterlimit="10"/>
<path d="M98.5397 175.612H101.056V128.508H98.5397V175.612Z" fill="#BDBDBD" stroke="#651A21" stroke-width="0.4" stroke-miterlimit="10"/>
<path d="M93.7764 175.612H99.7324V128.508H93.7764V175.612Z" fill="white" stroke="#651A21" stroke-width="0.4" stroke-miterlimit="10"/>
<path d="M84.3998 175.612H99.2158V143.504H84.3998V175.612Z" fill="#C13E4A" stroke="#651A21" stroke-width="0.4" stroke-linecap="round" stroke-linejoin="round"/>
<path d="M84.3998 163.221H99.2158V143.505H84.3998V163.221Z" fill="#651A21" stroke="#651A21" stroke-width="0.4" stroke-miterlimit="10"/>
<path d="M84.3998 150.448H99.2158V143.5H84.3998V150.448Z" fill="#E19199" stroke="#651A21" stroke-width="0.4" stroke-miterlimit="10"/>
<path d="M84.3998 153.54H99.2158V150.384H84.3998V153.54Z" fill="white" stroke="#651A21" stroke-width="0.4" stroke-miterlimit="10"/>
<path d="M82.2799 175.612H84.7959V128.508H82.2799V175.612Z" fill="#BDBDBD" stroke="#651A21" stroke-width="0.4" stroke-miterlimit="10"/>
<path d="M77.5157 175.612H83.4717V128.508H77.5157V175.612Z" fill="white" stroke="#651A21" stroke-width="0.4" stroke-miterlimit="10"/>
<path d="M75.2203 129.24H102.904V126.368H75.2203V129.24Z" fill="#C13E4A" stroke="#651A21" stroke-width="0.4" stroke-linecap="round" stroke-linejoin="round"/>
<path d="M75.22 129.24H82.04V126.368H75.22V129.24Z" fill="#C13E4A" stroke="#651A21" stroke-width="0.4" stroke-linecap="round" stroke-linejoin="round"/>
<path d="M75.2203 175.616H102.904V174.776H75.2203V175.616Z" fill="white" stroke="#651A21" stroke-width="0.4" stroke-miterlimit="10"/>
<path d="M75.22 175.616H82.04V174.776H75.22V175.616Z" fill="white" stroke="#651A21" stroke-width="0.4" stroke-miterlimit="10"/>
<path d="M88.9363 148.652H95.3203V144.46H88.9363V148.652Z" fill="#651A21" stroke="#651A21" stroke-width="0.4" stroke-miterlimit="10"/>
<path d="M90.3041 147.756H93.9521V145.36H90.3041V147.756Z" fill="white" stroke="#651A21" stroke-width="0.4" stroke-miterlimit="10"/>
<path d="M88.9363 144.963H95.3203V144.463H88.9363V144.963Z" fill="white" stroke="#651A21" stroke-width="0.4" stroke-miterlimit="10"/>
<path d="M93.5285 152.644H97.5205V150.948H93.5285V152.644Z" fill="white" stroke="#651A21" stroke-width="0.4" stroke-miterlimit="10"/>
<path d="M93.5285 151.748H97.5205V150.948H93.5285V151.748Z" fill="white" stroke="#651A21" stroke-width="0.4" stroke-miterlimit="10"/>
<path d="M86.4396 152.644H90.4316V150.948H86.4396V152.644Z" fill="white" stroke="#651A21" stroke-width="0.4" stroke-miterlimit="10"/>
<path d="M86.4396 151.748H90.4316V150.948H86.4396V151.748Z" fill="white" stroke="#651A21" stroke-width="0.4" stroke-miterlimit="10"/>
<path d="M78.964 157.152H82.04V145.944H78.964V157.152Z" fill="white" stroke="#651A21" stroke-width="0.4" stroke-miterlimit="10"/>
<path d="M78.9679 157.152H81.2559V145.944H78.9679V157.152Z" fill="white" stroke="#651A21" stroke-width="0.4" stroke-miterlimit="10"/>
<path d="M79.4526 156.649H80.7686V146.453H79.4526V156.649Z" fill="white" stroke="#651A21" stroke-width="0.4" stroke-miterlimit="10"/>
<path d="M82.5084 153.588H83.3564V152.284H82.5084V153.588Z" fill="white" stroke="#651A21" stroke-width="0.4" stroke-miterlimit="10"/>
<path d="M71.252 178.893H145.916V175.525H71.252V178.893Z" fill="#E19199" stroke="#651A21" stroke-width="0.4" stroke-miterlimit="10"/>
<path d="M71.2481 178.893H80.4521V175.525H71.2481V178.893Z" fill="#E19199" stroke="#651A21" stroke-width="0.4" stroke-miterlimit="10"/>
<path d="M234.232 178.9H236.168V171.088C236.168 169.598 236.761 168.168 237.814 167.114C238.868 166.06 240.298 165.468 241.788 165.468C243.279 165.468 244.708 166.06 245.762 167.114C246.816 168.168 247.408 169.598 247.408 171.088V178.9H249.344V171.088C249.344 169.084 248.548 167.162 247.131 165.745C245.714 164.328 243.792 163.532 241.788 163.532C239.784 163.532 237.863 164.328 236.446 165.745C235.028 167.162 234.232 169.084 234.232 171.088V178.9Z" fill="#942B35" stroke="#651A21" stroke-width="0.4" stroke-miterlimit="10"/>
<path d="M217.756 175.46H230.428V83.336H217.756V175.46Z" fill="#E19199" stroke="#651A21" stroke-width="0.4" stroke-miterlimit="10"/>
<path d="M217.756 175.46H223.3V83.336H217.756V175.46Z" fill="white" stroke="#651A21" stroke-width="0.4" stroke-miterlimit="10"/>
<path d="M217.756 90.6274H230.428V83.3354H217.756V90.6274Z" fill="#651A21" stroke="#651A21" stroke-width="0.4" stroke-miterlimit="10"/>
<path d="M217.756 90.6274H223.3V83.3354H217.756V90.6274Z" fill="#651A21" stroke="#651A21" stroke-width="0.4" stroke-miterlimit="10"/>
<path d="M215.256 175.612H217.772V128.508H215.256V175.612Z" fill="#BDBDBD" stroke="#651A21" stroke-width="0.4" stroke-miterlimit="10"/>
<path d="M210.492 175.612H216.448V128.508H210.492V175.612Z" fill="white" stroke="#651A21" stroke-width="0.4" stroke-miterlimit="10"/>
<path d="M201.116 175.612H215.932V143.504H201.116V175.612Z" fill="#C13E4A" stroke="#651A21" stroke-width="0.4" stroke-linecap="round" stroke-linejoin="round"/>
<path d="M201.116 163.221H215.932V143.505H201.116V163.221Z" fill="#651A21" stroke="#651A21" stroke-width="0.4" stroke-miterlimit="10"/>
<path d="M201.116 150.448H215.932V143.5H201.116V150.448Z" fill="#E19199" stroke="#651A21" stroke-width="0.4" stroke-miterlimit="10"/>
<path d="M201.116 153.54H215.932V150.384H201.116V153.54Z" fill="white" stroke="#651A21" stroke-width="0.4" stroke-miterlimit="10"/>
<path d="M198.996 175.612H201.512V128.508H198.996V175.612Z" fill="#BDBDBD" stroke="#651A21" stroke-width="0.4" stroke-miterlimit="10"/>
<path d="M194.232 175.612H200.188V128.508H194.232V175.612Z" fill="white" stroke="#651A21" stroke-width="0.4" stroke-miterlimit="10"/>
<path d="M191.936 129.24H219.62V126.368H191.936V129.24Z" fill="#651A21" stroke="#651A21" stroke-width="0.4" stroke-linecap="round" stroke-linejoin="round"/>
<path d="M191.936 129.24H198.756V126.368H191.936V129.24Z" fill="#651A21" stroke="#651A21" stroke-width="0.4" stroke-linecap="round" stroke-linejoin="round"/>
<path d="M191.936 175.616H219.62V174.776H191.936V175.616Z" fill="white" stroke="#651A21" stroke-width="0.4" stroke-miterlimit="10"/>
<path d="M191.936 175.616H198.756V174.776H191.936V175.616Z" fill="white" stroke="#651A21" stroke-width="0.4" stroke-miterlimit="10"/>
<path d="M205.656 148.652H212.04V144.46H205.656V148.652Z" fill="#651A21" stroke="#651A21" stroke-width="0.4" stroke-miterlimit="10"/>
<path d="M207.024 147.756H210.672V145.36H207.024V147.756Z" fill="white" stroke="#651A21" stroke-width="0.4" stroke-miterlimit="10"/>
<path d="M205.656 144.963H212.04V144.463H205.656V144.963Z" fill="white" stroke="#651A21" stroke-width="0.4" stroke-miterlimit="10"/>
<path d="M210.24 152.644H214.232V150.948H210.24V152.644Z" fill="white" stroke="#651A21" stroke-width="0.4" stroke-miterlimit="10"/>
<path d="M210.24 151.748H214.232V150.948H210.24V151.748Z" fill="white" stroke="#651A21" stroke-width="0.4" stroke-miterlimit="10"/>
<path d="M203.156 152.644H207.148V150.948H203.156V152.644Z" fill="white" stroke="#651A21" stroke-width="0.4" stroke-miterlimit="10"/>
<path d="M203.156 151.748H207.148V150.948H203.156V151.748Z" fill="white" stroke="#651A21" stroke-width="0.4" stroke-miterlimit="10"/>
<path d="M195.68 157.152H198.756V145.944H195.68V157.152Z" fill="white" stroke="#651A21" stroke-width="0.4" stroke-miterlimit="10"/>
<path d="M195.684 157.152H197.972V145.944H195.684V157.152Z" fill="white" stroke="#651A21" stroke-width="0.4" stroke-miterlimit="10"/>
<path d="M196.168 156.649H197.484V146.453H196.168V156.649Z" fill="white" stroke="#651A21" stroke-width="0.4" stroke-miterlimit="10"/>
<path d="M197.368 146.468C195.952 147.376 195.148 149.74 195.112 149.848L195.616 150.016C195.616 149.992 196.28 148.06 197.368 147.128V146.468Z" fill="white" stroke="#651A21" stroke-width="0.4" stroke-miterlimit="10"/>
<path d="M196.868 147.808C196.88 147.807 196.891 147.804 196.902 147.799C196.913 147.794 196.922 147.787 196.93 147.778C196.938 147.769 196.944 147.758 196.948 147.747C196.951 147.736 196.953 147.724 196.952 147.712L196.904 146.868C196.903 146.856 196.9 146.845 196.895 146.834C196.891 146.824 196.884 146.815 196.875 146.807C196.867 146.799 196.857 146.793 196.846 146.789C196.835 146.785 196.823 146.783 196.812 146.784C196.8 146.784 196.789 146.787 196.778 146.792C196.768 146.797 196.758 146.804 196.751 146.812C196.743 146.821 196.737 146.831 196.733 146.842C196.729 146.853 196.727 146.864 196.728 146.876L196.776 147.724C196.776 147.736 196.778 147.747 196.783 147.758C196.787 147.769 196.794 147.778 196.803 147.786C196.812 147.794 196.822 147.8 196.833 147.804C196.844 147.808 196.856 147.809 196.868 147.808Z" fill="white" stroke="#651A21" stroke-width="0.2" stroke-miterlimit="10"/>
<path d="M196.256 148.56C196.268 148.56 196.279 148.557 196.29 148.553C196.3 148.549 196.31 148.542 196.318 148.534C196.326 148.526 196.333 148.516 196.337 148.505C196.342 148.495 196.344 148.483 196.344 148.472V147.624C196.344 147.612 196.342 147.601 196.337 147.59C196.333 147.579 196.326 147.57 196.318 147.561C196.31 147.553 196.3 147.547 196.29 147.542C196.279 147.538 196.268 147.536 196.256 147.536C196.244 147.536 196.233 147.538 196.222 147.542C196.212 147.547 196.202 147.553 196.194 147.561C196.186 147.57 196.179 147.579 196.175 147.59C196.17 147.601 196.168 147.612 196.168 147.624V148.472C196.168 148.483 196.17 148.495 196.175 148.505C196.179 148.516 196.186 148.526 196.194 148.534C196.202 148.542 196.212 148.549 196.222 148.553C196.233 148.557 196.244 148.56 196.256 148.56Z" fill="white" stroke="#651A21" stroke-width="0.2" stroke-miterlimit="10"/>
<path d="M195.832 149.5C195.855 149.495 195.875 149.482 195.889 149.462C195.902 149.443 195.908 149.419 195.904 149.396L195.712 148.5C195.71 148.488 195.706 148.477 195.699 148.467C195.693 148.458 195.685 148.449 195.675 148.443C195.665 148.436 195.654 148.432 195.643 148.43C195.631 148.428 195.619 148.429 195.608 148.432C195.585 148.437 195.565 148.45 195.552 148.47C195.54 148.489 195.535 148.513 195.54 148.536L195.728 149.432C195.734 149.454 195.747 149.474 195.767 149.486C195.786 149.499 195.809 149.504 195.832 149.5Z" fill="white" stroke="#651A21" stroke-width="0.2" stroke-miterlimit="10"/>
<path d="M195.596 152.332C195.596 152.332 195.36 154.592 195.408 154.78C195.456 154.968 196.492 155.204 196.492 155.204" stroke="#651A21" stroke-width="0.4" stroke-miterlimit="10"/>
<path d="M194.312 156.24L196.004 155.84C196.217 155.786 196.402 155.658 196.528 155.479C196.654 155.3 196.713 155.082 196.692 154.864L196.44 152.436L195.908 152.492L196.164 154.92C196.168 155.009 196.142 155.096 196.091 155.169C196.04 155.241 195.966 155.294 195.88 155.32L194.188 155.72L194.312 156.24Z" fill="black"/>
<path d="M194.962 155.887L194.259 155.967L194.413 157.318L195.116 157.238L194.962 155.887Z" fill="black" stroke="#651A21" stroke-width="0.4" stroke-miterlimit="10"/>
<path d="M194.549 152.278L193.846 152.358L194.258 155.97L194.961 155.89L194.549 152.278Z" fill="white" stroke="#651A21" stroke-width="0.4" stroke-miterlimit="10"/>
<path d="M195.016 149.452L196.064 149.932L195.932 150.496L196.716 151.02L196.5 152.456L193.84 153.156L193.232 152.456L193.708 150.104L194.712 149.932L195.016 149.452Z" fill="white" stroke="#651A21" stroke-width="0.4" stroke-miterlimit="10"/>
<path d="M194.232 150.452L195.364 150.236L195.62 149.728L195.016 149.452L194.712 149.932L193.708 150.104L193.232 152.456L193.712 153.008L194.232 150.452Z" fill="white" stroke="#651A21" stroke-width="0.4" stroke-miterlimit="10"/>
<path d="M192.819 135.495L192.819 135.495C192.572 137.654 192.684 139.839 193.152 141.961L193.152 141.961L194.056 146.117V144.477L193.493 141.887C193.493 141.887 193.493 141.887 193.493 141.887C193.03 139.804 192.912 137.659 193.146 135.538L193.146 135.538C193.264 134.47 193.492 133.286 193.918 132.363C194.342 131.445 194.994 130.724 195.98 130.724H196.004H196.004V130.924C196.308 130.923 196.608 130.988 196.884 131.114C197.16 131.239 197.406 131.423 197.604 131.652L192.819 135.495ZM192.819 135.495C193.067 133.326 193.585 132.044 194.173 131.307C194.754 130.58 195.412 130.372 195.992 130.372H196.032C196.405 130.375 196.773 130.456 197.113 130.611C197.452 130.766 197.756 130.992 198.002 131.272L198.002 131.272L198.006 131.276C198.518 131.828 198.892 132.598 199.163 133.463C199.433 134.327 199.596 135.273 199.691 136.164C199.882 137.945 199.803 139.487 199.793 139.673L199.792 139.673V139.684V152.992V153.002L199.794 153.012C199.796 153.037 199.793 153.062 199.786 153.085C199.778 153.109 199.766 153.13 199.749 153.148C199.733 153.167 199.712 153.181 199.69 153.191C199.667 153.201 199.643 153.207 199.618 153.207C199.594 153.207 199.569 153.201 199.547 153.191C199.524 153.181 199.504 153.167 199.488 153.148C199.471 153.13 199.459 153.109 199.451 153.085C199.443 153.062 199.441 153.037 199.443 153.012L199.444 153.002V152.992V139.652C199.444 139.654 199.445 139.637 199.448 139.584C199.449 139.537 199.452 139.469 199.455 139.384C199.46 139.213 199.465 138.971 199.465 138.675C199.466 138.083 199.446 137.277 199.363 136.406C199.281 135.535 199.136 134.593 198.885 133.732C198.635 132.875 198.275 132.081 197.753 131.518L192.819 135.495Z" fill="#651A21" stroke="#651A21" stroke-width="0.4"/>
<path d="M199.224 153.588H200.072V152.284H199.224V153.588Z" fill="white" stroke="#651A21" stroke-width="0.4" stroke-miterlimit="10"/>
<path d="M192.876 168.052C193.676 166.5 194.616 164.74 194.616 162.644C194.616 159.444 194.356 156.844 194.356 156.816L195.1 156.744C195.1 156.768 195.364 159.404 195.364 162.644C195.364 164.928 194.348 166.852 193.536 168.4C192.896 169.62 192.336 170.676 192.564 171.4C192.6 171.577 192.676 171.745 192.786 171.889C192.896 172.033 193.038 172.15 193.2 172.232C193.563 172.337 193.952 172.303 194.292 172.136V172.936C194.059 173.009 193.816 173.048 193.572 173.052C193.35 173.054 193.13 173.013 192.924 172.932C192.657 172.812 192.421 172.631 192.235 172.405C192.049 172.179 191.918 171.913 191.852 171.628C191.532 170.604 192.156 169.42 192.876 168.052Z" fill="#651A21"/>
<path d="M170.548 178.893H245.212V175.525H170.548V178.893Z" fill="#E19199" stroke="#651A21" stroke-width="0.4" stroke-miterlimit="10"/>
<path d="M170.548 178.893H179.752V175.525H170.548V178.893Z" fill="#E19199" stroke="#651A21" stroke-width="0.4" stroke-miterlimit="10"/>
<path d="M260.532 70.9282H114.54V86.2362H260.532V70.9282Z" fill="#651A21" stroke="#651A21" stroke-width="0.4" stroke-miterlimit="10"/>
<path d="M59.372 86.2358L179.416 86.2358V70.9278L59.372 70.9278V86.2358Z" fill="#651A21" stroke="#651A21" stroke-width="0.4" stroke-linecap="round" stroke-linejoin="round"/>
<path d="M179.401 86.2358V71.5918L145.453 80.0998C140.676 81.2987 135.646 80.9899 131.053 79.2158L123.629 76.3558C120.208 75.037 116.474 74.7586 112.896 75.5558L64.8965 86.2238L179.401 86.2358Z" fill="#E19199" stroke="#942B35" stroke-width="0.4" stroke-miterlimit="10"/>
<path d="M117.688 175.624C117.688 175.624 116.86 177.356 117.008 177.716C117.156 178.076 118.12 178.06 118.12 178.06L118.16 175.7C118.16 175.7 117.944 175.072 117.688 175.624Z" fill="white" stroke="#651A21" stroke-width="0.4" stroke-linecap="round" stroke-linejoin="round"/>
<path d="M119.956 176.9C119.956 176.9 121 177.544 121.296 177.7C121.592 177.856 122.84 178.12 122.864 178.384C122.888 178.648 121.664 178.82 121.036 178.908C119.868 178.874 118.707 178.716 117.572 178.436C117.448 178.34 117.912 176.756 117.912 176.756L119.956 176.9Z" fill="white" stroke="#651A21" stroke-width="0.4" stroke-linecap="round" stroke-linejoin="round"/>
<path d="M124.047 154.228C124.047 154.228 123.503 163.544 123.543 164.768C123.583 165.992 123.143 166.84 123.107 167.188C123.071 167.536 120.151 174.752 120.151 174.752L119.595 176.416L118.455 174.672L119.655 166.5L118.455 154.436L121.499 154.036L124.047 154.228Z" fill="#525252" stroke="#651A21" stroke-width="0.4" stroke-linecap="round" stroke-linejoin="round"/>
<path d="M114.495 154.5C114.495 154.5 115.167 158.528 115.871 160.24C116.575 161.952 117.471 166.564 117.471 166.564C117.471 166.564 116.911 168.884 117.279 169.828C117.647 170.772 117.679 175.932 117.679 175.932C117.635 176.234 117.614 176.539 117.615 176.844C117.643 177.024 117.667 177.328 117.667 177.328C117.667 177.328 118.551 177.176 118.867 177.152C119.183 177.128 120.235 176.948 120.235 176.948C120.235 176.948 120.283 176.296 120.355 175.908C120.427 175.52 120.167 174.888 120.175 174.756C120.183 174.624 120.611 171.204 120.611 171.204C120.611 171.204 121.251 166.572 121.315 165.704C121.379 164.836 120.387 155.58 120.387 155.58C120.387 155.58 117.635 153.764 116.595 153.644C115.555 153.524 114.495 154.5 114.495 154.5Z" fill="#942B35" stroke="#651A21" stroke-width="0.4" stroke-linecap="round" stroke-linejoin="round"/>
<path d="M117.628 137.932C117.628 137.932 113.792 140.084 113.776 140.292C113.76 140.5 114.54 148.828 114.54 148.828C114.54 148.828 114.06 153.576 114.024 154.092C114.005 154.463 114.013 154.834 114.048 155.204L116.24 154.184C116.24 154.184 120.108 155.888 120.64 155.996L121.668 156.208L122.188 155.272L122.24 156.472C122.686 156.139 123.097 155.763 123.468 155.348L124.308 154.264L123.932 148.96C123.932 148.96 123.532 142.012 123.576 141.632C123.62 141.252 123.116 139.2 122.776 138.928C122.166 138.614 121.534 138.346 120.884 138.128L118.2 137.592L117.628 137.932Z" fill="white" stroke="#651A21" stroke-width="0.4" stroke-linecap="round" stroke-linejoin="round"/>
<path d="M117.06 133.792C117.143 134.17 117.277 134.535 117.46 134.876C117.68 135.18 118.292 136.076 118.292 136.076L119.652 135.276L119.4 132.9L117.06 133.792Z" fill="#263238" stroke="#651A21" stroke-width="0.4" stroke-linecap="round" stroke-linejoin="round"/>
<path d="M118.083 134.98L117.855 137.42L120.587 139.224L121.067 137.384L118.775 134.544L118.083 134.98Z" fill="white" stroke="#651A21" stroke-width="0.4" stroke-linecap="round" stroke-linejoin="round"/>
<path d="M120.711 137.693L120.636 137.897L120.356 137.51L120.711 137.693Z" fill="#263238" stroke="#651A21" stroke-width="0.4"/>
<path d="M122.919 132.448L122.843 133.968L122.643 134.336L122.679 135.764L122.419 135.988C122.419 135.988 122.019 137.188 121.943 137.308C121.755 137.493 121.544 137.653 121.315 137.784C121.175 137.84 119.775 137.044 119.555 136.716C119.335 136.388 119.087 135.988 119.087 135.988L119.131 134.916L119.031 132.916L122.919 132.448Z" fill="white" stroke="#651A21" stroke-width="0.4" stroke-linecap="round" stroke-linejoin="round"/>
<path d="M121.732 134.443V134.843C121.638 134.889 121.534 134.908 121.43 134.898C121.327 134.889 121.228 134.852 121.144 134.791" stroke="#651A21" stroke-width="0.4" stroke-linecap="round" stroke-linejoin="round"/>
<path d="M121.915 136.52C121.915 136.52 121.783 136.548 121.491 136.36" stroke="#651A21" stroke-width="0.4" stroke-linecap="round" stroke-linejoin="round"/>
<path d="M122.693 132.717L122.647 133.197L121.232 133.117L122.693 132.717Z" fill="#263238" stroke="#651A21" stroke-width="0.4"/>
<path d="M122.059 134.259L120.955 134.143" stroke="#651A21" stroke-width="0.4" stroke-linecap="round" stroke-linejoin="round"/>
<path d="M122.42 135.988L121.688 136.04" stroke="#651A21" stroke-width="0.4" stroke-linecap="round" stroke-linejoin="round"/>
<path d="M123.159 132.375C123.159 132.375 122.947 130.939 122.459 130.487C121.971 130.035 119.423 129.667 119.171 129.787C118.919 129.907 118.467 130.135 118.467 130.135C118.157 130.308 117.863 130.51 117.591 130.739C117.389 130.885 117.222 131.076 117.104 131.296C116.986 131.517 116.92 131.761 116.911 132.011C116.908 132.608 116.957 133.203 117.059 133.791L123.159 132.375Z" fill="#651A21" stroke="#651A21" stroke-width="0.4" stroke-linecap="round" stroke-linejoin="round"/>
<path d="M117.687 136.616L119.971 137.652L120.675 139.472L117.247 137.868L117.687 136.616Z" fill="white" stroke="#651A21" stroke-width="0.4" stroke-linecap="round" stroke-linejoin="round"/>
<path d="M119.255 134.568C119.255 134.568 118.995 133.56 118.455 133.908C117.915 134.256 118.543 135.356 118.631 135.508C118.719 135.66 119.031 135.684 119.203 135.332" fill="white"/>
<path d="M119.255 134.568C119.255 134.568 118.995 133.56 118.455 133.908C117.915 134.256 118.543 135.356 118.631 135.508C118.719 135.66 119.031 135.684 119.203 135.332" stroke="#651A21" stroke-width="0.4" stroke-linecap="round" stroke-linejoin="round"/>
<path d="M119.871 133.12C119.871 133.12 121.171 133.752 122.107 133.692C123.163 133.62 125.363 133.364 124.827 132.944C124.203 132.736 123.566 132.57 122.919 132.448C122.919 132.448 120.659 132.768 119.871 133.12Z" fill="#651A21" stroke="#651A21" stroke-width="0.4" stroke-linecap="round" stroke-linejoin="round"/>
<path d="M134.48 152.38C133.24 151.24 130.748 151.072 130.636 151.064L130.604 151.596C130.628 151.596 132.664 151.732 133.844 152.548L134.48 152.38Z" fill="white" stroke="#651A21" stroke-width="0.4" stroke-miterlimit="10"/>
<path d="M133.06 152.235C133.064 152.246 133.07 152.257 133.077 152.265C133.085 152.274 133.094 152.281 133.105 152.287C133.115 152.292 133.126 152.295 133.138 152.296C133.15 152.297 133.161 152.295 133.172 152.291L133.972 152.031C133.994 152.023 134.012 152.007 134.022 151.986C134.033 151.966 134.035 151.942 134.028 151.919C134.021 151.897 134.005 151.878 133.984 151.867C133.964 151.856 133.939 151.853 133.916 151.859L133.116 152.123C133.095 152.131 133.077 152.148 133.066 152.168C133.056 152.189 133.054 152.213 133.06 152.235Z" fill="white" stroke="#651A21" stroke-width="0.2" stroke-miterlimit="10"/>
<path d="M132.171 151.835C132.178 151.858 132.193 151.877 132.213 151.889C132.233 151.9 132.257 151.904 132.279 151.899L133.099 151.683C133.122 151.677 133.141 151.662 133.153 151.642C133.165 151.622 133.168 151.598 133.163 151.575C133.161 151.564 133.156 151.553 133.149 151.544C133.142 151.534 133.133 151.527 133.123 151.521C133.113 151.515 133.102 151.511 133.09 151.509C133.078 151.508 133.067 151.508 133.055 151.511L132.255 151.727C132.242 151.728 132.23 151.732 132.219 151.738C132.207 151.744 132.197 151.752 132.189 151.763C132.181 151.773 132.176 151.784 132.173 151.797C132.17 151.809 132.169 151.823 132.171 151.835Z" fill="white" stroke="#651A21" stroke-width="0.2" stroke-miterlimit="10"/>
<path d="M131.156 151.668C131.156 151.668 131.156 151.668 131.156 151.688C131.161 151.698 131.169 151.707 131.178 151.715C131.187 151.722 131.197 151.727 131.208 151.731C131.219 151.734 131.231 151.735 131.243 151.734C131.254 151.733 131.266 151.729 131.276 151.724L132.076 151.324C132.097 151.313 132.113 151.295 132.121 151.272C132.128 151.25 132.126 151.225 132.116 151.204C132.105 151.183 132.087 151.166 132.064 151.159C132.042 151.151 132.017 151.153 131.996 151.164L131.196 151.564C131.178 151.574 131.165 151.59 131.157 151.609C131.15 151.628 131.149 151.648 131.156 151.668Z" fill="white" stroke="#651A21" stroke-width="0.2" stroke-miterlimit="10"/>
<path d="M128.359 152.168C128.359 152.168 126.115 152.52 125.959 152.616C125.803 152.712 125.828 153.768 125.828 153.768" stroke="#651A21" stroke-width="0.4" stroke-miterlimit="10"/>
<path d="M126.129 153.673L126.128 153.673C125.969 153.735 125.793 153.737 125.633 153.679C125.473 153.622 125.339 153.51 125.255 153.363L124.521 152.005L124.641 151.936L125.372 153.287L125.372 153.287L125.373 153.289C125.441 153.411 125.55 153.504 125.68 153.551C125.811 153.598 125.954 153.597 126.083 153.547C126.084 153.547 126.084 153.547 126.084 153.547L128.176 152.754L128.222 152.876L126.129 153.673Z" fill="black" stroke="#651A21" stroke-width="0.4"/>
<path d="M124.477 151.816L123.211 152.312L123.469 152.971L124.735 152.475L124.477 151.816Z" fill="black" stroke="#651A21" stroke-width="0.4" stroke-miterlimit="10"/>
<path d="M127.867 150.486L124.481 151.811L124.739 152.47L128.125 151.145L127.867 150.486Z" fill="white" stroke="#651A21" stroke-width="0.4" stroke-miterlimit="10"/>
<path d="M130.995 150.868L130.799 152.004L130.219 152.024L129.915 152.916L128.467 153.072L127.111 150.684L127.631 149.916L130.027 149.772L130.451 150.696L130.995 150.868Z" fill="#651A21" stroke="#651A21" stroke-width="0.4" stroke-linecap="round" stroke-linejoin="round"/>
<path d="M129.824 150.368L130.324 151.408L130.884 151.524L130.996 150.868L130.452 150.696L130.028 149.772L127.632 149.916L127.22 150.524L129.824 150.368Z" fill="#651A21" stroke="#651A21" stroke-width="0.4" stroke-linecap="round" stroke-linejoin="round"/>
<path d="M116.424 147.272L117.244 148.5L124.62 151.86L125.848 153.008L127.076 152.596L128.144 152.432L126.832 150.22L124.212 150.14L119.296 146.944L118.556 146.04L116.424 147.272Z" fill="white" stroke="#651A21" stroke-width="0.4" stroke-linecap="round" stroke-linejoin="round"/>
<path d="M113.775 140.292L115.523 148.335L119.375 146.288L116.835 140.552" fill="white"/>
<path d="M113.775 140.292L115.523 148.335L119.375 146.288L116.835 140.552" stroke="#651A21" stroke-width="0.4" stroke-linecap="round" stroke-linejoin="round"/>
<path d="M123.22 152.3C119.98 153.093 117.035 154.796 114.732 157.208C111.44 160.808 108.084 164.34 104.6 167.752C100.624 171.644 97.4435 174.248 92.2835 176.516C88.6115 178.116 83.1795 179.716 79.2755 178.116C74.3475 176.068 75.6315 169.088 75.5275 164.876C75.3195 156.5 75.3235 148.1 75.5795 139.728C75.6115 138.696 75.6475 137.664 75.7075 136.636C75.7955 135.084 75.9155 132.044 76.5635 130.636C77.0675 129.54 78.1635 128.968 78.8515 128.996C81.1955 129.092 81.8875 131.824 82.1395 134.24C82.3915 136.656 82.8235 151.36 82.8235 151.36" stroke="#651A21" stroke-width="0.85" stroke-linejoin="round"/>
<path d="M111.887 151.36H111.715C111.541 151.36 111.37 151.318 111.215 151.239C111.061 151.16 110.927 151.045 110.825 150.904C110.723 150.764 110.656 150.6 110.629 150.429C110.603 150.257 110.617 150.081 110.671 149.916C110.891 149.24 111.263 148.556 111.871 148.452C113.167 148.236 116.727 149.312 116.727 150.052C116.727 150.792 116.727 151.128 116.295 151.128H113.599L111.443 153.504L111.395 153.464C111.284 153.37 111.195 153.254 111.134 153.122C111.073 152.991 111.041 152.847 111.041 152.702C111.041 152.557 111.073 152.413 111.134 152.282C111.195 152.15 111.284 152.033 111.395 151.94C111.593 151.778 111.76 151.581 111.887 151.36Z" fill="#651A21" stroke="#651A21" stroke-width="0.4" stroke-linecap="round" stroke-linejoin="round"/>
<path d="M136.26 171.42H172.06C172.06 171.42 177.236 167.968 176.156 158.908C175.076 149.848 169.256 155.892 167.1 161.928H151.14C151.14 161.928 147.688 155.028 142.084 155.892C136.48 156.756 136.26 171.42 136.26 171.42Z" fill="#942B35" stroke="#E19199" stroke-width="0.4" stroke-linecap="round" stroke-linejoin="round"/>
<path d="M145.056 169.624C145.107 167.224 144.415 164.868 143.076 162.876V160.356H138.76C135.28 160.356 132.46 164.504 132.46 169.624C132.46 174.744 135.28 178.9 138.76 178.9H143.076V176.38C144.417 174.386 145.108 172.026 145.056 169.624Z" fill="#651A21" stroke="#651A21" stroke-width="0.4" stroke-linecap="round" stroke-linejoin="round"/>
<path d="M143.076 178.892C146.553 178.892 149.372 174.743 149.372 169.624C149.372 164.505 146.553 160.356 143.076 160.356C139.599 160.356 136.78 164.505 136.78 169.624C136.78 174.743 139.599 178.892 143.076 178.892Z" fill="#E19199"/>
<mask id="mask0_6152_43825" style="mask-type:luminance" maskUnits="userSpaceOnUse" x="136" y="160" width="14" height="19">
<path d="M143.076 178.892C146.553 178.892 149.372 174.743 149.372 169.624C149.372 164.505 146.553 160.356 143.076 160.356C139.599 160.356 136.78 164.505 136.78 169.624C136.78 174.743 139.599 178.892 143.076 178.892Z" fill="white"/>
</mask>
<g mask="url(#mask0_6152_43825)">
<path opacity="0.2" d="M143.076 178.892C146.553 178.892 149.372 174.743 149.372 169.624C149.372 164.505 146.553 160.356 143.076 160.356C139.599 160.356 136.78 164.505 136.78 169.624C136.78 174.743 139.599 178.892 143.076 178.892Z" fill="white" stroke="#E19199" stroke-width="0.4" stroke-linecap="round" stroke-linejoin="round"/>
</g>
<path d="M143.076 178.892C146.553 178.892 149.372 174.743 149.372 169.624C149.372 164.505 146.553 160.356 143.076 160.356C139.599 160.356 136.78 164.505 136.78 169.624C136.78 174.743 139.599 178.892 143.076 178.892Z" stroke="#651A21" stroke-width="0.4" stroke-linecap="round" stroke-linejoin="round"/>
<path d="M106.152 160.356H102.076C98.788 160.356 96.124 164.504 96.124 169.624C96.124 174.744 98.788 178.9 102.076 178.9H106.152C109.44 178.9 112.104 174.752 112.104 169.632C112.104 164.512 109.44 160.356 106.152 160.356Z" fill="#651A21" stroke="#651A21" stroke-width="0.4" stroke-linecap="round" stroke-linejoin="round"/>
<path d="M143.076 177.021C145.85 177.021 148.1 173.709 148.1 169.625C148.1 165.54 145.85 162.229 143.076 162.229C140.301 162.229 138.052 165.54 138.052 169.625C138.052 173.709 140.301 177.021 143.076 177.021Z" fill="white" stroke="#651A21" stroke-width="0.4" stroke-linecap="round" stroke-linejoin="round"/>
<path d="M174.548 169.624C174.597 167.312 174.168 165.015 173.288 162.876V160.356H169.476C167.26 160.356 165.476 164.504 165.476 169.624C165.476 174.744 167.268 178.892 169.476 178.892H173.288V176.372C174.168 174.233 174.597 171.936 174.548 169.624Z" fill="#651A21" stroke="#651A21" stroke-width="0.4" stroke-linecap="round" stroke-linejoin="round"/>
<path d="M173.288 178.892C175.502 178.892 177.296 174.743 177.296 169.624C177.296 164.505 175.502 160.356 173.288 160.356C171.075 160.356 169.28 164.505 169.28 169.624C169.28 174.743 171.075 178.892 173.288 178.892Z" fill="#E19199"/>
<mask id="mask1_6152_43825" style="mask-type:luminance" maskUnits="userSpaceOnUse" x="169" y="160" width="9" height="19">
<path d="M173.288 178.892C175.502 178.892 177.296 174.743 177.296 169.624C177.296 164.505 175.502 160.356 173.288 160.356C171.075 160.356 169.28 164.505 169.28 169.624C169.28 174.743 171.075 178.892 173.288 178.892Z" fill="white"/>
</mask>
<g mask="url(#mask1_6152_43825)">
<path opacity="0.2" d="M173.288 178.892C175.502 178.892 177.296 174.743 177.296 169.624C177.296 164.505 175.502 160.356 173.288 160.356C171.075 160.356 169.28 164.505 169.28 169.624C169.28 174.743 171.075 178.892 173.288 178.892Z" fill="white" stroke="#263238" stroke-width="0.4" stroke-linecap="round" stroke-linejoin="round"/>
</g>
<path d="M173.288 178.892C175.502 178.892 177.296 174.743 177.296 169.624C177.296 164.505 175.502 160.356 173.288 160.356C171.075 160.356 169.28 164.505 169.28 169.624C169.28 174.743 171.075 178.892 173.288 178.892Z" stroke="#651A21" stroke-width="0.4" stroke-linecap="round" stroke-linejoin="round"/>
<path d="M176.484 169.625C176.484 173.709 175.052 177.021 173.284 177.021C171.516 177.021 170.084 173.709 170.084 169.625C170.084 165.541 171.516 162.229 173.284 162.229C175.052 162.229 176.484 165.541 176.484 169.625Z" fill="white" stroke="#651A21" stroke-width="0.4" stroke-linecap="round" stroke-linejoin="round"/>
<path d="M137.768 171.888C137.768 164.504 140.336 158.516 143.5 158.516C146.664 158.516 149.232 164.516 149.232 171.888C149.232 172.288 149.232 172.688 149.208 173.088H169.628C169.628 172.688 169.608 172.288 169.608 171.888C169.608 164.5 171.48 158.5 173.8 158.5C175.34 158.5 176.684 161.176 177.4 165.152V154.26C177.401 153.763 177.227 153.281 176.909 152.899C176.591 152.517 176.149 152.258 175.66 152.168L175.56 152.148C174.148 151.864 171.6 149.176 167.636 145.78C163.672 142.384 160.136 142.1 160.136 142.1H124.376C123.7 142.1 123.043 142.324 122.508 142.736L110.316 152.148C110.316 152.148 99.3999 154.268 96.9999 156.676C94.5999 159.084 94.8759 173.076 94.8759 173.076H137.8C137.776 172.696 137.768 172.296 137.768 171.888Z" fill="white" stroke="#651A21" stroke-width="0.4" stroke-linecap="round" stroke-linejoin="round"/>
<path d="M151.355 142.1H124.375C123.7 142.1 123.043 142.324 122.507 142.736L110.315 152.148H144.843L151.355 142.1Z" fill="white" stroke="#651A21" stroke-width="0.4" stroke-linecap="round" stroke-linejoin="round"/>
<path d="M137.224 155.932C135.28 155.956 131.884 156.084 130.424 156.676C129.206 157.156 128.024 157.723 126.888 158.372H133.8L137.224 155.932Z" fill="#651A21" stroke="#651A21" stroke-width="0.4" stroke-linecap="round" stroke-linejoin="round"/>
<path d="M134.232 160.501V159.229H126.872L128.204 160.457C128.183 160.469 128.163 160.484 128.144 160.501H134.232Z" fill="#651A21" stroke="#651A21" stroke-width="0.4" stroke-linecap="round" stroke-linejoin="round"/>
<path d="M134.939 158.656V160.5C135.225 160.474 135.501 160.384 135.746 160.235C135.991 160.085 136.198 159.882 136.351 159.64C137.059 158.508 138.651 155.924 138.651 155.924L134.939 158.656Z" fill="#651A21" stroke="#651A21" stroke-width="0.4" stroke-linecap="round" stroke-linejoin="round"/>
<path d="M97.6961 160.452L99.0281 159.224H95.8881C95.7921 159.624 95.7001 160.048 95.6201 160.496H97.7561C97.7375 160.479 97.7174 160.464 97.6961 160.452Z" fill="#651A21" stroke="#651A21" stroke-width="0.4" stroke-linecap="round" stroke-linejoin="round"/>
<path d="M96.6439 157.164C96.4298 157.545 96.2569 157.947 96.1279 158.364H99.0279C98.2549 157.923 97.4591 157.522 96.6439 157.164Z" fill="#651A21" stroke="#651A21" stroke-width="0.4" stroke-linecap="round" stroke-linejoin="round"/>
<path d="M144.844 152.149H165.8C165.8 152.149 168.772 151.157 167.924 147.477C167.636 146.229 161.696 143.373 160.848 143.373H150.648L144.844 152.149Z" fill="#E19199"/>
<mask id="mask2_6152_43825" style="mask-type:luminance" maskUnits="userSpaceOnUse" x="144" y="143" width="25" height="10">
<path d="M144.844 152.148H165.8C165.8 152.148 168.772 151.156 167.924 147.476C167.636 146.228 161.696 143.372 160.848 143.372H150.648L144.844 152.148Z" fill="white"/>
</mask>
<g mask="url(#mask2_6152_43825)">
<path opacity="0.2" d="M144.844 152.148H165.8C165.8 152.148 168.772 151.156 167.924 147.476C167.636 146.228 161.696 143.372 160.848 143.372H150.648L144.844 152.148Z" fill="white" stroke="#E19199" stroke-width="0.4" stroke-linecap="round" stroke-linejoin="round"/>
</g>
<path d="M144.844 152.149H165.8C165.8 152.149 168.772 151.157 167.924 147.477C167.636 146.229 161.696 143.373 160.848 143.373H150.648L144.844 152.149Z" stroke="#651A21" stroke-width="0.4" stroke-linecap="round" stroke-linejoin="round"/>
<path d="M121.684 143.373L110.312 152.149H144.844L150.528 143.373H121.684Z" fill="#651A21" stroke="#651A21" stroke-width="0.4" stroke-linecap="round" stroke-linejoin="round"/>
<path d="M99.5596 158.656V161.628L101.68 163.184H118.804L122.768 161.488V158.656H99.5596Z" fill="#651A21" stroke="#651A21" stroke-width="0.4" stroke-linecap="round" stroke-linejoin="round"/>
<path opacity="0.3" d="M100.352 158.656H99.5596V159.448H100.352V158.656Z" fill="white" stroke="#942B35" stroke-width="0.4" stroke-linecap="round" stroke-linejoin="round"/>
<path opacity="0.3" d="M101.224 159.532H100.432V160.324H101.224V159.532Z" fill="white" stroke="#942B35" stroke-width="0.4" stroke-linecap="round" stroke-linejoin="round"/>
<path opacity="0.3" d="M102.1 160.408H101.308V161.2H102.1V160.408Z" fill="white" stroke="#942B35" stroke-width="0.4" stroke-linecap="round" stroke-linejoin="round"/>
<path opacity="0.3" d="M102.976 161.28H102.184V162.072H102.976V161.28Z" fill="white" stroke="#942B35" stroke-width="0.4" stroke-linecap="round" stroke-linejoin="round"/>
<path opacity="0.3" d="M122.612 158.656H121.82V159.448H122.612V158.656Z" fill="white" stroke="#942B35" stroke-width="0.4" stroke-linecap="round" stroke-linejoin="round"/>
<path opacity="0.3" d="M121.736 159.532H120.944V160.324H121.736V159.532Z" fill="white" stroke="#942B35" stroke-width="0.4" stroke-linecap="round" stroke-linejoin="round"/>
<path opacity="0.3" d="M120.859 160.408H120.067V161.2H120.859V160.408Z" fill="white" stroke="#942B35" stroke-width="0.4" stroke-linecap="round" stroke-linejoin="round"/>
<path opacity="0.3" d="M119.988 161.28H119.196V162.072H119.988V161.28Z" fill="white" stroke="#942B35" stroke-width="0.4" stroke-linecap="round" stroke-linejoin="round"/>
<path opacity="0.3" d="M104.191 161.28H103.399V162.072H104.191V161.28Z" fill="white" stroke="#942B35" stroke-width="0.4" stroke-linecap="round" stroke-linejoin="round"/>
<path opacity="0.3" d="M105.404 161.28H104.612V162.072H105.404V161.28Z" fill="white" stroke="#942B35" stroke-width="0.4" stroke-linecap="round" stroke-linejoin="round"/>
<path opacity="0.3" d="M106.62 161.28H105.828V162.072H106.62V161.28Z" fill="white" stroke="#942B35" stroke-width="0.4" stroke-linecap="round" stroke-linejoin="round"/>
<path opacity="0.3" d="M107.836 161.28H107.044V162.072H107.836V161.28Z" fill="white" stroke="#942B35" stroke-width="0.4" stroke-linecap="round" stroke-linejoin="round"/>
<path opacity="0.3" d="M109.052 161.28H108.26V162.072H109.052V161.28Z" fill="white" stroke="#942B35" stroke-width="0.4" stroke-linecap="round" stroke-linejoin="round"/>
<path opacity="0.3" d="M110.264 161.28H109.472V162.072H110.264V161.28Z" fill="white" stroke="#942B35" stroke-width="0.4" stroke-linecap="round" stroke-linejoin="round"/>
<path opacity="0.3" d="M111.479 161.28H110.688V162.072H111.479V161.28Z" fill="white" stroke="#942B35" stroke-width="0.4" stroke-linecap="round" stroke-linejoin="round"/>
<path opacity="0.3" d="M112.696 161.28H111.904V162.072H112.696V161.28Z" fill="white" stroke="#942B35" stroke-width="0.4" stroke-linecap="round" stroke-linejoin="round"/>
<path opacity="0.3" d="M113.912 161.28H113.12V162.072H113.912V161.28Z" fill="white" stroke="#942B35" stroke-width="0.4" stroke-linecap="round" stroke-linejoin="round"/>
<path opacity="0.3" d="M115.128 161.28H114.336V162.072H115.128V161.28Z" fill="white" stroke="#942B35" stroke-width="0.4" stroke-linecap="round" stroke-linejoin="round"/>
<path opacity="0.3" d="M116.34 161.28H115.548V162.072H116.34V161.28Z" fill="white" stroke="#942B35" stroke-width="0.4" stroke-linecap="round" stroke-linejoin="round"/>
<path opacity="0.3" d="M117.556 161.28H116.764V162.072H117.556V161.28Z" fill="white" stroke="#942B35" stroke-width="0.4" stroke-linecap="round" stroke-linejoin="round"/>
<path opacity="0.3" d="M118.771 161.28H117.979V162.072H118.771V161.28Z" fill="white" stroke="#942B35" stroke-width="0.4" stroke-linecap="round" stroke-linejoin="round"/>
<path d="M130.976 166.864H95.7362L95.2642 163.088C95.0482 165.164 94.9522 167.376 94.9082 169.192L95.0322 169.696L95.7362 168.28H98.7602L96.8722 169.836H124.872L123.868 168.28H130.956L132.936 169.412H134.352V162.212L130.976 166.864Z" fill="#651A21" stroke="#651A21" stroke-width="0.4" stroke-linecap="round" stroke-linejoin="round"/>
<path d="M158.651 152.149H159.831C159.707 150.413 159.211 146.589 157.267 143.373H156.067C156.767 144.853 158.383 148.665 158.651 152.149Z" fill="#651A21" stroke="#651A21" stroke-width="0.4" stroke-linecap="round" stroke-linejoin="round"/>
<path d="M133.132 145.756L133.564 146.956C133.033 147.464 132.722 148.161 132.7 148.896V152.164H130.048L132.268 145.764L133.132 145.756ZM120.732 147.356C118.912 148.464 116.16 150.908 114.828 152.132H123.692L128.28 145.092L125.26 145.308C123.667 145.795 122.145 146.489 120.732 147.372V147.356ZM139.064 146.5L137.984 146.284H136.476L136.044 146.716C136.044 146.716 137.124 146.824 137.244 147.472C137.318 148.116 137.354 148.764 137.352 149.412H138.108C138.108 149.412 138.108 148.212 138.648 147.688C138.953 147.379 139.278 147.091 139.62 146.824L139.064 146.5Z" fill="#E19199" stroke="#651A21" stroke-width="0.4" stroke-linecap="round" stroke-linejoin="round"/>
<path d="M152.22 151.36H152.044C151.87 151.36 151.698 151.318 151.543 151.239C151.389 151.16 151.255 151.045 151.153 150.904C151.051 150.764 150.984 150.6 150.957 150.429C150.931 150.257 150.945 150.081 151 149.916C151.22 149.24 151.592 148.556 152.22 148.452C153.512 148.236 157.072 149.312 157.072 150.052C157.072 150.792 157.072 151.128 156.64 151.128H153.944L151.8 153.52L151.752 153.48C151.64 153.386 151.551 153.27 151.49 153.138C151.429 153.007 151.397 152.863 151.397 152.718C151.397 152.573 151.429 152.429 151.49 152.298C151.551 152.166 151.64 152.049 151.752 151.956C151.94 151.785 152.098 151.583 152.22 151.36Z" fill="white" stroke="#651A21" stroke-width="0.4" stroke-linecap="round" stroke-linejoin="round"/>
<path d="M151.74 153.48L151.788 153.52L153.944 151.144H156.64C156.996 151.144 157.04 150.92 157.068 150.416H150.96C150.996 150.678 151.125 150.918 151.325 151.092C151.524 151.265 151.78 151.361 152.044 151.36H152.22C152.095 151.584 151.933 151.786 151.74 151.956C151.629 152.05 151.54 152.166 151.478 152.298C151.417 152.429 151.385 152.573 151.385 152.718C151.385 152.863 151.417 153.007 151.478 153.138C151.54 153.27 151.629 153.387 151.74 153.48Z" fill="#651A21" stroke="#651A21" stroke-width="0.4" stroke-linecap="round" stroke-linejoin="round"/>
<path d="M158.4 154.752H155.972V155.272H158.4V154.752Z" fill="#651A21" stroke="#651A21" stroke-width="0.4" stroke-linecap="round" stroke-linejoin="round"/>
<path d="M169.32 154.752H166.892V155.272H169.32V154.752Z" fill="#651A21" stroke="#651A21" stroke-width="0.4" stroke-linecap="round" stroke-linejoin="round"/>
<path d="M169.492 152.673C169.492 152.673 171.248 153.873 172.268 158.049C172.268 158.049 167.932 158.569 167.932 170.529" stroke="#651A21" stroke-width="0.4" stroke-linecap="round" stroke-linejoin="round"/>
<path d="M167.4 171.048H149.22C149.22 171.315 149.22 171.595 149.22 171.888C149.22 172.288 149.22 172.688 149.196 173.088H169.616C169.616 172.688 169.596 172.288 169.596 171.888C169.596 171.86 169.596 171.832 169.596 171.804L167.4 171.048Z" fill="#651A21" stroke="#651A21" stroke-width="0.4" stroke-linecap="round" stroke-linejoin="round"/>
<path d="M137.768 171.888C137.768 171.608 137.768 171.328 137.768 171.048H94.8799C94.8799 172.296 94.8799 173.092 94.8799 173.092H137.8C137.776 172.696 137.768 172.296 137.768 171.888Z" fill="#651A21" stroke="#651A21" stroke-width="0.4" stroke-linecap="round" stroke-linejoin="round"/>
<path d="M176.632 153.7C176.416 153.7 176.204 153.756 176.016 153.863C175.829 153.969 175.672 154.123 175.562 154.309C175.452 154.494 175.392 154.706 175.388 154.921C175.384 155.137 175.436 155.35 175.54 155.54L177.392 158.936V154.26C177.39 154.074 177.363 153.89 177.312 153.712H176.632V153.7Z" fill="#651A21" stroke="#651A21" stroke-width="0.4" stroke-linecap="round" stroke-linejoin="round"/>
<path d="M159.983 153.948C159.983 153.948 163.863 159.548 159.983 169.044" stroke="#651A21" stroke-width="0.4" stroke-linecap="round" stroke-linejoin="round"/>
<path d="M298.403 73.9521H268.063V178.892H298.403V73.9521Z" fill="#942B35" stroke="#651A21" stroke-width="0.4" stroke-miterlimit="10"/>
<path d="M296.176 73.9521H265.836V178.892H296.176V73.9521Z" fill="#E19199" stroke="#651A21" stroke-width="0.4" stroke-miterlimit="10"/>
<path d="M296.176 73.9521H265.836V150H296.176V73.9521Z" fill="white" stroke="#651A21" stroke-width="0.4" stroke-linecap="round" stroke-linejoin="round"/>
<path d="M296.176 103.032H265.836V120.876H296.176V103.032Z" fill="#651A21" stroke="#651A21" stroke-width="0.4" stroke-miterlimit="10"/>
<path d="M292 124.337H269.176V127.957H292V124.337Z" fill="white" stroke="#651A21" stroke-width="0.4" stroke-linecap="round" stroke-linejoin="round"/>
<path d="M292 133.104H269.176V136.724H292V133.104Z" fill="white" stroke="#651A21" stroke-width="0.4" stroke-linecap="round" stroke-linejoin="round"/>
<path d="M292 107.216H269.176V110.836H292V107.216Z" fill="#C13E4A" stroke="#651A21" stroke-width="0.4" stroke-linecap="round" stroke-linejoin="round"/>
<path d="M292 113.62H269.176V117.24H292V113.62Z" fill="#C13E4A" stroke="#651A21" stroke-width="0.4" stroke-linecap="round" stroke-linejoin="round"/>
<path d="M297.644 160.82C298.264 161.092 299.788 161.056 299.792 161.056C299.796 161.056 299.464 160.06 299.436 160C299.1 159.3 298.044 158.144 297.184 158.264C297.042 158.286 296.906 158.339 296.786 158.418C296.666 158.497 296.563 158.6 296.485 158.721C296.408 158.843 296.356 158.979 296.335 159.121C296.313 159.263 296.322 159.409 296.36 159.548C296.5 160.144 297.112 160.588 297.644 160.82Z" fill="#651A21"/>
<path d="M298.168 165.232C298.816 165.328 300.168 164.932 300.284 164.9C300.506 165.679 300.781 166.442 301.108 167.184C301.296 167.616 301.508 168.048 301.704 168.476L301.452 168.112C300.944 167.524 299.62 166.692 298.82 167.032C298.689 167.092 298.572 167.179 298.476 167.287C298.381 167.395 298.309 167.523 298.266 167.66C298.223 167.798 298.21 167.943 298.227 168.086C298.243 168.23 298.29 168.368 298.364 168.492C298.66 169.028 299.364 169.292 299.94 169.376C300.636 169.377 301.328 169.27 301.992 169.06C302.076 169.224 302.156 169.388 302.236 169.552C302.636 170.352 303.036 171.116 303.392 171.896C303.52 172.168 303.636 172.444 303.756 172.716C303.644 172.556 303.552 172.42 303.536 172.404C303.028 171.816 301.704 170.98 300.904 171.32C300.773 171.38 300.656 171.467 300.56 171.575C300.465 171.683 300.393 171.811 300.35 171.948C300.307 172.086 300.294 172.231 300.311 172.374C300.327 172.518 300.374 172.656 300.448 172.78C300.744 173.316 301.452 173.58 302.024 173.668C302.702 173.671 303.376 173.569 304.024 173.368C304.136 173.652 304.248 173.936 304.344 174.216C304.404 174.412 304.476 174.592 304.528 174.788C304.58 174.984 304.636 175.188 304.688 175.368C304.78 175.736 304.872 176.12 304.952 176.484C305.008 176.736 305.056 176.98 305.104 177.224C304.98 176.948 304.704 176.424 304.704 176.376C304.304 175.72 303.104 174.692 302.268 174.908C302.129 174.947 302.001 175.016 301.89 175.108C301.78 175.2 301.69 175.315 301.627 175.444C301.563 175.574 301.528 175.715 301.522 175.859C301.517 176.003 301.542 176.146 301.596 176.28C301.808 176.856 302.464 177.224 303.02 177.396C303.576 177.568 304.98 177.396 305.148 177.396C305.228 177.796 305.304 178.196 305.368 178.564C305.388 178.68 305.408 178.788 305.424 178.9H305.956C305.928 178.76 305.904 178.62 305.872 178.472C305.792 178.072 305.7 177.624 305.596 177.176C306.007 177.015 306.408 176.83 306.796 176.62C307.32 177.069 307.902 177.445 308.528 177.736C308.372 178.116 308.216 178.484 308.068 178.832C308.056 178.854 308.045 178.876 308.036 178.9H308.592C308.736 178.552 308.88 178.184 309.024 177.8C309.188 177.836 310.524 178.104 311.148 177.964C311.712 177.836 312.396 177.52 312.648 176.96C312.712 176.831 312.748 176.689 312.753 176.545C312.759 176.401 312.734 176.257 312.68 176.123C312.627 175.989 312.546 175.868 312.442 175.768C312.339 175.667 312.215 175.59 312.08 175.54C311.256 175.264 310 176.2 309.54 176.82C309.516 176.86 309.264 177.292 309.112 177.568C309.176 177.392 309.244 177.22 309.308 177.04C309.44 176.68 309.56 176.32 309.708 175.932C309.764 175.744 309.82 175.552 309.88 175.356C309.94 175.16 309.98 174.956 310.032 174.756C310.144 174.288 310.236 173.804 310.316 173.316C310.955 173.573 311.629 173.729 312.316 173.78C312.896 173.74 313.62 173.528 313.952 173.016C314.035 172.898 314.092 172.763 314.12 172.622C314.148 172.48 314.146 172.334 314.113 172.193C314.081 172.052 314.019 171.92 313.932 171.805C313.845 171.689 313.734 171.594 313.608 171.524C312.836 171.124 311.456 171.86 310.904 172.408C310.872 172.44 310.504 172.88 310.332 173.12C310.38 172.828 310.424 172.536 310.464 172.24C310.568 171.376 310.652 170.504 310.736 169.632L310.82 168.832C310.932 168.872 312.252 169.364 312.9 169.32C313.48 169.28 314.204 169.068 314.536 168.552C314.619 168.434 314.676 168.3 314.704 168.159C314.732 168.017 314.729 167.871 314.697 167.731C314.664 167.59 314.603 167.458 314.516 167.343C314.429 167.229 314.318 167.133 314.192 167.064C313.42 166.664 312.04 167.4 311.488 167.948C311.448 167.988 310.944 168.616 310.824 168.784C310.888 168.196 310.952 167.612 311.044 167.04C311.158 166.265 311.325 165.5 311.544 164.748C311.596 164.748 312.972 165.288 313.636 165.24C314.216 165.2 314.94 164.988 315.272 164.472C315.355 164.354 315.412 164.22 315.44 164.079C315.468 163.937 315.465 163.791 315.433 163.651C315.4 163.51 315.339 163.378 315.252 163.263C315.165 163.149 315.054 163.053 314.928 162.984C314.156 162.584 312.772 163.32 312.224 163.868C312.18 163.908 311.64 164.588 311.552 164.716C311.552 164.672 311.552 164.628 311.584 164.584C311.822 163.834 312.128 163.107 312.496 162.412C312.692 162.012 312.896 161.668 313.116 161.324C313.36 161.448 314.492 162 315.096 162.024C315.7 162.048 316.42 161.912 316.808 161.44C316.903 161.331 316.974 161.204 317.016 161.066C317.059 160.928 317.072 160.783 317.055 160.64C317.038 160.497 316.991 160.359 316.918 160.235C316.844 160.111 316.745 160.003 316.628 159.92C315.904 159.44 314.448 160.02 313.828 160.504C313.796 160.528 313.488 160.832 313.268 161.056L313.564 160.596C313.928 160.052 314.292 159.572 314.62 159.152C314.808 158.912 314.984 158.7 315.148 158.504C315.456 158.504 316.684 158.464 317.22 158.212C317.756 157.96 318.344 157.504 318.472 156.908C318.506 156.768 318.511 156.622 318.485 156.48C318.46 156.337 318.405 156.202 318.324 156.083C318.243 155.963 318.137 155.862 318.015 155.786C317.892 155.71 317.755 155.66 317.612 155.64C316.748 155.548 315.724 156.732 315.408 157.44C315.38 157.5 315.064 158.508 315.08 158.508H315.1C314.936 158.692 314.76 158.908 314.576 159.116C314.24 159.516 313.86 160.004 313.484 160.544C313.072 161.123 312.694 161.725 312.352 162.348C311.973 163.036 311.654 163.756 311.4 164.5C311.398 164.509 311.398 164.519 311.4 164.528C311.4 164.272 311.4 163.56 311.4 163.508C311.3 162.74 310.656 161.312 309.8 161.152C309.656 161.127 309.509 161.134 309.368 161.17C309.227 161.207 309.095 161.274 308.981 161.365C308.868 161.457 308.775 161.571 308.709 161.701C308.644 161.832 308.606 161.974 308.6 162.12C308.548 162.732 309 163.34 309.424 163.72C309.848 164.1 311.26 164.576 311.368 164.608C311.127 165.381 310.937 166.17 310.8 166.968C310.716 167.432 310.648 167.9 310.584 168.376C310.584 168.156 310.584 167.956 310.584 167.932C310.484 167.16 309.84 165.736 308.984 165.576C308.84 165.552 308.693 165.559 308.552 165.596C308.412 165.633 308.28 165.699 308.167 165.791C308.053 165.882 307.961 165.997 307.895 166.126C307.829 166.256 307.791 166.398 307.784 166.544C307.736 167.152 308.184 167.764 308.608 168.144C309.189 168.529 309.826 168.821 310.496 169.012C310.476 169.196 310.452 169.376 310.428 169.556C310.324 170.428 310.224 171.3 310.1 172.148C310.056 172.448 310.004 172.744 309.948 173.036C309.948 172.84 309.948 172.676 309.948 172.636C309.848 171.868 309.204 170.44 308.348 170.28C308.204 170.255 308.057 170.262 307.916 170.298C307.775 170.335 307.643 170.402 307.529 170.493C307.416 170.585 307.323 170.699 307.257 170.829C307.192 170.96 307.154 171.102 307.148 171.248C307.1 171.86 307.548 172.468 307.972 172.848C308.536 173.225 309.156 173.513 309.808 173.7C309.744 174 309.68 174.3 309.604 174.588C309.552 174.78 309.512 174.988 309.444 175.164C309.376 175.34 309.32 175.564 309.26 175.736C309.128 176.096 308.996 176.464 308.86 176.812C308.768 177.052 308.676 177.284 308.584 177.512C308.628 177.216 308.708 176.632 308.708 176.58C308.7 175.898 308.517 175.23 308.176 174.64C308.182 174.564 308.182 174.488 308.176 174.412C308.158 174.269 308.11 174.131 308.035 174.008C307.961 173.884 307.861 173.778 307.742 173.696C307.624 173.614 307.489 173.557 307.348 173.53C307.206 173.504 307.06 173.507 306.92 173.54C306.08 173.764 305.548 175.236 305.508 176.012C305.508 176.056 305.536 176.556 305.56 176.868C305.52 176.688 305.48 176.508 305.436 176.324C305.348 175.952 305.248 175.584 305.144 175.188C305.084 175 305.028 174.808 304.968 174.612C304.908 174.416 304.836 174.212 304.768 174.028C304.6 173.572 304.412 173.12 304.208 172.672C304.532 172.592 305.684 172.3 306.144 171.944C306.604 171.588 307.092 171.016 307.088 170.404C307.092 170.26 307.065 170.116 307.01 169.983C306.954 169.849 306.872 169.729 306.767 169.63C306.662 169.53 306.537 169.454 306.401 169.407C306.265 169.359 306.12 169.34 305.976 169.352C305.112 169.444 304.376 170.82 304.208 171.58C304.208 171.628 304.148 172.184 304.124 172.492C304 172.22 303.88 171.952 303.748 171.692C303.348 170.892 302.948 170.14 302.548 169.364C302.42 169.128 302.3 168.888 302.176 168.652C302.292 168.624 303.664 168.308 304.176 167.912C304.632 167.56 305.12 166.98 305.116 166.368C305.12 166.224 305.093 166.081 305.038 165.948C304.983 165.814 304.901 165.694 304.796 165.595C304.692 165.496 304.567 165.42 304.432 165.372C304.296 165.324 304.152 165.305 304.008 165.316C303.144 165.412 302.408 166.784 302.236 167.544C302.236 167.604 302.152 168.404 302.144 168.608C301.872 168.084 301.608 167.56 301.368 167.036C301.037 166.326 300.754 165.595 300.52 164.848C300.572 164.848 302.008 164.508 302.52 164.1C302.98 163.748 303.468 163.172 303.464 162.56C303.468 162.416 303.441 162.272 303.386 162.139C303.33 162.005 303.248 161.885 303.143 161.786C303.038 161.686 302.913 161.61 302.777 161.563C302.641 161.515 302.496 161.496 302.352 161.508C301.492 161.604 300.752 162.976 300.584 163.736C300.584 163.796 300.496 164.66 300.492 164.816C300.492 164.772 300.46 164.728 300.448 164.684C300.234 163.929 300.087 163.157 300.008 162.376C299.96 161.944 299.936 161.528 299.924 161.124C300.2 161.092 301.448 160.924 301.964 160.612C302.48 160.3 303.008 159.812 303.068 159.184C303.088 159.041 303.078 158.896 303.038 158.757C302.999 158.619 302.93 158.49 302.837 158.38C302.744 158.269 302.629 158.18 302.499 158.117C302.37 158.055 302.228 158.02 302.084 158.016C301.216 158.016 300.32 159.3 300.084 160.016C300.084 160.056 299.984 160.48 299.924 160.788C299.924 160.604 299.924 160.416 299.924 160.244C299.924 159.584 299.968 158.984 300.008 158.452C300.032 158.152 300.064 157.876 300.092 157.624C300.344 157.448 301.348 156.74 301.656 156.236C301.836 155.981 301.958 155.689 302.014 155.382C302.07 155.074 302.059 154.758 301.98 154.456C301.931 154.32 301.855 154.197 301.755 154.093C301.656 153.989 301.536 153.907 301.403 153.852C301.27 153.797 301.127 153.771 300.983 153.775C300.839 153.779 300.698 153.814 300.568 153.876C299.796 154.276 299.592 155.828 299.72 156.592C299.72 156.656 300.02 157.672 300.036 157.66C300 157.904 299.968 158.168 299.936 158.46C299.884 158.992 299.828 159.592 299.812 160.252C299.788 160.962 299.806 161.672 299.864 162.38C299.927 163.173 300.06 163.959 300.264 164.728C300.262 164.737 300.262 164.747 300.264 164.756C300.128 164.544 299.724 163.956 299.688 163.912C299.18 163.328 297.856 162.492 297.056 162.832C296.925 162.892 296.807 162.979 296.712 163.087C296.617 163.196 296.546 163.323 296.503 163.461C296.46 163.598 296.447 163.744 296.465 163.887C296.482 164.03 296.529 164.168 296.604 164.292C296.888 164.9 297.596 165.152 298.168 165.232Z" fill="#651A21"/>
<path d="M313.056 161.156C313.056 161.156 313.332 160.144 313.34 160.076C313.448 159.308 313.204 157.764 312.424 157.384C312.292 157.324 312.15 157.293 312.005 157.293C311.861 157.293 311.718 157.323 311.586 157.381C311.453 157.44 311.335 157.525 311.238 157.632C311.142 157.74 311.069 157.866 311.024 158.004C310.954 158.308 310.95 158.623 311.015 158.929C311.079 159.234 311.209 159.522 311.396 159.772C311.764 160.344 313.056 161.156 313.056 161.156Z" fill="#651A21"/>
<path d="M278.892 167.36C279.339 167.478 279.802 167.53 280.264 167.512C280.264 167.512 280.056 166.876 280.036 166.836C279.824 166.392 279.148 165.656 278.6 165.728C278.509 165.743 278.422 165.777 278.345 165.828C278.268 165.878 278.203 165.945 278.153 166.022C278.103 166.1 278.07 166.187 278.056 166.278C278.042 166.37 278.048 166.463 278.072 166.552C278.142 166.737 278.252 166.906 278.393 167.045C278.535 167.185 278.705 167.292 278.892 167.36Z" fill="#651A21"/>
<path d="M279.228 170.176C279.686 170.173 280.14 170.102 280.576 169.964C280.721 170.46 280.897 170.946 281.104 171.42C281.224 171.696 281.352 171.972 281.504 172.248C281.424 172.132 281.352 172.028 281.344 172.012C281.02 171.64 280.172 171.108 279.664 171.324C279.58 171.362 279.505 171.417 279.444 171.486C279.383 171.556 279.338 171.637 279.31 171.725C279.283 171.812 279.274 171.905 279.285 171.997C279.295 172.088 279.325 172.177 279.372 172.256C279.489 172.417 279.639 172.551 279.812 172.648C279.985 172.746 280.178 172.804 280.376 172.82C280.821 172.822 281.264 172.754 281.688 172.62L281.844 172.932C282.096 173.432 282.348 173.932 282.58 174.428C282.664 174.604 282.74 174.776 282.812 174.952C282.744 174.848 282.684 174.764 282.672 174.752C282.348 174.376 281.504 173.844 280.992 174.06C280.909 174.099 280.835 174.155 280.775 174.224C280.715 174.293 280.669 174.374 280.642 174.462C280.615 174.55 280.607 174.642 280.617 174.733C280.628 174.825 280.658 174.913 280.704 174.992C280.821 175.153 280.971 175.288 281.144 175.386C281.317 175.484 281.51 175.543 281.708 175.56C282.141 175.56 282.571 175.495 282.984 175.368C283.056 175.548 283.128 175.732 283.188 175.908C283.248 176.084 283.276 176.148 283.308 176.276C283.34 176.404 283.376 176.52 283.408 176.644C283.468 176.88 283.528 177.124 283.576 177.356C283.612 177.516 283.644 177.672 283.676 177.828C283.596 177.652 283.432 177.312 283.416 177.288C283.152 176.868 282.396 176.212 281.86 176.348C281.772 176.373 281.689 176.417 281.619 176.477C281.548 176.536 281.491 176.61 281.451 176.693C281.411 176.776 281.388 176.866 281.385 176.958C281.382 177.05 281.398 177.142 281.432 177.228C281.523 177.405 281.651 177.56 281.808 177.682C281.965 177.805 282.146 177.891 282.34 177.936C282.789 178.006 283.247 178.006 283.696 177.936C283.748 178.196 283.796 178.444 283.836 178.684C283.836 178.756 283.86 178.828 283.872 178.896H284.2C284.2 178.808 284.168 178.716 284.148 178.624C284.096 178.36 284.036 178.084 283.972 177.796C284.232 177.694 284.484 177.575 284.728 177.44C285.061 177.727 285.433 177.967 285.832 178.152C285.736 178.396 285.636 178.632 285.54 178.852C285.534 178.867 285.528 178.881 285.52 178.896H285.876L286.152 178.196C286.595 178.297 287.051 178.332 287.504 178.3C287.701 178.269 287.889 178.196 288.054 178.085C288.22 177.975 288.36 177.83 288.464 177.66C288.504 177.577 288.527 177.487 288.53 177.394C288.534 177.302 288.518 177.211 288.483 177.125C288.449 177.04 288.397 176.962 288.331 176.898C288.265 176.834 288.187 176.784 288.1 176.752C287.576 176.576 286.776 177.172 286.48 177.572C286.48 177.592 286.304 177.868 286.204 178.044L286.332 177.708C286.416 177.48 286.492 177.252 286.576 177.004L286.684 176.636C286.724 176.516 286.752 176.38 286.784 176.236C286.856 175.936 286.912 175.628 286.964 175.32C287.375 175.483 287.808 175.581 288.248 175.612C288.447 175.612 288.644 175.568 288.824 175.484C289.005 175.399 289.164 175.277 289.292 175.124C289.346 175.049 289.383 174.963 289.401 174.873C289.419 174.783 289.417 174.69 289.396 174.6C289.376 174.51 289.336 174.426 289.28 174.353C289.224 174.28 289.153 174.219 289.072 174.176C288.58 173.92 287.7 174.388 287.348 174.736C287.324 174.76 287.104 175.04 286.984 175.192C287.012 175.008 287.044 174.82 287.064 174.628C287.136 174.08 287.184 173.524 287.24 172.964C287.24 172.796 287.276 172.624 287.292 172.456C287.717 172.626 288.164 172.731 288.62 172.768C288.82 172.766 289.016 172.721 289.197 172.637C289.378 172.553 289.538 172.431 289.668 172.28C289.721 172.204 289.757 172.118 289.775 172.027C289.792 171.937 289.79 171.843 289.769 171.754C289.748 171.664 289.708 171.579 289.652 171.506C289.596 171.433 289.525 171.372 289.444 171.328C288.952 171.076 288.072 171.544 287.72 171.892C287.696 171.916 287.372 172.32 287.296 172.424C287.336 172.052 287.38 171.68 287.436 171.312C287.512 170.818 287.619 170.329 287.756 169.848C288.183 170.02 288.633 170.126 289.092 170.164C289.291 170.164 289.488 170.12 289.668 170.036C289.849 169.951 290.008 169.829 290.136 169.676C290.189 169.6 290.226 169.515 290.243 169.424C290.261 169.334 290.259 169.24 290.239 169.151C290.218 169.061 290.179 168.976 290.123 168.903C290.067 168.829 289.997 168.768 289.916 168.724C289.424 168.472 288.54 168.94 288.188 169.288C288.164 169.316 287.816 169.748 287.76 169.828L287.784 169.744C287.935 169.266 288.129 168.803 288.364 168.36C288.488 168.116 288.624 167.884 288.764 167.664C289.161 167.877 289.589 168.028 290.032 168.112C290.23 168.131 290.43 168.108 290.618 168.044C290.807 167.98 290.979 167.876 291.124 167.74C291.185 167.671 291.23 167.589 291.257 167.502C291.284 167.414 291.293 167.321 291.282 167.23C291.271 167.139 291.241 167.051 291.194 166.972C291.146 166.893 291.083 166.825 291.008 166.772C290.548 166.464 289.616 166.832 289.232 167.14L288.876 167.496C288.936 167.396 289 167.296 289.064 167.2C289.296 166.852 289.528 166.548 289.736 166.28C289.856 166.128 289.968 165.992 290.076 165.88C290.524 165.887 290.97 165.826 291.4 165.7C291.586 165.627 291.753 165.515 291.892 165.372C292.03 165.228 292.135 165.056 292.2 164.868C292.222 164.779 292.224 164.686 292.208 164.596C292.191 164.507 292.156 164.421 292.104 164.346C292.053 164.27 291.986 164.206 291.908 164.159C291.83 164.111 291.743 164.08 291.652 164.068C291.104 164.008 290.452 164.764 290.248 165.216C290.248 165.252 290.028 165.896 290.036 165.896C289.932 166.012 289.824 166.14 289.704 166.296C289.488 166.56 289.248 166.86 289.008 167.208C288.746 167.576 288.506 167.959 288.288 168.356C288.041 168.801 287.834 169.266 287.668 169.748C287.668 169.588 287.668 169.132 287.668 169.096C287.604 168.608 287.192 167.696 286.648 167.596C286.557 167.582 286.464 167.587 286.376 167.611C286.287 167.635 286.204 167.677 286.133 167.735C286.062 167.793 286.003 167.866 285.962 167.948C285.92 168.03 285.897 168.12 285.892 168.212C285.9 168.411 285.951 168.606 286.043 168.784C286.134 168.962 286.263 169.117 286.42 169.24C286.803 169.489 287.221 169.68 287.66 169.804C287.506 170.298 287.385 170.802 287.296 171.312C287.244 171.608 287.2 171.908 287.16 172.208C287.16 172.068 287.16 171.944 287.16 171.924C287.096 171.436 286.684 170.524 286.14 170.424C286.049 170.41 285.956 170.415 285.868 170.439C285.779 170.463 285.696 170.505 285.625 170.563C285.554 170.621 285.495 170.694 285.454 170.776C285.412 170.858 285.389 170.948 285.384 171.04C285.393 171.239 285.444 171.433 285.534 171.611C285.625 171.788 285.752 171.944 285.908 172.068C286.277 172.312 286.682 172.498 287.108 172.62C287.108 172.736 287.076 172.852 287.064 172.968C286.996 173.524 286.932 174.08 286.852 174.624C286.823 174.813 286.791 175.001 286.756 175.188C286.756 175.064 286.756 174.96 286.756 174.944C286.692 174.452 286.28 173.54 285.736 173.44C285.645 173.426 285.552 173.431 285.464 173.455C285.375 173.479 285.292 173.521 285.221 173.579C285.15 173.637 285.091 173.71 285.05 173.792C285.008 173.874 284.985 173.964 284.98 174.056C284.987 174.255 285.038 174.45 285.128 174.628C285.219 174.805 285.347 174.961 285.504 175.084C285.865 175.323 286.26 175.507 286.676 175.628C286.636 175.82 286.596 176.008 286.548 176.192C286.5 176.376 286.484 176.44 286.444 176.564L286.324 176.928C286.244 177.156 286.156 177.392 286.072 177.612C286.012 177.768 285.952 177.912 285.892 178.06C285.924 177.872 285.976 177.496 285.976 177.464C285.969 177.029 285.851 176.604 285.632 176.228C285.638 176.18 285.638 176.132 285.632 176.084C285.621 175.992 285.591 175.904 285.543 175.826C285.496 175.747 285.432 175.679 285.357 175.626C285.281 175.574 285.196 175.538 285.105 175.521C285.015 175.504 284.922 175.506 284.832 175.528C284.296 175.668 283.956 176.608 283.932 177.104C283.932 177.132 283.932 177.448 283.964 177.648C283.936 177.532 283.912 177.42 283.884 177.3C283.828 177.064 283.764 176.828 283.696 176.576L283.588 176.212C283.552 176.088 283.5 175.96 283.456 175.836C283.352 175.548 283.228 175.26 283.1 174.972C283.533 174.879 283.949 174.723 284.336 174.508C284.502 174.397 284.641 174.252 284.745 174.082C284.849 173.912 284.914 173.722 284.936 173.524C284.939 173.432 284.922 173.34 284.887 173.255C284.851 173.17 284.799 173.093 284.732 173.03C284.665 172.966 284.586 172.918 284.499 172.887C284.412 172.856 284.32 172.844 284.228 172.852C283.68 172.912 283.2 173.792 283.1 174.276C283.1 174.304 283.06 174.676 283.048 174.856C282.968 174.684 282.892 174.512 282.804 174.34C282.56 173.844 282.296 173.348 282.032 172.856L281.796 172.4C282.244 172.308 282.676 172.148 283.076 171.928C283.242 171.817 283.382 171.672 283.485 171.502C283.589 171.332 283.654 171.142 283.676 170.944C283.679 170.852 283.662 170.76 283.627 170.675C283.591 170.59 283.539 170.513 283.472 170.45C283.405 170.386 283.326 170.338 283.239 170.307C283.152 170.276 283.06 170.264 282.968 170.272C282.42 170.332 281.94 171.212 281.84 171.696C281.84 171.732 281.788 172.244 281.78 172.372C281.608 172.04 281.44 171.704 281.284 171.368C281.074 170.915 280.894 170.448 280.744 169.972C281.195 169.878 281.629 169.718 282.032 169.496C282.193 169.381 282.328 169.232 282.426 169.06C282.524 168.888 282.583 168.697 282.6 168.5C282.602 168.408 282.585 168.317 282.549 168.232C282.514 168.148 282.461 168.071 282.394 168.009C282.328 167.946 282.249 167.897 282.162 167.867C282.076 167.836 281.984 167.824 281.892 167.832C281.34 167.892 280.864 168.768 280.764 169.252C280.764 169.292 280.708 169.84 280.704 169.94C280.704 169.912 280.704 169.888 280.676 169.86C280.539 169.377 280.445 168.883 280.396 168.384C280.364 168.108 280.352 167.844 280.344 167.584C280.791 167.54 281.23 167.429 281.644 167.256C281.821 167.164 281.975 167.035 282.096 166.877C282.218 166.72 282.304 166.538 282.348 166.344C282.361 166.253 282.355 166.16 282.329 166.072C282.304 165.983 282.26 165.901 282.201 165.831C282.142 165.761 282.068 165.704 281.985 165.664C281.902 165.624 281.812 165.602 281.72 165.6C281.164 165.6 280.596 166.4 280.44 166.888C280.44 166.912 280.376 167.184 280.34 167.38C280.34 167.264 280.34 167.144 280.34 167.032C280.34 166.632 280.364 166.232 280.392 165.888C280.392 165.696 280.428 165.524 280.448 165.36C280.822 165.116 281.158 164.818 281.444 164.476C281.559 164.313 281.637 164.127 281.673 163.931C281.709 163.734 281.702 163.533 281.652 163.34C281.621 163.253 281.573 163.173 281.509 163.106C281.446 163.04 281.369 162.987 281.283 162.952C281.198 162.917 281.106 162.9 281.014 162.903C280.922 162.905 280.831 162.928 280.748 162.968C280.256 163.224 280.128 164.212 280.208 164.7C280.208 164.744 280.4 165.392 280.408 165.384C280.384 165.54 280.364 165.708 280.344 165.892C280.312 166.228 280.276 166.612 280.264 167.036C280.251 167.488 280.263 167.941 280.3 168.392C280.338 168.898 280.421 169.4 280.548 169.892C280.46 169.756 280.204 169.38 280.18 169.356C279.856 168.98 279.012 168.448 278.504 168.664C278.42 168.702 278.345 168.757 278.284 168.826C278.223 168.896 278.178 168.977 278.15 169.065C278.123 169.152 278.114 169.245 278.125 169.337C278.135 169.428 278.165 169.517 278.212 169.596C278.328 169.762 278.479 169.9 278.655 170.001C278.83 170.101 279.026 170.161 279.228 170.176Z" fill="#651A21"/>
<path d="M288.728 167.575C288.728 167.575 288.904 166.927 288.912 166.887C288.98 166.395 288.824 165.407 288.324 165.167C288.239 165.13 288.148 165.11 288.056 165.11C287.964 165.11 287.872 165.13 287.788 165.168C287.704 165.206 287.629 165.261 287.567 165.329C287.506 165.398 287.46 165.479 287.432 165.567C287.386 165.761 287.384 165.962 287.424 166.157C287.465 166.352 287.548 166.536 287.668 166.695C287.976 167.039 288.333 167.335 288.728 167.575Z" fill="#651A21"/>
<path d="M39.6602 178.892H319.928" stroke="#651A21" stroke-width="0.4" stroke-miterlimit="10"/>
</svg>
