<svg width="20" height="20" viewBox="0 0 20 20" fill="none" xmlns="http://www.w3.org/2000/svg">
<path d="M10.0004 11.2513V10.0007C10.9212 10.0007 11.6677 9.25423 11.6677 8.33338C11.6677 7.41252 10.9212 6.66602 10.0004 6.66602C9.07951 6.66602 8.33301 7.41252 8.33301 8.33338" stroke="currentColor" stroke-width="1.5" stroke-linecap="round" stroke-linejoin="round"/>
<path fill-rule="evenodd" clip-rule="evenodd" d="M10.0002 17.5043C14.1441 17.5043 17.5033 14.145 17.5033 10.0012C17.5033 5.85731 14.1441 2.49805 10.0002 2.49805C5.85633 2.49805 2.49707 5.85731 2.49707 10.0012C2.49707 14.145 5.85633 17.5043 10.0002 17.5043Z" stroke="currentColor" stroke-width="1.5" stroke-linecap="round" stroke-linejoin="round"/>
<path d="M9.99985 13.2931C9.97683 13.2931 9.95816 13.3118 9.95816 13.3348C9.95816 13.3578 9.97683 13.3765 9.99985 13.3765C10.0229 13.3765 10.0415 13.3578 10.0415 13.3348C10.0415 13.3118 10.0229 13.2931 9.99985 13.2931" stroke="currentColor" stroke-width="1.5" stroke-linecap="round" stroke-linejoin="round"/>
</svg>
