<svg width="24" height="24" viewBox="0 0 24 24" fill="none" xmlns="http://www.w3.org/2000/svg">
<g id="Group">
<path id="Path" d="M5.99759 13.1538C4.15982 13.9782 2.99634 15.1706 2.99634 16.5022C2.99634 18.9882 7.02702 21.0041 12.0001 21.0041C16.9732 21.0041 21.0038 18.9882 21.0038 16.5022C21.0038 15.1706 19.8404 13.9782 18.0026 13.1538" stroke="#8E969B" stroke-width="1.5" stroke-linecap="round" stroke-linejoin="round"/>
<path id="Path_2" d="M15.6537 17.0024C14.5696 17.7079 13.2925 18.0576 12.0002 18.0029C10.7079 18.0576 9.43079 17.7079 8.34668 17.0024" stroke="#8E969B" stroke-width="1.5" stroke-linecap="round" stroke-linejoin="round"/>
<path id="Path_3" d="M14.201 3.90979C15.0929 4.8016 15.3597 6.14285 14.877 7.30809C14.3944 8.47334 13.2573 9.23311 11.9961 9.23311C10.7348 9.23311 9.59777 8.47334 9.11513 7.30809C8.63248 6.14285 8.8993 4.8016 9.79116 3.90979C10.3758 3.32478 11.169 2.99609 11.9961 2.99609C12.8232 2.99609 13.6163 3.32478 14.201 3.90979" stroke="#8E969B" stroke-width="1.5" stroke-linecap="round" stroke-linejoin="round"/>
<path id="Path_4" d="M12.0002 9.23096V15.0014" stroke="#8E969B" stroke-width="1.5" stroke-linecap="round" stroke-linejoin="round"/>
</g>
</svg>
