<svg width="370" height="252" viewBox="0 0 370 252" fill="none" xmlns="http://www.w3.org/2000/svg">
<g clip-path="url(#clip0_4615_14041)">
<path d="M92.7383 209.011H108.431C108.134 207.094 106.897 207.429 106.735 204.453C106.654 202.957 108.036 201.105 107.918 199.134C107.82 197.514 106.222 195.851 106.098 193.999C105.984 192.325 107.351 190.467 107.216 188.664C107.091 186.963 105.471 185.326 105.331 183.555C105.191 181.784 106.524 179.948 106.368 178.204C106.211 176.46 104.559 174.845 104.386 173.122C104.213 171.4 105.498 169.445 105.299 167.722C105.093 165.924 103.392 164.369 103.139 162.711C102.879 160.87 104.084 158.893 103.803 157.311C103.457 155.362 101.643 153.947 101.259 152.505C100.547 149.805 100.633 147.235 99.7907 147.067C98.9483 146.9 98.7107 149.427 98.0087 152.257C97.6685 153.682 95.8919 155.124 95.5949 157.079C95.4005 158.656 96.6425 160.6 96.4373 162.436C96.2537 164.056 94.6013 165.676 94.4393 167.452C94.2881 169.137 95.6327 170.989 95.5193 172.75C95.4059 174.51 93.7859 176.092 93.6725 177.831C93.5591 179.57 94.9469 181.39 94.8551 183.102C94.7633 184.813 93.1811 186.52 93.1001 188.215C93.0137 190.003 94.4285 191.806 94.3583 193.47C94.2827 195.306 92.7383 196.99 92.6681 198.6C92.5979 200.549 94.0343 202.353 93.9911 203.838C93.8939 207.078 92.4143 206.397 92.3711 208.989L92.7383 209.011Z" fill="#E19199"/>
<path opacity="0.2" d="M92.7383 209.011H108.431C108.134 207.094 106.897 207.429 106.735 204.453C106.654 202.957 108.036 201.105 107.918 199.134C107.82 197.514 106.222 195.851 106.098 193.999C105.984 192.325 107.351 190.467 107.216 188.664C107.091 186.963 105.471 185.326 105.331 183.555C105.191 181.784 106.524 179.948 106.368 178.204C106.211 176.46 104.559 174.845 104.386 173.122C104.213 171.4 105.498 169.445 105.299 167.722C105.093 165.924 103.392 164.369 103.139 162.711C102.879 160.87 104.084 158.893 103.803 157.311C103.457 155.362 101.643 153.947 101.259 152.505C100.547 149.805 100.633 147.235 99.7907 147.067C98.9483 146.9 98.7107 149.427 98.0087 152.257C97.6685 153.682 95.8919 155.124 95.5949 157.079C95.4005 158.656 96.6425 160.6 96.4373 162.436C96.2537 164.056 94.6013 165.676 94.4393 167.452C94.2881 169.137 95.6327 170.989 95.5193 172.75C95.4059 174.51 93.7859 176.092 93.6725 177.831C93.5591 179.57 94.9469 181.39 94.8551 183.102C94.7633 184.813 93.1811 186.52 93.1001 188.215C93.0137 190.003 94.4285 191.806 94.3583 193.47C94.2827 195.306 92.7383 196.99 92.6681 198.6C92.5979 200.549 94.0343 202.353 93.9911 203.838C93.8939 207.078 92.4143 206.397 92.3711 208.989L92.7383 209.011Z" fill="white"/>
<path d="M99.4775 152.24V208.287" stroke="#942B35" stroke-width="0.60661" stroke-miterlimit="10"/>
<path d="M101.929 158.116L99.3745 160.324L97.2793 157.538" stroke="#942B35" stroke-width="0.60661" stroke-miterlimit="10"/>
<path d="M101.929 167.873L99.3745 170.076L97.2793 167.29" stroke="#942B35" stroke-width="0.60661" stroke-miterlimit="10"/>
<path d="M101.929 177.048L99.3745 179.251L97.2793 176.465" stroke="#942B35" stroke-width="0.60661" stroke-miterlimit="10"/>
<path d="M101.929 187.962L99.3745 190.17L97.2793 187.384" stroke="#942B35" stroke-width="0.60661" stroke-miterlimit="10"/>
<path d="M101.929 198.994L99.3745 201.202L97.2793 198.416" stroke="#942B35" stroke-width="0.60661" stroke-miterlimit="10"/>
<path d="M82.0513 209.011H94.1635C93.9313 207.531 92.9809 207.791 92.8513 205.496C92.7919 204.34 93.8611 202.909 93.7693 201.386C93.6883 200.139 92.4571 198.854 92.3599 197.423C92.2735 196.132 93.3265 194.723 93.2239 193.308C93.1213 191.893 91.8793 190.727 91.7659 189.36C91.6525 187.994 92.6893 186.579 92.5705 185.229C92.4517 183.879 91.1773 182.637 91.0423 181.309C90.9073 179.981 91.9009 178.469 91.7443 177.162C91.5877 175.855 90.2755 174.575 90.1243 173.295C89.9245 171.87 90.8533 170.347 90.6373 169.116C90.3727 167.609 88.9687 166.518 88.6717 165.406C88.1317 163.338 88.1911 161.34 87.5431 161.21C86.8951 161.081 86.6899 163.03 86.1661 165.217C85.9015 166.297 84.5461 167.431 84.3031 168.938C84.1195 170.158 85.0915 171.638 84.9295 173.063C84.7891 174.332 83.5147 175.553 83.3905 176.935C83.2717 178.236 84.3085 179.667 84.2059 181.028C84.1033 182.389 82.8667 183.604 82.7803 184.949C82.6939 186.293 83.7631 187.692 83.6929 189.015C83.6227 190.338 82.4023 191.655 82.3375 192.962C82.2727 194.269 83.3635 195.738 83.3095 197.018C83.2501 198.438 82.0513 199.718 82.0081 200.981C81.9541 202.488 83.0881 203.876 83.0233 205.02C82.9477 207.51 81.8083 206.997 81.7705 209L82.0513 209.011Z" fill="#E19199"/>
<path opacity="0.2" d="M82.0513 209.011H94.1635C93.9313 207.531 92.9809 207.791 92.8513 205.496C92.7919 204.34 93.8611 202.909 93.7693 201.386C93.6883 200.139 92.4571 198.854 92.3599 197.423C92.2735 196.132 93.3265 194.723 93.2239 193.308C93.1213 191.893 91.8793 190.727 91.7659 189.36C91.6525 187.994 92.6893 186.579 92.5705 185.229C92.4517 183.879 91.1773 182.637 91.0423 181.309C90.9073 179.981 91.9009 178.469 91.7443 177.162C91.5877 175.855 90.2755 174.575 90.1243 173.295C89.9245 171.87 90.8533 170.347 90.6373 169.116C90.3727 167.609 88.9687 166.518 88.6717 165.406C88.1317 163.338 88.1911 161.34 87.5431 161.21C86.8951 161.081 86.6899 163.03 86.1661 165.217C85.9015 166.297 84.5461 167.431 84.3031 168.938C84.1195 170.158 85.0915 171.638 84.9295 173.063C84.7891 174.332 83.5147 175.553 83.3905 176.935C83.2717 178.236 84.3085 179.667 84.2059 181.028C84.1033 182.389 82.8667 183.604 82.7803 184.949C82.6939 186.293 83.7631 187.692 83.6929 189.015C83.6227 190.338 82.4023 191.655 82.3375 192.962C82.2727 194.269 83.3635 195.738 83.3095 197.018C83.2501 198.438 82.0513 199.718 82.0081 200.981C81.9541 202.488 83.0881 203.876 83.0233 205.02C82.9477 207.51 81.8083 206.997 81.7705 209L82.0513 209.011Z" fill="white"/>
<path d="M87.252 165.189V208.454" stroke="#942B35" stroke-width="0.60661" stroke-miterlimit="10"/>
<path d="M89.1413 169.726L87.1703 171.427L85.5557 169.277" stroke="#942B35" stroke-width="0.60661" stroke-miterlimit="10"/>
<path d="M89.1413 177.253L87.1703 178.96L85.5557 176.811" stroke="#942B35" stroke-width="0.60661" stroke-miterlimit="10"/>
<path d="M89.1413 184.338L87.1703 186.039L85.5557 183.89" stroke="#942B35" stroke-width="0.60661" stroke-miterlimit="10"/>
<path d="M89.1413 192.763L87.1703 194.469L85.5557 192.314" stroke="#942B35" stroke-width="0.60661" stroke-miterlimit="10"/>
<path d="M89.1413 201.283L87.1703 202.984L85.5557 200.835" stroke="#942B35" stroke-width="0.60661" stroke-miterlimit="10"/>
<path d="M270.279 209.01H285.48C285.189 207.153 283.995 207.477 283.833 204.599C283.758 203.146 285.097 201.359 284.984 199.447C284.886 197.876 283.337 196.266 283.218 194.468C283.11 192.848 284.433 191.05 284.298 189.306C284.179 187.653 282.608 186.066 282.467 184.354C282.327 182.642 283.628 180.86 283.477 179.17C283.326 177.48 281.727 175.93 281.555 174.251C281.382 172.571 282.635 170.687 282.44 169.045C282.24 167.306 280.593 165.805 280.372 164.185C280.124 162.398 281.29 160.491 281.015 158.947C280.68 157.057 278.919 155.707 278.552 154.292C277.861 151.695 277.947 149.189 277.132 149.022C276.317 148.854 276.052 151.306 275.404 154.049C275.075 155.432 273.352 156.825 273.071 158.72C272.839 160.254 274.059 162.117 273.86 163.893C273.681 165.513 272.078 167.025 271.921 168.753C271.775 170.373 273.077 172.177 272.947 173.883C272.817 175.59 271.268 177.123 271.16 178.803C271.052 180.482 272.391 182.248 272.299 183.911C272.207 185.574 270.679 187.221 270.603 188.863C270.522 190.591 271.889 192.341 271.818 193.95C271.748 195.732 270.242 197.363 270.198 198.918C270.128 200.813 271.516 202.557 271.473 203.994C271.381 207.12 269.95 206.472 269.901 208.983L270.279 209.01Z" fill="#E19199"/>
<path opacity="0.2" d="M270.279 209.01H285.48C285.189 207.153 283.995 207.477 283.833 204.599C283.758 203.146 285.097 201.359 284.984 199.447C284.886 197.876 283.337 196.266 283.218 194.468C283.11 192.848 284.433 191.05 284.298 189.306C284.179 187.653 282.608 186.066 282.467 184.354C282.327 182.642 283.628 180.86 283.477 179.17C283.326 177.48 281.727 175.93 281.555 174.251C281.382 172.571 282.635 170.687 282.44 169.045C282.24 167.306 280.593 165.805 280.372 164.185C280.124 162.398 281.29 160.491 281.015 158.947C280.68 157.057 278.919 155.707 278.552 154.292C277.861 151.695 277.947 149.189 277.132 149.022C276.317 148.854 276.052 151.306 275.404 154.049C275.075 155.432 273.352 156.825 273.071 158.72C272.839 160.254 274.059 162.117 273.86 163.893C273.681 165.513 272.078 167.025 271.921 168.753C271.775 170.373 273.077 172.177 272.947 173.883C272.817 175.59 271.268 177.123 271.16 178.803C271.052 180.482 272.391 182.248 272.299 183.911C272.207 185.574 270.679 187.221 270.603 188.863C270.522 190.591 271.889 192.341 271.818 193.95C271.748 195.732 270.242 197.363 270.198 198.918C270.128 200.813 271.516 202.557 271.473 203.994C271.381 207.12 269.95 206.472 269.901 208.983L270.279 209.01Z" fill="white"/>
<path d="M276.808 154.028V208.309" stroke="#942B35" stroke-width="0.60661" stroke-miterlimit="10"/>
<path d="M279.178 159.714L276.705 161.852L274.68 159.152" stroke="#942B35" stroke-width="0.60661" stroke-miterlimit="10"/>
<path d="M279.178 169.164L276.705 171.303L274.68 168.603" stroke="#942B35" stroke-width="0.60661" stroke-miterlimit="10"/>
<path d="M279.178 178.053L276.705 180.191L274.68 177.491" stroke="#942B35" stroke-width="0.60661" stroke-miterlimit="10"/>
<path d="M279.178 188.626L276.705 190.764L274.68 188.064" stroke="#942B35" stroke-width="0.60661" stroke-miterlimit="10"/>
<path d="M279.178 199.313L276.705 201.451L274.68 198.751" stroke="#942B35" stroke-width="0.60661" stroke-miterlimit="10"/>
<path d="M259.927 209.011H271.662C271.435 207.575 270.511 207.828 270.393 205.604C270.328 204.486 271.365 203.098 271.273 201.629C271.203 200.414 270.009 199.172 269.912 197.79C269.831 196.537 270.852 195.149 270.749 193.799C270.646 192.449 269.448 191.304 269.34 189.976C269.232 188.648 270.231 187.276 270.117 185.975C270.004 184.673 268.767 183.469 268.632 182.195C268.497 180.92 269.464 179.446 269.318 178.177C269.172 176.908 267.892 175.671 267.698 174.435C267.509 173.052 268.405 171.578 268.195 170.385C267.936 168.927 266.575 167.868 266.294 166.794C265.754 164.785 265.824 162.852 265.214 162.728C264.604 162.603 264.42 164.472 263.88 166.594C263.626 167.674 262.298 168.754 262.077 170.196C261.898 171.378 262.838 172.815 262.687 174.192C262.546 175.423 261.31 176.606 261.191 177.972C261.078 179.23 262.082 180.618 261.985 181.93C261.888 183.242 260.689 184.43 260.602 185.71C260.516 186.99 261.558 188.367 261.488 189.652C261.418 190.937 260.235 192.206 260.176 193.47C260.116 194.733 261.164 196.17 261.115 197.401C261.056 198.773 259.895 200.036 259.852 201.235C259.798 202.693 260.872 204.043 260.84 205.155C260.764 207.564 259.663 207.067 259.625 209.006L259.927 209.011Z" fill="#E19199"/>
<path opacity="0.2" d="M259.927 209.011H271.662C271.435 207.575 270.511 207.828 270.393 205.604C270.328 204.486 271.365 203.098 271.273 201.629C271.203 200.414 270.009 199.172 269.912 197.79C269.831 196.537 270.852 195.149 270.749 193.799C270.646 192.449 269.448 191.304 269.34 189.976C269.232 188.648 270.231 187.276 270.117 185.975C270.004 184.673 268.767 183.469 268.632 182.195C268.497 180.92 269.464 179.446 269.318 178.177C269.172 176.908 267.892 175.671 267.698 174.435C267.509 173.052 268.405 171.578 268.195 170.385C267.936 168.927 266.575 167.868 266.294 166.794C265.754 164.785 265.824 162.852 265.214 162.728C264.604 162.603 264.42 164.472 263.88 166.594C263.626 167.674 262.298 168.754 262.077 170.196C261.898 171.378 262.838 172.815 262.687 174.192C262.546 175.423 261.31 176.606 261.191 177.972C261.078 179.23 262.082 180.618 261.985 181.93C261.888 183.242 260.689 184.43 260.602 185.71C260.516 186.99 261.558 188.367 261.488 189.652C261.418 190.937 260.235 192.206 260.176 193.47C260.116 194.733 261.164 196.17 261.115 197.401C261.056 198.773 259.895 200.036 259.852 201.235C259.798 202.693 260.872 204.043 260.84 205.155C260.764 207.564 259.663 207.067 259.625 209.006L259.927 209.011Z" fill="white"/>
<path d="M264.966 166.566V208.47" stroke="#942B35" stroke-width="0.60661" stroke-miterlimit="10"/>
<path d="M266.796 170.963L264.885 172.61L263.324 170.525" stroke="#942B35" stroke-width="0.60661" stroke-miterlimit="10"/>
<path d="M266.796 178.252L264.885 179.905L263.324 177.82" stroke="#942B35" stroke-width="0.60661" stroke-miterlimit="10"/>
<path d="M266.796 185.116L264.885 186.763L263.324 184.679" stroke="#942B35" stroke-width="0.60661" stroke-miterlimit="10"/>
<path d="M266.796 193.275L264.885 194.922L263.324 192.843" stroke="#942B35" stroke-width="0.60661" stroke-miterlimit="10"/>
<path d="M266.796 201.521L264.885 203.173L263.324 201.089" stroke="#942B35" stroke-width="0.60661" stroke-miterlimit="10"/>
<path d="M182.427 218.837C244.85 218.837 295.454 213.361 295.454 206.606C295.454 199.851 244.85 194.375 182.427 194.375C120.004 194.375 69.3994 199.851 69.3994 206.606C69.3994 213.361 120.004 218.837 182.427 218.837Z" fill="#E19199"/>
<path opacity="0.5" d="M182.427 218.837C244.85 218.837 295.454 213.361 295.454 206.606C295.454 199.851 244.85 194.375 182.427 194.375C120.004 194.375 69.3994 199.851 69.3994 206.606C69.3994 213.361 120.004 218.837 182.427 218.837Z" fill="white"/>
<path opacity="0.43" d="M211.335 118.276C231.386 98.2251 231.386 65.7163 211.335 45.6656C191.285 25.6148 158.776 25.6148 138.725 45.6656C118.674 65.7164 118.674 98.2251 138.725 118.276C158.776 138.327 191.285 138.327 211.335 118.276Z" fill="#E19199" stroke="#942B35" stroke-linecap="round" stroke-linejoin="round"/>
<path d="M287.84 133.596C287.84 133.596 290.54 135.972 290.054 136.917C289.568 137.862 279.794 147.83 279.794 147.83L278.056 145.303L283.591 135.335L287.84 133.596Z" fill="white" stroke="#942B35" stroke-miterlimit="10"/>
<path d="M274.935 121.305C274.935 121.305 286.89 131.856 286.89 132.488C286.89 133.12 282.462 137.235 282.462 137.235L273.763 134.702L274.238 124.896" fill="white"/>
<path d="M274.935 121.305C274.935 121.305 286.89 131.856 286.89 132.488C286.89 133.12 282.462 137.235 282.462 137.235L273.763 134.702L274.238 124.896" stroke="#942B35" stroke-miterlimit="10"/>
<path d="M284.832 129.486L281.198 137.548L281.673 138.655L288.791 132.645C288.791 132.645 287.208 129.324 284.832 129.486Z" fill="white" stroke="#942B35" stroke-miterlimit="10"/>
<path d="M243.307 136.765C242.145 136.905 240.972 136.621 240.002 135.966L218.58 121.44C218.052 121.082 217.6 120.623 217.248 120.09C216.897 119.557 216.655 118.96 216.534 118.333C216.414 117.706 216.418 117.062 216.547 116.437C216.676 115.812 216.926 115.218 217.284 114.69C217.643 114.161 218.101 113.709 218.634 113.358C219.167 113.007 219.764 112.764 220.391 112.644C221.018 112.523 221.662 112.528 222.287 112.656C222.912 112.785 223.506 113.036 224.034 113.394L245.456 127.92C246.275 128.477 246.904 129.27 247.26 130.195C247.615 131.119 247.68 132.13 247.445 133.092C247.21 134.054 246.687 134.921 245.945 135.578C245.204 136.234 244.28 136.648 243.296 136.765H243.307Z" fill="white" stroke="#942B35" stroke-linecap="round" stroke-linejoin="round"/>
<path d="M232.755 138.088C232.755 138.088 234.067 140.453 234.591 141.123C235.115 141.792 237.793 142.381 237.793 142.381C237.793 142.381 240.617 149.79 241.168 151.113C241.719 152.436 242.885 154.731 243.431 154.893C243.976 155.055 247.961 156.864 248.912 155.6C249.862 154.336 249.711 149.887 249.711 149.887L241.611 141.916L241.033 139.297L232.755 138.088Z" fill="white" stroke="#942B35" stroke-miterlimit="10"/>
<path d="M288.597 172.2C286.145 172.492 283.669 171.89 281.625 170.504L235.218 139.044C234.08 138.298 233.101 137.333 232.339 136.205C231.577 135.078 231.048 133.81 230.781 132.475C230.513 131.141 230.515 129.767 230.784 128.433C231.053 127.099 231.585 125.832 232.349 124.705C233.112 123.579 234.092 122.615 235.232 121.871C236.371 121.127 237.647 120.617 238.986 120.371C240.324 120.125 241.698 120.148 243.028 120.438C244.358 120.728 245.616 121.28 246.731 122.061L293.138 153.505C294.871 154.678 296.203 156.353 296.957 158.304C297.711 160.256 297.85 162.391 297.356 164.424C296.861 166.457 295.758 168.29 294.192 169.678C292.627 171.066 290.674 171.942 288.597 172.189V172.2Z" fill="#E19199" stroke="#942B35" stroke-miterlimit="10"/>
<path d="M234.143 141.139C234.143 141.139 232.934 138.012 232.777 137.699C232.62 137.386 231.638 136.079 231.794 135.679C231.951 135.28 232.415 135.058 233.139 135.577C233.862 136.095 235.218 139.044 235.218 139.044C235.218 139.044 237.34 137.964 238.274 138.892C239.208 139.821 239.414 142.316 239.414 142.316" fill="white"/>
<path d="M234.143 141.139C234.143 141.139 232.934 138.012 232.777 137.699C232.62 137.386 231.638 136.079 231.794 135.679C231.951 135.28 232.415 135.058 233.139 135.577C233.862 136.095 235.218 139.044 235.218 139.044C235.218 139.044 237.34 137.964 238.274 138.892C239.208 139.821 239.414 142.316 239.414 142.316" stroke="#942B35" stroke-miterlimit="10"/>
<path d="M172.27 28.5003C161.292 29.81 150.949 34.3458 142.549 41.5341C134.149 48.7223 128.07 58.2402 125.079 68.8838C122.089 79.5275 122.322 90.8189 125.75 101.33C129.177 111.841 135.645 121.1 144.334 127.935C153.024 134.77 163.545 138.875 174.568 139.73C185.59 140.585 196.619 138.152 206.259 132.739C215.899 127.326 223.717 119.176 228.725 109.319C233.732 99.4626 235.704 88.3424 234.391 77.3649C232.631 62.648 225.098 49.2328 213.449 40.0693C201.799 30.9058 186.987 26.7444 172.27 28.5003ZM184.749 133.114C175.036 134.273 165.198 132.525 156.478 128.092C147.759 123.658 140.55 116.739 135.762 108.209C130.975 99.6788 128.825 89.9206 129.584 80.1683C130.342 70.416 133.975 61.1076 140.024 53.4202C146.073 45.7328 154.265 40.0117 163.565 36.9802C172.866 33.9487 182.856 33.7431 192.273 36.3893C201.69 39.0355 210.111 44.4147 216.471 51.8467C222.831 59.2787 226.844 68.4296 228.003 78.1425C229.556 91.1679 225.872 104.277 217.76 114.586C209.649 124.895 197.774 131.56 184.749 133.114Z" fill="white" stroke="#942B35" stroke-linecap="round" stroke-linejoin="round"/>
<path d="M170.077 27.5717C159.098 28.8769 148.753 33.4087 140.35 40.5939C131.947 47.7791 125.864 57.295 122.869 67.9379C119.875 78.5808 120.104 89.8728 123.528 100.385C126.952 110.898 133.416 120.159 142.104 126.998C150.792 133.836 161.312 137.944 172.335 138.803C183.358 139.661 194.387 137.232 204.029 131.821C213.671 126.411 221.492 118.262 226.502 108.407C231.512 98.551 233.487 87.4308 232.177 76.4525C230.421 61.737 222.893 48.3212 211.247 39.1549C199.602 29.9886 184.794 25.8222 170.077 27.5717ZM182.557 132.186C172.844 133.344 163.005 131.596 154.286 127.163C145.566 122.73 138.357 115.811 133.57 107.281C128.783 98.7503 126.632 88.992 127.391 79.2397C128.149 69.4874 131.783 60.179 137.832 52.4917C143.88 44.8043 152.073 39.0831 161.373 36.0517C170.673 33.0202 180.663 32.8146 190.08 35.4608C199.497 38.107 207.918 43.4862 214.278 50.9181C220.638 58.3501 224.651 67.5011 225.811 77.2139C227.364 90.2394 223.679 103.348 215.568 113.657C207.456 123.966 195.582 130.631 182.557 132.186Z" fill="white" stroke="#942B35" stroke-linecap="round" stroke-linejoin="round"/>
<path d="M252.162 105.796C252.162 105.796 250.785 109.657 250.877 110.391C250.969 111.126 251.336 111.407 250.877 111.866C250.418 112.325 248.949 113.426 249.133 114.069C249.38 114.606 249.75 115.078 250.213 115.446C250.213 115.446 251.223 119.49 252.233 119.949C253.242 120.408 254.808 120.041 254.808 120.041L255.888 122.984L263.61 121.056L263.151 116.369C263.151 116.369 265.446 111.957 264.896 109.29C264.345 106.622 259.566 104.052 256.439 104.052C253.313 104.052 252.438 105.062 252.162 105.796Z" fill="white" stroke="#942B35" stroke-miterlimit="10"/>
<path d="M252.211 116.558C252.211 116.558 253.415 116.401 253.782 115.667" stroke="#942B35" stroke-miterlimit="10"/>
<path d="M252.319 111.844C252.319 112.163 252.211 112.422 252.082 112.422C251.952 112.422 251.85 112.163 251.85 111.844C251.85 111.526 251.952 111.267 252.082 111.267C252.211 111.267 252.319 111.526 252.319 111.844Z" fill="#942B35"/>
<path d="M251.741 110.538C251.741 110.538 252.422 109.701 252.821 110.743" stroke="#942B35" stroke-miterlimit="10"/>
<path d="M253.993 107.27C253.993 107.27 250.959 107.453 250.753 104.602C250.548 101.751 254.706 100.19 256.267 100.19C257.827 100.19 256.726 101.756 256.726 101.756C256.726 101.756 260.587 100.649 261.586 101.665C262.585 102.68 261.769 103.501 261.769 103.501C261.769 103.501 266.824 105.612 266.824 109.289C266.824 112.967 264.162 116.552 263.703 117.287C263.244 118.021 262.137 118.664 260.117 118.756C258.097 118.847 256.877 117.838 256.44 116.461L255.981 115.078C255.981 115.078 257.541 113.426 256.807 112.049C256.072 110.672 255.613 111.509 255.43 112.049C255.246 112.589 255.613 113.129 255.246 113.129C254.879 113.129 255.154 112.67 254.166 111.66C253.178 110.65 252.325 110.186 252.692 109.176C253.004 108.465 253.445 107.819 253.993 107.27Z" fill="#942B35" stroke="#942B35" stroke-miterlimit="10"/>
<path d="M253.729 122.536L252.633 124.961L266.586 121.786L264.972 119.771L253.729 122.536Z" fill="white" stroke="#942B35" stroke-miterlimit="10"/>
<path d="M259.334 205.372C259.334 205.372 255.176 206.366 252.757 206.366C250.338 206.366 249.279 206.241 249.279 207.046C249.279 207.851 253.13 209.341 255.36 210.21C257.59 211.08 261.937 212.322 262.309 212.198C262.682 212.073 263.427 207.543 263.427 207.543L259.334 205.372Z" fill="white" stroke="#942B35" stroke-miterlimit="10"/>
<path d="M249.528 206.576C249.447 206.624 249.381 206.693 249.337 206.776C249.293 206.859 249.273 206.952 249.279 207.046C249.279 207.856 253.13 209.341 255.36 210.21C257.59 211.08 261.937 212.322 262.31 212.198C262.396 212.171 262.499 211.906 262.612 211.528C258.265 210.659 251.321 207.429 249.528 206.576Z" fill="#942B35" stroke="#942B35" stroke-miterlimit="10"/>
<path d="M251.887 152.328C251.861 155.331 251.985 158.333 252.26 161.324C252.692 165.477 254.679 183.718 254.863 186.574C255.046 189.431 259.334 205.372 259.334 205.372L263.427 207.532C263.427 207.532 265.474 189.787 265.474 186.812V181.849C265.474 181.849 269.07 167.761 270.188 164.413C271.306 161.065 271.862 154.423 271.743 150.702C268.464 151.978 264.998 152.708 261.483 152.862C258.275 153.045 255.056 152.866 251.887 152.328Z" fill="#942B35" stroke="#942B35" stroke-miterlimit="10"/>
<path d="M274.562 126.608L272.893 140.005C272.893 140.005 272.24 150.146 272.056 151.08C271.872 152.015 271.03 152.474 267.196 153.78C263.362 155.087 253.048 154.153 252.211 153.311C251.374 152.468 251.19 144.287 251.19 144.287C251.19 144.287 250.073 149.034 249.236 149.687C248.399 150.341 245.234 150.06 243.744 148.667C242.253 147.273 244.025 131.262 243.927 129.767C243.83 128.271 253.048 124.647 253.048 124.647C253.048 124.647 265.851 121.71 266.548 121.78C267.245 121.85 274.34 120.371 274.896 121.299C275.453 122.228 275.831 122.79 275.831 122.79" fill="white"/>
<path d="M274.562 126.608L272.893 140.005C272.893 140.005 272.24 150.146 272.056 151.08C271.872 152.015 271.03 152.474 267.196 153.78C263.362 155.087 253.048 154.153 252.211 153.311C251.374 152.468 251.19 144.287 251.19 144.287C251.19 144.287 250.073 149.034 249.236 149.687C248.399 150.341 245.234 150.06 243.744 148.667C242.253 147.273 244.025 131.262 243.927 129.767C243.83 128.271 253.048 124.647 253.048 124.647C253.048 124.647 265.851 121.71 266.548 121.78C267.245 121.85 274.34 120.371 274.896 121.299C275.453 122.228 275.831 122.79 275.831 122.79" stroke="#942B35" stroke-miterlimit="10"/>
<path d="M251.207 144.293L248.69 132.1" stroke="#942B35" stroke-miterlimit="10"/>
<path d="M264.799 127.547L259.016 144.897" stroke="#942B35" stroke-miterlimit="10"/>
<path d="M263.222 138.85L259.016 149.369" stroke="#942B35" stroke-miterlimit="10"/>
<path d="M243.091 144.768C242.95 144.966 242.876 145.205 242.88 145.448C242.88 145.864 242.049 149.228 242.411 149.881C242.772 150.535 244.29 151.453 246.731 151.555C249.171 151.658 250.122 151.296 250.332 150.664C250.681 149.328 250.925 147.967 251.061 146.593C251.013 146.231 250.7 146.436 250.7 146.436C249.102 146.764 247.447 146.675 245.894 146.177C243.458 145.34 243.091 144.768 243.091 144.768Z" fill="white" stroke="#942B35" stroke-miterlimit="10"/>
<path d="M252.195 155.859C252.195 155.859 252.319 166.287 252.568 172.427C252.816 178.566 253.81 183.907 254.188 185.144C254.566 186.38 263.001 197.18 264.923 199.481C266.846 201.781 270.566 205.248 270.566 205.248L274.767 202.953C274.767 202.953 269.324 195.198 267.591 191.613C265.857 188.027 262.812 182.06 262.812 182.06L264.729 164.845L267.893 163.112" fill="#942B35"/>
<path d="M252.195 155.859C252.195 155.859 252.319 166.287 252.568 172.427C252.816 178.566 253.81 183.907 254.188 185.144C254.566 186.38 263.001 197.18 264.923 199.481C266.846 201.781 270.566 205.248 270.566 205.248L274.767 202.953C274.767 202.953 269.324 195.198 267.591 191.613C265.857 188.027 262.812 182.06 262.812 182.06L264.729 164.845L267.893 163.112" stroke="#942B35" stroke-miterlimit="10"/>
<path d="M267.212 163.965L264.625 165.693L262.806 182.044L265.473 186.823" stroke="#C13E4A" stroke-miterlimit="10"/>
<path d="M270.631 205.086C270.631 205.086 268.633 208.051 267.877 208.737C267.121 209.422 264.156 211.221 263.74 211.631C263.324 212.041 265.603 212.392 267.256 212.392C268.908 212.392 270.976 212.047 272.008 211.426C273.039 210.805 276.9 208.051 277.381 207.57C277.861 207.09 274.762 202.953 274.762 202.953L270.631 205.086Z" fill="white" stroke="#942B35" stroke-miterlimit="10"/>
<path d="M277.38 207.57C277.548 207.403 277.294 206.814 276.889 206.112C275.382 207.695 272.029 211.075 270.63 211.512C269.075 211.971 265.117 211.663 263.859 211.55L263.74 211.647C263.33 212.063 265.603 212.409 267.255 212.409C268.908 212.409 270.976 212.063 272.007 211.442C273.039 210.821 276.9 208.045 277.38 207.57Z" fill="#942B35" stroke="#942B35" stroke-miterlimit="10"/>
</g>
<defs>
<clipPath id="clip0_4615_14041">
<rect width="369" height="252" fill="white" transform="translate(0.5)"/>
</clipPath>
</defs>
</svg>
