<svg width="32" height="32" viewBox="0 0 32 32" fill="none" stroke="currentColor" xmlns="http://www.w3.org/2000/svg">
<path fill-rule="evenodd" clip-rule="evenodd" d="M21 14.032V14V14C21 11.239 18.761 9 16 9V9C13.239 9 11 11.239 11 14V14V14.032V16.504C11 16.828 10.817 17.123 10.528 17.268L10.025 17.519C9.397 17.834 9 18.476 9 19.178V19.178C9 20.202 9.83 21.032 10.854 21.032H21.146C22.17 21.032 23 20.202 23 19.178V19.178C23 18.476 22.603 17.834 21.975 17.52L21.472 17.269C21.183 17.123 21 16.828 21 16.504V14.032Z" stroke-width="1.5" stroke-linecap="round" stroke-linejoin="round"/>
<path d="M22.951 10.0488C22.239 8.79883 21.201 7.76083 19.951 7.04883" stroke-width="1.5" stroke-linecap="round" stroke-linejoin="round"/>
<path d="M9.04895 10.0488C9.76095 8.79883 10.799 7.76083 12.049 7.04883" stroke-width="1.5" stroke-linecap="round" stroke-linejoin="round"/>
<path fill-rule="evenodd" clip-rule="evenodd" d="M21 14.032V14V14C21 11.239 18.761 9 16 9V9C13.239 9 11 11.239 11 14V14V14.032V16.504C11 16.828 10.817 17.123 10.528 17.268L10.025 17.519C9.397 17.834 9 18.476 9 19.178V19.178C9 20.202 9.83 21.032 10.854 21.032H21.146C22.17 21.032 23 20.202 23 19.178V19.178C23 18.476 22.603 17.834 21.975 17.52L21.472 17.269C21.183 17.123 21 16.828 21 16.504V14.032Z" stroke-width="1.5" stroke-linecap="round" stroke-linejoin="round"/>
<path d="M22.951 10.0488C22.239 8.79883 21.201 7.76083 19.951 7.04883" stroke-width="1.5" stroke-linecap="round" stroke-linejoin="round"/>
<path d="M9.04895 10.0488C9.76095 8.79883 10.799 7.76083 12.049 7.04883" stroke-width="1.5" stroke-linecap="round" stroke-linejoin="round"/>
<path d="M13.5093 21V21.5122C13.5093 22.1727 13.7718 22.8061 14.239 23.2729C14.7062 23.7398 15.3398 24.0018 16.0003 24.0013V24.0013C16.6609 24.0015 17.2945 23.7393 17.7617 23.2723C18.2289 22.8053 18.4914 22.1718 18.4914 21.5112V21" stroke-width="1.5" stroke-linecap="round" stroke-linejoin="round"/>
</svg>
