<svg width="16" height="16" viewBox="0 0 16 16" fill="none" stroke="currentColor" xmlns="http://www.w3.org/2000/svg">
<g id="Group">
<g id="Group_2">
<path id="Path" fill-rule="evenodd" clip-rule="evenodd" d="M11.3333 12H3.33333C2.59667 12 2 11.4033 2 10.6667V5.33333C2 4.59667 2.59667 4 3.33333 4H11.3333C12.07 4 12.6667 4.59667 12.6667 5.33333V10.6667C12.6667 11.4033 12.07 12 11.3333 12Z" stroke-width="1.5" stroke-linecap="round" stroke-linejoin="round"/>
<path id="Path_2" d="M7.5333 10L8.5333 8H6.1333L7.1333 6" stroke-width="1.5" stroke-linecap="round" stroke-linejoin="round"/>
<path id="Path_3" d="M12.6667 6H13.3427C13.4461 6 13.5481 6.024 13.6407 6.07067L13.9647 6.23267C14.1907 6.34533 14.3334 6.57667 14.3334 6.82867V9.17133C14.3334 9.424 14.1907 9.65467 13.9647 9.76733L13.6407 9.92933C13.5481 9.976 13.4461 10 13.3427 10H12.6667" stroke-width="1.5" stroke-linecap="round" stroke-linejoin="round"/>
</g>
</g>
</svg>
