<svg width="18" height="18" viewBox="0 0 18 18" fill="none" xmlns="http://www.w3.org/2000/svg">
<path fill-rule="evenodd" clip-rule="evenodd" d="M5.99805 2.9977L6.97345 1.77844C7.11601 1.60061 7.33135 1.49707 7.55945 1.49707H10.4399C10.668 1.49707 10.8833 1.60061 11.0259 1.77844L12.0005 2.9977V2.9977V3.74801C12.0005 4.16218 11.6644 4.49832 11.2502 4.49832H6.74836C6.33419 4.49832 5.99805 4.16218 5.99805 3.74801V2.9977V2.9977Z" stroke="#316EE8" stroke-width="1.5" stroke-linecap="round" stroke-linejoin="round"/>
<path d="M5.99832 2.9978H4.4977C3.6686 2.9978 2.99707 3.66933 2.99707 4.49843V14.2525C2.99707 15.0816 3.6686 15.7531 4.4977 15.7531H13.5014C14.3305 15.7531 15.0021 15.0816 15.0021 14.2525V4.49843C15.0021 3.66933 14.3305 2.9978 13.5014 2.9978H12.0008" stroke="#316EE8" stroke-width="1.5" stroke-linecap="round" stroke-linejoin="round"/>
<path d="M10.5003 9.37524L8.62449 11.251L7.49902 10.1256" stroke="#316EE8" stroke-width="1.5" stroke-linecap="round" stroke-linejoin="round"/>
</svg>
