<svg xmlns="http://www.w3.org/2000/svg" width="150" height="150" viewBox="0 0 150 150" fill="none">
  <g clip-path="url(#clip0_15039_6838)">
    <path d="M62.7 12.615C43.8 16.023 24.948 29.187 13.578 44.814C3.789 58.269 0.677995 74.454 2.553 89.136C4.719 106.173 13.317 122.046 27.111 131.883C30.738 134.472 34.2 137.04 38.4 138.9C55.629 146.541 72.3 130.347 82.149 130.224C90.441 130.119 94.317 138.738 101.928 140.367C122.475 144.765 146.004 116.145 146.4 94.932C146.841 70.233 109.515 4.17298 62.7 12.615Z" fill="#942B35"/>
    <path d="M62.7 12.615C43.8 16.023 24.948 29.187 13.578 44.814C3.789 58.269 0.677995 74.454 2.553 89.136C4.719 106.173 13.317 122.046 27.111 131.883C30.738 134.472 34.2 137.04 38.4 138.9C55.629 146.541 72.3 130.347 82.149 130.224C90.441 130.119 94.317 138.738 101.928 140.367C122.475 144.765 146.004 116.145 146.4 94.932C146.841 70.233 109.515 4.17298 62.7 12.615Z" fill="#FAEAEC"/>
    <path d="M126.838 63.604C131.599 62.4644 134.535 57.6806 133.396 52.9191C132.256 48.1575 127.472 45.2214 122.711 46.361C117.949 47.5006 115.013 52.2845 116.153 57.046C117.292 61.8075 122.076 64.7437 126.838 63.604Z" stroke="#942B35" stroke-miterlimit="10"/>
    <path d="M126.595 54.5442C131.017 53.538 133.786 49.1377 132.78 44.716C131.773 40.2942 127.373 37.5254 122.951 38.5316C118.529 39.5378 115.761 43.9381 116.767 48.3598C117.773 52.7816 122.173 55.5504 126.595 54.5442Z" stroke="#942B35" stroke-miterlimit="10"/>
    <path d="M126.599 71.1083C131.021 70.1021 133.79 65.7018 132.783 61.2801C131.777 56.8583 127.377 54.0894 122.955 55.0957C118.533 56.1019 115.764 60.5022 116.771 64.9239C117.777 69.3457 122.177 72.1145 126.599 71.1083Z" stroke="#942B35" stroke-miterlimit="10"/>
    <path d="M118.091 68.9554C123.273 68.1226 126.799 63.2462 125.967 58.0638C125.134 52.8814 120.257 49.3554 115.075 50.1882C109.892 51.0211 106.366 55.8975 107.199 61.0799C108.032 66.2623 112.909 69.7883 118.091 68.9554Z" stroke="#942B35" stroke-miterlimit="10"/>
    <path d="M135.283 68.8398C140.396 67.6502 143.576 62.5414 142.386 57.4291C141.196 52.3168 136.087 49.1368 130.975 50.3265C125.863 51.5162 122.683 56.6249 123.873 61.7373C125.062 66.8496 130.171 70.0295 135.283 68.8398Z" stroke="#942B35" stroke-miterlimit="10"/>
    <path d="M136.008 59.4014C141.064 57.9925 144.021 52.7514 142.612 47.6951C141.203 42.6388 135.962 39.682 130.906 41.0909C125.85 42.4998 122.893 47.7408 124.302 52.7971C125.711 57.8534 130.952 60.8102 136.008 59.4014Z" stroke="#942B35" stroke-miterlimit="10"/>
    <path d="M118.467 59.48C123.571 58.2574 126.718 53.1282 125.496 48.0237C124.273 42.9191 119.144 39.7723 114.039 40.9949C108.935 42.2176 105.788 47.3468 107.01 52.4513C108.233 57.5558 113.362 60.7027 118.467 59.48Z" stroke="#942B35" stroke-miterlimit="10"/>
    <path d="M117.372 51.141C117.965 51.141 118.446 50.6602 118.446 50.067C118.446 49.4739 117.965 48.993 117.372 48.993C116.779 48.993 116.298 49.4739 116.298 50.067C116.298 50.6602 116.779 51.141 117.372 51.141Z" fill="#942B35" stroke="#942B35" stroke-miterlimit="10"/>
    <path d="M125.877 46.128C125.877 45.9156 125.814 45.708 125.696 45.5313C125.578 45.3547 125.41 45.2171 125.214 45.1358C125.018 45.0545 124.802 45.0332 124.593 45.0747C124.385 45.1161 124.194 45.2184 124.044 45.3686C123.893 45.5188 123.791 45.7102 123.75 45.9185C123.708 46.1268 123.729 46.3428 123.811 46.539C123.892 46.7353 124.03 46.903 124.206 47.021C124.383 47.139 124.591 47.202 124.803 47.202C125.088 47.202 125.361 47.0889 125.562 46.8874C125.764 46.686 125.877 46.4129 125.877 46.128Z" fill="#942B35" stroke="#942B35" stroke-miterlimit="10"/>
    <path d="M117.372 60.72C117.965 60.72 118.446 60.2392 118.446 59.646C118.446 59.0529 117.965 58.572 117.372 58.572C116.779 58.572 116.298 59.0529 116.298 59.646C116.298 60.2392 116.779 60.72 117.372 60.72Z" fill="#942B35" stroke="#942B35" stroke-miterlimit="10"/>
    <path d="M131.967 51.141C132.56 51.141 133.041 50.6602 133.041 50.067C133.041 49.4739 132.56 48.993 131.967 48.993C131.374 48.993 130.893 49.4739 130.893 50.067C130.893 50.6602 131.374 51.141 131.967 51.141Z" fill="#942B35" stroke="#942B35" stroke-miterlimit="10"/>
    <path d="M131.967 60.72C132.56 60.72 133.041 60.2392 133.041 59.646C133.041 59.0529 132.56 58.572 131.967 58.572C131.374 58.572 130.893 59.0529 130.893 59.646C130.893 60.2392 131.374 60.72 131.967 60.72Z" fill="#942B35" stroke="#942B35" stroke-miterlimit="10"/>
    <path d="M125.877 54.993C125.877 54.7806 125.814 54.5729 125.696 54.3963C125.578 54.2197 125.41 54.0821 125.214 54.0008C125.018 53.9195 124.802 53.8982 124.593 53.9396C124.385 53.9811 124.194 54.0834 124.044 54.2336C123.893 54.3838 123.791 54.5751 123.75 54.7835C123.708 54.9918 123.729 55.2078 123.811 55.404C123.892 55.6003 124.03 55.768 124.206 55.886C124.383 56.004 124.591 56.067 124.803 56.067C124.944 56.067 125.084 56.0392 125.214 55.9853C125.344 55.9313 125.463 55.8522 125.562 55.7524C125.662 55.6527 125.741 55.5343 125.795 55.404C125.849 55.2737 125.877 55.134 125.877 54.993Z" fill="#942B35" stroke="#942B35" stroke-miterlimit="10"/>
    <path d="M125.877 63.945C125.877 63.7326 125.814 63.525 125.696 63.3483C125.578 63.1717 125.41 63.0341 125.214 62.9528C125.018 62.8715 124.802 62.8502 124.593 62.8917C124.385 62.9331 124.194 63.0354 124.044 63.1856C123.893 63.3358 123.791 63.5272 123.75 63.7355C123.708 63.9438 123.729 64.1598 123.811 64.356C123.892 64.5523 124.03 64.72 124.206 64.838C124.383 64.956 124.591 65.019 124.803 65.019C125.088 65.019 125.361 64.9059 125.562 64.7045C125.764 64.5031 125.877 64.2299 125.877 63.945Z" fill="#942B35" stroke="#942B35" stroke-miterlimit="10"/>
    <path d="M79.5492 118.234C93.5388 115.963 103.039 102.782 100.768 88.792C98.4971 74.8023 85.3154 65.3024 71.3258 67.5732C57.3361 69.8441 47.8362 83.0258 50.107 97.0154C52.3779 111.005 65.5596 120.505 79.5492 118.234Z" stroke="#942B35" stroke-miterlimit="10"/>
    <path d="M85.1257 102.589C90.4763 97.2387 90.4763 88.5637 85.1257 83.2132C79.7752 77.8626 71.1002 77.8626 65.7496 83.2132C60.399 88.5637 60.399 97.2387 65.7496 102.589C71.1002 107.94 79.7752 107.94 85.1257 102.589Z" stroke="#942B35" stroke-miterlimit="10"/>
    <path d="M45.579 72.678C41.3036 78.9902 39.1389 86.4951 39.3957 94.1146C39.6524 101.734 42.3176 109.076 47.0082 115.086C51.6989 121.096 58.1737 125.465 65.5026 127.565C72.8315 129.665 80.6375 129.388 87.7992 126.774C94.9609 124.16 101.11 119.344 105.363 113.016C109.616 106.689 111.754 99.1764 111.47 91.5578C111.186 83.9393 108.495 76.6067 103.783 70.6132C99.0715 64.6198 92.5813 60.274 85.245 58.2" stroke="#942B35" stroke-miterlimit="10"/>
    <path d="M51.4517 51.405C61.3585 41.4982 61.3585 25.436 51.4517 15.5292C41.5449 5.6224 25.4828 5.6224 15.5759 15.5292C5.66913 25.436 5.66913 41.4982 15.5759 51.405C25.4828 61.3118 41.5449 61.3118 51.4517 51.405Z" stroke="#942B35" stroke-miterlimit="10"/>
    <path d="M33.516 58.839C43.4206 58.839 51.45 50.8097 51.45 40.905C51.45 31.0003 43.4206 22.971 33.516 22.971C23.6113 22.971 15.582 31.0003 15.582 40.905C15.582 50.8097 23.6113 58.839 33.516 58.839Z" stroke="#942B35" stroke-miterlimit="10"/>
    <path d="M40.9388 55.7661C45.0382 51.6667 45.0382 45.0204 40.9388 40.9211C36.8395 36.8217 30.1932 36.8217 26.0938 40.9211C21.9945 45.0204 21.9945 51.6667 26.0938 55.7661C30.1932 59.8654 36.8395 59.8654 40.9388 55.7661Z" stroke="#942B35" stroke-miterlimit="10"/>
    <path d="M33.516 37.644C37.4858 37.644 40.704 34.4258 40.704 30.456C40.704 26.4862 37.4858 23.268 33.516 23.268C29.5462 23.268 26.328 26.4862 26.328 30.456C26.328 34.4258 29.5462 37.644 33.516 37.644Z" stroke="#942B35" stroke-miterlimit="10"/>
    <path d="M35.2316 22.5647C39.0865 21.6164 41.4427 17.7227 40.4945 13.8678C39.5462 10.0129 35.6524 7.6566 31.7975 8.60488C27.9426 9.55317 25.5864 13.4469 26.5346 17.3018C27.4829 21.1567 31.3767 23.513 35.2316 22.5647Z" stroke="#942B35" stroke-miterlimit="10"/>
    <path d="M15.918 31.05C19.0213 31.05 21.537 28.5343 21.537 25.431C21.537 22.3277 19.0213 19.812 15.918 19.812C12.8147 19.812 10.299 22.3277 10.299 25.431C10.299 28.5343 12.8147 31.05 15.918 31.05Z" stroke="#942B35" stroke-miterlimit="10"/>
    <path d="M51.282 31.05C54.3853 31.05 56.901 28.5343 56.901 25.431C56.901 22.3277 54.3853 19.812 51.282 19.812C48.1787 19.812 45.663 22.3277 45.663 25.431C45.663 28.5343 48.1787 31.05 51.282 31.05Z" stroke="#942B35" stroke-miterlimit="10"/>
    <path d="M25.095 118.104C28.465 118.104 31.197 115.372 31.197 112.002C31.197 108.632 28.465 105.9 25.095 105.9C21.7249 105.9 18.993 108.632 18.993 112.002C18.993 115.372 21.7249 118.104 25.095 118.104Z" fill="white" stroke="#942B35" stroke-miterlimit="10"/>
    <path d="M25.095 117.159C27.9431 117.159 30.252 114.85 30.252 112.002C30.252 109.154 27.9431 106.845 25.095 106.845C22.2469 106.845 19.938 109.154 19.938 112.002C19.938 114.85 22.2469 117.159 25.095 117.159Z" fill="white" stroke="#942B35" stroke-miterlimit="10"/>
    <path d="M25.095 116.214C27.4212 116.214 29.307 114.328 29.307 112.002C29.307 109.676 27.4212 107.79 25.095 107.79C22.7688 107.79 20.883 109.676 20.883 112.002C20.883 114.328 22.7688 116.214 25.095 116.214Z" fill="white" stroke="#942B35" stroke-miterlimit="10"/>
    <path d="M25.095 115.269C26.8993 115.269 28.362 113.806 28.362 112.002C28.362 110.198 26.8993 108.735 25.095 108.735C23.2907 108.735 21.828 110.198 21.828 112.002C21.828 113.806 23.2907 115.269 25.095 115.269Z" fill="white" stroke="#942B35" stroke-miterlimit="10"/>
    <path d="M25.095 114.324C26.3774 114.324 27.417 113.284 27.417 112.002C27.417 110.72 26.3774 109.68 25.095 109.68C23.8126 109.68 22.773 110.72 22.773 112.002C22.773 113.284 23.8126 114.324 25.095 114.324Z" fill="white" stroke="#942B35" stroke-miterlimit="10"/>
    <path d="M25.095 113.379C25.8555 113.379 26.472 112.762 26.472 112.002C26.472 111.242 25.8555 110.625 25.095 110.625C24.3345 110.625 23.718 111.242 23.718 112.002C23.718 112.762 24.3345 113.379 25.095 113.379Z" fill="white" stroke="#942B35" stroke-miterlimit="10"/>
    <path d="M13.203 124.971C16.5731 124.971 19.305 122.239 19.305 118.869C19.305 115.499 16.5731 112.767 13.203 112.767C9.83297 112.767 7.10101 115.499 7.10101 118.869C7.10101 122.239 9.83297 124.971 13.203 124.971Z" fill="white" stroke="#942B35" stroke-miterlimit="10"/>
    <path d="M13.8419 123.81C16.6331 123.269 18.4571 120.567 17.9159 117.776C17.3748 114.985 14.6734 113.161 11.8822 113.702C9.09106 114.243 7.26705 116.945 7.8082 119.736C8.34934 122.527 11.0507 124.351 13.8419 123.81Z" fill="white" stroke="#942B35" stroke-width="0.998248" stroke-miterlimit="10"/>
    <path d="M15.3 115.221C14.5803 114.808 13.7544 114.618 12.9267 114.674C12.099 114.73 11.3064 115.03 10.649 115.536C9.99152 116.042 9.49868 116.732 9.2326 117.518C8.96653 118.303 8.93914 119.15 9.15389 119.952C9.36865 120.753 9.81592 121.473 10.4393 122.02C11.0627 122.568 11.8342 122.918 12.6566 123.028C13.479 123.137 14.3154 123.001 15.0602 122.635C15.8051 122.27 16.4251 121.692 16.842 120.975C17.1202 120.496 17.301 119.967 17.374 119.419C17.4471 118.87 17.4109 118.312 17.2676 117.777C17.1243 117.243 16.8767 116.741 16.539 116.303C16.2013 115.864 15.7802 115.496 15.3 115.221Z" fill="white" stroke="#942B35" stroke-miterlimit="10"/>
    <path d="M15.8858 120.731C16.9192 119.252 16.5579 117.216 15.0788 116.182C13.5997 115.149 11.5629 115.51 10.5296 116.989C9.49622 118.468 9.85755 120.505 11.3366 121.538C12.8157 122.572 14.8525 122.21 15.8858 120.731Z" fill="white" stroke="#942B35" stroke-miterlimit="10"/>
    <path d="M14.364 116.859C13.9663 116.629 13.5094 116.522 13.0511 116.552C12.5927 116.582 12.1535 116.747 11.789 117.027C11.4245 117.306 11.1511 117.687 11.0033 118.122C10.8556 118.557 10.8401 119.026 10.9589 119.47C11.0777 119.914 11.3254 120.312 11.6707 120.615C12.016 120.918 12.4434 121.111 12.8987 121.171C13.3541 121.231 13.8171 121.155 14.229 120.952C14.6409 120.749 14.9834 120.428 15.213 120.03C15.5199 119.497 15.6028 118.863 15.4437 118.269C15.2845 117.675 14.8963 117.168 14.364 116.859Z" fill="white" stroke="#942B35" stroke-miterlimit="10"/>
    <path d="M13.89 117.675C13.6537 117.54 13.3827 117.478 13.1113 117.497C12.8399 117.516 12.5802 117.615 12.365 117.781C12.1497 117.948 11.9886 118.174 11.902 118.432C11.8153 118.69 11.807 118.968 11.8781 119.231C11.9492 119.493 12.0965 119.729 12.3014 119.908C12.5063 120.087 12.7597 120.201 13.0295 120.236C13.2993 120.271 13.5734 120.226 13.8173 120.105C14.0613 119.985 14.264 119.795 14.4 119.559C14.4906 119.402 14.5493 119.228 14.5727 119.049C14.5962 118.869 14.5838 118.686 14.5364 118.511C14.489 118.336 14.4075 118.172 14.2966 118.029C14.1857 117.885 14.0475 117.765 13.89 117.675Z" fill="white" stroke="#942B35" stroke-miterlimit="10"/>
    <path d="M16.7682 137.557C19.5036 135.588 20.1253 131.775 18.1569 129.039C16.1884 126.304 12.3752 125.682 9.6398 127.651C6.90442 129.619 6.28271 133.433 8.25118 136.168C10.2196 138.903 14.0329 139.525 16.7682 137.557Z" fill="white" stroke="#942B35" stroke-miterlimit="10"/>
    <path d="M13.9738 137.701C16.7902 137.277 18.7297 134.65 18.3058 131.834C17.8818 129.018 15.255 127.078 12.4386 127.502C9.6222 127.926 7.68271 130.553 8.10664 133.369C8.53057 136.186 11.1574 138.125 13.9738 137.701Z" fill="white" stroke="#942B35" stroke-miterlimit="10"/>
    <path d="M16.1807 135.581C17.8256 133.936 17.8256 131.269 16.1807 129.624C14.5358 127.979 11.8689 127.979 10.2241 129.624C8.57917 131.269 8.57917 133.936 10.2241 135.581C11.869 137.226 14.5358 137.226 16.1807 135.581Z" fill="white" stroke="#942B35" stroke-miterlimit="10"/>
    <path d="M13.203 135.87C15.0073 135.87 16.47 134.407 16.47 132.603C16.47 130.799 15.0073 129.336 13.203 129.336C11.3987 129.336 9.93597 130.799 9.93597 132.603C9.93597 134.407 11.3987 135.87 13.203 135.87Z" fill="white" stroke="#942B35" stroke-miterlimit="10"/>
    <path d="M13.203 134.925C14.4854 134.925 15.525 133.885 15.525 132.603C15.525 131.321 14.4854 130.281 13.203 130.281C11.9206 130.281 10.881 131.321 10.881 132.603C10.881 133.885 11.9206 134.925 13.203 134.925Z" fill="white" stroke="#942B35" stroke-miterlimit="10"/>
    <path d="M12.513 131.4C12.2776 131.536 12.0878 131.739 11.9675 131.983C11.8471 132.226 11.8016 132.5 11.8366 132.77C11.8717 133.039 11.9858 133.293 12.1645 133.497C12.3432 133.702 12.5786 133.85 12.8409 133.921C13.1032 133.992 13.3808 133.984 13.6386 133.898C13.8965 133.812 14.123 133.651 14.2898 133.437C14.4565 133.222 14.5559 132.963 14.5755 132.692C14.5952 132.42 14.5341 132.15 14.4 131.913C14.3103 131.755 14.1902 131.616 14.0467 131.505C13.9031 131.393 13.7388 131.311 13.5634 131.263C13.3879 131.216 13.2048 131.203 13.0245 131.227C12.8442 131.25 12.6704 131.309 12.513 131.4Z" fill="white" stroke="#942B35" stroke-miterlimit="10"/>
    <path d="M25.095 145.569C28.465 145.569 31.197 142.837 31.197 139.467C31.197 136.097 28.465 133.365 25.095 133.365C21.7249 133.365 18.993 136.097 18.993 139.467C18.993 142.837 21.7249 145.569 25.095 145.569Z" fill="white" stroke="#942B35" stroke-miterlimit="10"/>
    <path d="M25.095 144.624C27.9431 144.624 30.252 142.315 30.252 139.467C30.252 136.619 27.9431 134.31 25.095 134.31C22.2469 134.31 19.938 136.619 19.938 139.467C19.938 142.315 22.2469 144.624 25.095 144.624Z" fill="white" stroke="#942B35" stroke-miterlimit="10"/>
    <path d="M25.095 143.679C27.4212 143.679 29.307 141.793 29.307 139.467C29.307 137.141 27.4212 135.255 25.095 135.255C22.7688 135.255 20.883 137.141 20.883 139.467C20.883 141.793 22.7688 143.679 25.095 143.679Z" fill="white" stroke="#942B35" stroke-miterlimit="10"/>
    <path d="M25.095 142.734C26.8993 142.734 28.362 141.271 28.362 139.467C28.362 137.663 26.8993 136.2 25.095 136.2C23.2907 136.2 21.828 137.663 21.828 139.467C21.828 141.271 23.2907 142.734 25.095 142.734Z" fill="white" stroke="#942B35" stroke-miterlimit="10"/>
    <path d="M25.095 141.789C26.3774 141.789 27.417 140.749 27.417 139.467C27.417 138.185 26.3774 137.145 25.095 137.145C23.8126 137.145 22.773 138.185 22.773 139.467C22.773 140.749 23.8126 141.789 25.095 141.789Z" fill="white" stroke="#942B35" stroke-miterlimit="10"/>
    <path d="M25.095 140.844C25.8555 140.844 26.472 140.228 26.472 139.467C26.472 138.707 25.8555 138.09 25.095 138.09C24.3345 138.09 23.718 138.707 23.718 139.467C23.718 140.228 24.3345 140.844 25.095 140.844Z" fill="white" stroke="#942B35" stroke-miterlimit="10"/>
    <path d="M42.8006 134.463C43.8291 131.254 42.0613 127.818 38.852 126.79C35.6428 125.761 32.2074 127.529 31.1788 130.738C30.1503 133.948 31.9181 137.383 35.1274 138.412C38.3367 139.44 41.772 137.672 42.8006 134.463Z" fill="white" stroke="#942B35" stroke-miterlimit="10"/>
    <path d="M34.41 137.07C35.2934 137.579 36.3081 137.815 37.3257 137.748C38.3432 137.681 39.318 137.313 40.1268 136.692C40.9356 136.071 41.542 135.224 41.8695 134.258C42.197 133.293 42.2308 132.251 41.9666 131.266C41.7024 130.281 41.1522 129.397 40.3854 128.725C39.6185 128.052 38.6696 127.622 37.6586 127.489C36.6475 127.356 35.6197 127.526 34.7051 127.977C33.7904 128.428 33.03 129.14 32.52 130.023C32.1807 130.61 31.9604 131.257 31.8718 131.929C31.7832 132.601 31.8279 133.284 32.0034 133.938C32.179 134.593 32.4819 135.207 32.8949 135.744C33.3078 136.281 33.8227 136.732 34.41 137.07Z" fill="white" stroke="#942B35" stroke-miterlimit="10"/>
    <path d="M40.1944 135.333C41.7018 133.561 41.4874 130.903 39.7157 129.396C37.9439 127.888 35.2856 128.103 33.7783 129.875C32.2709 131.646 32.4853 134.305 34.257 135.812C36.0288 137.319 38.6871 137.105 40.1944 135.333Z" fill="white" stroke="#942B35" stroke-miterlimit="10"/>
    <path d="M40.2095 133.157C40.5144 131.379 39.32 129.69 37.5416 129.385C35.7633 129.08 34.0744 130.274 33.7695 132.053C33.4645 133.831 34.659 135.52 36.4374 135.825C38.2157 136.13 39.9046 134.935 40.2095 133.157Z" fill="white" stroke="#942B35" stroke-miterlimit="10"/>
    <path d="M36.987 134.925C38.2694 134.925 39.309 133.885 39.309 132.603C39.309 131.321 38.2694 130.281 36.987 130.281C35.7046 130.281 34.665 131.321 34.665 132.603C34.665 133.885 35.7046 134.925 36.987 134.925Z" fill="white" stroke="#942B35" stroke-miterlimit="10"/>
    <path d="M36.3 133.8C36.5361 133.935 36.807 133.998 37.0785 133.979C37.3499 133.961 37.6099 133.862 37.8254 133.696C38.041 133.53 38.2025 133.304 38.2896 133.046C38.3767 132.788 38.3854 132.51 38.3147 132.248C38.244 131.985 38.097 131.749 37.8923 131.57C37.6876 131.39 37.4343 131.276 37.1645 131.24C36.8947 131.205 36.6204 131.25 36.3763 131.37C36.1322 131.491 35.9293 131.68 35.793 131.916C35.6105 132.233 35.5614 132.61 35.6565 132.963C35.7516 133.316 35.983 133.617 36.3 133.8Z" fill="white" stroke="#942B35" stroke-miterlimit="10"/>
    <path d="M36.987 124.971C40.3571 124.971 43.089 122.239 43.089 118.869C43.089 115.499 40.3571 112.767 36.987 112.767C33.617 112.767 30.885 115.499 30.885 118.869C30.885 122.239 33.617 124.971 36.987 124.971Z" fill="white" stroke="#942B35" stroke-miterlimit="10"/>
    <path d="M36.987 124.026C39.8352 124.026 42.144 121.717 42.144 118.869C42.144 116.021 39.8352 113.712 36.987 113.712C34.1389 113.712 31.83 116.021 31.83 118.869C31.83 121.717 34.1389 124.026 36.987 124.026Z" fill="white" stroke="#942B35" stroke-miterlimit="10"/>
    <path d="M39.093 122.517C39.8103 122.1 40.388 121.48 40.7533 120.735C41.1187 119.99 41.2552 119.154 41.1458 118.332C41.0363 117.509 40.6857 116.738 40.1383 116.114C39.5908 115.491 38.871 115.044 38.0697 114.829C37.2683 114.614 36.4213 114.642 35.6355 114.908C34.8497 115.174 34.1603 115.667 33.6542 116.324C33.1482 116.981 32.8482 117.774 32.7921 118.602C32.736 119.429 32.9263 120.255 33.339 120.975C33.6144 121.455 33.982 121.876 34.4207 122.214C34.8594 122.552 35.3605 122.799 35.8953 122.943C36.43 123.086 36.9878 123.122 37.5366 123.049C38.0854 122.976 38.6143 122.795 39.093 122.517Z" fill="white" stroke="#942B35" stroke-miterlimit="10"/>
    <path d="M38.622 121.701C39.1816 121.378 39.6329 120.897 39.9188 120.317C40.2048 119.738 40.3127 119.087 40.2287 118.447C40.1447 117.806 39.8728 117.205 39.4472 116.719C39.0215 116.233 38.4614 115.884 37.8375 115.716C37.2137 115.548 36.5541 115.57 35.9422 115.777C35.3302 115.984 34.7934 116.368 34.3996 116.88C34.0058 117.392 33.7727 118.009 33.7297 118.654C33.6867 119.298 33.8357 119.941 34.158 120.501C34.5911 121.252 35.3046 121.8 36.1416 122.025C36.9787 122.25 37.8708 122.133 38.622 121.701Z" fill="white" stroke="#942B35" stroke-miterlimit="10"/>
    <path d="M38.148 120.882C38.5459 120.653 38.8669 120.311 39.0703 119.899C39.2738 119.487 39.3505 119.024 39.2909 118.569C39.2313 118.113 39.038 117.686 38.7354 117.34C38.4329 116.995 38.0346 116.747 37.5911 116.628C37.1475 116.509 36.6786 116.524 36.2436 116.671C35.8086 116.818 35.4271 117.091 35.1473 117.456C34.8675 117.82 34.7019 118.259 34.6716 118.717C34.6413 119.175 34.7476 119.632 34.977 120.03C35.2845 120.563 35.7914 120.953 36.386 121.113C36.9807 121.272 37.6145 121.189 38.148 120.882Z" fill="white" stroke="#942B35" stroke-miterlimit="10"/>
    <path d="M37.677 120.063C37.9124 119.926 38.1022 119.723 38.2222 119.479C38.3422 119.235 38.3871 118.96 38.3513 118.691C38.3154 118.421 38.2004 118.168 38.0208 117.963C37.8412 117.759 37.605 117.612 37.3421 117.542C37.0792 117.471 36.8013 117.48 36.5436 117.568C36.2859 117.655 36.0598 117.817 35.8941 118.033C35.7283 118.249 35.6303 118.509 35.6123 118.781C35.5943 119.052 35.6572 119.323 35.793 119.559C35.8834 119.716 36.0039 119.854 36.1476 119.964C36.2913 120.074 36.4554 120.155 36.6304 120.202C36.8054 120.249 36.988 120.261 37.1675 120.237C37.3471 120.213 37.5203 120.154 37.677 120.063Z" fill="white" stroke="#942B35" stroke-miterlimit="10"/>
    <path d="M25.095 137.562C31.6263 137.562 36.921 132.267 36.921 125.736C36.921 119.205 31.6263 113.91 25.095 113.91C18.5637 113.91 13.269 119.205 13.269 125.736C13.269 132.267 18.5637 137.562 25.095 137.562Z" fill="#942B35" stroke="#942B35" stroke-miterlimit="10"/>
    <path d="M25.095 135.729C30.614 135.729 35.088 131.255 35.088 125.736C35.088 120.217 30.614 115.743 25.095 115.743C19.576 115.743 15.102 120.217 15.102 125.736C15.102 131.255 19.576 135.729 25.095 135.729Z" fill="white" stroke="#942B35" stroke-miterlimit="10"/>
    <path d="M26.9398 133.689C31.3305 132.666 34.0602 128.277 33.0368 123.887C32.0135 119.496 27.6246 116.766 23.234 117.79C18.8434 118.813 16.1136 123.202 17.137 127.592C18.1603 131.983 22.5492 134.713 26.9398 133.689Z" fill="#942B35" stroke="#942B35" stroke-miterlimit="10"/>
    <path d="M26.5279 131.907C29.9341 131.112 32.0512 127.707 31.2567 124.301C30.4622 120.895 27.0568 118.777 23.6507 119.572C20.2445 120.366 18.1273 123.772 18.9218 127.178C19.7164 130.584 23.1217 132.701 26.5279 131.907Z" fill="white" stroke="#942B35" stroke-miterlimit="10"/>
    <path d="M25.095 130.236C27.5803 130.236 29.595 128.221 29.595 125.736C29.595 123.251 27.5803 121.236 25.095 121.236C22.6097 121.236 20.595 123.251 20.595 125.736C20.595 128.221 22.6097 130.236 25.095 130.236Z" fill="#942B35" stroke="#942B35" stroke-miterlimit="10"/>
    <path d="M25.095 128.406C26.5696 128.406 27.765 127.211 27.765 125.736C27.765 124.261 26.5696 123.066 25.095 123.066C23.6204 123.066 22.425 124.261 22.425 125.736C22.425 127.211 23.6204 128.406 25.095 128.406Z" fill="white" stroke="#942B35" stroke-miterlimit="10"/>
    <path d="M125.637 144.6C122.077 144.6 118.597 143.544 115.637 141.566C112.677 139.589 110.37 136.777 109.007 133.488C107.645 130.199 107.288 126.58 107.983 123.088C108.677 119.597 110.392 116.389 112.909 113.872C115.426 111.355 118.634 109.64 122.125 108.946C125.617 108.251 129.236 108.608 132.525 109.97C135.814 111.333 138.626 113.64 140.603 116.6C142.581 119.56 143.637 123.04 143.637 126.6C143.631 131.372 141.733 135.947 138.359 139.322C134.984 142.696 130.409 144.594 125.637 144.6ZM125.637 112.974C122.942 112.974 120.308 113.773 118.067 115.27C115.826 116.768 114.08 118.896 113.048 121.386C112.017 123.875 111.747 126.615 112.273 129.258C112.799 131.901 114.096 134.329 116.002 136.235C117.908 138.141 120.335 139.438 122.979 139.964C125.622 140.49 128.362 140.22 130.851 139.189C133.341 138.157 135.469 136.411 136.967 134.17C138.464 131.929 139.263 129.295 139.263 126.6C139.259 122.987 137.822 119.524 135.268 116.969C132.713 114.415 129.25 112.978 125.637 112.974Z" fill="#C13E4A"/>
    <path d="M125.637 138.543C123.275 138.543 120.966 137.843 119.002 136.53C117.038 135.218 115.507 133.353 114.603 131.17C113.699 128.988 113.463 126.587 113.923 124.27C114.384 121.953 115.522 119.825 117.192 118.155C118.862 116.485 120.99 115.347 123.307 114.886C125.624 114.426 128.025 114.662 130.207 115.566C132.39 116.47 134.255 118.001 135.567 119.965C136.88 121.929 137.58 124.238 137.58 126.6C137.576 129.766 136.316 132.802 134.078 135.041C131.839 137.279 128.803 138.539 125.637 138.543ZM125.637 119.043C124.139 119.042 122.675 119.485 121.429 120.317C120.183 121.148 119.212 122.33 118.639 123.714C118.065 125.098 117.915 126.62 118.208 128.089C118.5 129.558 119.222 130.908 120.281 131.966C121.341 133.025 122.69 133.745 124.16 134.037C125.629 134.328 127.151 134.177 128.534 133.602C129.918 133.027 131.099 132.055 131.93 130.809C132.76 129.563 133.202 128.098 133.2 126.6C133.198 124.594 132.4 122.671 130.983 121.253C129.565 119.834 127.643 119.035 125.637 119.031V119.043Z" fill="#C13E4A"/>
    <path d="M125.637 132.495C124.471 132.495 123.331 132.149 122.362 131.502C121.392 130.854 120.637 129.933 120.191 128.856C119.744 127.779 119.628 126.593 119.855 125.45C120.083 124.306 120.644 123.256 121.469 122.432C122.293 121.607 123.343 121.046 124.487 120.818C125.63 120.591 126.816 120.708 127.893 121.154C128.97 121.6 129.891 122.356 130.538 123.325C131.186 124.294 131.532 125.434 131.532 126.6C131.53 128.163 130.909 129.661 129.804 130.767C128.698 131.872 127.2 132.493 125.637 132.495ZM125.637 124.848C125.29 124.848 124.952 124.951 124.664 125.143C124.375 125.336 124.151 125.609 124.018 125.93C123.886 126.25 123.851 126.602 123.919 126.942C123.986 127.282 124.153 127.594 124.398 127.839C124.643 128.084 124.955 128.251 125.295 128.318C125.635 128.386 125.987 128.351 126.307 128.219C126.628 128.086 126.901 127.861 127.094 127.573C127.286 127.285 127.389 126.947 127.389 126.6C127.388 126.136 127.203 125.69 126.875 125.362C126.547 125.034 126.101 124.849 125.637 124.848Z" fill="#942B35"/>
    <path d="M78.4261 40.299C78.4261 40.299 79.7371 39.399 80.0071 38.271C80.2771 37.143 77.1211 36.816 76.5691 36.636C76.0171 36.456 75.2851 37.131 75.1381 37.899C74.9911 38.667 74.7781 39.309 75.0241 39.489C75.2701 39.669 77.5981 40.335 78.4261 40.299Z" fill="#E19199" fill-opacity="0.1" stroke="#942B35" stroke-miterlimit="10"/>
    <path d="M73.689 42C73.689 42 77.526 43.971 78.834 42.771C80.142 41.571 78.855 40.536 77.964 39.837C77.2107 39.2827 76.4198 38.7815 75.597 38.337L73.689 42Z" fill="#E19199" fill-opacity="0.1" stroke="#942B35" stroke-miterlimit="10"/>
    <path d="M75.177 91.14L75.441 92.9011L75.576 91.0891L75.177 91.14Z" fill="#942B35"/>
    <path d="M76.143 73.341C76.5029 77.0207 76.5149 80.7261 76.1789 84.408L75.5609 91.2C75.5408 91.239 75.5086 91.2704 75.4692 91.2896C75.4298 91.3088 75.3853 91.3148 75.3422 91.3067C75.2991 91.2987 75.2598 91.2769 75.23 91.2447C75.2002 91.2125 75.1816 91.1716 75.177 91.128L71.7 55.2L74.373 54.939L76.143 73.341Z" fill="#942B35" stroke="#942B35" stroke-miterlimit="10"/>
    <path d="M49.125 72.684L50.916 74.535L70.695 54.759L68.901 52.908L49.125 72.684Z" fill="#942B35" stroke="#942B35" stroke-miterlimit="10"/>
    <path d="M49.8305 66.6132L48.7448 65.5013L47.8949 66.3314L48.9806 67.4432L49.8305 66.6132Z" fill="#942B35" stroke="#942B35" stroke-miterlimit="10"/>
    <path d="M49.4242 65.349L48.5942 64.4991L46.8943 66.1591L47.7243 67.0091L49.4242 65.349Z" fill="#942B35" stroke="#942B35" stroke-miterlimit="10"/>
    <path d="M49.596 72.072L43.734 75.879L47.682 70.11L58.929 59.127L60.846 61.089L49.596 72.072Z" fill="#942B35" stroke="#942B35" stroke-miterlimit="10"/>
    <path d="M49.596 72.072L47.682 70.11L43.734 75.879L49.596 72.072Z" fill="white" stroke="#942B35" stroke-miterlimit="10"/>
    <path d="M45.531 74.712L44.946 74.112L43.734 75.879L45.531 74.712Z" fill="#942B35" stroke="#942B35" stroke-miterlimit="10"/>
    <path d="M50.679 66.417C50.4174 66.2387 50.1022 66.1564 49.7868 66.1842C49.4715 66.2119 49.1754 66.3479 48.9489 66.569C48.7224 66.7902 48.5795 67.083 48.5443 67.3976C48.5091 67.7122 48.5839 68.0293 48.756 68.295L51.18 72.06L54.384 68.931L50.679 66.417ZM51.45 70.701L49.575 68.151C49.302 67.779 49.275 67.353 49.5 67.131C49.725 66.909 50.154 66.951 50.517 67.233L53.022 69.168L51.45 70.701Z" fill="white" stroke="#942B35" stroke-miterlimit="10"/>
    <path d="M74.4001 50.829L71.4451 49.86L74.4451 42.933C74.53 42.7386 74.6843 42.5827 74.8778 42.4957C75.0713 42.4086 75.2902 42.3966 75.4921 42.462C75.6944 42.5285 75.8646 42.668 75.9695 42.8533C76.0744 43.0386 76.1063 43.2564 76.0591 43.464L74.4001 50.829Z" fill="#942B35" stroke="#942B35" stroke-miterlimit="10"/>
    <path d="M70.2901 48.72H71.1901C72.5909 48.727 73.9503 49.1963 75.0571 50.055L75.7861 50.619L74.8861 53.379C74.5232 54.4894 73.9887 55.5361 73.3021 56.481L72.5461 57.522L72.2191 58.722H72.0001C70.8922 58.721 69.8136 58.3657 68.9221 57.708L68.5231 57.408L68.9431 56.127L69.0091 54.627C69.0438 53.843 69.1604 53.0648 69.3571 52.305L70.2901 48.72Z" fill="#942B35" stroke="#942B35" stroke-miterlimit="10"/>
    <path d="M72.123 51.4471C72.073 51.5979 71.9794 51.7305 71.8541 51.8282C71.7288 51.9259 71.5774 51.9843 71.4189 51.996C71.2604 52.0076 71.1021 51.9721 70.9638 51.8938C70.8255 51.8156 70.7135 51.6981 70.6419 51.5562C70.5704 51.4144 70.5425 51.2545 70.5617 51.0968C70.581 50.939 70.6465 50.7905 70.7501 50.6701C70.8537 50.5496 70.9906 50.4624 71.1437 50.4197C71.2967 50.377 71.459 50.3806 71.61 50.4301C71.7108 50.4626 71.8041 50.5149 71.8846 50.5838C71.965 50.6527 72.031 50.7369 72.0788 50.8315C72.1265 50.9261 72.1549 51.0292 72.1625 51.1348C72.1701 51.2405 72.1567 51.3466 72.123 51.4471Z" fill="#942B35" stroke="#942B35" stroke-miterlimit="10"/>
    <path d="M74.472 52.215C74.4225 52.3668 74.3291 52.5005 74.2036 52.5992C74.0781 52.6979 73.9261 52.7572 73.767 52.7695C73.6078 52.7818 73.4485 52.7466 73.3093 52.6684C73.1701 52.5902 73.0573 52.4724 72.985 52.33C72.9128 52.1877 72.8844 52.027 72.9035 51.8685C72.9225 51.71 72.9882 51.5607 73.0922 51.4395C73.1961 51.3183 73.3337 51.2307 73.4874 51.1877C73.6412 51.1447 73.8042 51.1483 73.956 51.198C74.0568 51.2306 74.1502 51.2829 74.2308 51.3517C74.3114 51.4206 74.3775 51.5047 74.4255 51.5992C74.4734 51.6937 74.5022 51.7968 74.5102 51.9025C74.5182 52.0081 74.5052 52.1144 74.472 52.215Z" fill="#942B35" stroke="#942B35" stroke-miterlimit="10"/>
    <path d="M121.563 12.771C121.563 12.771 116.625 16.347 112.587 16.857C108.549 17.367 94.716 17.931 89.397 19.257C84.078 20.583 74.211 24.57 70.641 27.057C67.071 29.544 67.326 30.957 67.617 34.113C67.908 37.269 70.071 40.62 70.071 40.62C70.071 40.62 68.136 45.591 68.784 46.413C69.432 47.235 71.661 46.644 73.062 44.859C74.463 43.074 76.8 37.215 79.404 34.2C82.008 31.185 85.476 30.6 86.976 30.366C88.476 30.132 91.143 31.323 91.218 33.894C91.2733 35.0361 91.0142 36.1716 90.4688 37.1766C89.9234 38.1817 89.1127 39.0178 88.125 39.594C86.232 40.707 77.796 42.831 76.125 44.829C74.454 46.827 77.643 48.585 79.968 48.33C82.293 48.075 84.168 46.746 87.576 45.33C91.179 43.8648 94.9812 42.9476 98.856 42.609C102.405 42.345 110.424 41.814 114.048 38.214C117.672 34.614 120.801 30.342 123.762 28.767C126.723 27.192 130.479 25.671 130.479 25.671L121.563 12.771Z" fill="#E19199" fill-opacity="0.1" stroke="#942B35" stroke-miterlimit="10"/>
    <path d="M123.759 28.77L124.026 28.629L117.201 17.829L116.7 18.834L120.414 31.434C121.563 30.3 122.673 29.346 123.759 28.77Z" fill="#942B35"/>
    <path d="M79.254 23.1541C79.254 23.1541 70.932 29.5951 69.993 31.8331C69.054 34.0711 70.071 40.6171 70.071 40.6171C70.071 40.6171 73.971 31.8121 75.858 29.4751C77.745 27.1381 83.019 23.1751 83.019 23.1751" stroke="#942B35" stroke-miterlimit="10"/>
    <path d="M115.326 15.912L124.491 33.981L132.243 29.919L124.494 11.286L115.326 15.912Z" fill="white" stroke="#942B35" stroke-miterlimit="10"/>
    <path d="M126.717 30.111C126.66 30.2786 126.555 30.4256 126.414 30.5337C126.274 30.6417 126.105 30.706 125.928 30.7184C125.752 30.7308 125.575 30.6908 125.421 30.6035C125.267 30.5161 125.142 30.3852 125.062 30.2273C124.982 30.0693 124.951 29.8912 124.971 29.7154C124.992 29.5395 125.064 29.3736 125.179 29.2386C125.293 29.1035 125.445 29.0052 125.615 28.956C125.785 28.9068 125.966 28.9089 126.135 28.962C126.25 28.998 126.356 29.0565 126.447 29.1341C126.539 29.2117 126.614 29.3069 126.668 29.4139C126.722 29.521 126.755 29.6378 126.763 29.7575C126.771 29.8772 126.756 29.9974 126.717 30.111Z" fill="white" stroke="#942B35" stroke-miterlimit="10"/>
    <path d="M148.8 24.531C148.8 24.531 136.335 30.831 135.39 31.554C134.947 31.8839 134.414 32.0709 133.862 32.0902C133.31 32.1095 132.765 31.9601 132.3 31.662C131.454 31.086 122.016 11.4 122.016 11.4C122.016 11.4 121.716 10.179 122.016 9.25803C122.316 8.33702 134.421 0.900024 134.421 0.900024" fill="white"/>
    <path d="M148.8 24.531C148.8 24.531 136.335 30.831 135.39 31.554C134.947 31.8839 134.414 32.0709 133.862 32.0902C133.31 32.1095 132.765 31.9601 132.3 31.662C131.454 31.086 122.016 11.4 122.016 11.4C122.016 11.4 121.716 10.179 122.016 9.25802C122.316 8.33702 134.421 0.900024 134.421 0.900024" stroke="#942B35" stroke-miterlimit="10"/>
  </g>
  <defs>
    <clipPath id="clip0_15039_6838">
      <rect width="150" height="150" fill="white"/>
    </clipPath>
  </defs>
</svg>