<svg width="18" height="18" viewBox="0 0 18 18" fill="none" xmlns="http://www.w3.org/2000/svg">
<path d="M8.25 9H15.75" stroke="#316EE8" stroke-width="1.5" stroke-linecap="round" stroke-linejoin="round"/>
<path d="M4.81031 7.93956C5.39606 8.52531 5.39606 9.47481 4.81031 10.0606C4.22456 10.6463 3.27506 10.6463 2.68931 10.0606C2.10356 9.47481 2.10356 8.52531 2.68931 7.93956C3.27506 7.35381 4.22456 7.35381 4.81031 7.93956" stroke="#316EE8" stroke-width="1.5" stroke-linecap="round" stroke-linejoin="round"/>
<path d="M8.25 3.75H15.75" stroke="#316EE8" stroke-width="1.5" stroke-linecap="round" stroke-linejoin="round"/>
<path d="M2.26514 3.381L3.50489 4.497L6.00014 2.25" stroke="#316EE8" stroke-width="1.5" stroke-linecap="round" stroke-linejoin="round"/>
<path d="M8.25 14.25H15.75" stroke="#316EE8" stroke-width="1.5" stroke-linecap="round" stroke-linejoin="round"/>
<path d="M4.81031 13.1896C5.39606 13.7753 5.39606 14.7248 4.81031 15.3106C4.22456 15.8963 3.27506 15.8963 2.68931 15.3106C2.10356 14.7248 2.10356 13.7753 2.68931 13.1896C3.27506 12.6038 4.22456 12.6038 4.81031 13.1896" stroke="#316EE8" stroke-width="1.5" stroke-linecap="round" stroke-linejoin="round"/>
</svg>
