<svg width="33" height="20" viewBox="0 0 33 20" fill="none" xmlns="http://www.w3.org/2000/svg">
<path d="M0 0H33V16C33 18.2091 31.2091 20 29 20H0V0Z" fill="#26333B"/>
<path d="M16.5 16.0041V12.3359" stroke="white" stroke-width="1.5" stroke-linecap="round" stroke-linejoin="round"/>
<path fill-rule="evenodd" clip-rule="evenodd" d="M18.4338 9H14.5655C13.6432 9.00017 12.8406 9.63068 12.622 10.5266L12.5333 10.8908C12.4483 11.2388 12.5279 11.6066 12.7492 11.8884C12.9704 12.1702 13.3088 12.3347 13.6671 12.3347H19.3361C19.6944 12.3347 20.0328 12.1702 20.2541 11.8884C20.4753 11.6066 20.5549 11.2388 20.4699 10.8908L20.3812 10.5266C20.1623 9.62922 19.3575 8.99832 18.4338 9V9Z" stroke="white" stroke-width="1.5" stroke-linecap="round" stroke-linejoin="round"/>
<path d="M18.3352 8.99964L17.9017 6.39856C17.8605 6.15278 17.9598 5.90455 18.1591 5.75496L18.9021 5.19806C19.1317 5.02581 19.2254 4.72594 19.1346 4.4536C19.0438 4.18126 18.789 3.99756 18.5019 3.99756H14.5002C14.2132 3.99756 13.9583 4.18126 13.8675 4.4536C13.7767 4.72594 13.8704 5.02581 14.1001 5.19806L14.843 5.75496C15.0424 5.90455 15.1417 6.15278 15.1005 6.39856L14.667 8.99964" stroke="white" stroke-width="1.5" stroke-linecap="round" stroke-linejoin="round"/>
</svg>
