<svg width="32" height="32" viewBox="0 0 32 32" fill="none" xmlns="http://www.w3.org/2000/svg">
<rect width="32" height="32" rx="6" fill="white"/>
<path d="M7.5 23.9999L11.87 19.6299" stroke="#6B757C" stroke-width="1.5" stroke-linecap="round" stroke-linejoin="round"/>
<path fill-rule="evenodd" clip-rule="evenodd" d="M8.95597 15.294C8.56497 15.685 8.56497 16.318 8.95597 16.708L11.874 19.626L14.792 22.544C15.183 22.935 15.816 22.935 16.206 22.544L17.381 21.369C17.569 21.181 17.674 20.927 17.674 20.662V16.726L20.574 13.826L22.883 13.949C23.166 13.964 23.443 13.858 23.643 13.658L24.217 13.084C24.608 12.693 24.608 12.06 24.217 11.67L19.831 7.28397C19.44 6.89297 18.807 6.89297 18.417 7.28397L17.843 7.85797C17.642 8.05897 17.536 8.33497 17.552 8.61797L17.675 10.927L14.775 13.827H10.838C10.573 13.827 10.318 13.932 10.131 14.12L8.95597 15.294V15.294Z" stroke="#6B757C" stroke-width="1.5" stroke-linecap="round" stroke-linejoin="round"/>
<path d="M20.57 13.8302L17.67 10.9302" stroke="#6B757C" stroke-width="1.5" stroke-linecap="round" stroke-linejoin="round"/>
</svg>
