<svg width="18" height="19" viewBox="0 0 18 19" fill="none" stroke="currentColor" xmlns="http://www.w3.org/2000/svg">
<g id="Group">
<g id="Group_2">
<path id="Path" d="M11.2734 7.03587C11.2734 6.88062 11.1474 6.75537 10.9922 6.75537C10.8369 6.75612 10.7109 6.88212 10.7109 7.03737C10.7109 7.19262 10.8369 7.31862 10.9922 7.31787C11.1474 7.31787 11.2734 7.19187 11.2734 7.03662" stroke-width="1.5" stroke-linecap="round" stroke-linejoin="round"/>
<path id="Path_2" fill-rule="evenodd" clip-rule="evenodd" d="M9.37425 11.1183L8.60175 11.8923H7.22775V12.9941H6.129V14.3711L5.0985 15.4046H2.625V12.9258L6.91725 8.62385C6.31275 7.05335 6.63675 5.20685 7.9005 3.9401C9.6105 2.22635 12.3833 2.22635 14.0933 3.9401C15.8033 5.65385 15.8033 8.4326 14.0933 10.1471C12.8168 11.4251 10.9507 11.7476 9.37425 11.1183V11.1183Z" stroke-width="1.5" stroke-linecap="round" stroke-linejoin="round"/>
</g>
</g>
</svg>
