<svg width="24" height="24" stroke="currentColor" viewBox="0 0 24 24" fill="none" xmlns="http://www.w3.org/2000/svg">
<path d="M3 9.70264V18.9996C3 20.1046 3.895 20.9996 5 20.9996H18.999C20.104 20.9996 20.999 20.1046 20.999 18.9996V9.70264" stroke-width="1.5" stroke-linecap="round" stroke-linejoin="round"/>
<path fill-rule="evenodd" clip-rule="evenodd" d="M3.88606 8.04381L10.8801 3.33881C11.5571 2.88381 12.4421 2.88381 13.1191 3.33881L20.1131 8.04381C21.2911 8.83681 21.2911 10.5698 20.1131 11.3628L14.2391 15.3148C12.8851 16.2258 11.1151 16.2258 9.76106 15.3148L3.88706 11.3628C2.70806 10.5698 2.70806 8.83581 3.88606 8.04381Z" stroke-width="1.5" stroke-linecap="round" stroke-linejoin="round"/>
<path d="M9.12009 14.8799L3.59009 20.4099" stroke-width="1.5" stroke-linecap="round" stroke-linejoin="round"/>
<path d="M20.4099 20.4099L14.8799 14.8799" stroke-width="1.5" stroke-linecap="round" stroke-linejoin="round"/>
</svg>
