<svg xmlns="http://www.w3.org/2000/svg" width="25" height="24" viewBox="0 0 25 24" fill="none">
  <path fill-rule="evenodd" clip-rule="evenodd" d="M7.69433 10.7024C7.30517 11.0986 6.6679 11.0986 6.27874 10.7024C5.25932 9.66401 3.49658 7.58815 3.49658 5.64434C3.49658 3.6295 5.05923 1.99582 6.98704 1.99582C8.91484 1.99582 10.4775 3.6295 10.4775 5.64434C10.4775 7.58815 8.71476 9.66401 7.69433 10.7024Z" stroke="#8E969B" stroke-width="1.5" stroke-linecap="round" stroke-linejoin="round"/>
  <path d="M6.98605 5.33621C6.84799 5.33621 6.73694 5.44825 6.73694 5.58631C6.73694 5.72337 6.84899 5.83541 6.98605 5.83541C7.1241 5.83541 7.23515 5.72337 7.23515 5.58631C7.23615 5.44825 7.1241 5.33621 6.98605 5.33621" stroke="#8E969B" stroke-width="1.5" stroke-linecap="round" stroke-linejoin="round"/>
  <path fill-rule="evenodd" clip-rule="evenodd" d="M20.6635 17.5553L17.7733 19.265C17.4122 19.4791 17.4122 20.0023 17.7733 20.2154L20.6635 21.9251C21.0347 22.1452 21.5039 21.8771 21.5039 21.4459V18.0345C21.5039 17.6033 21.0347 17.3352 20.6635 17.5553Z" stroke="#8E969B" stroke-width="1.5" stroke-linecap="round" stroke-linejoin="round"/>
  <path d="M13.501 19.7012H8.49888C7.39342 19.7012 6.49805 18.8058 6.49805 17.7004V17.7004C6.49805 16.5949 7.39342 15.6995 8.49888 15.6995H14.1522C15.4498 15.6995 16.5022 14.6471 16.5022 13.3496V13.3496C16.5022 12.052 15.4498 10.9996 14.1522 10.9996H11.5001" stroke="#8E969B" stroke-width="1.5" stroke-linecap="round" stroke-linejoin="round"/>
</svg>