<svg width="18" height="18" viewBox="0 0 18 18" fill="none" xmlns="http://www.w3.org/2000/svg">
<path fill-rule="evenodd" clip-rule="evenodd" d="M10.1249 10.275L5.0249 15.375C4.3499 16.05 3.2999 16.05 2.6249 15.375V15.375C1.9499 14.7 1.9499 13.65 2.6249 12.975L7.7249 7.87497C7.1249 6.37497 7.4999 4.64998 8.6999 3.44997C9.9749 2.17497 11.8499 1.94997 13.3499 2.54997C13.4249 2.54997 13.4249 2.62497 13.3499 2.69997L10.6499 5.39997L11.6249 6.37497L12.5999 7.34998V7.34998L15.3749 4.64998C15.3749 4.64998 15.4499 4.64998 15.5249 4.64998C16.2749 6.14998 15.8999 8.02497 14.6249 9.29997C13.3499 10.5 11.6249 10.8 10.1249 10.275Z" stroke="#6B757C" stroke-width="1.5" stroke-linecap="round" stroke-linejoin="round"/>
</svg>
