<svg xmlns="http://www.w3.org/2000/svg" width="18" height="20" viewBox="0 0 18 20" fill="none">
  <path d="M3.7477 6.99884C3.7477 6.58463 3.41191 6.24884 2.9977 6.24884C2.58348 6.24884 2.2477 6.58463 2.2477 6.99884H2.9977H3.7477ZM15.7527 6.99884C15.7527 6.58463 15.4169 6.24884 15.0027 6.24884C14.5885 6.24884 14.2527 6.58463 14.2527 6.99884H15.0027H15.7527ZM11.751 7.99926C11.751 7.58504 11.4152 7.24926 11.001 7.24926C10.5868 7.24926 10.251 7.58504 10.251 7.99926H11.001H11.751ZM10.251 15.0022C10.251 15.4164 10.5868 15.7522 11.001 15.7522C11.4152 15.7522 11.751 15.4164 11.751 15.0022H11.001H10.251ZM7.74936 7.99926C7.74936 7.58504 7.41358 7.24926 6.99936 7.24926C6.58515 7.24926 6.24936 7.58504 6.24936 7.99926H6.99936H7.74936ZM6.24936 15.0022C6.24936 15.4164 6.58515 15.7522 6.99936 15.7522C7.41358 15.7522 7.74936 15.4164 7.74936 15.0022H6.99936H6.24936ZM1.49707 3.24759C1.08286 3.24759 0.74707 3.58338 0.74707 3.99759C0.74707 4.4118 1.08286 4.74759 1.49707 4.74759V3.99759V3.24759ZM16.5033 4.74759C16.9175 4.74759 17.2533 4.4118 17.2533 3.99759C17.2533 3.58338 16.9175 3.24759 16.5033 3.24759V3.99759V4.74759ZM4.28702 3.76042C4.15603 4.15338 4.3684 4.57812 4.76136 4.7091C5.15432 4.84009 5.57906 4.62772 5.71004 4.23476L4.99853 3.99759L4.28702 3.76042ZM5.54276 2.36491L6.25427 2.60208L6.25432 2.60191L5.54276 2.36491ZM7.44155 0.996339L7.44137 1.74634H7.44155V0.996339ZM10.5588 0.996339V1.74634L10.5598 1.74634L10.5588 0.996339ZM12.4596 2.36491L13.1714 2.12853L13.1712 2.12791L12.4596 2.36491ZM12.2901 4.23397C12.4206 4.62708 12.8451 4.83992 13.2382 4.70936C13.6313 4.57881 13.8442 4.15431 13.7136 3.7612L13.0019 3.99759L12.2901 4.23397ZM2.9977 6.99884H2.2477V17.003H2.9977H3.7477V6.99884H2.9977ZM2.9977 17.003H2.2477C2.2477 18.5223 3.47929 19.7538 4.99853 19.7538V19.0038V18.2538C4.30771 18.2538 3.7477 17.6938 3.7477 17.003H2.9977ZM4.99853 19.0038V19.7538H13.0019V19.0038V18.2538H4.99853V19.0038ZM13.0019 19.0038V19.7538C14.5211 19.7538 15.7527 18.5223 15.7527 17.003H15.0027H14.2527C14.2527 17.6938 13.6927 18.2538 13.0019 18.2538V19.0038ZM15.0027 17.003H15.7527V6.99884H15.0027H14.2527V17.003H15.0027ZM11.001 7.99926H10.251V15.0022H11.001H11.751V7.99926H11.001ZM6.99936 7.99926H6.24936V15.0022H6.99936H7.74936V7.99926H6.99936ZM1.49707 3.99759V4.74759H16.5033V3.99759V3.24759H1.49707V3.99759ZM4.99853 3.99759L5.71004 4.23476L6.25427 2.60208L5.54276 2.36491L4.83124 2.12774L4.28702 3.76042L4.99853 3.99759ZM5.54276 2.36491L6.25432 2.60191C6.42453 2.09089 6.90275 1.74621 7.44137 1.74634L7.44155 0.996339L7.44173 0.246339C6.2572 0.246056 5.2055 1.00408 4.83119 2.12791L5.54276 2.36491ZM7.44155 0.996339V1.74634H10.5588V0.996339V0.246339H7.44155V0.996339ZM10.5588 0.996339L10.5598 1.74634C11.0989 1.74567 11.5777 2.09045 11.7481 2.60191L12.4596 2.36491L13.1712 2.12791C12.7966 1.00312 11.7435 0.244871 10.5579 0.24634L10.5588 0.996339ZM12.4596 2.36491L11.7479 2.6013L12.2901 4.23397L13.0019 3.99759L13.7136 3.7612L13.1714 2.12853L12.4596 2.36491Z" fill="#C13E4A"/>
</svg>