<svg xmlns="http://www.w3.org/2000/svg" width="24" height="24" viewBox="0 0 24 24" fill="none">
  <path d="M6.99805 21.0039H12.0001" stroke="#26333B" stroke-width="1.5" stroke-linecap="round" stroke-linejoin="round"/>
  <path d="M9.99902 7.9985H14.0007" stroke="#26333B" stroke-width="1.5" stroke-linecap="round" stroke-linejoin="round"/>
  <path d="M6.99805 15.0014H12.0001" stroke="#26333B" stroke-width="1.5" stroke-linecap="round" stroke-linejoin="round"/>
  <path d="M6.99805 18.0026H12.0001" stroke="#26333B" stroke-width="1.5" stroke-linecap="round" stroke-linejoin="round"/>
  <path d="M17.0022 12H6.99805V21.0037" stroke="#26333B" stroke-width="1.5" stroke-linecap="round" stroke-linejoin="round"/>
  <path d="M11.9998 21.0038H2.99609V7.88735C2.99609 7.16077 3.39032 6.49138 4.02552 6.13862L11.0284 2.248C11.6328 1.91212 12.3678 1.91212 12.9722 2.248L19.9752 6.13862C20.61 6.49164 21.0036 7.16098 21.0036 7.88735V12.0001" stroke="#26333B" stroke-width="1.5" stroke-linecap="round" stroke-linejoin="round"/>
  <path fill-rule="evenodd" clip-rule="evenodd" d="M16.0014 15.0015H21.0035C21.556 15.0015 22.0039 15.4494 22.0039 16.0019V21.004C22.0039 21.5565 21.556 22.0044 21.0035 22.0044H16.0014C15.4489 22.0044 15.001 21.5565 15.001 21.004V16.0019C15.001 15.4494 15.4489 15.0015 16.0014 15.0015Z" stroke="#26333B" stroke-width="1.5" stroke-linecap="round" stroke-linejoin="round"/>
  <path d="M19.6946 17.7585L18.203 19.2462L17.3086 18.3538" stroke="#26333B" stroke-width="1.5" stroke-linecap="round" stroke-linejoin="round"/>
</svg>