<svg xmlns="http://www.w3.org/2000/svg" width="24" height="24" viewBox="0 0 24 24" fill="none">
  <path d="M12.469 3.02278C13.8327 4.38649 13.8327 6.5975 12.469 7.96121C11.1053 9.32492 8.8943 9.32492 7.53059 7.96121C6.16688 6.5975 6.16688 4.38649 7.53059 3.02278C8.8943 1.65907 11.1053 1.65907 12.469 3.02278" stroke="#26333B" stroke-width="1.5" stroke-linecap="round" stroke-linejoin="round"/>
  <path d="M14.363 12.796C13.064 12.277 11.54 11.991 10 11.991C5.952 11.991 2 13.958 2 16.983V17.983C2 18.535 2.448 18.983 3 18.983H12.413" stroke="#26333B" stroke-width="1.5" stroke-linecap="round" stroke-linejoin="round"/>
  <path d="M17 22C14.239 22 12 19.762 12 17C12 14.296 14.3 11.997 17.004 12C19.764 12.002 22 14.24 22 17C22 19.761 19.762 22 17 22" stroke="#26333B" stroke-width="1.5" stroke-linecap="round" stroke-linejoin="round"/>
  <path fill-rule="evenodd" clip-rule="evenodd" d="M17.9856 15.25C18.8316 15.25 19.3996 15.995 19.3996 16.689C19.3996 18.097 17.0426 19.25 16.9996 19.25C16.9566 19.25 14.5996 18.097 14.5996 16.689C14.5996 15.995 15.1676 15.25 16.0136 15.25C16.4976 15.25 16.8156 15.476 16.9996 15.678C17.1836 15.476 17.5016 15.25 17.9856 15.25V15.25Z" stroke="#26333B" stroke-width="1.5" stroke-linecap="round" stroke-linejoin="round"/>
</svg>