<svg xmlns="http://www.w3.org/2000/svg" width="24" height="24" viewBox="0 0 24 24" fill="none">
  <path d="M11.9999 13.5008V12.0002C13.1049 12.0002 14.0007 11.1044 14.0007 9.99937C14.0007 8.89434 13.1049 7.99854 11.9999 7.99854C10.8948 7.99854 9.99902 8.89434 9.99902 9.99937" stroke="#26333B" stroke-width="1.5" stroke-linecap="round" stroke-linejoin="round"/>
  <path fill-rule="evenodd" clip-rule="evenodd" d="M11.9998 21.0038C16.9725 21.0038 21.0036 16.9727 21.0036 12.0001C21.0036 7.02745 16.9725 2.99634 11.9998 2.99634C7.02721 2.99634 2.99609 7.02745 2.99609 12.0001C2.99609 16.9727 7.02721 21.0038 11.9998 21.0038Z" stroke="#26333B" stroke-width="1.5" stroke-linecap="round" stroke-linejoin="round"/>
  <path d="M12.0002 15.9517C11.9726 15.9517 11.9502 15.974 11.9502 16.0017C11.9502 16.0293 11.9726 16.0517 12.0002 16.0517C12.0278 16.0517 12.0502 16.0293 12.0502 16.0017C12.0502 15.974 12.0278 15.9517 12.0002 15.9517" stroke="#26333B" stroke-width="1.5" stroke-linecap="round" stroke-linejoin="round"/>
</svg>