<svg xmlns="http://www.w3.org/2000/svg" width="24" height="24" viewBox="0 0 24 24" fill="none">
  <path d="M15.9911 8.00836C18.1956 10.2129 18.1956 13.7871 15.9911 15.9916C13.7866 18.1961 10.2124 18.1961 8.00787 15.9916C5.80336 13.7871 5.80336 10.2129 8.00787 8.00836C10.2124 5.80385 13.7866 5.80385 15.9911 8.00836" stroke="#26333B" stroke-width="1.5" stroke-linecap="round" stroke-linejoin="round"/>
  <path d="M8.61327 20.3701C6.80827 19.6441 5.22427 18.3351 4.17527 16.5191C3.14827 14.7411 2.80427 12.7611 3.04727 10.8711" stroke="#26333B" stroke-width="1.5" stroke-linecap="round" stroke-linejoin="round"/>
  <path d="M6.44824 4.87991C7.97924 3.67991 9.90524 2.96191 12.0022 2.96191C14.0552 2.96191 15.9422 3.65391 17.4572 4.80891" stroke="#26333B" stroke-width="1.5" stroke-linecap="round" stroke-linejoin="round"/>
  <path d="M15.3906 20.3701C17.1956 19.6441 18.7796 18.3351 19.8286 16.5191C20.8556 14.7411 21.1996 12.7611 20.9566 10.8711" stroke="#26333B" stroke-width="1.5" stroke-linecap="round" stroke-linejoin="round"/>
</svg>