<svg xmlns="http://www.w3.org/2000/svg" width="24" height="24" viewBox="0 0 24 24" fill="none">
  <path fill-rule="evenodd" clip-rule="evenodd" d="M11.1577 3.02113C9.40621 3.19058 7.67013 3.90275 6.30881 5.01023C5.90839 5.336 5.2744 5.97503 4.95504 6.37486C4.14754 7.38574 3.48582 8.75311 3.21138 9.9778C3.03903 10.7471 3 11.121 3 12.0035C3 12.886 3.03903 13.2599 3.21138 14.0292C3.49181 15.2806 4.17079 16.6675 5.00514 17.6931C5.33091 18.0935 5.96994 18.7275 6.36976 19.0469C7.38064 19.8544 8.74802 20.5161 9.97271 20.7906C10.742 20.9629 11.1159 21.0019 11.9984 21.0019C12.8809 21.0019 13.2549 20.9629 14.0241 20.7906C14.9449 20.5842 16.1489 20.0697 16.9401 19.5445C18.3123 18.6335 19.3662 17.4348 20.0858 15.9669C20.5265 15.0676 20.7769 14.2623 20.9346 13.2366C21.0218 12.669 21.0218 11.338 20.9346 10.7705C20.7769 9.74476 20.5265 8.93941 20.0858 8.04017C19.6154 7.08058 19.0911 6.35055 18.3342 5.60132C17.5911 4.86572 16.9103 4.38233 15.9618 3.91667C15.0732 3.48045 14.2507 3.2232 13.2667 3.07379C12.8242 3.00661 11.6187 2.97649 11.1577 3.02113ZM12.6376 5.27505C14.9227 5.49827 16.9707 6.90556 17.9979 8.95829C18.1336 9.22952 18.3398 9.69924 18.3398 9.73726C18.3398 9.74363 15.4862 9.74881 11.9984 9.74881C8.51067 9.74881 5.65706 9.74363 5.65706 9.73726C5.65706 9.69924 5.86319 9.22952 5.99893 8.95829C7.23504 6.48798 9.90274 5.00787 12.6376 5.27505ZM12.4644 10.9905C12.7088 11.1024 12.8988 11.2926 13.0156 11.5425C13.2057 11.9489 13.1112 12.4738 12.7899 12.795C12.3616 13.2233 11.6353 13.2233 11.2069 12.795C10.9323 12.5204 10.8137 12.078 10.9182 11.7183C11.1169 11.0351 11.8292 10.6997 12.4644 10.9905ZM5.72573 12.0403C8.48531 12.3234 10.6547 14.9916 10.848 18.3402L10.865 18.635L10.6934 18.6122C10.4444 18.5792 9.80833 18.3913 9.46188 18.2485C8.60364 17.8946 7.96437 17.4736 7.2827 16.8134C6.12083 15.6881 5.42391 14.2354 5.27105 12.62C5.21817 12.0614 5.22099 12.0035 5.30103 12.0035C5.33774 12.0035 5.52883 12.02 5.72573 12.0403ZM18.7625 12.118C18.7625 12.181 18.746 12.4069 18.7258 12.62C18.5729 14.2354 17.876 15.6881 16.7141 16.8134C16.0325 17.4736 15.3932 17.8946 14.535 18.2485C14.1885 18.3913 13.5525 18.5792 13.3035 18.6122L13.1319 18.635L13.1489 18.3402C13.3514 14.831 15.7053 12.112 18.6304 12.0082C18.757 12.0037 18.7625 12.0083 18.7625 12.118Z" fill="#26333B"/>
</svg>