<svg xmlns="http://www.w3.org/2000/svg" width="24" height="24" viewBox="0 0 24 24" fill="none">
  <path fill-rule="evenodd" clip-rule="evenodd" d="M12.0002 19.2532C11.7931 19.2538 11.6257 19.422 11.626 19.6291C11.6264 19.8361 11.7944 20.0037 12.0015 20.0035C12.2086 20.0034 12.3763 19.8355 12.3763 19.6284C12.3771 19.5285 12.3377 19.4324 12.267 19.3619C12.1962 19.2913 12.1001 19.2522 12.0002 19.2532Z" fill="#26333B"/>
  <path d="M12.0002 19.2532C11.7931 19.2538 11.6257 19.422 11.626 19.6291C11.6264 19.8361 11.7944 20.0037 12.0015 20.0035C12.2086 20.0034 12.3763 19.8355 12.3763 19.6284C12.3771 19.5285 12.3377 19.4324 12.267 19.3619C12.1962 19.2913 12.1001 19.2522 12.0002 19.2532" stroke="#26333B" stroke-width="1.5" stroke-linecap="round" stroke-linejoin="round"/>
  <path d="M1.58984 7.79827C7.60262 2.72415 16.3977 2.72415 22.4105 7.79827" stroke="#26333B" stroke-width="1.5" stroke-linecap="round" stroke-linejoin="round"/>
  <path d="M7.57715 15.8227C10.0251 13.3937 13.9739 13.3937 16.4218 15.8227" stroke="#26333B" stroke-width="1.5" stroke-linecap="round" stroke-linejoin="round"/>
  <path d="M19.411 12C18.6895 11.3423 17.8784 10.7903 17.002 10.3604" stroke="#26333B" stroke-width="1.5" stroke-linecap="round" stroke-linejoin="round"/>
  <path d="M6.99789 10.3604C6.12108 10.7902 5.30967 11.3423 4.58789 12" stroke="#26333B" stroke-width="1.5" stroke-linecap="round" stroke-linejoin="round"/>
  <path d="M14.2507 7.99854L11.7496 10.4996L10.249 8.99895" stroke="#26333B" stroke-width="1.5" stroke-linecap="round" stroke-linejoin="round"/>
</svg>