<svg xmlns="http://www.w3.org/2000/svg" width="24" height="24" viewBox="0 0 24 24" fill="none">
  <path d="M12.6592 6.98291V11.6358L16.3167 13.8658" stroke="#26333B" stroke-width="1.5" stroke-linecap="round" stroke-linejoin="round"/>
  <path d="M3.99707 9.99931C4.53519 5.18625 8.78419 1.66111 13.6139 2.02085C18.4435 2.3806 22.1234 6.49632 21.9425 11.336C21.7617 16.1757 17.7848 20.0052 12.9418 20.0035" stroke="#26333B" stroke-width="1.5" stroke-linecap="round" stroke-linejoin="round"/>
  <path d="M7.33117 16.335L5.66448 18.0027L4.66406 17.0022" stroke="#26333B" stroke-width="1.5" stroke-linecap="round" stroke-linejoin="round"/>
  <path fill-rule="evenodd" clip-rule="evenodd" d="M7.99859 21.0038H3.99693C2.8919 21.0038 1.99609 20.108 1.99609 19.003V15.0013C1.99609 13.8963 2.8919 13.0005 3.99693 13.0005H7.99859C9.10362 13.0005 9.99943 13.8963 9.99943 15.0013V19.003C9.99943 20.108 9.10362 21.0038 7.99859 21.0038Z" stroke="#26333B" stroke-width="1.5" stroke-linecap="round" stroke-linejoin="round"/>
</svg>