<svg xmlns="http://www.w3.org/2000/svg" width="24" height="24" viewBox="0 0 24 24" fill="none">
  <path d="M7.62793 13.867L11.2855 11.6371V6.98413" stroke="#26333B" stroke-width="1.5" stroke-linecap="round" stroke-linejoin="round"/>
  <path d="M10.9993 20.0035C6.15627 20.0052 2.17945 16.1757 1.99858 11.336C1.8177 6.49632 5.49757 2.3806 10.3272 2.02085C15.1569 1.66111 19.4059 5.18625 19.944 9.99931" stroke="#26333B" stroke-width="1.5" stroke-linecap="round" stroke-linejoin="round"/>
  <path fill-rule="evenodd" clip-rule="evenodd" d="M20.0035 21.0038H16.0018C14.8968 21.0038 14.001 20.108 14.001 19.003V15.0013C14.001 13.8963 14.8968 13.0005 16.0018 13.0005H20.0035C21.1085 13.0005 22.0043 13.8963 22.0043 15.0013V19.003C22.0043 20.108 21.1085 21.0038 20.0035 21.0038Z" stroke="#26333B" stroke-width="1.5" stroke-linecap="round" stroke-linejoin="round"/>
  <path d="M19.0028 16.0017L17.002 18.0025" stroke="#26333B" stroke-width="1.5" stroke-linecap="round" stroke-linejoin="round"/>
  <path d="M17.002 16.0017L19.0028 18.0025" stroke="#26333B" stroke-width="1.5" stroke-linecap="round" stroke-linejoin="round"/>
</svg>