<svg xmlns="http://www.w3.org/2000/svg" width="24" height="24" viewBox="0 0 24 24" fill="none">
  <path d="M2.99609 18.6278C4.09655 18.1276 5.49714 18.1276 6.59759 18.6278C7.69805 19.1281 9.09864 19.1281 10.1991 18.6278C11.2996 18.1276 12.7001 18.1276 13.8006 18.6278C14.9011 19.1281 16.3016 19.1281 17.4021 18.6278C18.5026 18.1276 19.9031 18.1276 21.0036 18.6278" stroke="#26333B" stroke-width="1.5" stroke-linecap="round" stroke-linejoin="round"/>
  <path d="M6.59766 21.6291C7.69811 22.1293 9.0987 22.1293 10.1992 21.6291C11.2996 21.1289 12.7002 21.1289 13.8007 21.6291C14.9011 22.1293 16.3017 22.1293 17.4022 21.6291" stroke="#26333B" stroke-width="1.5" stroke-linecap="round" stroke-linejoin="round"/>
  <path fill-rule="evenodd" clip-rule="evenodd" d="M14.001 12.0002V3.73772C14.001 2.87736 15.1174 2.53922 15.5946 3.25552L20.5227 10.6486C20.9089 11.2258 20.4947 12.0002 19.7994 12.0002H14.001Z" stroke="#26333B" stroke-width="1.5" stroke-linecap="round" stroke-linejoin="round"/>
  <path d="M10.9991 15.0014V2.95034C10.9991 2.00795 9.77657 1.63779 9.25336 2.42212L3.85611 10.5185C3.43393 11.1518 3.88712 12.0001 4.64844 12.0001H10.9991" stroke="#26333B" stroke-width="1.5" stroke-linecap="round" stroke-linejoin="round"/>
  <path d="M19.9028 18.3028L21.0033 15.0015H3.74609L5.39078 18.2918" stroke="#26333B" stroke-width="1.5" stroke-linecap="round" stroke-linejoin="round"/>
</svg>