<svg xmlns="http://www.w3.org/2000/svg" width="24" height="24" viewBox="0 0 24 24" fill="none">
  <path d="M13.495 10.3603C14.3276 11.1929 14.3276 12.5428 13.495 13.3754C12.6624 14.208 11.3125 14.208 10.4799 13.3754C9.64732 12.5428 9.64732 11.1929 10.4799 10.3603C11.3125 9.52769 12.6624 9.52769 13.495 10.3603" stroke="#26333B" stroke-width="1.5" stroke-linecap="round" stroke-linejoin="round"/>
  <path d="M2 18.5H4.75" stroke="#26333B" stroke-width="1.5" stroke-linecap="round" stroke-linejoin="round"/>
  <path d="M2 12C2 6.477 6.477 2 12 2C17.523 2 22 6.477 22 12" stroke="#26333B" stroke-width="1.5" stroke-linecap="round" stroke-linejoin="round"/>
  <path d="M12 2V4" stroke="#26333B" stroke-width="1.5" stroke-linecap="round" stroke-linejoin="round"/>
  <path d="M19.0703 4.92993L18.0703 5.92993" stroke="#26333B" stroke-width="1.5" stroke-linecap="round" stroke-linejoin="round"/>
  <path d="M4.92969 4.92993L5.92969 5.92993" stroke="#26333B" stroke-width="1.5" stroke-linecap="round" stroke-linejoin="round"/>
  <path d="M2 12H4" stroke="#26333B" stroke-width="1.5" stroke-linecap="round" stroke-linejoin="round"/>
  <path d="M22 12H20" stroke="#26333B" stroke-width="1.5" stroke-linecap="round" stroke-linejoin="round"/>
  <path d="M15.9902 7.86011L13.4902 10.3601" stroke="#26333B" stroke-width="1.5" stroke-linecap="round" stroke-linejoin="round"/>
  <path d="M21.9996 16.0039H18.4316V20.9999V18.4999" stroke="#26333B" stroke-width="1.5" stroke-linecap="round" stroke-linejoin="round"/>
  <path d="M5.568 20.9999H2V16.0039H5.568" stroke="#26333B" stroke-width="1.5" stroke-linecap="round" stroke-linejoin="round"/>
  <path d="M18.4297 18.5H21.1797" stroke="#26333B" stroke-width="1.5" stroke-linecap="round" stroke-linejoin="round"/>
</svg>