<svg xmlns="http://www.w3.org/2000/svg" width="24" height="24" viewBox="0 0 24 24" fill="none">
  <path d="M5.99734 13.1536C4.15958 13.9779 2.99609 15.1704 2.99609 16.502C2.99609 18.988 7.02677 21.0038 11.9998 21.0038C16.9729 21.0038 21.0036 18.988 21.0036 16.502C21.0036 15.1704 19.8401 13.9779 18.0023 13.1536" stroke="white" stroke-width="1.5" stroke-linecap="round" stroke-linejoin="round"/>
  <path d="M14.2012 3.90979C15.0931 4.8016 15.3599 6.14285 14.8773 7.30809C14.3946 8.47334 13.2576 9.23311 11.9963 9.23311C10.7351 9.23311 9.59802 8.47334 9.11537 7.30809C8.63273 6.14285 8.89954 4.8016 9.7914 3.90979C10.3761 3.32478 11.1692 2.99609 11.9963 2.99609C12.8234 2.99609 13.6166 3.32478 14.2012 3.90979" stroke="white" stroke-width="1.5" stroke-linecap="round" stroke-linejoin="round"/>
  <path d="M12.0002 9.23096V15.0014" stroke="white" stroke-width="1.5" stroke-linecap="round" stroke-linejoin="round"/>
</svg>