<svg xmlns="http://www.w3.org/2000/svg" width="24" height="24" viewBox="0 0 24 24" fill="none">
  <path fill-rule="evenodd" clip-rule="evenodd" d="M17.0021 21.0039H6.9979C5.89287 21.0039 4.99707 20.108 4.99707 19.003V12.0001C4.99707 10.8951 5.89287 9.99927 6.9979 9.99927H17.0021C18.1071 9.99927 19.0029 10.8951 19.0029 12.0001V19.003C19.0029 20.108 18.1071 21.0039 17.0021 21.0039Z" stroke="#26333B" stroke-width="1.5" stroke-linecap="round" stroke-linejoin="round"/>
  <path d="M7.99805 9.99925V6.998V6.998C7.99805 4.78795 9.78965 2.99634 11.9997 2.99634V2.99634C14.2098 2.99634 16.0014 4.78795 16.0014 6.998V6.998V9.99925" stroke="#26333B" stroke-width="1.5" stroke-linecap="round" stroke-linejoin="round"/>
  <path d="M10.3156 15.4326C10.2775 15.4326 10.2466 15.4635 10.2466 15.5017C10.2466 15.5398 10.2775 15.5707 10.3156 15.5707C10.3538 15.5707 10.3847 15.5398 10.3847 15.5017C10.3847 15.4834 10.3774 15.4658 10.3644 15.4529C10.3515 15.4399 10.3339 15.4326 10.3156 15.4326" stroke="#26333B" stroke-width="1.5" stroke-linecap="round" stroke-linejoin="round"/>
  <path d="M13.6157 15.5017C13.6157 15.5398 13.6467 15.5707 13.6848 15.5707C13.7229 15.5707 13.7538 15.5398 13.7538 15.5017C13.7538 15.4635 13.7229 15.4326 13.6848 15.4326C13.6665 15.4326 13.6489 15.4399 13.636 15.4529C13.623 15.4658 13.6157 15.4834 13.6157 15.5017" stroke="#26333B" stroke-width="1.5" stroke-linecap="round" stroke-linejoin="round"/>
</svg>