<svg width="18" height="13" viewBox="0 0 18 13" fill="currentColor" xmlns="http://www.w3.org/2000/svg">
<path d="M14.9062 4.5H14.4844L11.6104 0.94043C11.2939 0.544922 10.8193 0.28125 10.292 0.28125H4.64941C3.96387 0.28125 3.33105 0.703125 3.06738 1.3623L1.82812 4.5V4.5791C1.08984 4.76367 0.5625 5.42285 0.5625 6.1875V9.14062C0.5625 9.37793 0.74707 9.5625 0.984375 9.5625H2.25C2.25 10.9863 3.35742 12.0938 4.78125 12.0938C6.17871 12.0938 7.3125 10.9863 7.3125 9.5625H10.6875C10.6875 10.9863 11.7949 12.0938 13.2188 12.0938C14.6162 12.0938 15.75 10.9863 15.75 9.5625H17.0156C17.2266 9.5625 17.4375 9.37793 17.4375 9.14062V7.03125C17.4375 5.63379 16.3037 4.5 14.9062 4.5ZM7.94531 1.54688H10.292C10.4238 1.54688 10.5293 1.62598 10.6084 1.70508L12.8496 4.5H7.94531V1.54688ZM4.25391 1.83691C4.30664 1.65234 4.46484 1.54688 4.64941 1.54688H6.67969V4.5H3.17285L4.25391 1.83691ZM4.78125 10.8281C4.06934 10.8281 3.51562 10.2744 3.51562 9.5625C3.51562 8.87695 4.06934 8.29688 4.78125 8.29688C5.4668 8.29688 6.04688 8.87695 6.04688 9.5625C6.04688 10.2744 5.4668 10.8281 4.78125 10.8281ZM13.2188 10.8281C12.5068 10.8281 11.9531 10.2744 11.9531 9.5625C11.9531 8.87695 12.5068 8.29688 13.2188 8.29688C13.9043 8.29688 14.4844 8.87695 14.4844 9.5625C14.4844 10.2744 13.9043 10.8281 13.2188 10.8281ZM16.1719 8.29688H15.3809C14.959 7.55859 14.1416 7.03125 13.2188 7.03125C12.2695 7.03125 11.4521 7.55859 11.0303 8.29688H6.94336C6.52148 7.55859 5.7041 7.03125 4.78125 7.03125C3.83203 7.03125 3.01465 7.55859 2.59277 8.29688H1.82812V6.1875C1.82812 5.97656 2.0127 5.76562 2.25 5.76562H14.9062C15.5918 5.76562 16.1719 6.3457 16.1719 7.03125V8.29688Z" />
</svg>