<svg xmlns="http://www.w3.org/2000/svg" width="24" height="24" viewBox="0 0 24 24" fill="none">
  <path d="M14.5312 14.5342V11.7129C14.5312 11.4756 14.4785 11.2383 14.373 11.0273L12.3164 6.22852C12.1055 5.75391 11.6572 5.4375 11.1562 5.4375H7.35938C6.64746 5.4375 6.09375 6.01758 6.09375 6.70312V9.65625H4.82812C4.11621 9.65625 3.5625 10.2363 3.5625 10.9219V16.4062C3.5625 17.8037 4.69629 18.9375 6.09375 18.9375C7.49121 18.9375 8.625 17.8037 8.625 16.4062H10.3125C10.3125 17.8037 11.4463 18.9375 12.8438 18.9375C14.2412 18.9375 15.375 17.8037 15.375 16.4062C15.375 15.668 15.0322 15.0088 14.5312 14.5342ZM7.35938 6.70312H11.1562L13.2129 11.5283C13.2393 11.5811 13.2656 11.6338 13.2656 11.7129V11.7656H10.0488C9.81152 11.7656 9.57422 11.6865 9.38965 11.5547L7.35938 9.94629V6.70312ZM6.09375 17.6719C5.38184 17.6719 4.82812 17.1182 4.82812 16.4062C4.82812 15.7207 5.38184 15.1406 6.09375 15.1406C6.7793 15.1406 7.35938 15.7207 7.35938 16.4062C7.35938 17.1182 6.7793 17.6719 6.09375 17.6719ZM10.6553 15.1406H8.25586C7.83398 14.4023 7.0166 13.875 6.09375 13.875C5.61914 13.875 5.19727 14.0332 4.82812 14.2441V10.9219H6.54199L8.59863 12.5566C9.02051 12.873 9.52148 13.0312 10.0488 13.0312H13.2656V13.9277C13.1074 13.9014 12.9756 13.875 12.8438 13.875C11.8945 13.875 11.0771 14.4023 10.6553 15.1406ZM12.8438 17.6719C12.1318 17.6719 11.5781 17.1182 11.5781 16.4062C11.5781 15.7207 12.1318 15.1406 12.8438 15.1406C13.5293 15.1406 14.1094 15.7207 14.1094 16.4062C14.1094 17.1182 13.5293 17.6719 12.8438 17.6719ZM20.0156 15.9844H17.4844V5.85938C17.4844 5.64844 17.2734 5.4375 17.0625 5.4375H16.6406C16.4033 5.4375 16.2188 5.64844 16.2188 5.85938V16.8281C16.2188 17.0654 16.4033 17.25 16.6406 17.25H20.0156C20.2266 17.25 20.4375 17.0654 20.4375 16.8281V16.4062C20.4375 16.1953 20.2266 15.9844 20.0156 15.9844Z" fill="white"/>
</svg>