<svg width="18" height="14" viewBox="0 0 18 14" fill="currentColor" xmlns="http://www.w3.org/2000/svg">
<path d="M11.5312 9.53418V6.71289C11.5312 6.47559 11.4785 6.23828 11.373 6.02734L9.31641 1.22852C9.10547 0.753906 8.65723 0.4375 8.15625 0.4375H4.35938C3.64746 0.4375 3.09375 1.01758 3.09375 1.70312V4.65625H1.82812C1.11621 4.65625 0.5625 5.23633 0.5625 5.92188V11.4062C0.5625 12.8037 1.69629 13.9375 3.09375 13.9375C4.49121 13.9375 5.625 12.8037 5.625 11.4062H7.3125C7.3125 12.8037 8.44629 13.9375 9.84375 13.9375C11.2412 13.9375 12.375 12.8037 12.375 11.4062C12.375 10.668 12.0322 10.0088 11.5312 9.53418ZM4.35938 1.70312H8.15625L10.2129 6.52832C10.2393 6.58105 10.2656 6.63379 10.2656 6.71289V6.76562H7.04883C6.81152 6.76562 6.57422 6.68652 6.38965 6.55469L4.35938 4.94629V1.70312ZM3.09375 12.6719C2.38184 12.6719 1.82812 12.1182 1.82812 11.4062C1.82812 10.7207 2.38184 10.1406 3.09375 10.1406C3.7793 10.1406 4.35938 10.7207 4.35938 11.4062C4.35938 12.1182 3.7793 12.6719 3.09375 12.6719ZM7.65527 10.1406H5.25586C4.83398 9.40234 4.0166 8.875 3.09375 8.875C2.61914 8.875 2.19727 9.0332 1.82812 9.24414V5.92188H3.54199L5.59863 7.55664C6.02051 7.87305 6.52148 8.03125 7.04883 8.03125H10.2656V8.92773C10.1074 8.90137 9.97559 8.875 9.84375 8.875C8.89453 8.875 8.07715 9.40234 7.65527 10.1406ZM9.84375 12.6719C9.13184 12.6719 8.57812 12.1182 8.57812 11.4062C8.57812 10.7207 9.13184 10.1406 9.84375 10.1406C10.5293 10.1406 11.1094 10.7207 11.1094 11.4062C11.1094 12.1182 10.5293 12.6719 9.84375 12.6719ZM17.0156 10.9844H14.4844V0.859375C14.4844 0.648438 14.2734 0.4375 14.0625 0.4375H13.6406C13.4033 0.4375 13.2188 0.648438 13.2188 0.859375V11.8281C13.2188 12.0654 13.4033 12.25 13.6406 12.25H17.0156C17.2266 12.25 17.4375 12.0654 17.4375 11.8281V11.4062C17.4375 11.1953 17.2266 10.9844 17.0156 10.9844Z"/>
</svg>
