<svg width="24" height="24" viewBox="0 0 24 24" fill="none" xmlns="http://www.w3.org/2000/svg">
<g id="Group">
<g id="Group_2">
<path id="Path" fill-rule="evenodd" clip-rule="evenodd" d="M18.429 19H5.571C4.151 19 3 17.849 3 16.429V7.571C3 6.151 4.151 5 5.571 5H18.428C19.849 5 21 6.151 21 7.571V16.428C21 17.849 19.849 19 18.429 19Z" stroke="#8E969B" stroke-width="1.5" stroke-linecap="round" stroke-linejoin="round"/>
<path id="Path_2" d="M12 9V8" stroke="#8E969B" stroke-width="1.5" stroke-linecap="round" stroke-linejoin="round"/>
<path id="Path_3" d="M12 15V16" stroke="#8E969B" stroke-width="1.5" stroke-linecap="round" stroke-linejoin="round"/>
<path id="Path_4" d="M10.264 14.286C10.523 14.71 10.965 15.004 11.5 15.004H12H12.596C13.372 15.004 14 14.375 14 13.6C14 12.956 13.562 12.395 12.937 12.238L11.062 11.768C10.438 11.61 10 11.048 10 10.404C10 9.629 10.629 9 11.404 9H12H12.5C13.033 9 13.474 9.292 13.734 9.714" stroke="#8E969B" stroke-width="1.5" stroke-linecap="round" stroke-linejoin="round"/>
</g>
</g>
</svg>
